<svg version="1.1" id="Layer_1" xmlns="http://www.w3.org/2000/svg" xmlns:xlink="http://www.w3.org/1999/xlink" x="0px" y="0px"
	 width="845.7px" height="244.2px" viewBox="0 0 845.7 244.2" enable-background="new 0 0 845.7 244.2" xml:space="preserve" preserveAspectRatio="none">
<path class="elementor-shape-fill ha-shape-divider" opacity="0.2" fill="#FFFFFF" enable-background="new    " d="M0,0l0,104.6c0,22.4,18.9,40.1,41.3,38.6
	c3.7-0.2,7.5-0.4,11.5-0.4c45,0,105,60.2,156.2,55.9c51.2-4.3,58-27.1,69.3-50.2c9.5-19.5,29.5-47.7,59.3-47.7
	c48.2,0,68.9,34.5,114.9,44.8s108.2-14.1,155.1,1.5c46.9,15.6,72.8,37.9,90.5,65.6c17.7,27.7,38.3,35.4,65.1,29.8
	c26.8-5.7,42.6-33.7,46-47.2c2.5-10.1,9.8-30.5,22.3-44.3c9-9.9,14.2-22.7,14.2-36V0.1L0,0L0,0z M783,179.2
	c-1.1,4.5-4.6,8.8-10.1,10.8c-5,1.8-11,1.3-16.1-0.4c-5-1.7-9.3-4.5-13.1-7.4c-14.1-10.8-24.4-24-34.1-37.2
	c-4.5-6.2-9.1-13.1-7.2-20c1.4-5,6.1-9.3,12-11.8c7.3-3.2,18.7-5.2,26.3-1.6c13.1,6.3,22.6,14,29.6,24.6c6.1,9.3,9.6,19.3,12,29.5
	C783.3,170.1,784.1,174.7,783,179.2z"/>
<path class="elementor-shape-fill ha-shape-divider" fill="#FFFFFF" d="M0,0l0,94c46.6-28.5,83,7.5,83,7.5s20.2,28,56,33s73.6-7.5,134.3-42s105.3-20.5,127.6-8
	c22.3,12.5,56,30,93.1,30s44.5-36,44.5-36s6.7-53.5,39.8-59S637.7,41,658.6,61s50.6,15.5,100.6,9.5c50-6,86.5,19.5,86.5,19.5V0L0,0z
	 M197,98.1c-14.8,5.3-33.9,18.4-62.1,13.1c-28.2-5.3-37.9-44,15.8-30.1c0,0,16.7,8.5,33,0s25.3-12.8,36.8-7.4S211.8,92.8,197,98.1z"
	/>
</svg>
