<svg  xmlns="http://www.w3.org/2000/svg" viewBox="0 0 4080 380" preserveAspectRatio="none">
<rect display="none" width="4080" height="380"/>
<g>
	<polygon points="1633,261.8 1625.7,263.5 1634.3,268.5 1636.6,268 	"/>
	<polygon points="1636.4,279.2 1634.3,278.7 1625.6,283.7 1632.9,285.4 	"/>
	<polygon points="1633.3,270.5 1624.7,265.5 1626.8,272.4 1633.9,272.4 	"/>
	<polygon points="1622.8,285.3 1617,288.6 1629.3,291.5 1631.7,287.4 	"/>
	<polygon points="1624.4,272.3 1621.9,263.9 1616.1,260.6 1619.6,272.3 	"/>
	<polygon points="1633.3,276.8 1634,274.5 1634,274.5 1626.9,274.5 1624.7,281.7 	"/>
	<polygon points="1624.6,274.5 1619.8,274.5 1616.2,286.6 1622,283.3 	"/>
	<path class="elementor-shape-fill ha-shape-divider" d="M661.4,193.2c-1.3-0.1-2.6-0.2-3.8-0.3c0.1,1.1,0.4,2.1,0.7,3.1C658.3,196,659.3,194.9,661.4,193.2z"/>
	<polygon points="1631.3,292.6 1639.9,301.7 1639.9,295 1633.7,288.4 	"/>
	<path class="elementor-shape-fill ha-shape-divider" d="M1164.4,176.5c0.1,0.1,0.2,0.1,0.3,0.1s0.1,0,0.2,0c0.2,0,0.3-0.1,0.4-0.3c0.2-0.3,0-0.7-0.3-0.9c-0.3-0.2-0.7,0-0.9,0.3
		C1163.9,176,1164,176.4,1164.4,176.5z"/>
	<path class="elementor-shape-fill ha-shape-divider" d="M639,201.4c4.8-0.9,9.7-1.7,14.5-2.6c-0.4-1.7-0.7-3.8-0.9-6.2c-9.6-0.5-19.1-0.6-28.6-0.4c0,0-5.8,2-13.7,4.4
		c5.7,1.1,11.4,2.3,17.1,3.3C631.3,200.6,635.1,201.1,639,201.4z"/>
	<path class="elementor-shape-fill ha-shape-divider" d="M560.8,196.8c0.1-0.1,0.2-0.3,0.3-0.4c-0.8,0.1-1.7,0.3-2.5,0.5C559.3,196.9,560.1,196.8,560.8,196.8z"/>
	<path class="elementor-shape-fill ha-shape-divider" d="M553.4,198.5c2.2,0.1,4.3,0.2,6.4,0.3c0.1-0.4,0.3-0.7,0.3-0.9c-0.5,0-1,0.1-1.5,0.1C556.8,198.1,555.1,198.1,553.4,198.5z
		"/>
	<polygon points="1631.9,259.9 1629.5,255.8 1617.2,258.7 1623,262 	"/>
	<path class="elementor-shape-fill ha-shape-divider" d="M1169.9,177c0.1,0.1,0.3,0.1,0.5,0.1c0.1,0,0.2-0.1,0.3-0.1c0.3-0.1,0.6-0.3,0.7-0.6c0.2-0.3,0.2-0.6,0.1-0.9
		s-0.3-0.6-0.6-0.7c-0.3-0.2-0.6-0.2-0.9-0.1c-0.3,0.1-0.6,0.3-0.7,0.6C1169,175.9,1169.2,176.6,1169.9,177z"/>
	<polygon points="1659,262 1664.8,258.7 1652.5,255.8 1650.1,259.9 	"/>
	<polygon points="1643.7,280.2 1642.1,281.9 1642.1,291.9 1647.3,286.4 	"/>
	<polygon points="1648.7,270.5 1648.1,272.4 1655.2,272.5 1657.3,265.5 	"/>
	<path class="elementor-shape-fill ha-shape-divider" d="M146.3,125.4l-3.4,2l-1.1,3.7l1,3.5l3.6,2c0.8-1.7,1.3-3.5,1.3-5.5S147.2,127.1,146.3,125.4z"/>
	<polygon points="1647.1,260.7 1642.1,255.4 1642.1,265.4 1643.5,266.9 	"/>
	<polygon points="1657.4,274.7 1660,283.2 1665.8,286.5 1662.2,274.8 	"/>
	<polygon points="1642.1,295.1 1642.1,301.7 1650.8,292.5 1648.4,288.4 	"/>
	<polygon points="1650.3,287.4 1652.7,291.5 1665,288.6 1659.2,285.3 	"/>
	<polygon points="1657.4,272.5 1662.2,272.6 1665.8,260.6 1660,263.9 	"/>
	<polygon points="1633.7,258.8 1639.9,252.3 1639.9,245.6 1631.3,254.7 	"/>
	<polygon points="1638.5,266.9 1639.9,265.4 1639.9,255.4 1634.9,260.7 	"/>
	<polygon points="1634.8,286.6 1639.9,292 1639.9,282 1638.3,280.3 	"/>
	<polygon points="1648.9,261.9 1645.3,268.1 1647.6,268.6 1656.2,263.6 	"/>
	<polygon points="1655.2,274.7 1648,274.6 1648.7,276.8 1657.3,281.7 	"/>
	<path class="elementor-shape-fill ha-shape-divider" d="M588.5,202.5c-6.5,1.4-12.6,2.5-17.1,2.5c0,0,0,0.4,0,1c5.4,0.7,10.8,1.5,16.3,1.8c10,0.6,19.9-0.8,29.9-2.5
		c-0.5-0.1-0.9-0.1-1.4-0.1C607.3,204.7,598,203.6,588.5,202.5z"/>
	<polygon points="1656.4,283.7 1647.7,278.7 1645.6,279.2 1649.1,285.4 	"/>
	<polygon points="1650.7,254.7 1642.1,245.5 1642.1,252.2 1648.3,258.8 	"/>
	<path class="elementor-shape-fill ha-shape-divider" d="M853.8,140l18.7,6.4c0.1,0,0.3,0,0.4,0l7.8-9.7L853.8,140z"/>
	<path class="elementor-shape-fill ha-shape-divider" d="M836.4,150.4c9-1.1,19.2-2.3,28.2-3.3l-16.5-5.6L836.4,150.4z"/>
	<path class="elementor-shape-fill ha-shape-divider" d="M1182,157.1c0.7,0,1.2-0.6,1.2-1.2c0-0.7-0.6-1.2-1.2-1.2s-1.2,0.5-1.2,1.2C1180.8,156.6,1181.4,157.1,1182,157.1z"/>
	<path class="elementor-shape-fill ha-shape-divider" d="M524.7,200.7c-0.2,0.5-0.5,1-0.8,1.4c-4,4.7-8,7.3-8.7,10.4c9.9-5.5,20.4-10,31.2-13.3
		C539.1,199.2,531.8,199.6,524.7,200.7z"/>
	<path class="elementor-shape-fill ha-shape-divider" d="M812.4,199.6c-0.9,0.3-1.7,0.5-2.5,0.7c-5,1.3-9.9,2.6-14.9,3.8c13.8,1.5,27.6,1.2,40.5-4.4c-0.1-0.3-0.1-0.6,0-0.9
		c0.1-0.2,0.3-0.6,0.6-1C828.1,196.8,820.2,197.9,812.4,199.6z"/>
	<path class="elementor-shape-fill ha-shape-divider" d="M1205.2,157.1c0.7,0,1.2-0.6,1.2-1.2c0-0.7-0.6-1.2-1.2-1.2c-0.7,0-1.2,0.5-1.2,1.2C1204,156.6,1204.5,157.1,1205.2,157.1z
		"/>
	<path class="elementor-shape-fill ha-shape-divider" d="M1208,151.6c0.4,0,0.7-0.3,0.7-0.7c0-0.4-0.3-0.7-0.7-0.7s-0.7,0.3-0.7,0.7C1207.3,151.3,1207.6,151.6,1208,151.6z"/>
	<path class="elementor-shape-fill ha-shape-divider" d="M834.8,191.2c-2,2.6-3.7,3.2-4.9,2.9c-2.9,1.2-5.8,2.2-8.7,3.1c5.1-0.7,10.4-0.9,15.6-0.2c2.2-2.6,6.8-6.8,11.5-8.3
		c-0.2-0.1-0.3-0.3-0.5-0.4C843.5,187.7,837.5,187.6,834.8,191.2z"/>
	<path class="elementor-shape-fill ha-shape-divider" d="M769.7,206c2.3,0,4.6-0.2,6.8-0.4c2.5-0.7,4.9-1.5,7.4-2.3c-7.1-1.2-14.2-2.7-21-4c-12.1-2.3-24.3-4.1-36.7-3.2
		c-0.3,0-0.5,0-0.6,0c0,0.6,0.1,1.2,0.1,1.9c0,0-1.8,0.6-4.8,1.6c4.1,1.1,8.1,2.1,12.2,2.9C745.1,204.9,757.4,206.3,769.7,206z"/>
	<path class="elementor-shape-fill ha-shape-divider" d="M740.4,206.8c-8.3-1.6-16.5-3.6-24.8-5.5c-5.5,1.7-12.8,3.9-20,5.7c10.9,2.8,21.6,5.5,32.9,5.9c11.6,0.4,23.3-1.2,34.6-3.8
		c0.8-0.1,1.6-0.3,2.4-0.6C757.1,208.9,748.8,208.4,740.4,206.8z"/>
	<path class="elementor-shape-fill ha-shape-divider" d="M815.4,144.7l10.1,7c1.4-0.1,2.9-0.3,4.5-0.5l13-9.9L815.4,144.7z"/>
	<path class="elementor-shape-fill ha-shape-divider" d="M812.2,198.7c5.6-1.5,11.2-3.1,16.5-5.2c-1-0.7-1.5-2-1.3-2.8c0.2-0.5,1-1.6,2.3-3c-13.9,5.2-27.8,10.7-42,15.4
		c1,0.2,2.1,0.4,3.1,0.5c4.7-1,9.4-2,14.1-3.2C807.3,199.8,809.8,199.2,812.2,198.7z"/>
	<path class="elementor-shape-fill ha-shape-divider" d="M781.6,205.1c2.2-0.3,4.3-0.7,6.5-1c-0.7-0.2-1.5-0.3-2.2-0.4C784.5,204.2,783,204.7,781.6,205.1z"/>
	<path class="elementor-shape-fill ha-shape-divider" d="M775.9,206.8c1.4-0.2,2.7-0.4,4.1-0.6c-1,0.1-2,0.2-3,0.3C776.6,206.6,776.3,206.7,775.9,206.8z"/>
	<path class="elementor-shape-fill ha-shape-divider" d="M760.4,206.9c-11.9-0.4-23.6-2.3-35.1-5c-2.1-0.5-4.2-1-6.3-1.6c-0.5,0.1-1.1,0.3-1.6,0.5c9.5,2.3,19.1,4.7,28.8,6.1
		c7.9,1.1,15.9,1.2,23.8,0.5c0.8-0.2,1.6-0.4,2.4-0.6C768.4,207,764.4,207.1,760.4,206.9z"/>
	<path class="elementor-shape-fill ha-shape-divider" d="M1197.3,175.3c0,0.5-0.1,1-0.3,1.4l7,4l-1.6-5.2c0-0.1,0-0.3,0-0.4l1.6-5.2l-7,4C1197.2,174.4,1197.3,174.8,1197.3,175.3z"
		/>
	<path class="elementor-shape-fill ha-shape-divider" d="M1203.3,168.7l-5.3-1.3c-0.2,0-0.3-0.1-0.4-0.2l-3.7-4v8.1c1,0.2,1.8,0.7,2.4,1.4L1203.3,168.7z"/>
	<path class="elementor-shape-fill ha-shape-divider" d="M1193.9,179.2v8.1l3.7-3.9c0.1-0.1,0.3-0.2,0.4-0.2l5.3-1.4l-7-4C1195.7,178.5,1194.8,179,1193.9,179.2z"/>
	<path class="elementor-shape-fill ha-shape-divider" d="M1183,181.9l5.4,1.3c0.2,0,0.3,0.1,0.4,0.2l3.7,4v-8.1c-1-0.2-1.8-0.7-2.4-1.4L1183,181.9z"/>
	<path class="elementor-shape-fill ha-shape-divider" d="M1188.4,167.4l-5.3,1.4l7,4c0.6-0.7,1.4-1.2,2.4-1.4v-8.1l-3.7,3.9C1188.7,167.3,1188.5,167.4,1188.4,167.4z"/>
	<path class="elementor-shape-fill ha-shape-divider" d="M514.9,214.7c1.4,1.6,2.6,3.4,3.2,5.8c0.5-0.2,1.1-0.4,1.6-0.7c7.2-3.5,13.1-9.2,19.4-14.2c-4,0.6-8,1.5-11.8,2.9
		C522.9,210.1,518.9,212.3,514.9,214.7z"/>
	<path class="elementor-shape-fill ha-shape-divider" d="M1215.5,174.7c-0.3,0.2-0.5,0.4-0.6,0.7c-0.1,0.3,0,0.6,0.1,0.9c0.2,0.3,0.4,0.5,0.7,0.6c0.3,0.1,0.6,0,0.9-0.1
		c0.5-0.2,0.7-0.9,0.5-1.6C1216.8,174.6,1216.1,174.4,1215.5,174.7z"/>
	<path class="elementor-shape-fill ha-shape-divider" d="M1221.9,175.3c-0.2,0-0.3,0-0.5,0.1c-0.4,0.2-0.5,0.6-0.3,0.9c0.1,0.3,0.4,0.4,0.6,0.4c0.1,0,0.2,0,0.3-0.1
		c0.3-0.2,0.5-0.6,0.3-1C1222.2,175.5,1222.1,175.4,1221.9,175.3z"/>
	<path class="elementor-shape-fill ha-shape-divider" d="M624.3,200.2c-5.3-1-10.6-2.1-15.9-3.1c-5.3,1.6-11.3,3.3-17.2,4.7c9.6,1.1,19.2,2.1,28.8,2.6c0.5,0.1,1,0.1,1.5,0.1
		c1.3-0.2,2.5-0.4,3.9-0.7c3.5-0.7,6.9-1.3,10.4-1.9C631.9,201.5,628.1,200.9,624.3,200.2z"/>
	<path class="elementor-shape-fill ha-shape-divider" d="M639.1,202.4c-4.4,0.7-8.8,1.5-13.2,2.3c12,0.4,23.9,0.1,35.9-0.7c0.1-0.2,0.2-0.4,0.3-0.6c-1.7,0-3.3-0.1-5-0.1
		C651,203.2,645,203,639.1,202.4z"/>
	<path class="elementor-shape-fill ha-shape-divider" d="M1179.2,199.3c-0.4,0-0.7,0.3-0.7,0.7c0,0.4,0.3,0.7,0.7,0.7s0.7-0.3,0.7-0.7C1179.9,199.6,1179.6,199.3,1179.2,199.3z"/>
	<path class="elementor-shape-fill ha-shape-divider" d="M1179.2,151.6c0.4,0,0.7-0.3,0.7-0.7c0-0.4-0.3-0.7-0.7-0.7c-0.4,0-0.7,0.3-0.7,0.7
		C1178.5,151.3,1178.8,151.6,1179.2,151.6z"/>
	<path class="elementor-shape-fill ha-shape-divider" d="M1205.2,193.8c-0.7,0-1.2,0.6-1.2,1.2c0,0.7,0.6,1.2,1.2,1.2c0.6,0,1.1-0.5,1.2-1.2
		C1206.4,194.3,1205.9,193.8,1205.2,193.8z"/>
	<path class="elementor-shape-fill ha-shape-divider" d="M1208,199.3c-0.4,0-0.7,0.3-0.7,0.7c0,0.4,0.3,0.7,0.7,0.7c0.3,0,0.7-0.3,0.7-0.7C1208.7,199.6,1208.4,199.3,1208,199.3z"
		/>
	<path class="elementor-shape-fill ha-shape-divider" d="M1189.3,175.4c0-0.5,0-1,0.2-1.4l-7-4l1.5,5.1c0,0.1,0,0.3,0,0.4l-1.4,5.1l6.9-3.9C1189.4,176.3,1189.3,175.9,1189.3,175.4
		z"/>
	<path class="elementor-shape-fill ha-shape-divider" d="M1182,193.8c-0.7,0-1.2,0.6-1.2,1.2c0,0.7,0.6,1.2,1.2,1.2s1.1-0.5,1.2-1.2C1183.2,194.3,1182.6,193.8,1182,193.8z"/>
	<path class="elementor-shape-fill ha-shape-divider" d="M3938.6,251.2c-0.4,0-0.7,0.3-0.7,0.7c0,0.4,0.3,0.7,0.7,0.7c0.3,0,0.6-0.3,0.7-0.7C3939.3,251.5,3939,251.2,3938.6,251.2z
		"/>
	<path class="elementor-shape-fill ha-shape-divider" d="M127.5,112.8c-0.3-0.5-0.9-0.9-1.5-1.1c-0.4-0.1-0.8-0.1-1.2-0.1l2.3,4c0.3-0.3,0.5-0.6,0.6-1
		C127.9,114,127.8,113.4,127.5,112.8z"/>
	<path class="elementor-shape-fill ha-shape-divider" d="M128.6,131.2l-1.1-3.7l-3.4-2c-0.9,1.7-1.4,3.6-1.4,5.6s0.5,3.9,1.3,5.6l3.5-2L128.6,131.2z"/>
	<path class="elementor-shape-fill ha-shape-divider" d="M3941.4,209c0.7,0,1.2-0.6,1.2-1.2c0-0.7-0.6-1.2-1.2-1.2c-0.7,0-1.2,0.5-1.2,1.2S3940.8,209,3941.4,209z"/>
	<path class="elementor-shape-fill ha-shape-divider" d="M3967.3,251.2c-0.4,0-0.7,0.3-0.7,0.7c0,0.4,0.3,0.7,0.7,0.7s0.7-0.3,0.7-0.7C3968,251.5,3967.7,251.2,3967.3,251.2z"/>
	<path class="elementor-shape-fill ha-shape-divider" d="M3942.3,233.9l5.4,1.3c0.2,0,0.3,0.1,0.4,0.2l3.7,4v-8.1c-1-0.2-1.8-0.7-2.4-1.4L3942.3,233.9z"/>
	<path class="elementor-shape-fill ha-shape-divider" d="M3947.8,219.4l-5.3,1.4l7,4c0.6-0.7,1.4-1.2,2.4-1.4v-8.1l-3.7,3.9C3948.1,219.3,3947.9,219.4,3947.8,219.4z"/>
	<polygon points="2721.7,224.5 2719.8,221.3 2710.3,223.5 2714.8,226.1 	"/>
	<path class="elementor-shape-fill ha-shape-divider" d="M123.1,113.4c-0.2,0.7-0.1,1.3,0.2,1.9c0.4,0.8,1.3,1.2,2.1,1.2c0.2,0,0.3-0.1,0.6-0.1l-2.3-4
		C123.4,112.7,123.2,113,123.1,113.4z"/>
	<path class="elementor-shape-fill ha-shape-divider" d="M3938.6,203.5c0.4,0,0.7-0.3,0.7-0.7c0-0.4-0.3-0.7-0.7-0.7c-0.4,0-0.7,0.3-0.7,0.7
		C3937.9,203.2,3938.2,203.5,3938.6,203.5z"/>
	<path class="elementor-shape-fill ha-shape-divider" d="M125,150.6c0.2,0.1,0.3,0.1,0.5,0.1c0.8,0,1.7-0.4,2.1-1.2c0.6-0.9,0.4-2.1-0.3-2.9L125,150.6z"/>
	<path class="elementor-shape-fill ha-shape-divider" d="M128.1,136l-3.4,1.9c2.2,3.3,5.8,5.5,9.8,5.8v-4l-2.6-2.8L128.1,136z"/>
	<path class="elementor-shape-fill ha-shape-divider" d="M550.9,199.3c-3.1,1.2-5.9,3-8.6,5c3.2-0.3,6.5-0.4,9.8-0.3c2.5,0.1,5,0.3,7.6,0.6c-0.3-1.7-0.3-3.3,0-4.9
		C556.7,199.5,553.8,199.4,550.9,199.3z"/>
	<path class="elementor-shape-fill ha-shape-divider" d="M3941.4,245.8c-0.7,0-1.2,0.6-1.2,1.2c0,0.7,0.6,1.2,1.2,1.2s1.1-0.5,1.2-1.2C3942.6,246.3,3942,245.8,3941.4,245.8z"/>
	<path class="elementor-shape-fill ha-shape-divider" d="M123.4,147.1c-0.3,0.6-0.4,1.3-0.2,1.9c0.1,0.4,0.3,0.7,0.5,0.9l2.3-4C125,145.7,123.9,146.1,123.4,147.1z"/>
	<path class="elementor-shape-fill ha-shape-divider" d="M653.7,199.7c-0.2,0-0.4,0.1-0.7,0.1c-3.5,0.6-7,1.3-10.5,1.9c6.2,0.5,12.4,0.6,18.7,0.7c0.4,0,0.9,0,1.3,0
		c0.8-1.1,1.9-2.1,3.5-2.9l-8.4,2.4C655.9,202.4,654.2,201.4,653.7,199.7z"/>
	<path class="elementor-shape-fill ha-shape-divider" d="M3964.5,245.8c-0.7,0-1.2,0.6-1.2,1.2c0,0.7,0.6,1.2,1.2,1.2c0.7,0,1.2-0.5,1.2-1.2S3965.2,245.8,3964.5,245.8z"/>
	<path class="elementor-shape-fill ha-shape-divider" d="M147.1,115.1c0.5-0.9,0.4-2.1-0.3-2.8l-2.3,4C145.5,116.5,146.6,116.1,147.1,115.1z"/>
	<path class="elementor-shape-fill ha-shape-divider" d="M3929.3,228.9c0.1,0.1,0.3,0.1,0.5,0.1c0.1,0,0.2-0.1,0.3-0.1c0.3-0.1,0.6-0.3,0.7-0.6c0.2-0.3,0.2-0.6,0.1-0.9
		c-0.1-0.3-0.3-0.6-0.6-0.7c-0.3-0.2-0.6-0.2-0.9-0.1c-0.3,0.1-0.6,0.3-0.7,0.6C3928.4,227.8,3928.6,228.5,3929.3,228.9z"/>
	<path class="elementor-shape-fill ha-shape-divider" d="M145.5,111.5c-1-0.2-2.1,0.2-2.6,1.2c-0.6,1-0.4,2.1,0.3,2.8L145.5,111.5z"/>
	<path class="elementor-shape-fill ha-shape-divider" d="M3923.7,228.4c0.1,0.1,0.2,0.1,0.3,0.1c0.1,0,0.1,0,0.2,0c0.2,0,0.3-0.1,0.4-0.3c0.2-0.3,0-0.7-0.3-0.9s-0.7,0-0.9,0.3
		C3923.3,227.9,3923.4,228.3,3923.7,228.4z"/>
	<path class="elementor-shape-fill ha-shape-divider" d="M3513.7,0l5.1,0.1c2.8,0.1,5.3,1.8,6.3,4.4l0.5,1.3c0.5,1.3,0.7,2.6,0.6,4l-2,29.1c0,0,5.5,18.4,4.2,25.8
		c0,0,32.7-6.3,44.7,7.4l8.7-22.4c1.3-3.4,1.1-7.3-0.6-10.6l-10.5-20.4c-0.7-1.4-1.7-2.6-2.9-3.6L3563,11c0,0,9-1.7,11.7,3.9
		c3.8,7.9,18.2,32,18.2,32s1-17.5-3.6-31c-0.5-1.7-1.5-3.2-2.8-4.4l-8.2-7.8c0,0,8.3-2.3,12.5,1l0.9,1.4c2,3,3.2,6.3,3.6,9.8
		c0.9,7.4,2.9,21.1,6.8,31.1c1,2.4,0.6,5.1-0.9,7.2c-13.2,18.7-0.4,21,6.2,32.1c0.5-1,1-1.9,1.5-2.9c1.3-2.6,2.2-3.9,2.8-4.8
		c0.2-0.3,0.7-0.3,0.9,0.1c1.9,4.9,3.8,9.9,3.7,15.2c-0.1,4.4-1.7,8.8-4.4,12.3c-1.5,2.1-5.4,6.5-8.5,7c-5.2,5-14.4,9.5-29.7,6.6
		c-6.8-1.3-13.6-2.4-20.4-3.3c-10.1-1.4-23.2-0.1-34.5,0.5c-5.5,0.3-11-1.2-16.5-1.2c-6.1,0.1-8.3,3.7-9.2,9.4c-0.2,1.5-0.3,3,0,4.5
		c1.3,5.5,8.1,4.6,12.3,3.4c0,0,3.8-1.3,4.9,2.6c0,0,5.1,0.2,3.2,8.2c0,0-0.3,3.1-6,2.9c-5.7-0.1-10.2,2.2-11,4.9
		c0,0,10.3,1.2,11.6,10.8c-3.1-2.2-6.8-1.4-11-1.2c0.4,0.3,0.7,0.7,1.1,1.1c1.1,1.1,2.4,2.1,3.8,3.1s3,2,4.5,3
		c2.6,1.7,5.3,3.5,7.9,5.3c0.2,0,0.4-0.1,0.6-0.1c0.5-0.1,1-0.1,1.5-0.2c0.5,0,1-0.1,1.5-0.1c2-0.1,4,0.2,5.9,0.7s3.7,1.2,5.4,2.2
		c1.7,0.9,3.2,2.1,4.5,3.5c0.1,0.1,0.1,0.3,0,0.4c-0.1,0.1-0.2,0.1-0.3,0.1c-1.8-0.6-3.5-1.1-5.2-1.4c-1.7-0.4-3.4-0.6-5.1-0.6
		c-0.9-0.1-1.8,0-2.7,0c1.4,1.2,2.8,2.4,4.2,3.7c2.8,2.7,5.3,5.6,7.5,8.9c2.1,3.3,3.8,6.9,4.8,10.7c1,3.8,1.1,7.8,0.4,11.6
		c-0.3,1.9-0.9,3.8-1.7,5.5s-1.8,3.3-3.1,4.7l-0.4-0.3c1-1.5,1.7-3.2,2.2-4.9s0.8-3.4,0.9-5.2c0.2-3.5-0.3-7-1.5-10.3
		c-0.5-1.4-1.1-2.7-1.8-4c-0.2,1.6-0.6,3.3-1.1,4.9c-0.6,1.9-1.5,3.7-2.6,5.4c-1,1.7-2.3,3.2-3.7,4.5c-0.1,0.1-0.2,0.1-0.3,0
		c0-0.1,0-0.2,0-0.3c0.8-1.7,1.5-3.5,2-5.2c0.6-1.7,0.9-3.5,1.2-5.2c0.2-1.7,0.3-3.5,0.3-5.2c0.1-1.7-0.1-3.4-0.1-5.2
		c-1.9-2.2-4.1-4.3-6.4-6.1c-0.1-0.1-0.3-0.2-0.4-0.3c0.1,0.7,0.2,1.5,0.2,2.3c0.1,2.2-0.2,4.5-0.9,6.6c-0.6,2.1-1.7,4.1-2.9,5.9
		c-1.3,1.8-2.7,3.4-4.4,4.7c-0.1,0.1-0.2,0.1-0.3,0c0,0,0-0.1,0-0.2c1.1-1.8,2.1-3.6,2.8-5.4s1.2-3.7,1.5-5.6
		c0.2-1.9,0.2-3.8,0.1-5.7c-0.1-1.9-0.4-3.8-0.7-5.8c0-0.1,0-0.1,0-0.1c-2.9-1.9-6-3.7-9.2-5.5c0.2,1.6,0.2,3.2,0.1,4.8
		c-0.2,2.9-0.7,5.8-1.7,8.6c-1,2.8-2.3,5.4-4,7.8c-1.6,2.4-3.6,4.4-5.8,6.2c-0.1,0.1-0.3,0.1-0.4,0c-0.1-0.1-0.1-0.2,0-0.3
		c1.5-2.4,2.8-4.7,3.8-7.2c0.3-0.6,0.5-1.2,0.7-1.8c0.2-0.7,0.4-1.3,0.6-1.9s0.3-1.3,0.5-1.9l0.4-1.9c0.5-2.5,0.7-5.1,0.7-7.7
		c0-2.5-0.1-5-0.2-7.5c-1.3-0.6-2.5-1.3-3.8-2.1c-1.2-0.8-2.5-1.6-3.7-2.5c-0.1,0.5-0.2,0.9-0.4,1.4c-0.6,1.7-1.5,3.3-2.6,4.8
		c-1.1,1.4-2.4,2.7-3.8,3.8c-1.4,1.1-3,1.9-4.6,2.5c-0.1,0-0.3-0.1-0.3-0.2c0-0.1,0-0.2,0.1-0.3c1.1-1.3,2.1-2.6,3-3.9
		s1.6-2.7,2.2-4.1c0.6-1.4,1.1-2.8,1.5-4.2c0.4-1.3,0.6-2.6,0.9-3.9c-0.6-0.8-1.1-1.5-1.6-2.3c-0.7-1.3-1.3-2.6-1.7-4.1
		c-0.5-0.3-1.1-0.7-1.7-1.1c0,0-1.6,0-3.5-0.2c-0.7,0.8-1.5,1.6-2.3,2.2c-1.1,0.9-2.3,1.6-3.5,2.2c-1.1,0.6-2.3,1.1-3.5,1.6
		c-2.4,0.9-4.6,1.6-6.6,2.5c-0.4,0.2-0.8,0.4-1.2,0.6c0.4,0.8,0.8,1.6,1.1,2.5c0.6,1.6,0.8,3.4,0.8,5.1c0,1.7-0.3,3.4-0.8,5
		c-0.5,1.6-1.2,3.1-2.2,4.4c-0.1,0.2-0.3,0.2-0.4,0.1c-0.1,0-0.1-0.1-0.1-0.2c0.1-1.6,0.2-3.1,0.1-4.6c-0.1-1.4-0.3-2.8-0.6-4.2
		c-0.3-1.4-0.8-2.7-1.3-3.9c-0.2-0.7-0.5-1.3-0.8-1.9c-0.2,0.1-0.3,0.2-0.5,0.3c-1.9,1.2-3.7,2.5-5.3,4c-1.7,1.5-3.2,3.1-4.5,4.8
		c-1.2,1.7-2.3,3.5-2.9,5.3c-0.6,1.8-0.7,3.6-0.4,5.3c0.7,3.6,3.5,6.9,6.9,9.3c3.5,2.4,7.8,4.2,12.2,6.1c1.1,0.5,2.2,1,3.3,1.5
		c1.1,0.6,2.2,1.1,3.3,1.8c2.1,1.3,4.2,2.9,5.9,4.9c0.8,1,1.6,2.1,2.1,3.3c0.6,1.2,0.9,2.5,1.1,3.8c0.1,1.3,0.1,2.6-0.2,3.9
		c-0.3,1.2-0.8,2.4-1.6,3.4l-0.5-0.3c0.9-2.1,0.9-4.4,0.2-6.5c-0.3-1-0.8-2-1.4-2.9c-0.6-0.9-1.3-1.7-2.1-2.4
		c-1.6-1.5-3.5-2.6-5.5-3.5c-2-0.9-4.2-1.6-6.4-2.4c0.2,0.5,0.4,1,0.6,1.5c0.6,1.6,0.8,3.4,0.8,5.1s-0.3,3.4-0.8,5s-1.2,3.1-2.2,4.4
		c-0.1,0.2-0.3,0.2-0.4,0.1c-0.1,0-0.1-0.1-0.1-0.2c0.1-1.6,0.2-3.1,0.1-4.6c-0.1-1.4-0.3-2.8-0.6-4.2c-0.3-1.4-0.8-2.7-1.3-3.9
		c-0.5-1.3-1.1-2.5-1.7-3.7v-0.1c-0.2-0.5-0.3-1-0.2-1.4c-2.7-0.9-5.4-2.1-8-3.7c-1.2-0.7-2.4-1.6-3.5-2.6c-0.5,0.7-1,1.4-1.4,2.1
		c-0.6,1-1.2,1.9-1.8,2.8c-1.1,1.8-2.1,3.7-2.8,5.7s-1.1,4.1-1.2,6.4c-0.2,2.3,0,4.6,0.2,7c0,0.1-0.1,0.3-0.3,0.3
		c-0.1,0.1-0.2,0-0.3-0.1c-1.2-2.1-2.1-4.4-2.7-6.9c-0.6-2.4-0.7-5.1-0.3-7.7c0.4-2.6,1.3-5.1,2.5-7.4c0.6-1.1,1.3-2.2,2-3.2
		c0.8-1.1,1.5-2,2.4-2.9c-1.3-1.9-2.3-4-2.8-6.3c-0.3-1.5-0.4-3-0.3-4.5c0.1-0.6,0.2-1.3,0.3-1.9c-0.5,0.2-1,0.4-1.5,0.6
		c-2.1,0.8-4.1,1.7-6,2.9c-1.9,1.2-3.6,2.7-5.2,4.4c-1.5,1.7-2.9,3.7-4.3,5.8c-0.1,0.2-0.3,0.2-0.4,0.1c-0.1-0.1-0.2-0.2-0.6-0.6
		c0.4-2.5,1.1-5,2.3-7.3s2.8-4.5,4.8-6.4c2-1.8,4.3-3.3,6.7-4.4c1.2-0.6,2.5-1,3.7-1.4c0.9-0.3,1.8-0.5,2.7-0.7
		c0.6-1,1.2-1.9,1.9-2.8c0.8-1,1.7-2,2.6-2.9c0.9-0.9,1.8-1.8,2.8-2.6c2-1.7,4-3.2,6.2-4.5c2.1-1.3,4.4-2.4,6.8-3.4
		c2.4-0.9,4.8-1.6,6.9-2.3c1.1-0.4,2.1-0.8,3.1-1.2c1-0.4,1.8-0.8,2.6-1.4c-0.5-0.5-0.9-1-1.1-1.7c-5.2,7.7-14.4,3.2-21.8,6.3
		c0,0-3.2-6.8,6.6-11c9.8-4.3,13.9,1.8,13.2-6c-1.3-3.5-1.9-7.3-2.3-11c-0.8-6.9,0-13.9,1.2-20.7c0.7-4.2,1.1-8.5,2.3-12.5
		c1.1-3.5,2.7-6.8,4.8-9.8c2.5-3.5,5.6-6.4,8.7-9.3c-7.7-6.8-17.7-17.7-23.8-28.5c-9.2-16.2-6.5-34.6-6.5-34.6
		c-1.2-6.8,0-10.7,0-10.7l5.4,5.3c1.3,1.3,1.5,3.5,0.3,5l-1.4,1.8c-2.7,8.3,8.7,32,8.7,32l16.5,11.6c5.8,1.7,10.7,3.5,14.7,5.3
		c3.2-2.8,6.5-5.6,9.8-8.2c0,0,3.2-4.8,4.5-19c0.1-1.4,0.4-2.7,1-3.9l2.8-6l0.1-19.7c0-2.1-0.7-4.2-1.9-5.9L3513.7,0h-368.3
		c-2.4,2.2-4.5,4.4-6.5,6.6c2.5,0.3,5.1,0.6,7.9,0.9c-3.8,3-7.1,6.2-10.1,9.7c1.4,0.1,2.9,0.2,4.4,0.4c-3.9,2.7-7.1,5.6-9.9,9
		c2.3,0.2,4.7,0.5,7.4,0.8c-7,5.5-11.3,11.8-16.1,21.1c-4.6-9-9-14.6-16.1-21.1c2.6-0.3,5-0.5,7.2-0.7c-2.7-3.1-5.8-6-9.6-9.1
		c1.3-0.2,2.6-0.3,3.9-0.4c-2.9-3.2-6.1-6.4-9.7-9.7c2.6-0.3,5-0.6,7.4-0.8c-2-2.2-4.1-4.4-6.4-6.7h-19.6c-3,2.9-5.8,5.8-8.4,8.9
		c2.2,0.2,4.5,0.4,6.9,0.7c-6.1,4.3-11.1,8.9-15.4,14.1c3.6,0.3,7.5,0.7,11.7,1.2c-11.1,8.8-17.9,18.6-25.5,33.4
		c-7.4-14.4-14.2-23.2-25.5-33.4c4-0.4,7.8-0.8,11.3-1.1c-4.4-4.9-9.3-9.5-15.2-14.3c2.2-0.2,4.2-0.4,6.2-0.6
		c-2.6-2.9-5.4-5.9-8.4-8.9h-38.9c-5.2,4.2-9.9,8.5-14.3,13c3.2,0.3,6.4,0.7,9.8,1.1c-6.9,5.5-12.9,11.2-18.5,17.5
		c4.2,0.4,8.6,0.8,13.2,1.4c-6.4,5-11.9,10.3-16.9,16.1c2.4,0.2,4.8,0.4,7.3,0.7c-6.5,4.6-11.8,9.5-16.5,15.1
		c3.9,0.3,7.9,0.8,12.4,1.3c-11.7,9.2-18.8,19.7-26.9,35.3c-7.7-15.2-15-24.5-26.9-35.3c4.3-0.5,8.3-0.9,12-1.2
		c-4.6-5.2-9.7-10-16-15.1c2.2-0.3,4.4-0.5,6.5-0.7c-4.7-5.4-10-10.7-16.1-16.2c4.4-0.5,8.5-0.9,12.4-1.3
		c-5.2-5.8-11-11.5-17.6-17.5c3-0.4,5.9-0.7,8.8-1c-4.1-4.4-8.6-8.7-13.4-13.2h-28.5c-6.8,5.5-12.9,11-18.6,16.9
		c3.9,0.4,7.9,0.8,12,1.3c-8.5,6.6-15.9,13.6-22.6,21.4c5.1,0.4,10.4,1,16.1,1.7c-7.8,6.1-14.5,12.6-20.6,19.7
		c2.9,0.3,5.8,0.6,8.9,0.9c-7.9,5.6-14.3,11.5-20.1,18.4c4.8,0.3,9.8,0.8,15.2,1.5c-14.3,11.3-23,24.1-32.9,43.1
		c-9.5-18.5-18.4-29.9-32.9-43.1c5.2-0.7,10-1.1,14.6-1.5c-5.6-6.4-11.9-12.2-19.6-18.5c2.8-0.3,5.4-0.6,8-0.8
		c-5.8-6.6-12.3-13.1-19.7-19.8c5.3-0.6,10.3-1.1,15.1-1.6c-6.4-7.2-13.4-14.1-21.5-21.4c3.7-0.4,7.3-0.8,10.8-1.2
		c-5.3-5.6-11.1-11.2-17.4-17h-33.3c-4.9,4.5-9.5,9-14,13.6c5.9,0.6,11.9,1.2,18.2,2c-12.9,10.1-24,20.7-34,32.4
		c7.8,0.7,15.9,1.6,24.5,2.6c-11.9,9.3-22.1,19.1-31.3,29.9c4.3,0.4,8.8,0.9,13.5,1.4c-12,8.5-21.8,17.6-30.6,28
		c7.2,0.5,14.7,1.3,23,2.3c-21.8,17.1-35,36.6-50,65.5c-14.4-28.2-27.9-45.5-50-65.5c7.9-0.9,15.3-1.6,22.2-2.2
		c-8.6-9.7-18.2-18.6-29.8-28.1c4.2-0.4,8.2-0.8,12.1-1.2c-8.8-10.1-18.6-19.9-29.9-30.1c8.1-1,15.7-1.8,23-2.5
		c-9.7-10.9-20.4-21.5-32.7-32.5c5.7-0.7,11.1-1.3,16.4-1.8c-4.4-4.6-8.9-9.1-13.7-13.8h-35.2c-11.2,9.4-21.5,19-31.3,29.1
		c8.5,0.9,17.3,1.9,26.4,3c-18.7,14.7-34.9,30.1-49.6,46.7c11.3,1,23,2.3,35.5,3.8c-17.2,13.5-32,27.8-45.4,43.4
		c6.3,0.6,12.8,1.3,19.6,2c-17.4,12.3-31.5,25.5-44.3,40.6c10.5,0.8,21.4,2,33.4,3.4c-31.5,24.8-50.7,52.9-72.5,94.9
		c-20.9-40.8-40.5-65.8-72.5-94.9c11.5-1.3,22.1-2.4,32.2-3.2c-12.4-14-26.3-26.9-43.2-40.7c6.1-0.7,11.9-1.3,17.6-1.8
		c-12.9-14.6-27-28.8-43.4-43.6c11.7-1.4,22.7-2.6,33.3-3.6c-14.1-15.8-29.6-31.1-47.4-47.1c8.2-0.9,16.1-1.8,23.8-2.6
		c-9.3-9.8-19.3-19.5-29.9-29.4h-7.8c-19.4,15.4-37,31.3-53.3,48.1c11.1,1.2,22.6,2.5,34.5,3.9c-24.6,19.2-45.7,39.3-64.9,61.2
		c14.8,1.4,30.2,3,46.5,5c-22.5,17.7-41.8,36.3-59.4,56.8c8.2,0.8,16.7,1.6,25.6,2.6c-22.8,16.1-41.3,33.3-58,53.1
		c13.7,1,28,2.5,43.7,4.4c-41.3,32.5-66.4,69.4-94.9,124.3c-27.4-53.4-53-86.3-94.9-124.3c15.1-1.8,29-3.2,42.2-4.2
		c-16.2-18.3-34.4-35.3-56.5-53.3c7.9-0.9,15.6-1.6,23-2.3c-16.8-19.1-35.4-37.7-56.8-57.1c15.3-1.8,29.7-3.4,43.6-4.7
		c-18.4-20.6-38.7-40.6-62-61.6c10.7-1.2,21-2.4,31.1-3.4c-15.3-16-31.9-32-50-48.5h-0.3c-7,6.3-13.6,12.7-20,19.3
		c8.2,0.8,16.6,1.7,25.4,2.8c-18.1,14.1-33.6,28.9-47.7,45.1c10.9,1,22.2,2.2,34.2,3.7c-16.6,13.1-30.8,26.8-43.7,41.8
		c6,0.6,12.3,1.2,18.8,1.9c-16.7,11.8-30.3,24.5-42.6,39c10,0.7,20.6,1.8,32.1,3.2c-30.3,23.9-48.8,50.9-69.7,91.3
		c-20.1-39.2-38.9-63.4-69.7-91.3c11.1-1.3,21.3-2.3,31-3.1c-11.9-13.5-25.3-25.9-41.5-39.2c5.8-0.6,11.5-1.2,16.9-1.7
		c-12.3-14.1-26-27.7-41.7-42c11.2-1.3,21.8-2.4,32-3.4c-13.6-15.2-28.5-29.9-45.6-45.3c7.9-0.9,15.5-1.7,22.9-2.5
		c-6.2-6.5-12.7-13-19.5-19.6h-4.6c-4.9,4.5-9.5,9-14,13.6c5.9,0.6,11.9,1.2,18.2,2c-12.9,10.1-24.1,20.7-34,32.4
		c7.8,0.7,15.9,1.6,24.5,2.6c-11.9,9.3-22.1,19.1-31.3,29.9c4.3,0.4,8.8,0.9,13.5,1.4c-12,8.5-21.8,17.6-30.6,28
		c7.2,0.5,14.7,1.3,23,2.3c-21.8,17.1-35,36.6-50,65.5c-14.4-28.2-27.9-45.5-50-65.5c7.9-0.9,15.3-1.6,22.2-2.2
		c-8.6-9.7-18.1-18.6-29.8-28.1c4.2-0.4,8.2-0.8,12.1-1.2c-8.8-10.1-18.6-19.9-29.9-30.1c8.1-1,15.7-1.8,23-2.5
		c-9.8-10.9-20.4-21.5-32.7-32.5c5.7-0.7,11.1-1.3,16.4-1.8c-4.4-4.6-8.9-9.1-13.7-13.8c-5.9,4.9-11.3,9.8-16.3,15
		c3.9,0.4,7.9,0.8,12,1.3c-8.5,6.7-15.8,13.7-22.5,21.4c5.1,0.4,10.4,1,16.1,1.7c-7.8,6.1-14.5,12.6-20.6,19.7
		c2.9,0.3,5.8,0.6,8.9,0.9c-7.9,5.6-14.3,11.5-20.1,18.4c4.8,0.3,9.8,0.8,15.2,1.5c-14.3,11.3-23,24.1-32.9,43.1
		c-9.5-18.5-18.4-29.9-32.9-43.1c5.2-0.7,10-1.1,14.6-1.5c-5.6-6.4-11.9-12.2-19.6-18.5c2.8-0.3,5.4-0.6,8-0.8
		c-5.8-6.6-12.3-13.1-19.7-19.8c5.3-0.6,10.3-1.1,15.1-1.6c-6.4-7.2-13.4-14.1-21.5-21.4c3.7-0.4,7.3-0.8,10.8-1.2
		c-4.1-4.3-8.6-8.6-13.3-13.1c-3,2.6-5.7,5.3-8.4,8c3.2,0.3,6.4,0.7,9.8,1.1c-7,5.5-13,11.2-18.5,17.4c4.2,0.4,8.6,0.8,13.2,1.4
		c-6.4,5-11.9,10.3-16.9,16.1c2.4,0.2,4.8,0.4,7.3,0.7c-6.5,4.6-11.8,9.5-16.5,15.1c3.9,0.3,7.9,0.8,12.4,1.3
		c-11.7,9.2-18.8,19.7-26.9,35.3c-7.7-15.2-15-24.5-26.9-35.3c4.3-0.5,8.3-0.9,12-1.2c-4.6-5.2-9.7-10-16-15.1
		c2.2-0.3,4.4-0.5,6.5-0.7c-4.7-5.4-10-10.7-16.1-16.2c4.4-0.5,8.5-0.9,12.4-1.3c-5.2-5.8-11-11.5-17.6-17.5c3-0.4,5.9-0.7,8.8-1
		c-3.2-3.3-6.6-6.6-10.2-10.1h-9.7c-1,1.2-1.9,2.3-2.9,3.4c5.3,0.5,10.8,1.1,16.6,1.8c-8,6.3-14.9,12.9-21.1,20.3
		c2.9,0.3,5.9,0.6,9.1,0.9c-8.1,5.7-14.7,11.8-20.7,18.9c4.9,0.4,10,0.9,15.6,1.6c-14.7,11.6-23.6,24.7-33.8,44.3
		c-9.7-19-18.9-30.7-33.8-44.3c5.4-0.6,10.3-1.1,15-1.5c-5.7-6.5-12.2-12.6-20.1-19c2.8-0.3,5.6-0.6,8.2-0.8
		c-6-6.9-12.7-13.5-20.3-20.4c5.4-0.7,10.6-1.2,15.5-1.7c-1-1.1-2.1-2.3-3.1-3.5h-32.8c-3,2.9-5.8,5.8-8.4,8.9
		c2.2,0.2,4.5,0.4,6.9,0.7c-6.1,4.3-11.1,8.9-15.4,14.1c3.6,0.3,7.5,0.7,11.7,1.2c-11.1,8.8-17.9,18.6-25.5,33.4
		c-7.4-14.4-14.2-23.2-25.5-33.4c4-0.4,7.8-0.8,11.3-1.1c-4.4-4.9-9.3-9.5-15.2-14.3c2.2-0.2,4.2-0.4,6.2-0.6
		c-2.6-2.9-5.4-5.9-8.4-8.9h-23.6c-1.9,1.9-3.7,3.7-5.3,5.8c2.4,0.2,4.9,0.5,7.5,0.8c-3.6,2.9-6.8,5.9-9.6,9.2
		c1.4,0.1,2.8,0.2,4.2,0.4c-3.7,2.6-6.7,5.4-9.4,8.6c2.2,0.2,4.6,0.4,7.1,0.7c-6.7,5.2-10.8,11.2-15.4,20.1
		c-4.5-8.6-8.6-13.9-15.4-20.1c2.4-0.3,4.7-0.5,6.8-0.7c-2.7-2.9-5.6-5.7-9.2-8.6c1.3-0.2,2.5-0.3,3.7-0.4c-2.7-3.1-5.7-6.1-9.2-9.3
		c2.5-0.3,4.9-0.6,7.1-0.8c-1.7-1.9-3.5-3.7-5.4-5.7H0v380h4080V0H3513.7z M167.6,149.7c-0.5,0.9-1.7,1.2-2.6,0.7
		c-0.6-0.4-1-1.2-0.9-1.9l-3.2-1.8l0.7,2.5c0.1,0.4-0.1,0.8-0.5,0.9c-0.4,0.1-0.8-0.1-0.9-0.5l-1.1-3.9l-2.9-1.6l1.6,5.6
		c0.1,0.4-0.1,0.8-0.5,0.9c-0.4,0.1-0.8-0.1-0.9-0.5l-1.9-7l-2.8-1.6l0.7,2.5c0.1,0.4-0.1,0.8-0.5,0.9c-0.4,0.1-0.8-0.1-0.9-0.5
		l-1.1-3.9l-3.1-1.8c-1.1,1.7-2.4,3.1-4.1,4.2l1.1,1.8c0.4-0.1,0.9-0.2,1.3-0.2c1.3,0,2.6,0.7,3.3,1.9c0.5,0.9,0.7,1.9,0.4,2.9
		c-0.2,0.7-0.6,1.4-1.2,1.9l1.1,1.9c0.7-0.1,1.5,0.2,1.9,0.9c0.5,0.9,0.2,2.1-0.7,2.6s-2.1,0.2-2.6-0.7c-0.4-0.7-0.4-1.5,0.1-2.1
		l-1.1-1.9c-0.7,0.3-1.5,0.3-2.3,0.1c-1-0.3-1.9-0.9-2.4-1.8c-0.5-0.9-0.7-1.9-0.4-2.9c0.2-0.7,0.6-1.4,1.2-1.9l-1.1-1.8
		c-1.8,0.9-3.7,1.4-5.7,1.5v3.5l2.9,2.9c0.3,0.3,0.3,0.7,0,1c-0.3,0.3-0.7,0.3-1,0l-1.9-1.9v3.2l5.1,5.1c0.3,0.3,0.3,0.7,0,1
		c-0.3,0.3-0.7,0.3-1,0l-4.1-4.1v3.3l2.9,2.9c0.3,0.3,0.3,0.7,0,1c-0.3,0.3-0.7,0.3-1,0l-1.9-1.9v3.7c0.7,0.2,1.2,0.9,1.2,1.7
		c0,1.1-0.9,1.9-1.9,1.9c-1.1,0-1.9-0.9-1.9-1.9c0-0.7,0.5-1.4,1.2-1.7v-3.7l-1.9,1.9c-0.3,0.3-0.7,0.3-1,0c-0.3-0.3-0.3-0.7,0-1
		l2.9-2.9v-3.2l-4.1,4.1c-0.3,0.3-0.7,0.3-1,0c-0.3-0.3-0.3-0.7,0-1l5.1-5.1v-3.2l-1.9,1.9c-0.3,0.3-0.7,0.3-1,0s-0.3-0.7,0-1
		l2.9-2.9v-3.5c-1.9,0-3.8-0.6-5.5-1.4l-1,1.8c1.4,1.2,1.8,3.3,0.9,4.9c-0.9,1.6-2.9,2.3-4.6,1.7l-1.1,1.9c0.5,0.6,0.6,1.4,0.2,2.1
		c-0.5,0.9-1.7,1.2-2.6,0.7c-0.9-0.5-1.2-1.7-0.7-2.6c0.4-0.7,1.2-1,1.9-0.9l1.1-1.9c-0.6-0.5-1-1.1-1.2-1.9c-0.2-1-0.1-2,0.4-2.9
		c0.7-1.3,2.1-2,3.4-2c0.4,0,0.8,0.1,1.2,0.2l1-1.8c-1.7-1.1-3.2-2.6-4.3-4.3l-3,1.7l-1.1,3.9c-0.1,0.4-0.5,0.6-0.9,0.5
		c-0.4-0.1-0.6-0.5-0.5-0.9l0.7-2.5l-2.8,1.6l-1.9,7c-0.1,0.4-0.5,0.6-0.9,0.5c-0.4-0.1-0.6-0.5-0.5-0.9l1.6-5.6l-2.9,1.6l-1.1,3.9
		c-0.1,0.4-0.5,0.6-0.9,0.5c-0.4-0.1-0.6-0.5-0.5-0.9l0.7-2.5l-3.2,1.8c0.1,0.8-0.2,1.5-0.9,1.9c-0.9,0.5-2.1,0.2-2.6-0.7
		c-0.5-0.9-0.2-2.1,0.7-2.6c0.7-0.4,1.5-0.3,2.1,0.2l3.2-1.8l-2.5-0.7c-0.4-0.1-0.6-0.5-0.5-0.9c0.1-0.3,0.4-0.5,0.7-0.5
		c0.1,0,0.1,0,0.2,0l3.9,1.1l2.9-1.6l-5.6-1.6c-0.4-0.1-0.6-0.5-0.5-0.9c0.1-0.3,0.4-0.5,0.7-0.5c0.1,0,0.1,0,0.2,0l7,1.9l2.8-1.6
		l-2.5-0.7c-0.4-0.1-0.6-0.5-0.5-0.9c0.1-0.3,0.4-0.5,0.7-0.5c0.1,0,0.1,0,0.2,0l3.9,1.1l3-1.7c-0.8-1.6-1.3-3.4-1.4-5.3h-2
		c-0.1,0.7-0.5,1.4-1,2c-0.7,0.8-1.7,1.2-2.7,1.2c-2,0-3.5-1.3-3.9-3.1h-2.2c-0.2,0.7-0.9,1.2-1.7,1.2c-1,0-1.9-0.9-1.9-1.9
		s0.9-1.9,1.9-1.9c0.8-0.1,1.5,0.4,1.8,1.1h2.2c0.1-0.7,0.5-1.4,1-2c0.7-0.8,1.7-1.2,2.7-1.2c0.1,0,0.1,0,0.1,0c1,0,2,0.4,2.7,1.1
		c0.6,0.5,0.9,1.2,1.1,2h2c0-2.1,0.6-4.1,1.5-5.9l-3-1.7l-3.9,1.1c-0.4,0.1-0.8-0.1-0.9-0.5c-0.1-0.4,0.1-0.8,0.5-0.9l2.6-0.7
		l-2.8-1.6l-7,1.9c-0.4,0.1-0.8-0.1-0.9-0.5c-0.1-0.4,0.1-0.8,0.5-0.9l5.6-1.5l-2.9-1.7l-3.9,1c-0.4,0.1-0.8-0.1-0.9-0.5
		c-0.1-0.4,0.1-0.8,0.5-0.9l2.6-0.7l-3.2-1.8c-0.6,0.4-1.4,0.5-2.1,0.1c-0.9-0.5-1.2-1.7-1.2-2.4c0.5-0.9,1.7-1.2,2.6-0.7
		c0.7,0.4,1,1.2,0.9,1.9l3.2,1.8l-0.7-2.6c-0.1-0.4,0.1-0.8,0.5-0.9c0.1,0,0.1,0,0.2,0c0.3,0,0.6,0.2,0.7,0.5l1.1,3.9l2.9,1.7
		l-1.5-5.6c-0.1-0.4,0.1-0.8,0.5-0.9c0.1,0,0.1,0,0.2,0c0.3,0,0.6,0.2,0.7,0.5l1.9,7l2.8,1.6l-0.7-2.6c-0.1-0.4,0.1-0.8,0.5-0.9
		c0.1,0,0.1,0,0.2,0c0.3,0,0.6,0.2,0.7,0.5l1.1,3.9l3,1.7c1.1-1.6,2.5-3,4.1-4.1l-1-1.8c-1.7,0.6-3.7-0.1-4.6-1.7
		c-1-1.7-0.6-3.7,0.8-4.9l-1.1-1.9c-0.7,0.1-1.5-0.2-1.9-0.9c-0.5-0.9-0.2-2.1,0.7-2.6c0.9-0.5,2.1-0.2,2.6,0.7
		c0.4,0.7,0.4,1.5-0.1,2.1l1.1,1.9c0.4-0.1,0.9-0.2,1.3-0.2c0.3,0,0.7,0,1,0.1c0.9,0.3,1.8,0.9,2.3,1.8c0.5,0.9,0.7,1.9,0.4,2.9
		c-0.2,0.7-0.6,1.4-1.2,1.9l1,1.8c1.7-0.9,3.6-1.4,5.6-1.5v-3.5l-2.9-2.9c-0.3-0.3-0.3-0.7,0-1c0.1-0.1,0.3-0.2,0.5-0.2
		s0.4,0.1,0.5,0.2l1.9,1.9v-3.2l-5.1-5.1c-0.3-0.3-0.3-0.7,0-1c0.1-0.1,0.3-0.2,0.5-0.2c0.2,0,0.4,0.1,0.5,0.2l4.1,4.1V103l-2.9-2.9
		c-0.3-0.3-0.3-0.7,0-1c0.1-0.1,0.3-0.2,0.5-0.2s0.4,0.1,0.5,0.2l1.9,1.9v-3.7c-0.7-0.2-1.2-0.9-1.2-1.7c0-1.1,0.9-1.9,1.9-1.9
		c1.1,0,1.9,0.9,1.9,1.9c0,0.7-0.5,1.4-1.2,1.7v3.7l1.9-1.9c0.1-0.1,0.3-0.2,0.5-0.2c0.2,0,0.4,0.1,0.5,0.2c0.3,0.3,0.3,0.7,0,1
		l-2.9,2.9v3.3l4.1-4.1c0.1-0.1,0.3-0.2,0.5-0.2s0.4,0.1,0.5,0.2c0.3,0.3,0.3,0.7,0,1l-5.1,5.1v3.2l1.9-1.9c0.1-0.1,0.3-0.2,0.5-0.2
		c0.2,0,0.4,0.1,0.5,0.2c0.3,0.3,0.3,0.7,0,1l-2.9,2.9v3.5c2,0.1,3.8,0.6,5.5,1.4l1-1.8c-1.4-1.2-1.8-3.3-0.9-4.9c0.7-1.3,2-2,3.4-2
		c0.4,0,0.8,0.1,1.2,0.2l1.1-1.9c-0.5-0.6-0.6-1.4-0.2-2.1c0.5-0.9,1.7-1.2,2.6-0.7s1.2,1.7,0.7,2.6c-0.4,0.6-1.2,1-1.9,0.9
		l-1.1,1.9c1.4,1.2,1.8,3.3,0.9,4.9c-0.9,1.7-2.9,2.4-4.6,1.8l-1,1.8c1.6,1,3,2.4,4.1,4l3.1-1.8l1-3.9c0.1-0.3,0.4-0.5,0.7-0.5
		c0.1,0,0.1,0,0.2,0c0.4,0.1,0.6,0.5,0.5,0.9l-0.7,2.6l2.8-1.6l1.8-7c0.1-0.3,0.4-0.5,0.7-0.5c0.1,0,0.1,0,0.2,0
		c0.4,0.1,0.6,0.5,0.5,0.9l-1.4,5.6l2.8-1.7l1-3.9c0.1-0.3,0.4-0.5,0.7-0.5c0.1,0,0.1,0,0.2,0c0.4,0.1,0.6,0.5,0.5,0.9l-0.7,2.6
		l3.2-1.9c-0.1-0.7,0.2-1.5,0.9-1.9c0.9-0.5,2.1-0.2,2.6,0.7c0.5,0.9,0.2,2.1-0.7,2.6c-0.7,0.4-1.5,0.3-2.1-0.1l-3.2,1.9l2.6,0.7
		c0.4,0.1,0.6,0.5,0.5,0.9c-0.1,0.4-0.5,0.6-0.9,0.5l-3.9-1l-2.8,1.7l5.6,1.4c0.4,0.1,0.6,0.5,0.5,0.9c-0.1,0.4-0.5,0.6-0.9,0.5
		l-7-1.8l-2.8,1.6l2.6,0.7c0.4,0.1,0.6,0.5,0.5,0.9c-0.1,0.4-0.5,0.6-0.9,0.5l-3.9-1l-3.1,1.8c0.9,1.7,1.5,3.6,1.6,5.7h2.1
		c0.3-1.8,1.9-3.2,3.8-3.2s3.5,1.4,3.8,3.2h2.2c0.2-0.7,0.9-1.2,1.7-1.2c1.1,0,1.9,0.8,1.9,1.9c0,1.1-0.9,1.9-1.9,1.9
		c-0.7,0-1.4-0.5-1.7-1.2h-2.2c-0.3,1.8-1.9,3.2-3.8,3.2s-3.5-1.4-3.8-3.2h-2.1c-0.1,2-0.6,3.8-1.4,5.5l3.1,1.8l3.9-1.1
		c0.1,0,0.1,0,0.2,0c0.3,0,0.6,0.2,0.7,0.5c0.1,0.4-0.1,0.8-0.5,0.9l-2.5,0.7l2.8,1.6l7-1.9c0.1,0,0.1,0,0.2,0
		c0.3,0,0.6,0.2,0.7,0.5c0.1,0.4-0.1,0.8-0.5,0.9l-5.6,1.6l2.9,1.6l3.9-1.1c0.1,0,0.1,0,0.2,0c0.3,0,0.6,0.2,0.7,0.5
		c0.1,0.4-0.1,0.8-0.5,0.9l-2.5,0.7l3.2,1.8c0.6-0.5,1.4-0.6,2.1-0.2C167.8,147.6,168.1,148.8,167.6,149.7z M907.2,196.2
		c-9.8,1.4-19.1-5.1-26.2-12.5c-0.2,1.2-0.5,2-1.1,2.3c0,0,0.3,2.5,0,5c2.8,3.6,1.7,8.5,1.7,8.5c3.3,3.2,0.7,9.8,0.7,9.8
		s6.2-4.6,7.2-2.6s-3.9,7.9-8.8,10.2c-4.9,2.3-14.1-6.2-15.4-7.2s-2-6.2-2-6.2c-4.1-0.7-6.7-5-8-7.7c-4.1-0.4-9.3-0.2-11.7,3.1
		c-3.3,4.4-6,3.1-7,1.3c-13.9,6-28.7,6-43.4,4.1c-1.7,0.4-3.4,0.7-5.2,1.1c-5.5,1.1-11.1,1.9-16.6,2.4c-4.5,1.2-9,2.2-13.5,3.1
		c-10.8,2.1-21.9,3.1-32.9,2.3c-10.5-0.7-20.5-3.6-30.6-6.1c-7.7,1.8-15.2,3.3-20.6,3.3c0,0-0.3,12.6,3.1,15.9
		c2.4,2.4,5.3,5.1,6.7,6.4c0.3,0.2,0.1,0.7-0.3,0.7l-2.1-0.1c2.2,0.8,4.1,1.9,5.7,3.3c0.7-0.8,1.9-1.6,3.4-1.8
		c1.1-0.1,2.4,0.1,3.8,1l-0.9,1.4c-2.8-1.8-4.7,0.3-5,0.6c6.7,7,7.6,18.3,7.6,18.5l-1.7,0.1c0,0-0.5-5.8-3.1-11.4
		c-1,0.8-3.5,3.2-2.5,5.9l-1.6,0.6c-1.5-4.1,2.3-7.3,3.2-8c-3.3-6.1-8.2-9.3-14.6-9.4c1.1,2.2,3.2,6.8,3.7,12.1
		c0.1,0,0.2-0.1,0.4-0.1c1.3-0.1,2.9,0.2,3.8,2.2l-1.5,0.7c-0.8-1.7-2.3-1.2-2.6-1.1c0.1,5-1.4,10.3-6.5,14.3l-1-1.3
		c3.3-2.6,4.9-5.7,5.5-9c-0.3-0.2-2.6-1.4-5.8,1.2l-1-1.3c1.6-1.2,3.1-1.8,4.3-1.9c1.2-0.2,2.2,0.1,2.8,0.3c0.2-2.4-0.1-4.9-0.6-7.1
		c-1.1,1.7-3.1,4.3-5.2,4.6l-0.2-1.6c1.6-0.2,3.8-3.3,4.8-5.2c-1-2.9-2.1-5.2-2.7-6.3c-1.6,0.9-4.1,2.7-3.7,4.7l-1.6,0.3
		c-0.3-1.8,0.6-3.3,1.8-4.5c-1.1-0.1-2.3-0.5-3.4-1.5c-2.7-2.5-7.9-3.5-11.4-3.6c-1.4,0-2-1.6-1.1-2.6c2-2.2,5.9-5,12.5-5.6
		c0,0-7-10-4.9-17.2c-13.3,0.9-26.5,1.1-39.8,0.5c-1.7,0.3-3.4,0.6-5.1,0.9c-11.7,2-23.3,3.2-35.1,1.9c-3.3-0.4-6.7-0.8-10-1.3
		c0.1,3.7,0.6,11.5,3.1,14c2.4,2.4,5.3,5.1,6.7,6.4c0.3,0.2,0.1,0.7-0.3,0.7l-2.1-0.1c2.2,0.8,4.1,1.9,5.7,3.3
		c0.7-0.8,1.9-1.6,3.4-1.8c1.1-0.1,2.4,0.1,3.8,1l-0.9,1.4c-2.8-1.8-4.7,0.3-5,0.6c6.7,7,7.6,18.3,7.6,18.5l-1.7,0.1
		c0,0-0.5-5.8-3.1-11.4c-1,0.8-3.5,3.2-2.5,5.9l-1.6,0.6c-1.5-4.1,2.3-7.3,3.2-8c-3.3-6.1-8.2-9.3-14.6-9.4
		c1.1,2.2,3.2,6.8,3.7,12.1c0.1,0,0.2-0.1,0.4-0.1c1.3-0.1,2.9,0.2,3.8,2.2l-1.5,0.7c-0.8-1.7-2.3-1.2-2.6-1.1
		c0.1,5-1.4,10.3-6.5,14.3l-1-1.3c3.3-2.6,4.9-5.7,5.5-9c-0.2-0.2-2.5-1.4-5.8,1.2l-1-1.3c1.6-1.2,3.1-1.8,4.3-1.9
		c1.2-0.2,2.2,0.1,2.8,0.3c0.2-2.5-0.1-5-0.6-7.2c-1.1,1.7-3.1,4.3-5.2,4.6l-0.2-1.6c1.6-0.2,3.8-3.3,4.8-5.2
		c-1-2.9-2.1-5.2-2.7-6.3c-1.6,0.9-4,2.7-3.7,4.7l-1.6,0.3c-0.3-1.8,0.6-3.3,1.8-4.5c-1.1-0.1-2.3-0.5-3.4-1.5
		c-2.7-2.5-7.9-3.5-11.4-3.6c-1.4,0-2-1.6-1.1-2.6c2-2.2,5.9-5,12.5-5.6c0,0-3.6-5.1-4.8-10.7c-4.8-0.5-9.6-0.7-14.4-0.5
		c-1.5,0.1-3.1,0.2-4.6,0.4c-0.4,0.4-0.9,0.7-1.4,1.1c-6.5,5.1-13.1,12-21.1,14.9c0.2,0.9,0.3,1.9,0.3,3c0,0-36.3,12.7-52.6,12.8
		c0,0-0.3,12.6,3.1,15.9c2.4,2.4,5.3,5.1,6.7,6.4c0.3,0.2,0.1,0.7-0.3,0.7l-2.1-0.1c2.2,0.8,4.1,1.9,5.7,3.3
		c0.7-0.8,1.9-1.6,3.4-1.8c1.1-0.1,2.4,0.1,3.8,1l-0.9,1.4c-2.8-1.8-4.7,0.3-5,0.6c6.7,7,7.6,18.3,7.6,18.5l-1.7,0.1
		c0,0-0.5-5.8-3.1-11.4c-1,0.8-3.5,3.2-2.5,5.9l-1.6,0.6c-1.5-4.1,2.3-7.3,3.2-8c-3.3-6.1-8.2-9.3-14.6-9.4
		c1.1,2.2,3.2,6.8,3.7,12.1c0.1,0,0.2-0.1,0.4-0.1c1.3-0.1,2.9,0.2,3.8,2.2l-1.5,0.7c-0.8-1.7-2.3-1.2-2.6-1.1
		c0.1,5-1.4,10.3-6.5,14.3l-1-1.3c3.3-2.6,4.9-5.7,5.5-9c-0.2-0.2-2.5-1.4-5.8,1.2l-1-1.3c1.6-1.2,3.1-1.8,4.3-1.9
		c1.2-0.2,2.2,0.1,2.8,0.3c0.2-2.5-0.1-5-0.6-7.2c-1.1,1.7-3.1,4.3-5.2,4.6l-0.2-1.6c1.6-0.2,3.8-3.3,4.8-5.2
		c-1-2.9-2.1-5.2-2.7-6.3c-1.6,0.9-4.1,2.7-3.7,4.7l-1.6,0.3c-0.3-1.8,0.6-3.3,1.8-4.5c-1.1-0.1-2.3-0.5-3.4-1.5
		c-2.7-2.5-7.9-3.5-11.4-3.6c-1.4,0-2-1.6-1.1-2.6c2-2.2,5.9-5,12.5-5.6c0,0-11.7-16.7-0.2-22.6l-8.4,2.4c-1.8,0.5-3.6-0.5-4-2.3
		c-1.4-5.5-3-17.2,4.3-27.2c0.9-1.2,2.7-0.3,2.3,1.1c-1.8,6.1-3.9,15.8-1.7,22.2c0,0,2.4-2.6,7-5.6c-1.3-5.5,2.4-11.3,3.8-13.4
		c0.3-0.4,0.9-0.4,1.3-0.1l0.9,0.8c0.3,0.3,0.3,0.8,0.1,1.1c-2,3.1-2.4,6.6-2.2,9.3c7.7-4.2,19.4-8.1,34.8-6.4
		c0.5-2.2,2.5-6.4,10.7-9.9c0.5-0.2,0.8-0.7,0.8-1.2l0.1-8.6c0.1-0.7,1-0.9,1.3-0.2c1.1,3,2.6,7.7,2.5,11c1.7-1,3.5-2,5.7-2.9
		c0.8-0.3,1.3-1.1,1.3-1.9l0.1-13.5c0-1.2,1.6-1.5,2-0.4c2,5.6,4.8,14.6,3.6,19.5c7.7-1.2,15.6-1.7,23.3-1.6c0.4,0,0.7,0,1.1,0
		c4.1-1.2,8.3-2.3,12.5-3.1c0.1-0.1,0.2-0.1,0.3-0.1c0.6-0.6,1.4-1.1,2.3-1.6l-8.4,2.4c-1.8,0.5-3.6-0.5-4-2.3
		c-1.4-5.5-3-17.2,4-26.9c0.9-1.2,2.7-0.3,2.3,1.1c-1.8,6.1-3.9,15.8-1.7,22.2c0,0,2.4-2.6,7-5.6c-1.3-5.5,2.4-11.3,3.8-13.4
		c0.3-0.4,0.9-0.4,1.3-0.1l0.9,0.8c0.3,0.3,0.3,0.8,0.1,1.1c-2,3.1-2.4,6.6-2.2,9.3c7.7-4.2,19.4-8.1,34.8-6.4
		c0.5-2.2,2.5-6.4,10.7-9.9c0.5-0.2,0.8-0.7,0.8-1.2l0.1-8.6c0.1-0.7,1.1-0.9,1.3-0.2c1.1,3,2.6,7.7,2.5,11c1.7-1,3.5-2,5.7-2.9
		c0.8-0.3,1.3-1.1,1.3-1.9l0.1-13.5c0-1.1,1.6-1.4,2-0.3c2.4,6.6,5.9,17.8,2.6,21.7c-4.7,5.6-9.6,8.2-8.7,12.2h-0.7
		c2.2,2.1,3.8,5,4.1,9.1c9.5-0.2,19.1-0.1,28.6,0.4c-0.3-5.8,0.7-12.9,5.2-19.1c0.9-1.2,2.7-0.3,2.3,1.1c-1.4,4.9-3.1,12.2-2.5,18.2
		c1.3,0.1,2.6,0.2,3.9,0.3c0.4,0,0.7,0.1,1.1,0.1c0.8-0.6,1.7-1.3,2.8-2c-1.3-5.5,2.4-11.3,3.8-13.4c0.3-0.4,0.9-0.4,1.3-0.1
		l0.9,0.8c0.3,0.3,0.3,0.8,0.1,1.1c-2,3.1-2.4,6.6-2.2,9.3c7.7-4.2,19.4-8.1,34.8-6.4c0.5-2.2,2.5-6.4,10.7-9.9
		c0.5-0.2,0.8-0.7,0.8-1.2l0.1-8.6c0.1-0.7,1.1-0.9,1.3-0.2c1.1,3,2.6,7.7,2.5,11c1.7-1,3.5-2,5.7-2.9c0.8-0.3,1.3-1.1,1.3-1.9
		l0.1-13.5c0-1.1,1.6-1.4,2-0.3c2.4,6.6,5.9,17.8,2.6,21.7c-4.7,5.6-9.6,8.2-8.7,12.2h-0.7c1.8,1.8,3.2,4.2,3.8,7.3
		c2.4-0.1,4.8-0.3,7.2-0.3c11.6-0.1,23.1,2,34.5,4.3c6.1,1.3,12.4,2.6,18.7,3.6c15-4.9,29.9-10.8,44.7-16.3c0.1,0,0.3,0,0.4,0.1
		c2.2-2.1,5.3-4.5,8.5-5.7c-3.2-2.9-6.1-5.9-8.1-8.5c-1.3,2.2-1.8,3.8-1.8,3.8l-0.5-0.7c-2.4,4.6-7.1,7.9-12.8,8.2
		c-7.5,0.3-14.2-5-15.6-12.4c-1.6-8.7,4.4-16.8,13.1-17.9c0,0,2.6-0.4,6.9-0.9l-10.1-7.1l-11.7,1.4c-8.1,1-13.9,8.4-12.9,16.5
		c0.5,4.6,3.3,8.7,7.3,11l0.2,0.1l-1.4,2.4l-0.2-0.1c-4.8-2.7-8-7.6-8.7-13.1c-1.2-9.6,5.7-18.4,15.3-19.6l48.8-6l0.2-0.2l0.3,0.1
		l35.4-4.3l0.2-0.2l0.2,0.2l19.4-2.4l0.3,2.7l-17.9,2.2l-7.9,9.8c2.6-0.2,4.8-0.4,6.6-0.5c9.6-0.5,15.5,10.7,18.6,19.7
		c1.8,5.3,5.7,9.5,10.7,12C922.2,180.7,924,193.7,907.2,196.2z M1208,148.8c1.2,0,2.1,0.9,2.1,2.1c0,1.2-0.9,2.1-2.1,2.1
		s-2.2-0.9-2.1-2.1C1205.9,149.7,1206.8,148.8,1208,148.8z M1205.2,153.2c1.4,0,2.6,1.2,2.6,2.6s-1.2,2.6-2.6,2.6
		c-1.5,0-2.6-1.2-2.6-2.6S1203.8,153.2,1205.2,153.2z M1199.6,157.1c0.4-0.1,0.8,0.2,0.9,0.6l1.1,4.5l4.5-1.1
		c0.4-0.1,0.8,0.2,0.9,0.6c0.1,0.4-0.2,0.8-0.6,0.9l-5.2,1.3c-0.1,0-0.1,0-0.2,0c-0.4,0-0.7-0.2-0.8-0.6l-1.2-5.3
		C1198.9,157.6,1199.2,157.2,1199.6,157.1z M1186.8,157.7c0.1-0.4,0.5-0.7,0.9-0.6c0.4,0.1,0.7,0.5,0.6,0.9l-1.3,5.2
		c-0.1,0.4-0.4,0.6-0.8,0.6c-0.1,0-0.1,0-0.2,0l-5.2-1.3c-0.4-0.1-0.7-0.5-0.6-0.9c0.1-0.4,0.5-0.6,1-0.5l4.5,1.1L1186.8,157.7z
		 M1184.6,155.8c0,1.4-1.2,2.6-2.6,2.6s-2.6-1.2-2.6-2.6s1.2-2.6,2.6-2.6S1184.6,154.4,1184.6,155.8z M1179.2,148.8
		c1.2,0,2.1,0.9,2.1,2.1c0,1.2-0.9,2.1-2.1,2.1s-2.1-0.9-2.1-2.1S1178,148.8,1179.2,148.8z M1179.2,202.1c-1.2,0-2.1-0.9-2.1-2.1
		s0.9-2.1,2.1-2.1c1.2,0,2.1,1,2.1,2.1C1181.3,201.2,1180.4,202.1,1179.2,202.1z M1182,197.7c-1.4,0-2.6-1.2-2.6-2.6
		c0-1.4,1.2-2.6,2.6-2.6s2.6,1.2,2.6,2.6C1184.6,196.5,1183.4,197.7,1182,197.7z M1186.6,193.2l-1.1-4.5l-4.5,1.1
		c-0.4,0.1-0.8-0.2-0.9-0.6c-0.1-0.4,0.2-0.8,0.6-0.9l5.2-1.3c0.1,0,0.1,0,0.2,0c0.4,0,0.7,0.2,0.8,0.6l1.3,5.3
		c0.1,0.4-0.2,0.8-0.7,0.9C1187.1,193.9,1186.7,193.6,1186.6,193.2z M1200.4,193.3c-0.1,0.4-0.5,0.7-0.9,0.6
		c-0.4-0.1-0.7-0.5-0.6-0.9l1.3-5.3c0.1-0.4,0.4-0.6,0.8-0.6c0.1,0,0.1,0,0.2,0l5.2,1.3c0.4,0.1,0.7,0.5,0.6,0.9
		c-0.1,0.4-0.5,0.7-1,0.6l-4.5-1.1L1200.4,193.3z M1202.5,195.1c0-1.4,1.2-2.6,2.6-2.6s2.6,1.2,2.6,2.6c0,1.4-1.1,2.6-2.6,2.6
		C1203.7,197.7,1202.5,196.5,1202.5,195.1z M1208,202.1c-1.2,0-2.1-0.9-2.1-2.1s0.9-2.1,2.1-2.1c1.1,0,2.1,1,2.1,2.1
		C1210.1,201.2,1209.2,202.1,1208,202.1z M1227.2,162.1c-0.1,0.4-0.5,0.6-0.9,0.5l-5.9-1.6l-3,1.7l4.5,1.2c0.4,0.1,0.6,0.5,0.5,0.9
		c-0.1,0.4-0.5,0.6-0.9,0.5l-5.9-1.6l-3,1.7l4.5,1.2c0.4,0.1,0.6,0.5,0.5,0.9c-0.1,0.4-0.5,0.6-0.9,0.5l-5.9-1.6l-5,2.9l-1.9,6.4
		l1.9,6.5l4.9,2.8l5.9-1.6c0.1,0,0.1,0,0.2,0c0.3,0,0.6,0.2,0.7,0.5c0.1,0.4-0.1,0.8-0.5,0.9l-4.5,1.2l3,1.8l5.9-1.6
		c0.1,0,0.1,0,0.2,0c0.3,0,0.6,0.2,0.7,0.5c0.1,0.4-0.1,0.8-0.5,0.9l-4.5,1.2l3,1.8l5.9-1.6c0.1,0,0.1,0,0.2,0
		c0.3,0,0.6,0.2,0.7,0.5c0.1,0.4-0.1,0.8-0.5,0.9l-4.5,1.2l3.8,2.2c0.4,0.2,0.5,0.7,0.3,1c-0.2,0.4-0.7,0.5-1,0.3l-3.8-2.2l1.2,4.5
		c0.1,0.4-0.1,0.8-0.5,0.9c-0.4,0.1-0.8-0.1-0.9-0.5l-1.6-5.9l-3-1.8l1.2,4.5c0.1,0.4-0.1,0.8-0.5,0.9c-0.4,0.1-0.8-0.1-0.9-0.5
		l-1.6-5.9l-3-1.8l1.2,4.5c0.1,0.4-0.1,0.8-0.5,0.9c-0.4,0.1-0.8-0.1-0.9-0.5l-1.6-5.9l-4.9-2.9l-6.5,1.5l-4.6,4.9v5.7l4.3,4.3
		c0.3,0.3,0.3,0.7,0,1s-0.7,0.3-1,0l-3.3-3.3v3.5l4.3,4.3c0.3,0.3,0.3,0.7,0,1s-0.7,0.3-1,0l-3.3-3.3v3.5l4.3,4.3
		c0.3,0.3,0.3,0.7,0,1c-0.3,0.3-0.7,0.3-1,0l-3.3-3.3v4.4c0,0.4-0.3,0.7-0.7,0.7s-0.7-0.3-0.7-0.7v-4.4l-3.3,3.3
		c-0.3,0.3-0.7,0.3-1,0c-0.3-0.3-0.3-0.7,0-1l4.3-4.3V203l-3.3,3.3c-0.3,0.3-0.7,0.3-1,0c-0.3-0.3-0.3-0.7,0-1l4.3-4.3v-3.5
		l-3.3,3.3c-0.3,0.3-0.7,0.3-1,0c-0.3-0.3-0.3-0.7,0-1l4.3-4.3v-5.7l-4.6-4.9l-6.7-1.6l-4.8,2.7l-1.6,5.8c-0.1,0.4-0.5,0.6-0.9,0.5
		c-0.4-0.1-0.6-0.5-0.5-0.9l1.2-4.5l-3.1,1.7l-1.6,5.8c-0.1,0.4-0.5,0.6-0.9,0.5c-0.4-0.1-0.6-0.5-0.5-0.9l1.2-4.5l-3.1,1.7
		l-1.6,5.8c-0.1,0.4-0.5,0.6-0.9,0.5c-0.4-0.1-0.6-0.5-0.5-0.9l1.2-4.5l-3.9,2.2c-0.4,0.2-0.8,0-1-0.3c-0.2-0.4,0-0.8,0.3-1l3.9-2.2
		l-4.5-1.2c-0.4-0.1-0.6-0.5-0.5-0.9c0.1-0.3,0.4-0.5,0.7-0.5c0.1,0,0.2,0,0.3,0.4l5.8,1.6l3.1-1.7l-4.5-1.2
		c-0.4-0.1-0.6-0.5-0.5-0.9c0.1-0.3,0.4-0.5,0.7-0.5c0.1,0,0.1,0,0.2,0l5.8,1.6l3.1-1.7l-4.5-1.2c-0.4-0.1-0.6-0.5-0.5-0.9
		c0.1-0.3,0.4-0.5,0.7-0.5c0.1,0,0.1,0,0.2,0l5.8,1.6l5.1-2.9l1.9-6.2l-1.9-6.4l-5-2.9l-5.9,1.6c-0.4,0.1-0.8-0.1-0.9-0.5
		c-0.1-0.4,0.1-0.8,0.5-0.9l4.5-1.2l-3-1.7l-5.9,1.6c-0.4,0.1-0.8-0.1-0.9-0.5c-0.1-0.4,0.1-0.8,0.5-0.9l4.5-1.2l-3-1.7l-5.8,1.6
		c-0.4,0.1-0.8-0.1-0.9-0.5c-0.1-0.4,0.1-0.8,0.5-0.9l4.5-1.2l-3.8-2.2c-0.4-0.2-0.5-0.7-0.3-1c0.1-0.3,0.4-0.4,0.6-0.4
		s0.3,0,0.4,0.1l3.8,2.2l-1.2-4.5c-0.1-0.4,0.1-0.8,0.5-0.9c0.1,0,0.1,0,0.2,0c0.3,0,0.6,0.2,0.7,0.5l1.6,5.9l3,1.7l-1.2-4.5
		c-0.1-0.4,0.1-0.8,0.5-0.9c0.1,0,0.1,0,0.2,0c0.3,0,0.6,0.2,0.7,0.5l1.6,5.9l3,1.7l-1.2-4.5c-0.1-0.4,0.1-0.8,0.5-0.9
		c0.1,0,0.1,0,0.2,0c0.3,0,0.6,0.2,0.7,0.5l1.6,5.9l4.9,2.8l6.6-1.6l4.6-4.9v-5.7l-4.3-4.3c-0.3-0.3-0.3-0.7,0-1
		c0.1-0.1,0.3-0.2,0.5-0.2s0.4,0.1,0.5,0.2l3.3,3.3v-3.5l-4.3-4.3c-0.3-0.3-0.3-0.7,0-1c0.1-0.1,0.3-0.2,0.5-0.2s0.4,0.1,0.5,0.2
		l3.3,3.3v-3.5l-4.3-4.3c-0.3-0.3-0.3-0.7,0-1c0.1-0.1,0.3-0.2,0.5-0.2s0.4,0.1,0.5,0.2l3.3,3.3v-4.4c0-0.4,0.3-0.7,0.7-0.7
		s0.7,0.3,0.7,0.7v4.4l3.3-3.3c0.1-0.1,0.3-0.2,0.5-0.2s0.4,0.1,0.5,0.2c0.3,0.3,0.3,0.7,0,1l-4.3,4.3v3.5l3.3-3.3
		c0.1-0.1,0.3-0.2,0.5-0.2s0.4,0.1,0.5,0.2c0.3,0.3,0.3,0.7,0,1l-4.3,4.3v3.5l3.3-3.3c0.1-0.1,0.3-0.2,0.5-0.2s0.4,0.1,0.5,0.2
		c0.3,0.3,0.3,0.7,0,1l-4.3,4.3v5.7l4.6,4.9l6.6,1.6l4.9-2.8l1.6-5.9c0.1-0.3,0.4-0.5,0.7-0.5c0.1,0,0.1,0,0.2,0
		c0.4,0.1,0.6,0.5,0.5,0.9l-1.2,4.5l3-1.7l1.6-5.9c0.1-0.3,0.4-0.5,0.7-0.5c0.1,0,0.1,0,0.2,0c0.4,0.1,0.6,0.5,0.5,0.9l-1.2,4.5
		l3-1.7l1.6-5.9c0.1-0.3,0.4-0.5,0.7-0.5c0.1,0,0.1,0,0.2,0c0.4,0.1,0.6,0.5,0.5,0.9l-1.2,4.5l3.8-2.2c0.2-0.1,0.3-0.1,0.4-0.1
		c0.2,0,0.5,0.2,0.6,0.4c0.2,0.4,0,0.8-0.3,1l-3.8,2.2l4.5,1.2C1227.1,161.3,1227.3,161.7,1227.2,162.1z M1222.7,177.9
		c-1.1,0.5-2.4,0.1-2.9-0.9c-0.5-1.1-0.1-2.4,0.9-2.9c0.3-0.1,0.7-0.2,1-0.2c0.2,0,0.4,0,0.6,0.1c0.5,0.1,1,0.5,1.3,1
		C1224.1,176.1,1223.7,177.4,1222.7,177.9z M1217.2,178.2c-0.6,0.3-1.3,0.4-2,0.2c-0.6-0.2-1.2-0.7-1.5-1.3c-0.3-0.6-0.4-1.3-0.2-2
		c0.2-0.6,0.7-1.2,1.3-1.5c0.4-0.2,0.8-0.3,1.2-0.3c0.3,0,0.6,0,0.8,0.1c0.6,0.2,1.2,0.6,1.5,1.3
		C1218.9,176,1218.5,177.5,1217.2,178.2z M1211.9,179c0.3,0.3,0.2,0.9-0.1,1.1c-0.3,0.2-0.8,0.2-1.1-0.1l-3.6-4l-0.1-0.1
		c-0.1-0.3-0.1-0.7,0.2-0.9l4-3.6c0.3-0.2,0.8-0.2,1.1,0.1c0.2,0.3,0.2,0.8,0,0.9l-3.5,3.1L1211.9,179z M1162.7,175
		c0.4-0.7,1.1-1.1,1.9-1.1c0.3,0,0.7,0,1,0.2c1.1,0.6,1.4,1.9,0.9,2.9c-0.2,0.5-0.7,0.8-1.2,1c-0.6,0.2-1.1,0.1-1.7-0.1
		C1162.5,177.3,1162.2,176,1162.7,175z M1168,174.6c0.3-0.7,0.8-1.1,1.5-1.3c0.3-0.1,0.5-0.1,0.8-0.1c0.4,0,0.8,0.1,1.2,0.3
		c0.7,0.3,1.1,0.8,1.3,1.5s0.1,1.4-0.2,2c-0.3,0.7-0.8,1.1-1.5,1.3s-1.4,0.1-2-0.2C1167.8,177.4,1167.3,175.9,1168,174.6z
		 M1174.2,172.7c-0.4-0.3-0.4-0.8-0.1-1.1c0.3-0.4,0.8-0.4,1.1-0.1l4,3.6c0.3,0.2,0.4,0.6,0.2,0.9l-0.1,0.1l-3.6,4
		c-0.3,0.4-0.8,0.4-1.1,0.1c-0.3-0.3-0.4-0.8,0-0.9l3.1-3.5L1174.2,172.7z M1697.2,274.8l-6.4-0.1l4.2,4.3c0.4,0.4,0.4,1.1,0,1.5
		c-0.4,0.4-1.1,0.4-1.5,0l-5.7-5.8l-7.5-0.1l4.2,4.3c0.4,0.4,0.4,1.1,0,1.5c-0.4,0.4-1.1,0.4-1.5,0l-5.7-5.8l-7.5-0.1l4.2,4.3
		c0.4,0.4,0.4,1.1,0,1.5c-0.4,0.4-1.1,0.4-1.5,0l-5.7-5.8h-2.6l4,13.3l1.2,0.7l3.4-0.9c0.1,0,0.2,0,0.3,0c0.4,0,0.9,0.3,1,0.8
		l0.9,3.4l0.7,0.4l6-1.6c0.1,0,0.2,0,0.3,0c0.4,0,0.9,0.3,1,0.8l1.6,6l0.7,0.4l3.4-0.9c0.1,0,0.2,0,0.3,0c0.4,0,0.9,0.3,1,0.8l1,3.8
		c0,0.1,0,0.1,0,0.2s0,0.2,0,0.3c0,0.3-0.2,0.5-0.4,0.7c-0.1,0.1-0.1,0.1-0.2,0.1s-0.1,0.1-0.2,0.1l-3.8,1c-0.6,0.2-1.1-0.1-1.3-0.7
		l-0.9-3.4l-0.7-0.4l-6,1.6c-0.6,0.2-1.1-0.1-1.3-0.7l-1.6-6l-0.7-0.4l-3.4,0.9c-0.6,0.2-1.1-0.1-1.3-0.7l-0.9-3.4l-0.8-0.5l-14,3.3
		l1.2,2l7.9,2.1c0.6,0.1,1,0.7,0.8,1.3c-0.1,0.6-0.7,1-1.3,0.8l-5.8-1.6l3.8,6.5l7.9,2.1c0.6,0.1,1,0.7,0.8,1.3
		c-0.1,0.6-0.7,1-1.3,0.8l-5.8-1.6l3.8,6.5l7.9,2.1c0.6,0.1,1,0.7,0.8,1.3c-0.1,0.6-0.7,1-1.3,0.8l-5.8-1.6l3.2,5.6
		c0.3,0.5,0.1,1.2-0.4,1.5c-0.5,0.3-1.2,0.1-1.5-0.4l-3.2-5.6l-1.6,5.8c-0.1,0.6-0.7,1-1.3,0.8c-0.6-0.1-1-0.7-0.8-1.3l2.1-7.9
		l-3.8-6.5l-1.6,5.8c-0.1,0.6-0.7,1-1.3,0.8c-0.6-0.1-1-0.7-0.8-1.3l2.1-7.9l-3.8-6.5l-1.6,5.8c-0.1,0.6-0.7,1-1.3,0.8
		c-0.6-0.1-1-0.7-0.8-1.3l2.1-7.9l-1.2-2.1l-9.8,10.4v1.2l2.5,2.5c0.4,0.4,0.4,1.1,0,1.5l-2.5,2.5v0.9l4.4,4.4
		c0.4,0.4,0.4,1.1,0,1.5l-4.4,4.4v0.9l2.5,2.5c0.4,0.4,0.4,1.1,0,1.5l-2.8,2.8l-0.1,0.1c-0.1,0-0.1,0.1-0.2,0.1
		c-0.2,0.1-0.5,0.1-0.8,0c-0.1,0-0.1-0.1-0.2-0.1l-0.1-0.1l-2.8-2.8c-0.4-0.4-0.4-1.1,0-1.5l2.5-2.5v-0.9l-4.4-4.4
		c-0.4-0.4-0.4-1.1,0-1.5l4.4-4.4v-0.9l-2.5-2.5c-0.4-0.4-0.4-1.1,0-1.5l2.5-2.5v-0.7l-9.7-10.3l-1.2,2l2.2,7.8
		c0.1,0.5-0.2,1.1-0.8,1.3c-0.5,0.1-1.1-0.2-1.3-0.8l-1.6-5.8l-3.7,6.6l2.2,7.8c0.1,0.5-0.2,1.1-0.8,1.3c-0.5,0.1-1.1-0.2-1.3-0.8
		l-1.6-5.8l-3.7,6.6l2.2,7.8c0.1,0.5-0.2,1.1-0.8,1.3c-0.5,0.1-1.1-0.2-1.3-0.8l-1.6-5.8l-3.2,5.6c-0.3,0.5-1,0.7-1.5,0.4
		s-0.7-1-0.4-1.5l3.2-5.6l-5.8,1.6c-0.5,0.1-1.1-0.2-1.3-0.8c-0.1-0.5,0.2-1.1,0.8-1.3l7.8-2.2l3.7-6.6l-5.8,1.6
		c-0.5,0.1-1.1-0.2-1.3-0.8c-0.1-0.5,0.2-1.1,0.8-1.3l7.8-2.2l3.7-6.6l-5.8,1.6c-0.5,0.1-1.1-0.2-1.3-0.8c-0.1-0.5,0.2-1.1,0.8-1.3
		l7.8-2.2l1.2-2.1l-14.1-3.3l-0.9,0.5l-0.9,3.4c-0.1,0.6-0.7,0.9-1.3,0.8l-3.4-0.9l-0.7,0.4l-1.6,6c-0.2,0.6-0.7,0.9-1.3,0.8l-6-1.6
		l-0.7,0.4l-0.9,3.4c-0.1,0.6-0.7,0.9-1.3,0.8l-3.8-1c-0.1,0-0.1-0.1-0.2-0.1s-0.1-0.1-0.2-0.1c-0.2-0.1-0.2-0.2-0.3-0.3
		c0-0.1-0.1-0.3-0.1-0.4s0-0.2,0-0.3v-0.1l1-3.8c0.1-0.5,0.5-0.8,1-0.8c0.1,0,0.2,0,0.3,0l3.4,0.9l0.7-0.4l1.6-6
		c0.1-0.5,0.5-0.8,1-0.8c0.1,0,0.2,0,0.3,0l6,1.6l0.7-0.4l0.9-3.4c0.1-0.5,0.5-0.8,1-0.8c0.1,0,0.2,0,0.3,0l3.4,0.9l1.1-0.7
		l4.1-13.6h-2.7l-5.7,5.8c-0.4,0.4-1.1,0.4-1.5,0c-0.4-0.4-0.4-1.1,0-1.5l4.2-4.2h-7.5l-5.7,5.8c-0.4,0.4-1.1,0.4-1.5,0
		c-0.4-0.4-0.4-1.1,0-1.5l4.2-4.2h-7.5l-5.7,5.8c-0.4,0.4-1.1,0.4-1.5,0c-0.4-0.4-0.4-1.1,0-1.5l4.2-4.2h-6.4
		c-0.6,0-1.1-0.5-1.5-1.5c0-0.6,0.5-1.1,1.1-1.1h6.4l-4.2-4.2c-0.4-0.4-0.4-1.1,0-1.5c0.2-0.2,0.5-0.3,0.8-0.3s0.6,0.1,0.8,0.3
		l5.8,5.7h7.5l-4.2-4.2c-0.4-0.4-0.4-1.1,0-1.5c0.2-0.2,0.5-0.3,0.8-0.3s0.6,0.1,0.8,0.3l5.8,5.7h7.5l-4.2-4.2
		c-0.4-0.4-0.4-1.1,0-1.5c0.2-0.2,0.5-0.3,0.8-0.3s0.6,0.1,0.8,0.3l5.8,5.7h2.6l-4-13.4l-1-0.6l-3.4,0.9c-0.6,0.1-1.1-0.2-1.3-0.8
		l-0.9-3.4l-0.7-0.4l-6,1.6c-0.6,0.1-1.1-0.2-1.3-0.8l-1.6-6l-0.7-0.4l-3.4,0.9c-0.6,0.1-1.1-0.2-1.3-0.8l-1-3.8V245
		c0-0.1,0-0.2,0-0.3c0-0.1,0-0.3,0.1-0.4c0.1-0.2,0.3-0.3,0.4-0.4c0-0.1,0.1-0.1,0.1-0.1c0.1,0,0.1-0.1,0.2-0.1l3.8-1
		c0.1,0,0.2,0,0.3,0c0.4,0,0.9,0.3,1,0.8l0.9,3.4l0.7,0.4l6-1.6c0.1,0,0.2,0,0.3,0c0.4,0,0.9,0.3,1,0.8l1.6,6l0.7,0.4l3.4-0.9
		c0.1,0,0.2,0,0.3,0c0.4,0,0.9,0.3,1,0.8l0.9,3.4l1,0.6l13.9-3.3l-1.4-2.5l-7.9-2.1c-0.6-0.1-1-0.7-0.8-1.3c0.1-0.5,0.5-0.8,1-0.8
		c0.1,0,0.2,0,0.3,0l5.8,1.5l-3.8-6.5l-7.9-2.1c-0.6-0.1-1-0.7-0.8-1.3c0.1-0.5,0.5-0.8,1-0.8c0.1,0,0.2,0,0.3,0l5.8,1.5l-3.8-6.5
		l-7.9-2.1c-0.6-0.1-1-0.7-0.8-1.3c0.1-0.5,0.5-0.8,1-0.8c0.1,0,0.2,0,0.3,0l5.8,1.5l-3.2-5.5c-0.3-0.5-0.1-1.2,0.4-1.5
		c0.1-0.1,0.3-0.1,0.5-0.1c0.3,0,0.7,0.2,0.9,0.5l3.2,5.5l1.5-5.8c0.1-0.5,0.5-0.8,1-0.8c0.1,0,0.2,0,0.3,0c0.6,0.1,1,0.7,0.8,1.3
		l-2.1,7.9l3.8,6.5l1.5-5.8c0.1-0.5,0.5-0.8,1-0.8c0.1,0,0.2,0,0.3,0c0.6,0.1,1,0.7,0.8,1.3l-2.1,7.9l3.8,6.5l1.5-5.8
		c0.1-0.5,0.5-0.8,1-0.8c0.1,0,0.2,0,0.3,0c0.6,0.1,1,0.7,0.8,1.3l-2.1,7.9l1.4,2.5l9.7-10.3v-1.2l-2.5-2.5c-0.4-0.4-0.4-1.1,0-1.5
		l2.5-2.5v-0.9l-4.4-4.4c-0.4-0.4-0.4-1.1,0-1.5l4.4-4.4V222l-2.5-2.5c-0.4-0.4-0.4-1.1,0-1.5l2.8-2.8c0.1,0,0.2-0.1,0.2-0.1
		c0.1,0,0.1-0.1,0.2-0.1c0.1-0.1,0.3-0.1,0.4-0.1s0.3,0,0.4,0.1c0.1,0,0.1,0,0.2,0.1l0.1,0.1l2.8,2.8c0.4,0.4,0.4,1.1,0,1.5
		l-2.5,2.5v0.9l4.4,4.4c0.4,0.4,0.4,1.1,0,1.5l-4.4,4.4v0.9l2.5,2.5c0.4,0.4,0.4,1.1,0,1.5l-2.5,2.5v1.2l9.7,10.3l1.5-2.5l-2.1-7.9
		c-0.1-0.6,0.2-1.1,0.8-1.3c0.1,0,0.2,0,0.3,0c0.4,0,0.9,0.3,1,0.8l1.5,5.8l3.8-6.5l-2.1-7.9c-0.1-0.6,0.2-1.1,0.8-1.3
		c0.1,0,0.2,0,0.3,0c0.4,0,0.9,0.3,1,0.8l1.5,5.8l3.8-6.5l-2.1-7.9c-0.1-0.6,0.2-1.1,0.8-1.3c0.1,0,0.2,0,0.3,0c0.4,0,0.9,0.3,1,0.8
		l1.5,5.8l3.2-5.5c0.2-0.3,0.5-0.5,0.9-0.5c0.1,0,0.3,0,0.5,0.1c0.5,0.3,0.7,1,0.4,1.5l-3.2,5.5l5.8-1.5c0.1,0,0.2,0,0.3,0
		c0.4,0,0.9,0.3,1,0.8c0.1,0.6-0.2,1.1-0.8,1.3l-7.9,2.1l-3.8,6.5l5.8-1.5c0.1,0,0.2,0,0.3,0c0.4,0,0.9,0.3,1,0.8
		c0.1,0.6-0.2,1.1-0.8,1.3l-7.9,2.1l-3.8,6.5l5.8-1.5c0.1,0,0.2,0,0.3,0c0.4,0,0.9,0.3,1,0.8c0.1,0.6-0.2,1.1-0.8,1.3l-7.9,2.1
		l-1.4,2.5l13.9,3.3l1-0.6l0.9-3.4c0.1-0.5,0.5-0.8,1-0.8c0.1,0,0.2,0,0.3,0l3.4,0.9l0.7-0.4l1.6-6c0.1-0.5,0.5-0.8,1-0.8
		c0.1,0,0.2,0,0.3,0l6,1.6l0.7-0.4l0.9-3.4c0.1-0.5,0.5-0.8,1-0.8c0.1,0,0.2,0,0.3,0l3.8,1c0.1,0,0.1,0.1,0.2,0.1
		c0,0.1,0.1,0.1,0.1,0.1c0.2,0.1,0.3,0.3,0.4,0.4c0,0.1,0.1,0.3,0.1,0.4c0,0.1,0,0.2,0,0.3v0.1l-1,3.8c-0.1,0.6-0.7,0.9-1.3,0.8
		l-3.4-0.9l-0.7,0.4l-1.6,6c-0.2,0.6-0.7,0.9-1.3,0.8l-6-1.6l-0.7,0.4l-0.9,3.4c-0.1,0.6-0.7,0.9-1.3,0.8l-3.4-0.9l-1,0.6l-4.1,13.6
		h2.6l5.8-5.7c0.3-0.2,0.5-0.3,0.8-0.3s0.6,0.1,0.8,0.3c0.4,0.4,0.4,1.1,0,1.5l-4.3,4.2l7.5,0.1l5.8-5.7c0.3-0.2,0.5-0.3,0.8-0.3
		s0.6,0.1,0.8,0.3c0.4,0.4,0.4,1.1,0,1.5l-4.3,4.2l7.5,0.1l5.8-5.7c0.3-0.2,0.5-0.3,0.8-0.3s0.6,0.1,0.8,0.3c0.4,0.4,0.4,1.1,0,1.5
		l-4.3,4.2l6.4,0.1c0.6,0,1.1,0.5,1.1,1.1C1698.3,274.3,1697.8,274.9,1697.2,274.8z M2772.1,236.6l-5-0.1l3.2,3.3
		c0.3,0.3,0.3,0.9,0,1.2s-0.9,0.3-1.2,0l-4.4-4.5l-5.8-0.1l3.2,3.3c0.3,0.3,0.3,0.9,0,1.2c-0.3,0.3-0.9,0.3-1.2,0l-4.4-4.5l-5.8-0.1
		l3.2,3.3c0.3,0.3,0.3,0.9,0,1.2s-0.9,0.3-1.2,0l-4.4-4.5h-2l3.1,10.3l0.9,0.5l2.6-0.7c0.1,0,0.1,0,0.2,0c0.4,0,0.7,0.2,0.8,0.6
		l0.7,2.6l0.6,0.3l4.6-1.3c0.1,0,0.1,0,0.2,0c0.4,0,0.7,0.2,0.8,0.6l1.3,4.6l0.6,0.3l2.6-0.7c0.1,0,0.1,0,0.2,0
		c0.4,0,0.7,0.2,0.8,0.6l0.8,2.9v0.1c0,0.1,0,0.1,0,0.2c0,0.3-0.1,0.5-0.3,0.6c0,0.1-0.1,0.1-0.1,0.1c-0.1,0-0.1,0.1-0.2,0.1l-3,0.8
		c-0.4,0.1-0.9-0.2-1-0.6l-0.7-2.6l-0.6-0.3l-4.6,1.3c-0.4,0.1-0.9-0.2-1-0.6l-1.3-4.6l-0.6-0.3l-2.6,0.7c-0.4,0.1-0.9-0.2-1-0.6
		l-0.7-2.6l-0.6-0.4l-10.9,2.6l0.9,1.6l6.1,1.6c0.5,0.1,0.7,0.6,0.6,1c-0.1,0.5-0.6,0.7-1,0.6l-4.5-1.2l2.9,5.1l6.1,1.6
		c0.5,0.1,0.7,0.6,0.6,1c-0.1,0.5-0.6,0.7-1,0.6l-4.5-1.2l2.9,5.1l6.1,1.6c0.5,0.1,0.7,0.6,0.6,1c-0.1,0.5-0.5,0.7-1,0.6l-4.5-1.2
		l2.5,4.3c0.2,0.4,0.1,0.9-0.3,1.1c-0.4,0.2-0.9,0.1-1.1-0.3l-2.5-4.3l-1.2,4.5c-0.1,0.5-0.5,0.7-1,0.6c-0.5-0.1-0.7-0.6-0.6-1
		l1.6-6.1l-2.9-5.1l-1.2,4.5c-0.1,0.5-0.5,0.7-1,0.6c-0.5-0.1-0.7-0.6-0.6-1l1.6-6.1l-2.9-5.1l-1.2,4.5c-0.1,0.5-0.5,0.7-1,0.6
		c-0.5-0.1-0.7-0.6-0.6-1l1.6-6.1l-0.9-1.6l-7.6,8.1v0.9l1.9,1.9c0.3,0.4,0.3,0.9,0,1.2l-1.9,1.9v0.7l3.4,3.4c0.3,0.4,0.3,0.9,0,1.2
		l-3.4,3.4v0.7l1.9,1.9c0.3,0.4,0.3,0.9,0,1.2l-2.2,2.2c0,0.1-0.1,0.1-0.1,0.1s0,0.1-0.1,0.1c-0.2,0.1-0.4,0.1-0.6,0
		c-0.1,0-0.1-0.1-0.2-0.1c0-0.1-0.1-0.1-0.1-0.1l-2.2-2.2c-0.3-0.4-0.3-0.9,0-1.2l1.9-1.9v-0.7l-3.4-3.4c-0.3-0.4-0.3-0.9,0-1.2
		l3.4-3.4v-0.7l-1.9-1.9c-0.3-0.4-0.3-0.9,0-1.2l1.9-1.9v-0.9l-7.5-8l-0.9,1.6l1.7,6.1c0.1,0.4-0.2,0.9-0.6,1
		c-0.4,0.1-0.9-0.2-1-0.6l-1.2-4.5l-2.9,5.1l1.7,6.1c0.1,0.4-0.2,0.9-0.6,1c-0.4,0.1-0.9-0.2-1-0.6l-1.2-4.5l-2.9,5.1l1.7,6.1
		c0.1,0.4-0.2,0.9-0.6,1c-0.4,0.1-0.9-0.2-1-0.6l-1.2-4.5l-2.5,4.3c-0.2,0.4-0.7,0.5-1.1,0.3c-0.4-0.2-0.5-0.7-0.3-1.1l2.5-4.3
		l-4.5,1.2c-0.4,0.1-0.9-0.2-1-0.6c-0.1-0.4,0.2-0.9,0.6-1l6.1-1.7l2.9-5.1l-4.5,1.2c-0.4,0.1-0.9-0.2-1-0.6c-0.1-0.4,0.2-0.9,0.6-1
		l6.1-1.7l2.9-5.1l-4.5,1.2c-0.4,0.1-0.9-0.2-1-0.6c-0.1-0.4,0.2-0.9,0.6-1l6.1-1.7l0.9-1.6l-10.9-2.6l-0.7,0.4l-0.7,2.6
		c-0.1,0.5-0.6,0.7-1,0.6l-2.6-0.7l-0.6,0.3l-1.3,4.6c-0.1,0.5-0.6,0.7-1,0.6l-4.6-1.3l-0.6,0.3l-0.7,2.6c-0.1,0.5-0.6,0.7-1,0.6
		l-3-0.8l-0.1-0.1c0-0.1-0.1-0.1-0.1-0.1c-0.1,0-0.1-0.1-0.2-0.2c-0.1-0.1-0.1-0.2-0.1-0.3c0-0.1,0-0.1,0-0.2v-0.1l0.8-2.9
		c0.1-0.4,0.4-0.6,0.8-0.6c0.1,0,0.1,0,0.2,0l2.6,0.7l0.6-0.3l1.3-4.6c0.1-0.4,0.4-0.6,0.8-0.6c0.1,0,0.1,0,0.2,0l4.6,1.3l0.6-0.3
		l0.7-2.6c0.1-0.4,0.4-0.6,0.8-0.6c0.1,0,0.1,0,0.2,0l2.6,0.7l0.9-0.5l3.2-10.5h-2.1l-4.4,4.5c-0.3,0.3-0.9,0.3-1.2,0
		s-0.3-0.9,0-1.2l3.3-3.3h-5.8l-4.4,4.5c-0.3,0.3-0.9,0.3-1.2,0s-0.3-0.9,0-1.2l3.3-3.3h-5.9l-4.4,4.5c-0.3,0.3-0.9,0.3-1.2,0
		s-0.3-0.9,0-1.2l3.3-3.3h-5c-0.5,0-0.8-0.4-1.8-0.9c0-0.4,0.3-0.8,0.8-0.8h5l-3.3-3.3c-0.3-0.3-0.3-0.9,0-1.2
		c0.2-0.2,0.4-0.3,0.6-0.3s0.4,0,0.6,0.2l4.5,4.4h5.8l-3.3-3.3c-0.3-0.3-0.3-0.9,0-1.2c0.2-0.1,0.4-0.2,0.6-0.2s0.4,0,0.6,0.2
		l4.5,4.4h5.9l-3.3-3.3c-0.3-0.3-0.3-0.9,0-1.2c0.2-0.1,0.4-0.2,0.6-0.2s0.4,0,0.6,0.2l4.5,4.4h2l-3.1-10.4l-0.8-0.5l-2.6,0.7
		c-0.4,0.1-0.9-0.2-1-0.6l-0.7-2.6l-0.6-0.3l-4.6,1.2c-0.4,0.1-0.9-0.2-1-0.6l-1.2-4.6l-0.6-0.3l-2.6,0.7c-0.4,0.1-0.9-0.2-1-0.6
		l-0.8-2.9V213c0-0.1,0-0.1,0-0.2c0-0.1,0-0.2,0.1-0.3c0.1-0.1,0.2-0.2,0.3-0.3c0-0.1,0.1-0.1,0.1-0.1c0-0.1,0.1-0.1,0.1-0.1l3-0.8
		c0.1,0,0.1,0,0.2,0c0.4,0,0.7,0.2,0.8,0.6l0.7,2.6l0.6,0.3l4.6-1.2c0.1,0,0.1,0,0.2,0c0.4,0,0.7,0.2,0.8,0.6l1.2,4.6l0.6,0.3
		l2.6-0.7c0.1,0,0.1,0,0.2,0c0.4,0,0.7,0.2,0.8,0.6l0.7,2.6l0.8,0.4l10.8-2.6l-1.1-1.9l-6.1-1.6c-0.4-0.1-0.7-0.6-0.6-1
		c0.1-0.4,0.4-0.6,0.8-0.6c0.1,0,0.1,0,0.2,0l4.5,1.2l-2.9-5.1l-6.1-1.6c-0.4-0.1-0.7-0.6-0.6-1c0.1-0.3,0.4-0.6,0.8-0.6
		c0.1,0,0.1,0,0.2,0l4.5,1.2l-3-5.1l-6.1-1.6c-0.4-0.1-0.7-0.6-0.6-1c0.1-0.4,0.4-0.6,0.8-0.6c0.1,0,0.1,0,0.2,0l4.5,1.2l-2.5-4.3
		c-0.2-0.5-0.1-1,0.3-1.2c0.1-0.1,0.3-0.1,0.4-0.1c0.3,0,0.5,0.1,0.7,0.4l2.5,4.3l1.2-4.5c0.1-0.4,0.4-0.6,0.8-0.6
		c0.1,0,0.1,0,0.2,0c0.4,0.1,0.7,0.6,0.6,1l-1.6,6.1l2.9,5.1l1.2-4.5c0.1-0.4,0.4-0.6,0.8-0.6c0.1,0,0.1,0,0.2,0
		c0.4,0.1,0.7,0.6,0.6,1l-1.6,6.1l2.9,5.1l1.2-4.5c0.1-0.4,0.4-0.6,0.8-0.6c0.1,0,0.1,0,0.2,0c0.4,0.1,0.7,0.6,0.6,1l-1.6,6.1
		l1.1,1.9l7.5-8v-0.9l-1.9-1.9c-0.3-0.4-0.3-0.9,0-1.2l1.9-1.9v-0.7l-3.4-3.4c-0.3-0.4-0.3-0.9,0-1.2l3.4-3.4v-0.7l-1.9-1.9
		c-0.3-0.4-0.3-0.9,0-1.2l2.2-2.2c0-0.1,0.1-0.1,0.1-0.1c0.1,0,0.1-0.1,0.2-0.1c0.1-0.1,0.2-0.1,0.3-0.1s0.2,0.1,0.3,0.1
		c0.1,0,0.1,0.1,0.2,0.1c0,0.1,0.1,0.1,0.1,0.1l2.2,2.2c0.3,0.4,0.3,0.9,0,1.2l-1.9,1.9v0.7l3.4,3.4c0.3,0.4,0.3,0.9,0,1.2l-3.4,3.4
		v0.7l1.9,1.9c0.3,0.4,0.3,0.9,0,1.2l-1.9,1.9v0.9l7.6,8l1.1-1.9l-1.6-6.1c-0.1-0.4,0.2-0.9,0.6-1c0.1,0,0.1,0,0.2,0
		c0.4,0,0.7,0.2,0.8,0.6l1.2,4.5l3-5l-1.6-6.1c-0.1-0.4,0.2-0.9,0.6-1c0.1,0,0.1,0,0.2,0c0.4,0,0.7,0.2,0.8,0.6l1.2,4.5l3-5
		l-1.6-6.1c-0.1-0.4,0.2-0.9,0.6-1c0.1,0,0.1,0,0.2,0c0.4,0,0.7,0.2,0.8,0.6l1.2,4.5l2.5-4.3c0.1-0.3,0.4-0.4,0.7-0.4
		c0.1,0,0.3,0,0.4,0.1c0.4,0.3,0.5,0.8,0.3,1.2l-2.5,4.3l4.5-1.2c0.1,0,0.1,0,0.2,0c0.4,0,0.7,0.2,0.8,0.6c0.1,0.4-0.2,0.9-0.6,1
		l-6.1,1.6l-3,5.1l4.5-1.2c0.1,0,0.1,0,0.2,0c0.4,0,0.7,0.2,0.8,0.6c0.1,0.4-0.2,0.9-0.6,1l-6.1,1.6l-3,5.1l4.5-1.2
		c0.1,0,0.1,0,0.2,0c0.4,0,0.7,0.2,0.8,0.6c0.1,0.4-0.2,0.9-0.6,1l-6.1,1.6l-1.1,1.9l10.8,2.6l0.8-0.4l0.7-2.6
		c0.1-0.4,0.4-0.6,0.8-0.6c0.1,0,0.1,0,0.2,0l2.6,0.7l0.6-0.3l1.2-4.6c0.1-0.4,0.4-0.6,0.8-0.6c0.1,0,0.1,0,0.2,0l4.6,1.2l0.6-0.3
		l0.7-2.6c0.1-0.4,0.4-0.6,0.8-0.6c0.1,0,0.1,0,0.2,0l3,0.8c0,0.1,0.1,0.1,0.1,0.1c0,0.1,0.1,0.1,0.1,0.1c0.1,0.1,0.2,0.2,0.3,0.3
		c0.1,0.1,0.1,0.2,0.1,0.3c0,0.1,0,0.1,0,0.2v0.1l-0.8,2.9c-0.1,0.5-0.6,0.7-1,0.6l-2.6-0.7l-0.6,0.3l-1.3,4.6
		c-0.1,0.5-0.6,0.7-1,0.6l-4.6-1.2l-0.6,0.3l-0.7,2.6c-0.1,0.5-0.6,0.7-1,0.6l-2.6-0.7l-0.8,0.5l-3.2,10.6h2.1l4.5-4.4
		c0.2-0.1,0.4-0.2,0.6-0.2s0.4,0.1,0.6,0.3c0.3,0.3,0.3,0.9,0,1.2l-3.3,3.2l5.9,0.1l4.5-4.4c0.2-0.1,0.4-0.2,0.6-0.2
		s0.4,0.1,0.6,0.3c0.3,0.3,0.3,0.9,0,1.2l-3.3,3.2l5.9,0.1l4.5-4.4c0.2-0.1,0.4-0.2,0.6-0.2s0.4,0.1,0.6,0.3c0.3,0.3,0.3,0.9,0,1.2
		l-3.3,3.2l5,0.1c0.4,0.1,0.8,0.4,0.8,0.9C2772.9,236.2,2772.6,236.7,2772.1,236.6z M3967.3,200.7c1.2,0,2.1,0.9,2.1,2.1
		s-0.9,2.1-2.1,2.1s-2.1-0.9-2.1-2.1S3966.1,200.7,3967.3,200.7z M3964.5,205.1c1.4,0,2.6,1.2,2.6,2.6c0,1.4-1.2,2.6-2.6,2.6
		s-2.6-1.1-2.6-2.6C3961.9,206.3,3963.1,205.1,3964.5,205.1z M3959,209c0.4-0.1,0.8,0.2,0.9,0.6l1.1,4.5l4.5-1.1
		c0.4-0.1,0.8,0.2,0.9,0.6c0.1,0.4-0.2,0.8-0.6,0.9l-5.2,1.3c-0.1,0-0.1,0-0.2,0c-0.4,0-0.7-0.2-0.8-0.6l-1.2-5.3
		C3958.3,209.5,3958.6,209.1,3959,209z M3946.2,209.7c0.1-0.4,0.5-0.7,0.9-0.6c0.4,0.1,0.7,0.5,0.6,0.9l-1.3,5.2
		c-0.1,0.4-0.4,0.6-0.8,0.6c-0.1,0-0.1,0-0.2,0l-5.3-1.3c-0.4-0.1-0.7-0.5-0.6-0.9c0.1-0.5,0.6-0.7,1.1-0.5l4.5,1.1L3946.2,209.7z
		 M3944,207.7c0,1.4-1.2,2.6-2.6,2.6c-1.4,0-2.6-1.2-2.6-2.6c0-1.4,1.1-2.5,2.6-2.6C3942.8,205.1,3944,206.3,3944,207.7z
		 M3938.6,200.7c1.2,0,2.1,0.9,2.1,2.1s-0.9,2.1-2.1,2.1c-1.2,0-2.1-0.9-2.1-2.1S3937.4,200.7,3938.6,200.7z M3938.6,254
		c-1.2,0-2.1-0.9-2.1-2.1c0-1.2,0.9-2.1,2.1-2.1c1.1,0,2.1,1,2.1,2.1C3940.7,253.1,3939.8,254,3938.6,254z M3941.4,249.6
		c-1.4,0-2.6-1.2-2.6-2.6c0-1.4,1.2-2.6,2.6-2.6c1.4,0,2.5,1.2,2.6,2.6C3944,248.4,3942.8,249.6,3941.4,249.6z M3946.8,245.7
		c-0.4,0.1-0.8-0.2-0.9-0.6l-1.1-4.5l-4.5,1.1c-0.4,0.1-0.8-0.2-0.9-0.6c-0.1-0.4,0.2-0.8,0.6-0.9l5.3-1.3c0.1,0,0.1,0,0.2,0
		c0.4,0,0.7,0.2,0.8,0.6l1.3,5.3C3947.7,245.2,3947.4,245.7,3946.8,245.7z M3959.7,245.2c-0.1,0.4-0.5,0.7-0.9,0.6
		c-0.4-0.1-0.7-0.5-0.6-0.9l1.3-5.3c0.1-0.4,0.4-0.6,0.8-0.6c0.1,0,0.1,0,0.2,0l5.2,1.3c0.4,0.1,0.7,0.5,0.6,0.9
		c-0.1,0.4-0.5,0.7-1,0.6l-4.5-1.1L3959.7,245.2z M3961.9,247c0-1.4,1.2-2.6,2.6-2.6c1.4,0,2.6,1.2,2.6,2.6c0,1.4-1.2,2.6-2.6,2.6
		C3963.1,249.6,3961.9,248.4,3961.9,247z M3967.3,254c-1.2,0-2.1-0.9-2.1-2.1c0-1.2,0.9-2.1,2.1-2.1s2.1,1,2.1,2.1
		C3969.4,253.1,3968.5,254,3967.3,254z M3986.6,213.7c-0.1,0.4-0.5,0.6-0.9,0.5l-5.9-1.6l-3,1.7l4.5,1.2c0.4,0.1,0.6,0.5,0.5,0.9
		c-0.1,0.4-0.5,0.6-0.9,0.5l-5.9-1.6l-3,1.7l4.5,1.2c0.4,0.1,0.6,0.5,0.5,0.9c-0.1,0.4-0.5,0.6-0.9,0.5l-5.9-1.6l-5,2.9l-1.9,6.4
		l1.9,6.5l4.9,2.8l5.9-1.6c0.1,0,0.1,0,0.2,0c0.3,0,0.6,0.2,0.7,0.5c0.1,0.4-0.1,0.8-0.5,0.9l-4.5,1.2l3,1.8l5.9-1.6
		c0.1,0,0.1,0,0.2,0c0.3,0,0.6,0.2,0.7,0.5c0.1,0.4-0.1,0.8-0.5,0.9l-4.5,1.2l3,1.8l5.9-1.6c0.1,0,0.1,0,0.2,0
		c0.3,0,0.6,0.2,0.7,0.5c0.1,0.4-0.1,0.8-0.5,0.9l-4.5,1.2l3.8,2.2c0.4,0.2,0.5,0.7,0.3,1c-0.2,0.4-0.7,0.5-1,0.3l-3.8-2.2l1.2,4.5
		c0.1,0.4-0.1,0.8-0.5,0.9c-0.4,0.1-0.8-0.1-0.9-0.5l-1.6-5.9l-3-1.8l1.2,4.5c0.1,0.4-0.1,0.8-0.5,0.9c-0.4,0.1-0.8-0.1-0.9-0.5
		l-1.6-5.9l-3-1.8l1.2,4.5c0.1,0.4-0.1,0.8-0.5,0.9c-0.4,0.1-0.8-0.1-0.9-0.5l-1.6-5.9l-4.9-2.9l-6.5,1.5l-4.6,4.9v5.7l4.3,4.3
		c0.3,0.3,0.3,0.7,0,1s-0.7,0.3-1,0l-3.3-3.3v3.5l4.3,4.3c0.3,0.3,0.3,0.7,0,1s-0.7,0.3-1,0l-3.3-3.3v3.5l4.3,4.3
		c0.3,0.3,0.3,0.7,0,1s-0.7,0.3-1,0l-3.3-3.3v4.4c0,0.4-0.3,0.7-0.7,0.7s-0.7-0.3-0.7-0.7v-4.4l-3.3,3.3c-0.3,0.3-0.7,0.3-1,0
		s-0.3-0.7,0-1l4.3-4.3v-3.5l-3.3,3.3c-0.3,0.3-0.7,0.3-1,0s-0.3-0.7,0-1l4.3-4.3v-3.5l-3.3,3.3c-0.3,0.3-0.7,0.3-1,0s-0.3-0.7,0-1
		l4.3-4.3v-5.3l-4.6-4.9l-6.7-1.6l-4.8,2.7l-1.6,5.8c-0.1,0.4-0.5,0.6-0.9,0.5c-0.4-0.1-0.6-0.5-0.5-0.9l1.2-4.5l-3.1,1.7l-1.6,5.8
		c-0.1,0.4-0.5,0.6-0.9,0.5c-0.4-0.1-0.6-0.5-0.5-0.9l1.2-4.5l-3.1,1.7l-1.6,5.8c-0.1,0.4-0.5,0.6-0.9,0.5c-0.4-0.1-0.6-0.5-0.5-0.9
		l1.2-4.5l-3.9,2.2c-0.4,0.2-0.8,0-1-0.3c-0.2-0.4,0-0.8,0.3-1l3.9-2.2l-4.5-1.2c-0.4-0.1-0.6-0.5-0.5-0.9c0.1-0.3,0.4-0.5,0.7-0.5
		c0,0,0.1,0,0.3,0.1l5.8,1.6l3.1-1.7l-4.5-1.2c-0.4-0.1-0.6-0.5-0.5-0.9c0.1-0.3,0.4-0.5,0.7-0.5c0.1,0,0.1,0,0.2,0l5.8,1.6l3.1-1.7
		l-4.5-1.2c-0.4-0.1-0.6-0.5-0.5-0.9c0.1-0.3,0.4-0.5,0.7-0.5c0.1,0,0.1,0,0.2,0l5.8,1.6l5.1-2.9l1.9-6.2l-1.9-6.4l-5-2.9l-5.9,1.6
		c-0.4,0.1-0.8-0.1-0.9-0.5c-0.1-0.4,0.1-0.8,0.5-0.9l4.5-1.2l-3-1.7l-5.9,1.6c-0.4,0.1-0.8-0.1-0.9-0.5c-0.1-0.4,0.1-0.8,0.5-0.9
		l4.5-1.2l-3-1.7l-5.8,1.6c-0.4,0.1-0.8-0.1-0.9-0.5c-0.1-0.4,0.1-0.8,0.5-0.9l4.5-1.2l-3.8-2.2c-0.4-0.2-0.5-0.7-0.3-1
		c0.1-0.3,0.4-0.4,0.6-0.4s0.3,0,0.4,0.1l3.8,2.2l-1.2-4.5c-0.1-0.4,0.1-0.8,0.5-0.9c0.1,0,0.1,0,0.2,0c0.3,0,0.6,0.2,0.7,0.5
		l1.6,5.9l3,1.7l-1.2-4.5c-0.1-0.4,0.1-0.8,0.5-0.9c0.1,0,0.1,0,0.2,0c0.3,0,0.6,0.2,0.7,0.5l1.6,5.9l3,1.7l-1.2-4.5
		c-0.1-0.4,0.1-0.8,0.5-0.9c0.1,0,0.1,0,0.2,0c0.3,0,0.6,0.2,0.7,0.5l1.6,5.9l4.9,2.8l6.6-1.6l4.6-4.9v-5.8l-4.3-4.3
		c-0.3-0.3-0.3-0.7,0-1c0.1-0.1,0.3-0.2,0.5-0.2s0.4,0.1,0.5,0.2l3.3,3.3v-3.5l-4.3-4.3c-0.3-0.3-0.3-0.7,0-1
		c0.1-0.1,0.3-0.2,0.5-0.2s0.4,0.1,0.5,0.2l3.3,3.3v-3.5l-4.3-4.3c-0.3-0.3-0.3-0.7,0-1c0.1-0.1,0.3-0.2,0.5-0.2s0.4,0.1,0.5,0.2
		l3.3,3.3v-4.4c0-0.4,0.3-0.7,0.7-0.7s0.7,0.3,0.7,0.7v4.4l3.3-3.3c0.1-0.1,0.3-0.2,0.5-0.2s0.4,0.1,0.5,0.2c0.3,0.3,0.3,0.7,0,1
		l-4.3,4.3v3.5l3.3-3.3c0.1-0.1,0.3-0.2,0.5-0.2s0.4,0.1,0.5,0.2c0.3,0.3,0.3,0.7,0,1l-4.3,4.3v3.5l3.3-3.3c0.1-0.1,0.3-0.2,0.5-0.2
		s0.4,0.1,0.5,0.2c0.3,0.3,0.3,0.7,0,1l-4.3,4.3v5.7l4.6,4.9l6.6,1.6l4.9-2.8l1.6-5.9c0.1-0.3,0.4-0.5,0.7-0.5c0.1,0,0.1,0,0.2,0
		c0.4,0.1,0.6,0.5,0.5,0.9l-1.2,4.5l3-1.7l1.6-5.9c0.1-0.3,0.4-0.5,0.7-0.5c0.1,0,0.1,0,0.2,0c0.4,0.1,0.6,0.5,0.5,0.9l-1.2,4.5
		l3-1.7l1.6-5.9c0.1-0.3,0.4-0.5,0.7-0.5c0.1,0,0.1,0,0.2,0c0.4,0.1,0.6,0.5,0.5,0.9l-1.2,4.5l3.8-2.2c0.2-0.1,0.3-0.1,0.4-0.1
		c0.2,0,0.5,0.2,0.6,0.4c0.2,0.4,0,0.8-0.3,1l-3.8,2.2l4.5,1.2C3986.5,212.9,3986.7,213.3,3986.6,213.7z M3982,229.8
		c-1.1,0.5-2.4,0.1-2.9-0.9c-0.5-1.1-0.1-2.4,0.9-2.9c0.3-0.1,0.7-0.2,1-0.2c0.2,0,0.4,0,0.6,0.1c0.6,0.1,1,0.5,1.3,1
		C3983.4,228,3983,229.3,3982,229.8z M3976.5,230.1c-0.6,0.3-1.3,0.4-2,0.2c-0.6-0.2-1.2-0.7-1.5-1.3c-0.3-0.6-0.4-1.3-0.2-2
		c0.2-0.6,0.7-1.2,1.3-1.5c0.4-0.2,0.8-0.3,1.2-0.3c0.3,0,0.6,0,0.8,0.1c0.7,0.2,1.2,0.6,1.5,1.3
		C3978.2,227.9,3977.8,229.4,3976.5,230.1z M3971.2,230.9c0.3,0.3,0.2,0.9-0.1,1.1s-0.8,0.2-1.1-0.1l-3.6-4l-0.1-0.1
		c-0.1-0.3-0.1-0.7,0.2-0.9l4-3.6c0.3-0.2,0.8-0.2,1.1,0.1c0.3,0.3,0.3,0.8,0,0.9l-3.5,3.1L3971.2,230.9z M3922,226.9
		c0.4-0.7,1.1-1.1,1.9-1.1c0.3,0,0.7,0,1,0.2c1.1,0.6,1.4,1.9,0.9,2.9c-0.2,0.5-0.7,0.8-1.2,1c-0.5,0.2-1.1,0.1-1.7-0.1
		C3921.8,229.2,3921.5,227.9,3922,226.9z M3927.3,226.5c0.3-0.7,0.8-1.1,1.5-1.3c0.3-0.1,0.5-0.1,0.8-0.1c0.4,0,0.8,0.1,1.2,0.3
		c0.7,0.3,1.1,0.8,1.3,1.5c0.2,0.7,0.1,1.4-0.2,2c-0.3,0.7-0.8,1.1-1.5,1.3c-0.6,0.2-1.3,0.2-2-0.2
		C3927.1,229.3,3926.6,227.8,3927.3,226.5z M3933.6,224.6c-0.4-0.3-0.4-0.8-0.1-1.1c0.3-0.4,0.8-0.4,1.1-0.1l4,3.6
		c0.3,0.2,0.4,0.6,0.2,0.9l-0.1,0.1l-3.6,4c-0.3,0.4-0.8,0.4-1.1,0.1c-0.4-0.3-0.4-0.8,0-0.9l3.1-3.5L3933.6,224.6z"/>
	<path class="elementor-shape-fill ha-shape-divider" d="M155.1,128.7c-1.1,0-2.1,0.7-2.3,1.7h4.6C157.1,129.4,156.2,128.7,155.1,128.7z"/>
	<path class="elementor-shape-fill ha-shape-divider" d="M155.1,133.6c1.1,0,2-0.7,2.3-1.7h-4.6C153.1,132.9,154,133.6,155.1,133.6z"/>
	<path class="elementor-shape-fill ha-shape-divider" d="M3956.7,227.3c0,0.5-0.1,1-0.3,1.4l7,4l-1.6-5.2c0-0.1,0-0.3,0-0.4l1.6-5.2l-7,4C3956.6,226.4,3956.7,226.8,3956.7,227.3z"
		/>
	<path class="elementor-shape-fill ha-shape-divider" d="M3962.7,220.7l-5.3-1.3c-0.2,0-0.3-0.1-0.4-0.2l-3.7-4v8.1c1,0.2,1.8,0.7,2.4,1.4L3962.7,220.7z"/>
	<path class="elementor-shape-fill ha-shape-divider" d="M117.2,129.8c-0.4-0.5-1-0.7-1.7-0.7c-0.6,0-1.2,0.2-1.7,0.7c-0.3,0.3-0.5,0.6-0.6,1.1l4.6-0.1
		C117.7,130.4,117.5,130.1,117.2,129.8z"/>
	<path class="elementor-shape-fill ha-shape-divider" d="M547.3,199.9c-6.8,2.1-13.5,4.7-19.9,7.5c1.7-0.7,3.5-1.2,5.4-1.7c2.5-0.6,5.1-1,7.7-1.3c1.2-0.9,2.5-1.8,3.8-2.7
		C545.3,201.1,546.3,200.5,547.3,199.9z"/>
	<path class="elementor-shape-fill ha-shape-divider" d="M3953.2,231.1v8.1l3.7-3.9c0.1-0.1,0.3-0.2,0.4-0.2l5.3-1.4l-7-4C3955,230.4,3954.1,230.9,3953.2,231.1z"/>
	<path class="elementor-shape-fill ha-shape-divider" d="M3974.8,226.7c-0.3,0.2-0.5,0.4-0.6,0.7c-0.1,0.3,0,0.6,0.1,0.9c0.2,0.3,0.4,0.5,0.7,0.6c0.3,0.1,0.6,0,0.9-0.1
		c0.6-0.3,0.8-1,0.5-1.6C3976.1,226.6,3975.4,226.4,3974.8,226.7z"/>
	<path class="elementor-shape-fill ha-shape-divider" d="M115.6,133.9c0.6,0,1.2-0.2,1.7-0.7c0.2-0.3,0.4-0.6,0.6-1.1l-4.6,0.1C113.6,133.2,114.5,133.9,115.6,133.9z"/>
	<path class="elementor-shape-fill ha-shape-divider" d="M3981.3,227.2c-0.2,0-0.3,0-0.5,0.1c-0.4,0.2-0.5,0.6-0.3,0.9c0.1,0.3,0.4,0.4,0.6,0.4c0.1,0,0.2,0,0.3-0.1
		c0.3-0.2,0.4-0.6,0.3-1C3981.6,227.4,3981.5,227.3,3981.3,227.2z"/>
	<path class="elementor-shape-fill ha-shape-divider" d="M3948.6,227.4c0-0.5,0-1,0.2-1.4l-7-4l1.5,5.1c0,0.1,0,0.3,0,0.4l-1.4,5.1l6.9-3.9C3948.7,228.3,3948.6,227.9,3948.6,227.4
		z"/>
	<polygon points="2723.1,223.6 2727.9,218.5 2727.9,213.3 2721.2,220.4 	"/>
	<polygon points="2741.5,234.2 2745.2,234.3 2748,224.9 2743.5,227.5 	"/>
	<polygon points="2727.9,221 2724,225.1 2726.8,229.9 2727.9,228.7 2727.9,228.7 	"/>
	<polygon points="2742.7,226.1 2747.2,223.5 2737.7,221.3 2735.8,224.5 	"/>
	<polygon points="2740.7,243 2733.9,239.1 2732.3,239.5 2735.1,244.3 	"/>
	<polygon points="2739.8,234.2 2741.4,228.8 2734.7,232.7 2734.3,234.2 	"/>
	<polygon points="2733.7,245.1 2730.9,240.3 2729.6,241.6 2729.7,241.6 2729.7,249.4 	"/>
	<polygon points="2739.8,236 2734.2,235.9 2734.7,237.6 2741.4,241.5 	"/>
	<polygon points="2732.1,230.8 2733.9,231.2 2740.6,227.3 2734.9,226 	"/>
	<polygon points="2723.9,245.1 2727.9,249.3 2727.9,241.6 2726.7,240.3 	"/>
	<polygon points="2725.1,239.5 2723.5,239.1 2716.7,243 2722.4,244.3 	"/>
	<polygon points="2722.5,225.9 2716.8,227.3 2723.5,231.2 2725.3,230.8 	"/>
	<polygon points="2722.7,232.7 2716,228.8 2717.6,234.1 2723.1,234.1 	"/>
	<polygon points="2723.3,235.8 2717.8,235.8 2716.1,241.4 2722.8,237.6 	"/>
	<polygon points="2721.2,249.9 2727.8,257 2727.8,251.8 2723,246.7 	"/>
	<polygon points="2714.6,244.2 2710.1,246.8 2719.7,249 2721.5,245.8 	"/>
	<polygon points="2715.9,234.2 2713.9,227.6 2709.4,225 2712.2,234.2 	"/>
	<polygon points="2715.9,235.8 2712.2,235.8 2709.4,245.2 2713.9,242.6 	"/>
	<path class="elementor-shape-fill ha-shape-divider" d="M147.7,148.8c0.1-0.6,0-1.2-0.3-1.8c-0.3-0.5-0.9-0.9-1.5-1.1c-0.4-0.1-0.8-0.1-1.1-0.1l2.3,4
		C147.4,149.5,147.6,149.2,147.7,148.8z"/>
	<path class="elementor-shape-fill ha-shape-divider" d="M3967.3,203.5c0.4,0,0.7-0.3,0.7-0.7c0-0.4-0.3-0.7-0.7-0.7c-0.4,0-0.7,0.3-0.7,0.7
		C3966.6,203.2,3966.9,203.5,3967.3,203.5z"/>
	<polygon points="2729.6,251.8 2729.6,257 2736.4,249.8 2734.5,246.6 	"/>
	<path class="elementor-shape-fill ha-shape-divider" d="M3964.5,209c0.7,0,1.2-0.6,1.2-1.2c0-0.7-0.6-1.2-1.2-1.2s-1.1,0.5-1.2,1.2C3963.3,208.5,3963.8,209,3964.5,209z"/>
	<path class="elementor-shape-fill ha-shape-divider" d="M142.1,126.3l3.5-2.1c-2.1-3.2-5.6-5.3-9.7-5.4v4l2.6,2.7L142.1,126.3z"/>
	<polygon points="2741.5,236 2743.5,242.6 2748,245.1 2745.2,236.1 	"/>
	<polygon points="2736,245.8 2737.8,249 2747.4,246.8 2742.9,244.2 	"/>
	<path class="elementor-shape-fill ha-shape-divider" d="M138.5,136.8l-2.5,2.7v4.1c4.1-0.2,7.7-2.5,9.7-5.8l-3.4-1.9L138.5,136.8z"/>
	<polygon points="2733.5,225.2 2729.6,221 2729.6,228.7 2730.7,229.9 	"/>
	<path class="elementor-shape-fill ha-shape-divider" d="M124.9,124.4l3.5,2l3.6-0.9l2.6-2.8v-4C130.5,118.9,126.9,121.1,124.9,124.4z"/>
	<polygon points="2736.2,220.4 2729.5,213.3 2729.5,218.5 2734.3,223.6 	"/>
	<path class="elementor-shape-fill ha-shape-divider" d="M144.6,150.6c0.2,0.1,0.4,0.1,0.6,0.1c0.2,0,0.4-0.1,0.5,0l-2.3-4c-0.3,0.3-0.5,0.6-0.6,1c-0.1,0.6,0,1.2,0.3,1.8
		C143.4,150,144,150.4,144.6,150.6z"/>
</g>
</svg>
