<svg xmlns="http://www.w3.org/2000/svg" viewBox="0 0 4080 380" preserveAspectRatio="none">
<g>
	<path class="elementor-shape-fill ha-shape-divider" d="M1564.2,248.9c-0.5,0.1-1.1,0.2-1.5,0.4l-0.3,0.1c-0.5,0.2-1,0.4-1.4,0.7c-0.6,0.4-1.1,0.9-1.6,1.4
		c-0.5,0.5-0.9,1.1-1.2,1.7c-0.3,0.7-0.5,1.4-0.5,2.1c-0.1,0.7-0.1,1.5,0,2.1c0.1,0.5,0.2,1.1,0.4,1.5l0.1,0.3
		c0.2,0.5,0.4,1,0.7,1.4c0.4,0.6,0.8,1.2,1.4,1.6c0.5,0.5,1.1,0.9,1.7,1.2c0.7,0.3,1.4,0.5,2.1,0.5c0.7,0.1,1.4,0.1,2.1,0
		c0.5-0.1,1.1-0.2,1.5-0.4l0.3-0.1c0.5-0.2,1-0.4,1.4-0.7c0.6-0.4,1.1-0.9,1.6-1.4c0.5-0.5,0.9-1.1,1.2-1.7c0.3-0.7,0.5-1.4,0.5-2.1
		c0.1-0.7,0.1-1.5-0.1-2.1c-0.1-0.5-0.2-1.1-0.4-1.5l-0.1-0.3c-0.2-0.5-0.4-1-0.7-1.4c-0.4-0.6-0.9-1.1-1.4-1.6
		c-0.5-0.5-1.1-0.9-1.7-1.2c-0.7-0.3-1.4-0.5-2.1-0.5C1565.6,248.8,1564.8,248.8,1564.2,248.9z"/>
	<path class="elementor-shape-fill ha-shape-divider" d="M1555.2,221.3c4.6,5.1,7.3,9.7,8.9,13.3l0-6.9l0,0c-0.1-0.5-0.6-5-5.7-11L1555.2,221.3z"/>
	<path class="elementor-shape-fill ha-shape-divider" d="M1564.2,277.8c-1.7,3.5-4.7,7.7-10.2,11.9l3.7,5.6c5.6-4.4,6.3-8.9,6.4-9.8l0-0.1c0,0,0-0.1,0-0.1L1564.2,277.8z"/>
	<path class="elementor-shape-fill ha-shape-divider" d="M1135.5,93.7c-1.9,0-3.5,1.5-3.5,3.5c0,1.2,0.6,2.2,1.5,2.9c0.6,0,1.3,0,2,0c0.7,0,1.3,0,1.9,0c0.9-0.6,1.5-1.7,1.5-2.8
		C1139,95.2,1137.4,93.7,1135.5,93.7z"/>
	<path class="elementor-shape-fill ha-shape-divider" d="M1548.3,270.4c-3.5,1.2-8.7,2.4-15.8,2.4l-1.4,5.5c4.3-0.2,7.3-1,9.1-1.7c1.8-0.7,2.7-1.3,2.9-1.5l0,0L1548.3,270.4z"/>
	<path class="elementor-shape-fill ha-shape-divider" d="M1108.7,144.2c1.1,0,2-0.5,2.7-1.3c0.4-0.5,0.6-1,0.7-1.6c0-0.1,0-0.3,0-0.4c0-1.9-1.5-3.4-3.4-3.4c-1.9,0-3.4,1.5-3.4,3.4
		C1105.3,142.7,1106.8,144.2,1108.7,144.2z"/>
	<path class="elementor-shape-fill ha-shape-divider" d="M1536.2,257.6L1536.2,257.6c-1,0.1-5,0.8-10.9,5.8l4.7,3.1c5.3-4.7,10-7.4,13.3-8.9h-7
		C1536.4,257.6,1536.3,257.6,1536.2,257.6z"/>
	<path class="elementor-shape-fill ha-shape-divider" d="M1544.6,276.7C1544.6,276.7,1544.6,276.7,1544.6,276.7c-0.1,0.1-0.2,0.2-0.2,0.2c-0.7,0.9-3.3,4.5-2.8,11.3l6.6-1
		c-0.6-6.8,0.5-11.9,2-15.5L1544.6,276.7z"/>
	<path class="elementor-shape-fill ha-shape-divider" d="M1548.9,223.8l-5.5-1.4c0.3,7.9,2.9,11.6,3.2,12l0,0l4.7,5.1C1550,235.9,1548.9,230.7,1548.9,223.8z"/>
	<path class="elementor-shape-fill ha-shape-divider" d="M1532,245.3l-5.6,3.7c4.2,5.3,8.5,6.2,9.7,6.4c0.1,0,0.2,0,0.2,0c0.1,0,0.1,0,0.1,0l7.5,0
		C1540.4,253.8,1536.1,250.8,1532,245.3z"/>
	<path class="elementor-shape-fill ha-shape-divider" d="M1545,235.8L1545,235.8c-0.7-0.6-4.3-3.5-11.4-3l1,6.7c6.8-0.6,11.9,0.5,15.5,1.9L1545,235.8
		C1545,235.9,1545,235.8,1545,235.8z"/>
	<path class="elementor-shape-fill ha-shape-divider" d="M1097.3,151.3c0,21.1,17.1,38.2,38.2,38.2c21.1,0,38.2-17.1,38.2-38.2c0-21.1-17.1-38.2-38.2-38.2
		C1114.4,113.1,1097.3,130.2,1097.3,151.3z M1113.8,140.8c0,0.4,0,0.7-0.1,1.1l1.9,0.7c0.6-0.9,1.6-1.5,2.8-1.5
		c1.9,0,3.4,1.5,3.4,3.4c0,0.2,0,0.3-0.1,0.5l12.4,4.8l-4.8-12.4c-0.2,0.1-0.3,0.1-0.5,0.1c-1.9,0-3.4-1.5-3.4-3.4
		c0-1.2,0.6-2.2,1.5-2.8l-0.7-1.8c-0.3,0.1-0.7,0.1-1.1,0.1c-2.8,0-5.1-2.3-5.1-5.1c0-2.8,2.3-5.1,5.1-5.1c2.8,0,5.1,2.3,5.1,5.1
		c0,1.8-1,3.4-2.4,4.3l0.8,2c0.1,0,0.1,0,0.2,0c1.8,0,3.4,1.5,3.4,3.4c0,1.1-0.5,2-1.2,2.6l4.7,12.2l4.7-12.2
		c-0.7-0.6-1.2-1.5-1.2-2.6c0-1.9,1.5-3.4,3.4-3.4c0.1,0,0.1,0,0.2,0l0.8-2c-1.4-0.9-2.4-2.5-2.4-4.3c0-2.8,2.3-5.1,5.1-5.1
		c2.8,0,5.1,2.3,5.1,5.1c0,2.8-2.3,5.1-5.1,5.1c-0.4,0-0.7,0-1.1-0.1l-0.7,1.8c0.9,0.6,1.5,1.6,1.5,2.8c0,1.9-1.5,3.4-3.4,3.4
		c-0.2,0-0.4,0-0.5-0.1l-4.8,12.4l12.4-4.8c-0.1-0.2-0.1-0.3-0.1-0.5c0-1.9,1.5-3.4,3.4-3.4c1.2,0,2.2,0.6,2.8,1.5l1.9-0.7
		c-0.1-0.4-0.1-0.7-0.1-1.1c0-2.8,2.3-5.1,5.1-5.1c2.8,0,5.1,2.3,5.1,5.1c0,2.8-2.3,5.1-5.1,5.1c-1.8,0-3.4-1-4.3-2.4l-2,0.8
		c0,0.1,0,0.1,0,0.2c0,1.9-1.5,3.4-3.3,3.4c-1,0-2-0.5-2.6-1.2l-12.2,4.7l12.2,4.7c0.6-0.7,1.5-1.2,2.6-1.2c1.9,0,3.3,1.5,3.3,3.4
		c0,0.1,0,0.1,0,0.2l2,0.8c0.9-1.4,2.5-2.4,4.3-2.4c2.8,0,5.1,2.3,5.1,5.1c0,2.8-2.3,5.1-5.1,5.1c-2.8,0-5.1-2.3-5.1-5.1
		c0-0.4,0-0.7,0.1-1.1l-1.9-0.7c-0.6,0.9-1.6,1.5-2.8,1.5c-1.9,0-3.4-1.5-3.4-3.4c0-0.2,0-0.3,0.1-0.5l-12.4-4.8l4.8,12.4
		c0.2-0.1,0.4-0.1,0.5-0.1c1.9,0,3.4,1.5,3.4,3.4c0,1.2-0.6,2.2-1.5,2.8l0.7,1.8c0.3-0.1,0.7-0.1,1.1-0.1c2.8,0,5.1,2.3,5.1,5.1
		c0,2.8-2.3,5.1-5.1,5.1c-2.8,0-5.1-2.3-5.1-5.1c0-1.8,1-3.4,2.4-4.3l-0.8-2c-0.1,0-0.1,0-0.2,0c-1.9,0-3.4-1.5-3.4-3.4
		c0-1,0.5-2,1.2-2.6l-4.7-12.2l-4.7,12.2c0.7,0.6,1.2,1.5,1.2,2.6c0,1.9-1.5,3.4-3.4,3.4c-0.1,0-0.1,0-0.2,0l-0.8,2
		c1.4,0.9,2.4,2.5,2.4,4.3c0,2.8-2.3,5.1-5.1,5.1c-2.8,0-5.1-2.3-5.1-5.1c0-2.8,2.3-5.1,5.1-5.1c0.4,0,0.7,0,1.1,0.1l0.7-1.8
		c-0.9-0.6-1.5-1.6-1.5-2.8c0-1.9,1.5-3.4,3.4-3.4c0.2,0,0.3,0,0.5,0.1l4.8-12.4l-12.4,4.8c0.1,0.2,0.1,0.4,0.1,0.5
		c0,1.9-1.5,3.4-3.4,3.4c-1.2,0-2.2-0.6-2.8-1.5l-1.9,0.7c0.1,0.4,0.1,0.7,0.1,1.1c0,2.8-2.3,5.1-5.1,5.1c-2.8,0-5.1-2.3-5.1-5.1
		c0-2.8,2.3-5.1,5.1-5.1c1.8,0,3.4,1,4.3,2.4l2-0.8c0-0.1,0-0.1,0-0.2c0-1.9,1.5-3.4,3.3-3.4c1,0,2,0.5,2.6,1.2l12.2-4.7l-12.2-4.7
		c-0.6,0.7-1.5,1.2-2.6,1.2c-1.9,0-3.3-1.5-3.3-3.4c0-0.1,0-0.1,0-0.2l-2-0.8c-0.9,1.4-2.5,2.4-4.3,2.4c-2.8,0-5.1-2.3-5.1-5.1
		c0-2.8,2.3-5.1,5.1-5.1C1111.5,135.7,1113.8,138,1113.8,140.8z"/>
	<path class="elementor-shape-fill ha-shape-divider" d="M1152.7,159.8c0.4,0,0.8-0.2,1-0.5c0.3-0.2,0.5-0.7,0.5-1.2c0-0.2,0-0.3-0.1-0.5v0c-0.2-0.6-0.8-1-1.5-1
		c-0.3,0-0.5,0.1-0.7,0.2c-0.5,0.2-0.9,0.8-0.9,1.4c0,0,0,0.1,0,0.1C1151.2,159.1,1151.9,159.8,1152.7,159.8z"/>
	<path class="elementor-shape-fill ha-shape-divider" d="M1162.4,165.2c1.9,0,3.4-1.5,3.4-3.4c0-1.9-1.5-3.4-3.4-3.4c-1.1,0-2,0.5-2.7,1.3c-0.4,0.5-0.6,1-0.7,1.6
		c0,0.1,0,0.3,0,0.4C1159,163.6,1160.5,165.2,1162.4,165.2z"/>
	<path class="elementor-shape-fill ha-shape-divider" d="M1159.7,142.9c0.6,0.8,1.6,1.3,2.7,1.3c1.9,0,3.4-1.5,3.4-3.4c0-1.9-1.5-3.4-3.4-3.4c-1.9,0-3.4,1.5-3.4,3.4
		c0,0.1,0,0.3,0,0.4C1159.1,141.8,1159.4,142.4,1159.7,142.9z"/>
	<path class="elementor-shape-fill ha-shape-divider" d="M1142.7,178.1c0,1.9,1.5,3.3,3.4,3.3c1.9,0,3.4-1.5,3.4-3.3c0-1.9-1.5-3.4-3.4-3.4c-0.1,0-0.3,0-0.4,0
		c-0.6,0.1-1.2,0.3-1.6,0.7C1143.2,176.1,1142.7,177.1,1142.7,178.1z"/>
	<path class="elementor-shape-fill ha-shape-divider" d="M1116.8,145c0.2,0.6,0.8,1.1,1.5,1.1c0.3,0,0.5-0.1,0.7-0.2c0.5-0.2,0.9-0.8,0.9-1.4c0,0,0-0.1,0-0.1
		c0-0.8-0.7-1.5-1.6-1.5c-0.4,0-0.8,0.2-1.1,0.5c-0.3,0.2-0.5,0.7-0.5,1.2C1116.7,144.7,1116.8,144.8,1116.8,145L1116.8,145z"/>
	<path class="elementor-shape-fill ha-shape-divider" d="M1141.9,170c0.2,0.1,0.4,0.1,0.5,0.1c0.5,0,0.9-0.2,1.2-0.6c0.3-0.3,0.5-0.7,0.5-1c0-0.9-0.7-1.5-1.5-1.6c0,0-0.1,0-0.1,0
		c-0.6,0-1.2,0.3-1.4,0.9c-0.1,0.2-0.2,0.5-0.2,0.7C1140.8,169.2,1141.2,169.8,1141.9,170z"/>
	<path class="elementor-shape-fill ha-shape-divider" d="M1129.2,132.6c-0.2-0.1-0.3-0.1-0.5-0.1c-0.5,0-0.9,0.2-1.2,0.6c-0.3,0.3-0.5,0.7-0.5,1c0,0.9,0.7,1.5,1.5,1.6
		c0,0,0.1,0,0.1,0c0.6,0,1.2-0.4,1.4-0.9c0.1-0.2,0.2-0.5,0.2-0.7C1130.3,133.4,1129.8,132.8,1129.2,132.6z"/>
	<path class="elementor-shape-fill ha-shape-divider" d="M1152,145.8c0.2,0.1,0.5,0.2,0.7,0.2c0.7,0,1.3-0.5,1.5-1.1v0c0.1-0.2,0.1-0.3,0.1-0.5c0-0.5-0.2-0.9-0.5-1.2
		c-0.3-0.3-0.6-0.5-1-0.5c-0.9,0-1.5,0.7-1.6,1.5c0,0,0,0.1,0,0.1C1151.1,145.1,1151.5,145.6,1152,145.8z"/>
	<path class="elementor-shape-fill ha-shape-divider" d="M1128.4,124.5c0-1.9-1.5-3.3-3.4-3.3c-1.9,0-3.4,1.5-3.4,3.3c0,1.9,1.5,3.4,3.4,3.4c0.1,0,0.3,0,0.4,0
		c0.6-0.1,1.2-0.3,1.6-0.7C1127.9,126.5,1128.4,125.5,1128.4,124.5z"/>
	<path class="elementor-shape-fill ha-shape-divider" d="M1144,127.1c0.5,0.3,1,0.6,1.6,0.7c0.1,0,0.3,0,0.4,0c1.9,0,3.4-1.5,3.4-3.4c0-1.9-1.5-3.3-3.4-3.3c-1.9,0-3.4,1.5-3.4,3.3
		C1142.7,125.5,1143.2,126.5,1144,127.1z"/>
	<path class="elementor-shape-fill ha-shape-divider" d="M1142.4,135.7c0,0,0.1,0,0.1,0c0.8,0,1.5-0.7,1.5-1.6c0-0.4-0.1-0.8-0.5-1c-0.2-0.3-0.7-0.6-1.2-0.6c-0.2,0-0.4,0-0.5,0.1
		c-0.6,0.2-1.1,0.8-1.1,1.5c0,0.3,0.1,0.5,0.2,0.7C1141.2,135.3,1141.8,135.7,1142.4,135.7z"/>
	<path class="elementor-shape-fill ha-shape-divider" d="M2080.1,343.7c0,0-0.1,0-0.1,0c-0.8,0-1.5,0.7-1.5,1.6c0,0.4,0.1,0.8,0.5,1c0.2,0.3,0.7,0.6,1.2,0.6c0.2,0,0.3,0,0.5-0.1
		c0.6-0.2,1.1-0.8,1.1-1.5c0-0.3-0.1-0.5-0.2-0.7C2081.2,344,2080.7,343.7,2080.1,343.7z"/>
	<path class="elementor-shape-fill ha-shape-divider" d="M2113.8,341.9c1.9,0,3.4-1.5,3.4-3.4c0-1.9-1.5-3.4-3.4-3.4c-1.1,0-2,0.5-2.7,1.3c-0.4,0.5-0.6,1-0.7,1.6
		c0,0.1,0,0.3,0,0.4C2110.4,340.4,2111.9,341.9,2113.8,341.9z"/>
	<path class="elementor-shape-fill ha-shape-divider" d="M1128.7,166.9c0,0-0.1,0-0.1,0c-0.8,0-1.5,0.7-1.5,1.6c0,0.4,0.1,0.8,0.5,1c0.2,0.3,0.7,0.6,1.2,0.6c0.2,0,0.3,0,0.5-0.1
		c0.6-0.2,1.1-0.8,1.1-1.5c0-0.3-0.1-0.5-0.2-0.7C1129.8,167.3,1129.3,166.9,1128.7,166.9z"/>
	<path class="elementor-shape-fill ha-shape-divider" d="M2093.3,346.8c0.2,0.1,0.4,0.1,0.5,0.1c0.5,0,0.9-0.2,1.2-0.6c0.3-0.3,0.5-0.7,0.5-1c0-0.9-0.7-1.5-1.5-1.6
		c0,0-0.1,0-0.1,0c-0.6,0-1.2,0.3-1.4,0.9c-0.1,0.2-0.2,0.5-0.2,0.7C2092.2,346,2092.6,346.6,2093.3,346.8z"/>
	<path class="elementor-shape-fill ha-shape-divider" d="M2094.1,354.9c0,1.9,1.5,3.3,3.4,3.3c1.9,0,3.4-1.5,3.4-3.3c0-1.9-1.5-3.4-3.4-3.4c-0.1,0-0.3,0-0.4,0
		c-0.6,0.1-1.2,0.3-1.6,0.7C2094.6,352.9,2094.1,353.8,2094.1,354.9z"/>
	<path class="elementor-shape-fill ha-shape-divider" d="M2111.1,319.6c0.6,0.8,1.6,1.3,2.7,1.3c1.9,0,3.4-1.5,3.4-3.4c0-1.9-1.5-3.4-3.4-3.4c-1.9,0-3.4,1.5-3.4,3.4
		c0,0.1,0,0.3,0,0.4C2110.5,318.6,2110.8,319.2,2111.1,319.6z"/>
	<path class="elementor-shape-fill ha-shape-divider" d="M2104.1,336.5c0.4,0,0.8-0.2,1-0.5c0.3-0.2,0.5-0.7,0.5-1.2c0-0.2,0-0.3-0.1-0.5v0c-0.2-0.6-0.8-1-1.5-1
		c-0.3,0-0.5,0.1-0.7,0.2c-0.5,0.2-0.9,0.8-0.9,1.4c0,0,0,0.1,0,0.1C2102.6,335.9,2103.3,336.5,2104.1,336.5z"/>
	<path class="elementor-shape-fill ha-shape-divider" d="M2080.6,309.3c-0.2-0.1-0.3-0.1-0.5-0.1c-0.5,0-0.9,0.2-1.2,0.6c-0.3,0.3-0.5,0.7-0.5,1c0,0.9,0.7,1.5,1.5,1.6
		c0,0,0.1,0,0.1,0c0.6,0,1.2-0.4,1.4-0.9c0.1-0.2,0.2-0.5,0.2-0.7C2081.7,310.1,2081.2,309.6,2080.6,309.3z"/>
	<path class="elementor-shape-fill ha-shape-divider" d="M2079.8,301.2c0-1.9-1.5-3.3-3.4-3.3c-1.9,0-3.4,1.5-3.4,3.3c0,1.9,1.5,3.4,3.4,3.4c0.1,0,0.3,0,0.4,0
		c0.6-0.1,1.2-0.3,1.6-0.7C2079.3,303.3,2079.8,302.3,2079.8,301.2z"/>
	<path class="elementor-shape-fill ha-shape-divider" d="M2103.4,322.6c0.2,0.1,0.5,0.2,0.7,0.2c0.7,0,1.3-0.5,1.5-1.1v0c0.1-0.2,0.1-0.3,0.1-0.5c0-0.5-0.2-0.9-0.5-1.2
		c-0.3-0.3-0.6-0.5-1-0.5c-0.9,0-1.5,0.7-1.6,1.5c0,0,0,0.1,0,0.1C2102.5,321.8,2102.9,322.4,2103.4,322.6z"/>
	<path class="elementor-shape-fill ha-shape-divider" d="M2095.4,303.9c0.5,0.3,1,0.6,1.6,0.7c0.1,0,0.3,0,0.4,0c1.9,0,3.4-1.5,3.4-3.4c0-1.9-1.5-3.3-3.4-3.3
		c-1.9,0-3.4,1.5-3.4,3.3C2094.1,302.3,2094.6,303.3,2095.4,303.9z"/>
	<path class="elementor-shape-fill ha-shape-divider" d="M2093.8,312.5c0,0,0.1,0,0.1,0c0.8,0,1.5-0.7,1.5-1.6c0-0.4-0.1-0.8-0.5-1c-0.2-0.3-0.7-0.6-1.2-0.6c-0.2,0-0.4,0-0.5,0.1
		c-0.6,0.2-1.1,0.8-1.1,1.5c0,0.3,0.1,0.5,0.2,0.7C2092.6,312.1,2093.2,312.5,2093.8,312.5z"/>
	<path class="elementor-shape-fill ha-shape-divider" d="M1598.4,267.7l5.6-3.7c-4.2-5.3-8.5-6.2-9.7-6.4c-0.1,0-0.1,0-0.2,0c-0.1,0-0.1,0-0.1,0l-7.5,0
		C1590.1,259.2,1594.3,262.2,1598.4,267.7z"/>
	<path class="elementor-shape-fill ha-shape-divider" d="M1594.3,255.4L1594.3,255.4c1.1-0.1,5-0.8,10.8-5.8l-4.7-3.1c-5.3,4.8-10,7.4-13.4,8.9l7,0
		C1594.1,255.4,1594.2,255.4,1594.3,255.4z"/>
	<path class="elementor-shape-fill ha-shape-divider" d="M1575.2,291.7c-4.7-5.2-7.3-9.8-8.9-13.3l0,7l0,0c0.1,0.5,0.6,5,5.7,11L1575.2,291.7z"/>
	<path class="elementor-shape-fill ha-shape-divider" d="M1581.6,289.2l5.5,1.4c-0.3-7.9-2.9-11.6-3.2-12l0,0l-4.7-5.1C1580.4,277.1,1581.5,282.3,1581.6,289.2z"/>
	<path class="elementor-shape-fill ha-shape-divider" d="M1585.9,236.3C1585.9,236.3,1585.9,236.3,1585.9,236.3c0.1-0.1,0.1-0.1,0.2-0.2c0.7-0.9,3.3-4.5,2.8-11.3l-6.7,1
		c0.7,6.8-0.5,11.9-1.9,15.5L1585.9,236.3z"/>
	<path class="elementor-shape-fill ha-shape-divider" d="M2078.5,352.2c-0.5-0.4-1-0.6-1.6-0.7c-0.1,0-0.3,0-0.4,0c-1.9,0-3.4,1.5-3.4,3.4c0,1.9,1.5,3.3,3.4,3.3
		c1.9,0,3.4-1.5,3.4-3.3C2079.8,353.8,2079.3,352.9,2078.5,352.2z"/>
	<path class="elementor-shape-fill ha-shape-divider" d="M1585.5,277.2c0,0,0.1,0.1,0.1,0.1c0.9,0.7,4.5,3.3,11.3,2.8l-1.1-6.6c-6.8,0.7-11.9-0.5-15.5-1.9L1585.5,277.2
		C1585.4,277.1,1585.4,277.2,1585.5,277.2z"/>
	<path class="elementor-shape-fill ha-shape-divider" d="M2062.7,336.5c-0.6-0.8-1.6-1.3-2.7-1.3c-1.9,0-3.4,1.5-3.4,3.4c0,1.9,1.5,3.4,3.4,3.4c1.9,0,3.4-1.5,3.4-3.4
		c0-0.1,0-0.3,0-0.4C2063.3,337.5,2063.1,337,2062.7,336.5z"/>
	<path class="elementor-shape-fill ha-shape-divider" d="M2070.4,333.5c-0.2-0.1-0.5-0.2-0.7-0.2c-0.7,0-1.3,0.5-1.5,1v0c-0.1,0.2-0.1,0.3-0.1,0.5c0,0.5,0.2,0.9,0.5,1.2
		c0.3,0.3,0.6,0.5,1.1,0.5c0.9,0,1.5-0.7,1.6-1.5c0,0,0-0.1,0-0.1C2071.3,334.3,2071,333.8,2070.4,333.5z"/>
	<path class="elementor-shape-fill ha-shape-divider" d="M1587.3,237.9l-5.2,4.7c3.5-1.2,8.7-2.4,15.9-2.4l1.4-5.5c-7.7,0.3-11.1,2.5-11.8,3c0,0,0,0,0,0
		C1587.3,237.8,1587.3,237.9,1587.3,237.9z"/>
	<path class="elementor-shape-fill ha-shape-divider" d="M1731.6,10.8c-1.9,0-3.5,1.5-3.5,3.5c0,1.2,0.6,2.2,1.5,2.8c0.6,0,1.3,0,1.9,0c0.7,0,1.3,0,2,0c0.9-0.6,1.5-1.7,1.5-2.9
		C1735,12.4,1733.5,10.8,1731.6,10.8z"/>
	<path class="elementor-shape-fill ha-shape-divider" d="M1742.1,46.7c2.8,0,5.1-2.3,5.1-5.1c0-2.8-2.3-5.1-5.1-5.1c-2.8,0-5.1,2.3-5.1,5.1c0,1.8,1,3.4,2.4,4.3l-0.8,2
		c-0.1,0-0.1,0-0.2,0c-1.8,0-3.4,1.5-3.4,3.4c0,1.1,0.5,2,1.2,2.6l-4.7,12.2l-4.7-12.2c0.7-0.6,1.2-1.5,1.2-2.6
		c0-1.9-1.5-3.4-3.4-3.4c-0.1,0-0.1,0-0.2,0l-0.8-2c1.4-0.9,2.4-2.5,2.4-4.3c0-2.8-2.3-5.1-5.1-5.1c-2.8,0-5.1,2.3-5.1,5.1
		c0,2.8,2.3,5.1,5.1,5.1c0.4,0,0.7,0,1.1-0.1l0.7,1.8c-0.9,0.6-1.5,1.6-1.5,2.8c0,1.9,1.5,3.4,3.4,3.4c0.2,0,0.4,0,0.5-0.1l4.8,12.4
		l-12.4-4.8c0.1-0.2,0.1-0.3,0.1-0.5c0-1.9-1.5-3.4-3.4-3.4c-1.2,0-2.2,0.6-2.8,1.5l-1.9-0.7c0.1-0.4,0.1-0.7,0.1-1.1
		c0-2.8-2.3-5.1-5.1-5.1c-2.8,0-5.1,2.3-5.1,5.1c0,2.8,2.3,5.1,5.1,5.1c1.8,0,3.4-1,4.3-2.4l2,0.8c0,0.1,0,0.1,0,0.2
		c0,1.9,1.5,3.4,3.3,3.4c1,0,2-0.5,2.6-1.2l12.2,4.7l-12.2,4.7c-0.6-0.7-1.5-1.2-2.6-1.2c-1.9,0-3.3,1.5-3.3,3.4c0,0.1,0,0.1,0,0.2
		l-2,0.8c-0.9-1.4-2.5-2.4-4.3-2.4c-2.8,0-5.1,2.3-5.1,5.1c0,2.8,2.3,5.1,5.1,5.1c2.8,0,5.1-2.3,5.1-5.1c0-0.4,0-0.7-0.1-1.1
		l1.9-0.7c0.6,0.9,1.6,1.5,2.8,1.5c1.9,0,3.4-1.5,3.4-3.4c0-0.2,0-0.3-0.1-0.5l12.4-4.8l-4.8,12.4c-0.2-0.1-0.4-0.1-0.5-0.1
		c-1.9,0-3.4,1.5-3.4,3.4c0,1.2,0.6,2.2,1.5,2.8l-0.7,1.8c-0.3-0.1-0.7-0.1-1.1-0.1c-2.8,0-5.1,2.3-5.1,5.1c0,2.8,2.3,5.1,5.1,5.1
		c2.8,0,5.1-2.3,5.1-5.1c0-1.8-1-3.4-2.4-4.3l0.8-2c0.1,0,0.1,0,0.2,0c1.9,0,3.4-1.5,3.4-3.4c0-1-0.5-2-1.2-2.6l4.7-12.2l4.7,12.2
		c-0.7,0.6-1.2,1.5-1.2,2.6c0,1.9,1.5,3.4,3.4,3.4c0.1,0,0.1,0,0.2,0l0.8,2c-1.4,0.9-2.4,2.5-2.4,4.3c0,2.8,2.3,5.1,5.1,5.1
		c2.8,0,5.1-2.3,5.1-5.1c0-2.8-2.3-5.1-5.1-5.1c-0.4,0-0.7,0-1.1,0.1l-0.7-1.8c0.9-0.6,1.5-1.6,1.5-2.8c0-1.9-1.5-3.4-3.4-3.4
		c-0.2,0-0.3,0-0.5,0.1l-4.8-12.4l12.4,4.8c-0.1,0.2-0.1,0.4-0.1,0.5c0,1.9,1.5,3.4,3.4,3.4c1.2,0,2.2-0.6,2.8-1.5l1.9,0.7
		c-0.1,0.4-0.1,0.7-0.1,1.1c0,2.8,2.3,5.1,5.1,5.1c2.8,0,5.1-2.3,5.1-5.1c0-2.8-2.3-5.1-5.1-5.1c-1.8,0-3.4,1-4.3,2.4l-2-0.8
		c0-0.1,0-0.1,0-0.2c0-1.9-1.5-3.4-3.3-3.4c-1,0-2,0.5-2.6,1.2l-12.2-4.7l12.2-4.7c0.6,0.7,1.5,1.2,2.6,1.2c1.9,0,3.3-1.5,3.3-3.4
		c0-0.1,0-0.1,0-0.2l2-0.8c0.9,1.4,2.5,2.4,4.3,2.4c2.8,0,5.1-2.3,5.1-5.1c0-2.8-2.3-5.1-5.1-5.1c-2.8,0-5.1,2.3-5.1,5.1
		c0,0.4,0,0.7,0.1,1.1l-1.9,0.7c-0.6-0.9-1.6-1.5-2.8-1.5c-1.9,0-3.4,1.5-3.4,3.4c0,0.2,0,0.3,0.1,0.5l-12.4,4.8l4.8-12.4
		c0.2,0.1,0.3,0.1,0.5,0.1c1.9,0,3.4-1.5,3.4-3.4c0-1.2-0.6-2.2-1.5-2.8l0.7-1.8C1741.3,46.7,1741.7,46.7,1742.1,46.7z M1721.5,44.9
		c-0.1,0-0.3,0-0.4,0c-1.9,0-3.4-1.5-3.4-3.4c0-1.9,1.5-3.3,3.4-3.3c1.9,0,3.4,1.5,3.4,3.3c0,1.1-0.5,2-1.3,2.7
		C1722.7,44.6,1722.1,44.9,1721.5,44.9z M1726.1,52c-0.2,0.5-0.8,0.9-1.4,0.9c0,0-0.1,0-0.1,0c-0.8,0-1.5-0.7-1.5-1.6
		c0-0.4,0.1-0.8,0.5-1c0.2-0.3,0.7-0.6,1.2-0.6c0.2,0,0.4,0,0.5,0.1c0.6,0.2,1.1,0.8,1.1,1.5C1726.3,51.5,1726.2,51.8,1726.1,52z
		 M1708,58.4c-0.1,0.6-0.3,1.2-0.7,1.6c-0.6,0.8-1.6,1.3-2.7,1.3c-1.9,0-3.4-1.5-3.4-3.4c0-1.9,1.5-3.4,3.4-3.4
		c1.9,0,3.4,1.5,3.4,3.4C1708.1,58.1,1708.1,58.2,1708,58.4z M1715.1,63c-0.2,0.1-0.5,0.2-0.7,0.2c-0.7,0-1.3-0.5-1.5-1.1v0
		c-0.1-0.2-0.1-0.3-0.1-0.5c0-0.5,0.2-0.9,0.5-1.2c0.3-0.3,0.6-0.5,1-0.5c0.9,0,1.5,0.7,1.6,1.5c0,0,0,0.1,0,0.1
		C1716,62.2,1715.6,62.8,1715.1,63z M1704.7,82.3c-1.9,0-3.4-1.5-3.4-3.4c0-1.9,1.5-3.4,3.4-3.4c1.1,0,2,0.5,2.7,1.3
		c0.4,0.5,0.6,1,0.7,1.6c0,0.1,0,0.3,0,0.4C1708.1,80.8,1706.6,82.3,1704.7,82.3z M1715.9,75.5c0,0.8-0.7,1.5-1.6,1.5
		c-0.4,0-0.8-0.2-1-0.5c-0.3-0.2-0.5-0.7-0.5-1.2c0-0.2,0-0.3,0.1-0.5v0c0.2-0.6,0.8-1,1.5-1c0.3,0,0.5,0.1,0.7,0.2
		c0.5,0.2,0.9,0.8,0.9,1.4C1716,75.4,1716,75.4,1715.9,75.5z M1724.4,95.3c0,1.9-1.5,3.3-3.4,3.3c-1.9,0-3.4-1.5-3.4-3.3
		c0-1.9,1.5-3.4,3.4-3.4c0.1,0,0.3,0,0.4,0c0.6,0.1,1.2,0.3,1.6,0.7C1723.9,93.3,1724.4,94.2,1724.4,95.3z M1725.2,87.2
		c-0.2,0.1-0.4,0.1-0.5,0.1c-0.5,0-0.9-0.2-1.2-0.6c-0.3-0.3-0.5-0.7-0.5-1c0-0.9,0.7-1.5,1.5-1.6c0,0,0.1,0,0.1,0
		c0.6,0,1.2,0.3,1.4,0.9c0.1,0.2,0.2,0.5,0.2,0.7C1726.3,86.4,1725.9,87,1725.2,87.2z M1741.6,92c0.1,0,0.3,0,0.4,0
		c1.9,0,3.4,1.5,3.4,3.4c0,1.9-1.5,3.3-3.4,3.3c-1.9,0-3.4-1.5-3.4-3.3c0-1.1,0.5-2,1.3-2.7C1740.4,92.3,1741,92,1741.6,92z
		 M1737,84.9c0.2-0.5,0.8-0.9,1.4-0.9c0,0,0.1,0,0.1,0c0.8,0,1.5,0.7,1.5,1.6c0,0.4-0.1,0.8-0.5,1c-0.2,0.3-0.7,0.6-1.2,0.6
		c-0.2,0-0.3,0-0.5-0.1c-0.6-0.2-1.1-0.8-1.1-1.5C1736.8,85.4,1736.9,85.2,1737,84.9z M1755.1,78.5c0.1-0.6,0.3-1.2,0.7-1.6
		c0.6-0.8,1.6-1.3,2.7-1.3c1.9,0,3.4,1.5,3.4,3.4c0,1.9-1.5,3.4-3.4,3.4c-1.9,0-3.4-1.5-3.4-3.4C1755,78.8,1755,78.7,1755.1,78.5z
		 M1748,73.9c0.2-0.1,0.5-0.2,0.7-0.2c0.7,0,1.3,0.5,1.5,1v0c0.1,0.2,0.1,0.3,0.1,0.5c0,0.5-0.2,0.9-0.5,1.2
		c-0.3,0.3-0.6,0.5-1.1,0.5c-0.9,0-1.5-0.7-1.6-1.5c0,0,0-0.1,0-0.1C1747.2,74.7,1747.5,74.2,1748,73.9z M1758.4,54.6
		c1.9,0,3.4,1.5,3.4,3.4c0,1.9-1.5,3.4-3.4,3.4c-1.1,0-2-0.5-2.7-1.3c-0.4-0.5-0.6-1-0.7-1.6c0-0.1,0-0.3,0-0.4
		C1755,56.1,1756.5,54.6,1758.4,54.6z M1747.2,61.5c0-0.8,0.7-1.5,1.6-1.5c0.4,0,0.8,0.2,1.1,0.5c0.3,0.2,0.5,0.7,0.5,1.2
		c0,0.2,0,0.3-0.1,0.5v0c-0.2,0.6-0.8,1.1-1.5,1.1c-0.3,0-0.5-0.1-0.7-0.2c-0.5-0.2-0.9-0.8-0.9-1.4
		C1747.2,61.6,1747.2,61.5,1747.2,61.5z M1738.6,52.8c0,0-0.1,0-0.1,0c-0.6,0-1.2-0.4-1.4-0.9c-0.1-0.2-0.2-0.5-0.2-0.7
		c0-0.7,0.5-1.3,1.1-1.5c0.2-0.1,0.3-0.1,0.5-0.1c0.5,0,0.9,0.2,1.2,0.6c0.3,0.3,0.5,0.7,0.5,1C1740,52.1,1739.4,52.8,1738.6,52.8z
		 M1740,44.3c-0.8-0.6-1.3-1.6-1.3-2.7c0-1.9,1.5-3.3,3.4-3.3c1.9,0,3.4,1.5,3.4,3.3c0,1.9-1.5,3.4-3.4,3.4c-0.1,0-0.3,0-0.4,0
		C1741,44.9,1740.4,44.6,1740,44.3z"/>
	<path class="elementor-shape-fill ha-shape-divider" d="M741.2,291.7l3.1,4.7c5.1-6,5.7-10.5,5.7-11l0,0l0-7C748.5,281.9,745.9,286.5,741.2,291.7z"/>
	<path class="elementor-shape-fill ha-shape-divider" d="M609.1,60c0.6,0.8,1.6,1.3,2.7,1.3c1.9,0,3.4-1.5,3.4-3.4c0-1.9-1.5-3.4-3.4-3.4c-1.9,0-3.4,1.5-3.4,3.4c0,0.1,0,0.3,0,0.4
		C608.5,59,608.7,59.6,609.1,60z"/>
	<path class="elementor-shape-fill ha-shape-divider" d="M593.3,44.3c0.5,0.4,1,0.6,1.6,0.7c0.1,0,0.3,0,0.4,0c1.9,0,3.4-1.5,3.4-3.4c0-1.9-1.5-3.3-3.4-3.3c-1.9,0-3.4,1.5-3.4,3.3
		C592,42.7,592.5,43.7,593.3,44.3z"/>
	<path class="elementor-shape-fill ha-shape-divider" d="M601.4,63c0.2,0.1,0.5,0.2,0.7,0.2c0.7,0,1.3-0.5,1.5-1.1v0c0.1-0.2,0.1-0.3,0.1-0.5c0-0.5-0.2-0.9-0.5-1.2
		c-0.3-0.3-0.6-0.5-1-0.5c-0.9,0-1.5,0.7-1.6,1.5c0,0,0,0.1,0,0.1C600.5,62.2,600.9,62.8,601.4,63z"/>
	<path class="elementor-shape-fill ha-shape-divider" d="M602.1,76.9c0.4,0,0.8-0.2,1-0.5c0.3-0.2,0.5-0.7,0.5-1.2c0-0.2,0-0.3-0.1-0.5v0c-0.2-0.6-0.8-1-1.5-1
		c-0.3,0-0.5,0.1-0.7,0.2c-0.5,0.2-0.9,0.8-0.9,1.4c0,0,0,0.1,0,0.1C600.6,76.3,601.2,76.9,602.1,76.9z"/>
	<path class="elementor-shape-fill ha-shape-divider" d="M611.7,82.3c1.9,0,3.4-1.5,3.4-3.4c0-1.9-1.5-3.4-3.4-3.4c-1.1,0-2,0.5-2.7,1.3c-0.4,0.5-0.6,1-0.7,1.6c0,0.1,0,0.3,0,0.4
		C608.4,80.8,609.9,82.3,611.7,82.3z"/>
	<path class="elementor-shape-fill ha-shape-divider" d="M546.7,68.5c0,21.1,17.1,38.2,38.2,38.2c21.1,0,38.2-17.1,38.2-38.2c0-21.1-17.1-38.2-38.2-38.2
		C563.8,30.3,546.7,47.4,546.7,68.5z M563.2,58c0,0.4,0,0.7-0.1,1.1l1.9,0.7c0.6-0.9,1.6-1.5,2.8-1.5c1.9,0,3.4,1.5,3.4,3.4
		c0,0.2,0,0.3-0.1,0.5l12.4,4.8l-4.8-12.4c-0.2,0.1-0.3,0.1-0.5,0.1c-1.9,0-3.4-1.5-3.4-3.4c0-1.2,0.6-2.2,1.5-2.8l-0.7-1.8
		c-0.3,0.1-0.7,0.1-1.1,0.1c-2.8,0-5.1-2.3-5.1-5.1c0-2.8,2.3-5.1,5.1-5.1c2.8,0,5.1,2.3,5.1,5.1c0,1.8-1,3.4-2.4,4.3l0.8,2
		c0.1,0,0.1,0,0.2,0c1.8,0,3.4,1.5,3.4,3.4c0,1.1-0.5,2-1.2,2.6l4.7,12.2l4.7-12.2c-0.7-0.6-1.2-1.5-1.2-2.6c0-1.9,1.5-3.4,3.4-3.4
		c0.1,0,0.1,0,0.2,0l0.8-2c-1.4-0.9-2.4-2.5-2.4-4.3c0-2.8,2.3-5.1,5.1-5.1c2.8,0,5.1,2.3,5.1,5.1c0,2.8-2.3,5.1-5.1,5.1
		c-0.4,0-0.7,0-1.1-0.1l-0.7,1.8c0.9,0.6,1.5,1.6,1.5,2.8c0,1.9-1.5,3.4-3.4,3.4c-0.2,0-0.4,0-0.5-0.1L586.4,67l12.4-4.8
		c-0.1-0.2-0.1-0.3-0.1-0.5c0-1.9,1.5-3.4,3.4-3.4c1.2,0,2.2,0.6,2.8,1.5l1.9-0.7c-0.1-0.4-0.1-0.7-0.1-1.1c0-2.8,2.3-5.1,5.1-5.1
		c2.8,0,5.1,2.3,5.1,5.1c0,2.8-2.3,5.1-5.1,5.1c-1.8,0-3.4-1-4.3-2.4l-2,0.8c0,0.1,0,0.1,0,0.2c0,1.9-1.5,3.4-3.3,3.4
		c-1,0-2-0.5-2.6-1.2l-12.2,4.7l12.2,4.7c0.6-0.7,1.5-1.2,2.6-1.2c1.9,0,3.3,1.5,3.3,3.4c0,0.1,0,0.1,0,0.2l2,0.8
		c0.9-1.4,2.5-2.4,4.3-2.4c2.8,0,5.1,2.3,5.1,5.1c0,2.8-2.3,5.1-5.1,5.1c-2.8,0-5.1-2.3-5.1-5.1c0-0.4,0-0.7,0.1-1.1l-1.9-0.7
		c-0.6,0.9-1.6,1.5-2.8,1.5c-1.9,0-3.4-1.5-3.4-3.4c0-0.2,0-0.3,0.1-0.5L586.4,70l4.8,12.4c0.2-0.1,0.4-0.1,0.5-0.1
		c1.9,0,3.4,1.5,3.4,3.4c0,1.2-0.6,2.2-1.5,2.8l0.7,1.8c0.3-0.1,0.7-0.1,1.1-0.1c2.8,0,5.1,2.3,5.1,5.1c0,2.8-2.3,5.1-5.1,5.1
		c-2.8,0-5.1-2.3-5.1-5.1c0-1.8,1-3.4,2.4-4.3l-0.8-2c-0.1,0-0.1,0-0.2,0c-1.9,0-3.4-1.5-3.4-3.4c0-1,0.5-2,1.2-2.6l-4.7-12.2
		l-4.7,12.2c0.7,0.6,1.2,1.5,1.2,2.6c0,1.9-1.5,3.4-3.4,3.4c-0.1,0-0.1,0-0.2,0l-0.8,2c1.4,0.9,2.4,2.5,2.4,4.3
		c0,2.8-2.3,5.1-5.1,5.1c-2.8,0-5.1-2.3-5.1-5.1c0-2.8,2.3-5.1,5.1-5.1c0.4,0,0.7,0,1.1,0.1l0.7-1.8c-0.9-0.6-1.5-1.6-1.5-2.8
		c0-1.9,1.5-3.4,3.4-3.4c0.2,0,0.3,0,0.5,0.1l4.8-12.4L571,74.8c0.1,0.2,0.1,0.4,0.1,0.5c0,1.9-1.5,3.4-3.4,3.4
		c-1.2,0-2.2-0.6-2.8-1.5l-1.9,0.7c0.1,0.4,0.1,0.7,0.1,1.1c0,2.8-2.3,5.1-5.1,5.1c-2.8,0-5.1-2.3-5.1-5.1c0-2.8,2.3-5.1,5.1-5.1
		c1.8,0,3.4,1,4.3,2.4l2-0.8c0-0.1,0-0.1,0-0.2c0-1.9,1.5-3.4,3.3-3.4c1,0,2,0.5,2.6,1.2l12.2-4.7l-12.2-4.7
		c-0.6,0.7-1.5,1.2-2.6,1.2c-1.9,0-3.3-1.5-3.3-3.4c0-0.1,0-0.1,0-0.2l-2-0.8c-0.9,1.4-2.5,2.4-4.3,2.4c-2.8,0-5.1-2.3-5.1-5.1
		c0-2.8,2.3-5.1,5.1-5.1C560.9,52.9,563.2,55.2,563.2,58z"/>
	<path class="elementor-shape-fill ha-shape-divider" d="M592,95.3c0,1.9,1.5,3.3,3.4,3.3c1.9,0,3.4-1.5,3.4-3.3c0-1.9-1.5-3.4-3.4-3.4c-0.1,0-0.3,0-0.4,0
		c-0.6,0.1-1.2,0.3-1.6,0.7C592.5,93.3,592,94.2,592,95.3z"/>
	<path class="elementor-shape-fill ha-shape-divider" d="M591.8,52.9c0,0,0.1,0,0.1,0c0.8,0,1.5-0.7,1.5-1.6c0-0.4-0.1-0.8-0.5-1c-0.2-0.3-0.7-0.6-1.2-0.6c-0.2,0-0.4,0-0.5,0.1
		c-0.6,0.2-1.1,0.8-1.1,1.5c0,0.3,0.1,0.5,0.2,0.7C590.6,52.5,591.2,52.9,591.8,52.9z"/>
	<path class="elementor-shape-fill ha-shape-divider" d="M566.2,62.2c0.2,0.6,0.8,1.1,1.5,1.1c0.3,0,0.5-0.1,0.7-0.2c0.5-0.2,0.9-0.8,0.9-1.4c0,0,0-0.1,0-0.1
		c0-0.8-0.7-1.5-1.6-1.5c-0.4,0-0.8,0.2-1.1,0.5c-0.3,0.2-0.5,0.7-0.5,1.2C566.1,61.8,566.1,62,566.2,62.2L566.2,62.2z"/>
	<path class="elementor-shape-fill ha-shape-divider" d="M1127.1,175.5c-0.5-0.4-1-0.6-1.6-0.7c-0.1,0-0.3,0-0.4,0c-1.9,0-3.4,1.5-3.4,3.4c0,1.9,1.5,3.3,3.4,3.3
		c1.9,0,3.4-1.5,3.4-3.3C1128.4,177.1,1127.9,176.1,1127.1,175.5z"/>
	<path class="elementor-shape-fill ha-shape-divider" d="M578.6,49.7c-0.2-0.1-0.3-0.1-0.5-0.1c-0.5,0-0.9,0.2-1.2,0.6c-0.3,0.3-0.5,0.7-0.5,1c0,0.9,0.7,1.5,1.5,1.6
		c0,0,0.1,0,0.1,0c0.6,0,1.2-0.4,1.4-0.9c0.1-0.2,0.2-0.5,0.2-0.7C579.7,50.5,579.2,50,578.6,49.7z"/>
	<path class="elementor-shape-fill ha-shape-divider" d="M577.8,41.6c0-1.9-1.5-3.3-3.4-3.3c-1.9,0-3.4,1.5-3.4,3.3c0,1.9,1.5,3.4,3.4,3.4c0.1,0,0.3,0,0.4,0
		c0.6-0.1,1.2-0.3,1.6-0.7C577.3,43.7,577.8,42.7,577.8,41.6z"/>
	<path class="elementor-shape-fill ha-shape-divider" d="M591.2,87.2c0.2,0.1,0.4,0.1,0.5,0.1c0.5,0,0.9-0.2,1.2-0.6c0.3-0.3,0.5-0.7,0.5-1c0-0.9-0.7-1.5-1.5-1.6c0,0-0.1,0-0.1,0
		c-0.6,0-1.2,0.3-1.4,0.9c-0.1,0.2-0.2,0.5-0.2,0.7C590.2,86.4,590.6,87,591.2,87.2z"/>
	<path class="elementor-shape-fill ha-shape-divider" d="M578,84.1c0,0-0.1,0-0.1,0c-0.8,0-1.5,0.7-1.5,1.6c0,0.4,0.1,0.8,0.5,1c0.2,0.3,0.7,0.6,1.2,0.6c0.2,0,0.3,0,0.5-0.1
		c0.6-0.2,1.1-0.8,1.1-1.5c0-0.3-0.1-0.5-0.2-0.7C579.2,84.4,578.6,84.1,578,84.1z"/>
	<path class="elementor-shape-fill ha-shape-divider" d="M1341,96.5c-8.2-0.2-26.3,0.1-24.8,7.4c1.5,7.1,16.9-0.4,25.5-5.3C1341.2,98,1341,97.3,1341,96.5z"/>
	<path class="elementor-shape-fill ha-shape-divider" d="M1345.5,93.9c3.7-8.8,9.7-25.4,2.5-26c-7.5-0.7-5.5,18-4.3,25.7C1344.3,93.5,1345,93.6,1345.5,93.9z"/>
	<path class="elementor-shape-fill ha-shape-divider" d="M1341.3,95.2c0.1-0.2,0.3-0.5,0.5-0.7c0.2-0.2,0.4-0.4,0.6-0.5c-3.1-6.2-12.1-22.7-18.4-16.5c-5.8,5.8,8.7,13.8,16.8,17.6
		C1341,95.1,1341.2,95.2,1341.3,95.2z"/>
	<path class="elementor-shape-fill ha-shape-divider" d="M3091.7,76.6c0.2,0.1,0.4,0.3,0.6,0.5c5.3-4.6,19-17.4,11.4-21.9c-7-4.2-11.2,11.8-12.9,20.6c0,0.2,0,0.4,0,0.5
		C3091.2,76.4,3091.5,76.5,3091.7,76.6z"/>
	<path class="elementor-shape-fill ha-shape-divider" d="M3093.3,80.1c9.4,1.5,27,3.1,25.8-4.1c-1.2-7.5-18.8-0.8-25.9,2.2C3093.4,78.8,3093.4,79.5,3093.3,80.1z"/>
	<path class="elementor-shape-fill ha-shape-divider" d="M3089.6,76.3c-1.8-8-6.6-25.4-13.3-22.1c-6.5,3.2,4.6,16.3,11.4,23.4C3088.2,76.9,3088.8,76.5,3089.6,76.3z"/>
	<path class="elementor-shape-fill ha-shape-divider" d="M576.5,92.6c-0.5-0.4-1-0.6-1.6-0.7c-0.1,0-0.3,0-0.4,0c-1.9,0-3.4,1.5-3.4,3.4c0,1.9,1.5,3.3,3.4,3.3
		c1.9,0,3.4-1.5,3.4-3.3C577.8,94.2,577.3,93.3,576.5,92.6z"/>
	<path class="elementor-shape-fill ha-shape-divider" d="M568.4,73.9c-0.2-0.1-0.5-0.2-0.7-0.2c-0.7,0-1.3,0.5-1.5,1v0c-0.1,0.2-0.1,0.3-0.1,0.5c0,0.5,0.2,0.9,0.5,1.2
		c0.3,0.3,0.6,0.5,1.1,0.5c0.9,0,1.5-0.7,1.6-1.5c0,0,0-0.1,0-0.1C569.3,74.7,568.9,74.2,568.4,73.9z"/>
	<path class="elementor-shape-fill ha-shape-divider" d="M3708.8,0v65.6c0.9,0.4,2.5,1.6,5.9,6c4.7,5.9,15.2,21.4,14.4,24.6c-0.2,0.5-1.1,2.2-5.1,2c6.4,9.4,13,20.4,12.3,23.2
		c-0.2,0.4-1.4,3.1-7.8,2.4c8.8,12.8,18,28.1,17.1,31.6c-0.2,0.6-2.4,5.4-15.8,1.9c-5.1-1.3-7.1-0.5-9.8,0.6
		c-1.4,0.6-3.1,1.3-5.4,1.8v13.6c0,0.1,0,0.2,0,0.3h-12.9c0-0.1,0-0.2,0-0.3v-13.7c-2-0.5-3.5-1.2-4.7-1.8
		c-2.6-1.3-4.4-2.2-10.6-0.5c-13.4,3.8-15.6-1.3-15.9-2c-0.8-3.5,8.3-18.6,17.1-31.5c-6.4,0.8-7.6-2.1-7.8-2.6
		c-0.7-2.7,5.9-13.6,12.3-23c-4,0.2-5-1.7-5.2-2.2c-0.7-3.1,9.8-18.6,14.4-24.5c3.4-4.4,5-5.6,5.9-6V0h-146.7v9.3
		c2.4,0.4,4.2,2.4,4.2,4.9c0,1.1-0.4,2.1-1,2.9c3.8,0.2,6.5,0.8,6.5,1.5v5.8c19.9,4.7,34.7,22.6,34.7,44c0,25-20.2,45.2-45.2,45.2
		c-25,0-45.2-20.2-45.2-45.2c0-21.3,14.8-39.2,34.7-44v-5.8c0,0,0-0.1,0-0.1c0.1-0.2,0.5-0.4,1-0.6c0.6-0.2,1.4-0.3,2.3-0.5
		c0.9-0.1,2-0.2,3.1-0.3c-0.6-0.8-1-1.8-1-2.9c0-2.5,1.8-4.6,4.2-4.9V0h-165.1v222.7c1.2-2.2,3.2-4.9,6.6-7.4
		c0.3-0.2,0.5-0.2,0.8-0.2c0.3,0.1,0.6,0.2,0.7,0.5l4.9,7.4c0.3,0.5,0.2,1.1-0.3,1.5c-10.4,7.5-11.9,15.9-12.2,17.5
		c0,0.2,0,0.3,0,0.3l0,4.4c1,0.1,2,0.3,3,0.7c0.9,0.4,1.8,1,2.5,1.7l3.1-2.8c0.1-0.1,0.2-0.2,0.3-0.3c0.8-0.9,6.4-7.7,4.9-20.9
		c0-0.6,0.4-1.1,0.9-1.2l8.8-1.3c0.3,0,0.6,0.1,0.8,0.2c0.2,0.2,0.3,0.4,0.4,0.7c0.6,4.9-0.3,8.5-1.3,10.8c2.2-0.8,5.9-1.8,11.2-1.8
		c0.3,0,0.6,0.1,0.8,0.4c0.2,0.2,0.2,0.6,0.2,0.9l-1.9,7.6c-0.1,0.3-0.3,0.6-0.7,0.8c-0.1,0-0.3,0.1-0.4,0.1c-8.3,0-14,1.5-17.4,2.8
		c-2.8,1.1-4.4,2.2-4.8,2.5c-0.1,0.1-0.1,0.1-0.1,0.1l-3.3,3c0.5,0.6,0.8,1.3,1.1,2.1l0.1,0.3c0.3,0.8,0.5,1.5,0.6,2.3h4.5
		c0,0,0,0,0.2,0c0.5-0.1,2.4-0.3,5.2-1.4c3.3-1.3,8.6-4,14.7-9.6c0.4-0.3,0.9-0.4,1.3-0.1l6.5,4.3c0.3,0.2,0.5,0.5,0.5,0.8
		c0,0.4-0.1,0.7-0.3,0.9c-3.9,3.6-7.3,5.4-9.5,6.2c2.4,1.1,5.5,3.1,8.3,7.1c0.2,0.3,0.3,0.5,0.2,0.8c-0.1,0.3-0.2,0.5-0.4,0.7
		l-7.4,4.9l-0.2,0.1c-0.4,0.2-0.9,0-1.2-0.4c-7.7-10.7-16.5-12-17.7-12.2c-0.1,0-0.1,0-0.1,0c0,0-0.1,0-0.1,0l-4.3,0
		c-0.1,1-0.3,2-0.7,3c-0.4,0.9-1,1.8-1.7,2.5l3,3.3c0,0,0.1,0.1,0.2,0.2c1.3,1.1,8.1,6.2,20.8,4.8c0.6,0,1.1,0.3,1.2,0.9l1.4,8.8
		c0,0.3-0.1,0.6-0.2,0.8c-0.2,0.2-0.5,0.4-0.7,0.4c-4.9,0.6-8.5-0.3-10.8-1.4c0.9,2.4,1.8,6.1,1.8,11.2c0,0.3-0.2,0.6-0.4,0.8
		c-0.1,0-0.2,0.1-0.3,0.1c-0.2,0.1-0.4,0.1-0.7,0l-7.6-1.9c-0.5-0.1-0.8-0.6-0.8-1.1c0-13.5-4.1-20.4-5.2-22
		c-0.1-0.1-0.1-0.1-0.2-0.2c-0.1-0.1-0.1-0.1-0.1-0.1l-3-3.3c-0.7,0.5-1.4,0.9-2.2,1.2l-0.2,0.1c-0.8,0.3-1.5,0.5-2.3,0.6l0,4.5
		c0,0,0,0.1,0,0.2c0,0.1,0,0.2,0,0.3c0.3,1.9,1.8,9.7,11,19.7c0.3,0.4,0.4,0.9,0.1,1.3l-4.3,6.5c-0.1,0.2-0.3,0.3-0.5,0.4
		c-0.1,0-0.2,0-0.3,0.1c-0.4,0-0.7-0.1-0.9-0.4c-3.5-3.8-5.3-7.1-6.2-9.5c-1,2.4-3.1,5.4-7,8.3c-0.3,0.1-0.6,0.2-0.8,0.2
		c-0.3-0.1-0.5-0.3-0.7-0.5l-4.9-7.4c-0.3-0.5-0.2-1.1,0.3-1.5c10.8-7.8,12-16.5,12.2-17.7c0-0.1,0-0.1,0-0.1l0-0.1l0-4.4
		c-1-0.1-2.1-0.3-3-0.7c-0.9-0.4-1.8-1-2.5-1.7l-3.2,2.9l0,0.1c0,0,0,0-0.1,0.1c-0.8,0.8-6.4,7.7-4.9,20.9c0.1,0.5-0.2,1-0.7,1.1
		l-0.2,0.1l-8.8,1.3c-0.3,0-0.6-0.1-0.8-0.2c-0.2-0.2-0.3-0.4-0.4-0.7c-0.6-4.9,0.3-8.5,1.3-10.8c-2.2,0.8-5.9,1.8-11.2,1.8
		c-0.3,0-0.6-0.1-0.8-0.4c-0.2-0.2-0.3-0.6-0.2-0.9l1.9-7.6c0.1-0.5,0.5-0.8,1-0.8c8.3,0,14.1-1.6,17.4-2.8c2.9-1.1,4.4-2.2,4.8-2.5
		c0.1-0.1,0.1-0.1,0.1-0.1l3.3-3c-0.4-0.6-0.8-1.3-1.1-2.1l-0.1-0.3c-0.3-0.8-0.5-1.5-0.6-2.3h-4.5c0,0,0,0-0.1,0
		c-0.5,0.1-2.4,0.3-5.3,1.4c-3.3,1.3-8.6,4-14.7,9.6c-0.1,0.1-0.2,0.2-0.3,0.2c-0.3,0.1-0.7,0.1-1-0.1l-6.5-4.3
		c-0.3-0.2-0.5-0.5-0.5-0.8c0-0.3,0.1-0.7,0.4-0.9c3.9-3.6,7.3-5.4,9.5-6.2c-2.3-1.1-5.4-3.1-8.3-7.1c-0.1-0.3-0.2-0.6-0.2-0.8
		c0.1-0.3,0.2-0.6,0.5-0.7l7.4-4.9c0.5-0.3,1.1-0.2,1.5,0.3c7.7,10.7,16.5,12,17.7,12.2c0.1,0,0.1,0,0.1,0l0.1,0l4.4,0
		c0.1-1,0.3-2,0.7-3c0.5-1,1-1.8,1.7-2.5l-2.9-3.2c0,0-0.1,0-0.1,0s0,0-0.1-0.1c-0.9-0.8-7.7-6.4-20.9-4.8c-0.6,0-1.1-0.4-1.2-0.9
		l-1.3-8.8c0-0.3,0.1-0.6,0.2-0.8c0.2-0.2,0.5-0.4,0.8-0.4c4.9-0.6,8.5,0.3,10.8,1.4c-0.9-2.4-1.8-6.1-1.8-11.2
		c0-0.3,0.1-0.6,0.4-0.8c0.2-0.2,0.6-0.3,0.9-0.2l7.6,1.9c0.5,0.1,0.8,0.6,0.8,1.1c0,13.6,4.1,20.4,5.2,22c0.1,0.1,0.1,0.1,0.2,0.2
		c0,0.1,0.1,0.1,0.1,0.1l3,3.3c0.6-0.5,1.3-0.8,2.1-1.1l0.3-0.1c0.8-0.3,1.5-0.5,2.3-0.6v-4.1l0,0V242c-0.2-1.5-1.5-9.5-11-19.9
		c-0.4-0.4-0.4-0.9-0.1-1.3l4.3-6.5c0.2-0.3,0.5-0.5,0.8-0.5c0.3,0,0.6,0.1,0.9,0.4c2.7,3,4.4,5.6,5.5,7.8V0h-142.9v13.4
		c0.9,0.4,2.5,1.6,5.9,6c4.7,5.9,15.2,21.4,14.4,24.6c-0.2,0.5-1.1,2.2-5.1,2c6.4,9.4,13,20.4,12.3,23.2c-0.2,0.4-1.4,3.1-7.8,2.4
		c8.8,12.8,18,28.1,17.1,31.6c-0.2,0.6-2.4,5.4-15.8,1.9c-5.1-1.3-7.1-0.5-9.8,0.6c-1.4,0.6-3.1,1.3-5.4,1.8v13.6c0,0.1,0,0.2,0,0.3
		h-12.9c0-0.1,0-0.2,0-0.3v-13.7c-2-0.5-3.5-1.2-4.7-1.8c-2.6-1.3-4.4-2.2-10.6-0.5c-13.4,3.8-15.6-1.3-15.9-2
		c-0.8-3.5,8.3-18.6,17.1-31.5c-6.4,0.8-7.6-2.1-7.8-2.6c-0.7-2.7,5.9-13.6,12.3-23c-4,0.2-5-1.7-5.2-2.2
		c-0.7-3.1,9.8-18.6,14.4-24.5c3.4-4.4,5-5.6,5.9-6V0h-184.5v67.1l18.1,9.8c2.9,1.6,4,5.2,2.4,8.1l-5.2,9.7c-1.6,2.9-5.2,4-8.1,2.4
		L3046.4,84c-2.9-1.6-4-5.2-2.4-8.1l5.2-9.7c1.6-2.9,5.2-4,8.1-2.4l4.6,2.5V0h-237.6v92.2c2.4,0.4,4.2,2.4,4.2,4.9
		c0,1.1-0.4,2.1-1,2.9c1.2,0.1,2.2,0.2,3.1,0.3c0.9,0.1,1.7,0.3,2.3,0.5c0.6,0.2,0.9,0.4,1,0.6c0,0,0,0.1,0,0.1v5.8
		c19.9,4.7,34.7,22.6,34.7,44c0,25-20.2,45.2-45.2,45.2c-25,0-45.2-20.2-45.2-45.2c0-21.3,14.8-39.2,34.7-44v-5.8
		c0-0.7,2.7-1.3,6.5-1.5c-0.6-0.8-1-1.8-1-2.9c0-2.5,1.8-4.6,4.2-4.9V0h-192.2v69.7c9.4,0.2,7.5,11.5,4.4,19.8
		c5.9-7.4,14.8-15.1,20.2-7.2c6.3,9.3-13.2,15.3-22,16.7c-0.4,1.3-1.6,2.2-3,2.2c-1.6,0-2.9-1.2-3.1-2.8
		c-8.4-1.6-28.1-8.3-21.4-17.4c5.2-7.1,13-0.6,18.6,6.5c-3.1-7.7-4.3-17,4.8-17.9V0h-189v221.9c1.1-2.2,2.7-4.9,5.5-7.8
		c0.2-0.2,0.5-0.3,0.9-0.4c0.3,0,0.6,0.2,0.8,0.5l4.3,6.5c0.3,0.4,0.2,1-0.1,1.3c-9.5,10.3-10.8,18.3-11,19.9v0.6l0,0v4.1
		c0.8,0.1,1.5,0.3,2.3,0.6l0.3,0.1c0.8,0.3,1.4,0.7,2.1,1.1l3-3.3c0,0,0.1,0,0.1-0.1c0-0.1,0.1-0.1,0.2-0.2c1.1-1.6,5.2-8.4,5.2-22
		c0-0.5,0.3-0.9,0.8-1.1l7.6-1.9c0.3-0.1,0.6,0,0.9,0.2c0.3,0.2,0.4,0.5,0.4,0.8c0,5.1-0.9,8.8-1.8,11.2c2.3-1.1,5.9-2,10.8-1.4
		c0.3,0.1,0.6,0.2,0.8,0.4c0.1,0.2,0.2,0.5,0.2,0.8l-1.3,8.8c-0.1,0.6-0.6,1-1.2,0.9c-13.3-1.6-20,4.1-20.9,4.8
		c-0.1,0.1-0.1,0.1-0.1,0.1s0,0-0.1,0l-2.9,3.2c0.7,0.7,1.3,1.6,1.7,2.5c0.4,1,0.6,2,0.7,3l4.4,0l0.1,0c0,0,0,0,0.1,0
		c1.1-0.1,9.9-1.4,17.7-12.2c0.4-0.5,1-0.6,1.5-0.3l7.4,4.9c0.2,0.2,0.4,0.4,0.5,0.7c0,0.2,0,0.5-0.2,0.8c-2.9,4-6,6-8.3,7.1
		c2.2,0.8,5.5,2.6,9.5,6.2c0.3,0.2,0.4,0.5,0.4,0.9c0,0.3-0.2,0.6-0.5,0.8l-6.5,4.3c-0.3,0.2-0.6,0.3-1,0.1c-0.1,0-0.2-0.1-0.3-0.2
		c-6.2-5.6-11.4-8.3-14.7-9.6c-2.9-1.1-4.8-1.4-5.3-1.4c-0.1,0-0.1,0-0.1,0h-4.5c-0.1,0.8-0.3,1.5-0.6,2.3l-0.1,0.3
		c-0.3,0.8-0.7,1.4-1.1,2.1l3.3,3c0,0,0,0,0.1,0.1c0.4,0.3,1.9,1.4,4.8,2.5c3.3,1.3,9,2.8,17.4,2.8c0.5,0,0.9,0.3,1,0.8l1.9,7.6
		c0.1,0.3,0,0.7-0.2,0.9c-0.2,0.3-0.5,0.4-0.8,0.4c-5.3,0-9-1-11.2-1.8c1,2.4,1.9,6,1.3,10.8c-0.1,0.3-0.2,0.6-0.4,0.7
		c-0.3,0.2-0.6,0.2-0.8,0.2l-8.8-1.3l-0.2-0.1c-0.5-0.2-0.8-0.6-0.7-1.1c1.6-13.2-4.1-20.1-4.9-20.9c-0.1-0.1-0.1-0.1-0.1-0.1l0-0.1
		l-3.2-2.9c-0.7,0.7-1.6,1.3-2.5,1.7c-1,0.4-2,0.6-3,0.7l0,4.4l0,0.1c0,0,0,0,0,0.1c0.1,1.2,1.4,9.9,12.2,17.7
		c0.5,0.4,0.6,1,0.3,1.5l-4.9,7.4c-0.2,0.2-0.4,0.4-0.7,0.5c-0.3,0-0.6,0-0.8-0.2c-4-2.9-6-6-7-8.3c-1,2.4-2.8,5.7-6.2,9.5
		c-0.2,0.2-0.5,0.4-0.9,0.4c-0.1,0-0.2,0-0.3-0.1c-0.2-0.1-0.4-0.2-0.5-0.4l-4.3-6.5c-0.3-0.4-0.2-1,0.1-1.3
		c9.2-10,10.7-17.8,11-19.7c0-0.1,0-0.2,0-0.3c0-0.1,0-0.2,0-0.2l0-4.5c-0.8-0.1-1.5-0.3-2.3-0.6l-0.2-0.1c-0.8-0.3-1.5-0.7-2.2-1.2
		l-3,3.3c0,0-0.1,0-0.1,0.1c0,0.1-0.1,0.1-0.2,0.2c-1.1,1.6-5.1,8.4-5.2,22c0,0.5-0.3,0.9-0.8,1.1l-7.6,1.9c-0.2,0-0.5,0-0.7,0
		c-0.1,0-0.2-0.1-0.3-0.1c-0.2-0.2-0.4-0.5-0.4-0.8c0-5.1,0.9-8.8,1.8-11.2c-2.4,1-6,1.9-10.8,1.4c-0.3,0-0.5-0.2-0.7-0.4
		c-0.2-0.3-0.2-0.6-0.2-0.8l1.4-8.8c0.1-0.6,0.6-1,1.2-0.9c12.7,1.5,19.5-3.7,20.8-4.8c0.1-0.1,0.2-0.2,0.2-0.2l3-3.3
		c-0.7-0.7-1.3-1.6-1.7-2.5c-0.4-1-0.7-2-0.7-3l-4.3,0c-0.1,0-0.1,0.1-0.1,0c0,0,0,0-0.1,0c-1.1,0.1-9.9,1.4-17.7,12.2
		c-0.3,0.4-0.8,0.6-1.2,0.4l-0.2-0.1l-7.4-4.9c-0.2-0.2-0.4-0.4-0.4-0.7c0-0.2,0-0.5,0.2-0.8c2.8-4,5.9-6,8.3-7.1
		c-2.2-0.8-5.6-2.6-9.5-6.2c-0.2-0.2-0.4-0.5-0.3-0.9c0-0.3,0.2-0.6,0.5-0.8l6.5-4.3c0.4-0.3,1-0.2,1.3,0.1
		c6.1,5.6,11.4,8.3,14.7,9.6c2.8,1.1,4.7,1.3,5.2,1.4c0.1,0,0.2,0,0.2,0h4.5c0.1-0.8,0.3-1.5,0.6-2.3l0.1-0.3
		c0.3-0.8,0.7-1.4,1.1-2.1l-3.3-3c0,0,0,0-0.1-0.1c-0.4-0.3-2-1.4-4.8-2.5c-3.3-1.3-9.1-2.8-17.4-2.8c-0.1,0-0.3,0-0.4-0.1
		c-0.3-0.1-0.6-0.4-0.7-0.8l-1.9-7.6c-0.1-0.3,0-0.7,0.2-0.9c0.2-0.3,0.5-0.4,0.8-0.4c5.3,0,9,1,11.2,1.8c-1-2.4-1.9-6-1.3-10.8
		c0-0.3,0.2-0.6,0.4-0.7c0.3-0.2,0.6-0.2,0.8-0.2l8.8,1.3c0.5,0.1,0.9,0.6,0.9,1.2c-1.5,13.2,4.1,20,4.9,20.9
		c0.1,0.1,0.2,0.2,0.3,0.3l3.1,2.8c0.7-0.7,1.6-1.3,2.5-1.7c1-0.4,2-0.6,3-0.7l0-4.4c0,0,0-0.1,0-0.3c-0.2-1.6-1.8-10.1-12.2-17.5
		c-0.5-0.4-0.6-1-0.3-1.5l4.9-7.4c0.2-0.2,0.4-0.4,0.7-0.5c0.3,0,0.5,0,0.8,0.2c3.5,2.5,5.5,5.2,6.6,7.4V0h-165.1v9.3
		c2.4,0.4,4.2,2.4,4.2,4.9c0,1.1-0.4,2.1-1,2.9c1.2,0.1,2.2,0.2,3.1,0.3c0.9,0.1,1.7,0.3,2.3,0.5c0.6,0.2,0.9,0.4,1,0.6
		c0,0,0,0.1,0,0.1v5.8c19.9,4.7,34.7,22.6,34.7,44c0,25-20.2,45.2-45.2,45.2c-25,0-45.2-20.2-45.2-45.2c0-21.3,14.8-39.2,34.7-44
		v-5.8c0-0.7,2.7-1.3,6.5-1.5c-0.6-0.8-1-1.8-1-2.9c0-2.5,1.8-4.6,4.2-4.9V0h-184.5v268.9c2.4,0.4,4.2,2.4,4.2,4.9
		c0,1.1-0.4,2.1-1,2.9c1.2,0.1,2.2,0.2,3.1,0.3c0.9,0.1,1.7,0.3,2.3,0.5c0.6,0.2,0.9,0.4,1,0.6c0,0,0,0.1,0,0.1v5.8
		c19.9,4.7,34.7,22.6,34.7,44c0,25-20.2,45.2-45.2,45.2c-25,0-45.2-20.2-45.2-45.2c0-21.3,14.8-39.2,34.7-44v-5.8
		c0-0.7,2.7-1.3,6.5-1.5c-0.6-0.8-1-1.8-1-2.9c0-2.5,1.8-4.6,4.2-4.9V0h-177.5v93c0.9,0.4,2.5,1.6,5.9,6
		c4.7,5.9,15.2,21.4,14.4,24.5c-0.2,0.5-1.1,2.4-5.2,2.2c6.4,9.4,13,20.3,12.3,23c-0.2,0.5-1.4,3.3-7.8,2.6
		c8.8,12.8,17.9,28,17.1,31.5c-0.2,0.7-2.5,5.8-15.9,2c-6.1-1.7-8-0.8-10.6,0.5c-1.2,0.6-2.7,1.3-4.7,1.8v13.7c0,0.1,0,0.2,0,0.3
		h-12.9c0-0.1,0-0.2,0-0.3v-13.6c-2.3-0.5-4-1.2-5.4-1.8c-2.8-1.1-4.7-2-9.8-0.6c-13.4,3.5-15.6-1.3-15.8-1.9
		c-0.9-3.5,8.3-18.8,17.1-31.6c-6.4,0.7-7.6-2-7.8-2.4c-0.7-2.8,5.9-13.8,12.3-23.2c-4,0.2-5-1.6-5.1-2c-0.8-3.2,9.7-18.7,14.4-24.6
		c3.4-4.3,5-5.6,5.9-6V0h-174.7v9.3c2.4,0.4,4.2,2.4,4.2,4.9c0,1.1-0.4,2.1-1,2.9c3.8,0.2,6.5,0.8,6.5,1.5v5.8
		c19.9,4.7,34.7,22.6,34.7,44c0,25-20.2,45.2-45.2,45.2c-25,0-45.2-20.2-45.2-45.2c0-21.3,14.8-39.2,34.7-44v-5.8c0,0,0-0.1,0-0.1
		c0.1-0.2,0.5-0.4,1-0.6c0.6-0.2,1.4-0.3,2.3-0.5c0.9-0.1,2-0.2,3.1-0.3c-0.6-0.8-1-1.8-1-2.9c0-2.5,1.8-4.6,4.2-4.9V0h-165.1v222.7
		c1.2-2.2,3.2-4.9,6.6-7.4c0.3-0.2,0.5-0.2,0.8-0.2c0.3,0.1,0.6,0.2,0.7,0.5l4.9,7.4c0.3,0.5,0.2,1.1-0.3,1.5
		c-10.4,7.5-11.9,15.9-12.2,17.5c0,0.2,0,0.3,0,0.3l0,4.4c1,0.1,2,0.3,3,0.7c0.9,0.4,1.8,1,2.5,1.7l3.1-2.8c0.1-0.1,0.2-0.2,0.3-0.3
		c0.8-0.9,6.4-7.7,4.9-20.9c0-0.6,0.4-1.1,0.9-1.2l8.8-1.3c0.3,0,0.6,0.1,0.8,0.2c0.2,0.2,0.3,0.4,0.4,0.7c0.6,4.9-0.3,8.5-1.3,10.8
		c2.2-0.8,5.9-1.8,11.2-1.8c0.3,0,0.6,0.1,0.8,0.4c0.2,0.2,0.2,0.6,0.2,0.9l-1.9,7.6c-0.1,0.3-0.3,0.6-0.7,0.8
		c-0.1,0-0.3,0.1-0.4,0.1c-8.3,0-14,1.5-17.4,2.8c-2.8,1.1-4.4,2.2-4.8,2.5c-0.1,0.1-0.1,0.1-0.1,0.1l-3.3,3
		c0.5,0.6,0.8,1.3,1.1,2.1l0.1,0.3c0.3,0.8,0.5,1.5,0.6,2.3h4.5c0,0,0,0,0.2,0c0.5-0.1,2.4-0.3,5.2-1.4c3.3-1.3,8.6-4,14.7-9.6
		c0.4-0.3,0.9-0.4,1.3-0.1l6.5,4.3c0.3,0.2,0.5,0.5,0.5,0.8c0,0.4-0.1,0.7-0.3,0.9c-3.9,3.6-7.3,5.4-9.5,6.2
		c2.4,1.1,5.5,3.1,8.3,7.1c0.2,0.3,0.3,0.5,0.2,0.8c-0.1,0.3-0.2,0.5-0.4,0.7l-7.4,4.9l-0.2,0.1c-0.4,0.2-0.9,0-1.2-0.4
		c-7.7-10.7-16.5-12-17.7-12.2c-0.1,0-0.1,0-0.1,0c0,0-0.1,0-0.1,0l-4.3,0c-0.1,1-0.3,2-0.7,3c-0.4,0.9-1,1.8-1.7,2.5l3,3.3
		c0,0,0.1,0.1,0.2,0.2c1.3,1.1,8.1,6.2,20.8,4.8c0.6,0,1.1,0.3,1.2,0.9l1.4,8.8c0,0.3-0.1,0.6-0.2,0.8c-0.2,0.2-0.5,0.4-0.7,0.4
		c-4.9,0.6-8.5-0.3-10.8-1.4c0.9,2.4,1.8,6.1,1.8,11.2c0,0.3-0.2,0.6-0.4,0.8c-0.1,0-0.2,0.1-0.3,0.1c-0.2,0.1-0.4,0.1-0.7,0
		l-7.6-1.9c-0.5-0.1-0.8-0.6-0.8-1.1c0-13.5-4.1-20.4-5.2-22c-0.1-0.1-0.1-0.1-0.2-0.2c-0.1-0.1-0.1-0.1-0.1-0.1l-3-3.3
		c-0.7,0.5-1.4,0.9-2.2,1.2l-0.2,0.1c-0.8,0.3-1.5,0.5-2.3,0.6l0,4.5c0,0,0,0.1,0,0.2c0,0.1,0,0.2,0,0.3c0.3,1.9,1.8,9.7,11,19.7
		c0.3,0.4,0.4,0.9,0.1,1.3l-4.3,6.5c-0.1,0.2-0.3,0.3-0.5,0.4c-0.1,0-0.2,0-0.3,0.1c-0.4,0-0.7-0.1-0.9-0.4
		c-3.5-3.8-5.3-7.1-6.2-9.5c-1,2.4-3.1,5.4-7,8.3c-0.3,0.1-0.6,0.2-0.8,0.2c-0.3-0.1-0.5-0.3-0.7-0.5l-4.9-7.4
		c-0.3-0.5-0.2-1.1,0.3-1.5c10.8-7.8,12-16.5,12.2-17.7c0-0.1,0-0.1,0-0.1l0-0.1l0-4.4c-1-0.1-2.1-0.3-3-0.7c-0.9-0.4-1.8-1-2.5-1.7
		l-3.2,2.9l0,0.1c0,0,0,0-0.1,0.1c-0.8,0.8-6.4,7.7-4.9,20.9c0.1,0.5-0.2,1-0.7,1.1l-0.2,0.1l-8.8,1.3c-0.3,0-0.6-0.1-0.8-0.2
		c-0.2-0.2-0.3-0.4-0.4-0.7c-0.6-4.9,0.3-8.5,1.3-10.8c-2.2,0.8-5.9,1.8-11.2,1.8c-0.3,0-0.6-0.1-0.8-0.4c-0.2-0.2-0.3-0.6-0.2-0.9
		l1.9-7.6c0.1-0.5,0.5-0.8,1-0.8c8.3,0,14.1-1.6,17.4-2.8c2.9-1.1,4.4-2.2,4.8-2.5c0.1-0.1,0.1-0.1,0.1-0.1l3.3-3
		c-0.4-0.6-0.8-1.3-1.1-2.1l-0.1-0.3c-0.3-0.8-0.5-1.5-0.6-2.3h-4.5c0,0,0,0-0.1,0c-0.5,0.1-2.4,0.3-5.3,1.4
		c-3.3,1.3-8.6,4-14.7,9.6c-0.1,0.1-0.2,0.2-0.3,0.2c-0.3,0.1-0.7,0.1-1-0.1l-6.5-4.3c-0.3-0.2-0.5-0.5-0.5-0.8
		c0-0.3,0.1-0.7,0.4-0.9c3.9-3.6,7.3-5.4,9.5-6.2c-2.3-1.1-5.4-3.1-8.3-7.1c-0.1-0.3-0.2-0.6-0.2-0.8c0.1-0.3,0.2-0.6,0.5-0.7
		l7.4-4.9c0.5-0.3,1.1-0.2,1.5,0.3c7.7,10.7,16.5,12,17.7,12.2c0.1,0,0.1,0,0.1,0l0.1,0l4.4,0c0.1-1,0.3-2,0.7-3
		c0.5-1,1-1.8,1.7-2.5l-2.9-3.2c0,0-0.1,0-0.1,0s0,0-0.1-0.1c-0.9-0.8-7.7-6.4-20.9-4.8c-0.6,0-1.1-0.4-1.2-0.9l-1.3-8.8
		c0-0.3,0.1-0.6,0.2-0.8c0.2-0.2,0.5-0.4,0.8-0.4c4.9-0.6,8.5,0.3,10.8,1.4c-0.9-2.4-1.8-6.1-1.8-11.2c0-0.3,0.1-0.6,0.4-0.8
		c0.2-0.2,0.6-0.3,0.9-0.2l7.6,1.9c0.5,0.1,0.8,0.6,0.8,1.1c0,13.6,4.1,20.4,5.2,22c0.1,0.1,0.1,0.1,0.2,0.2c0,0.1,0.1,0.1,0.1,0.1
		l3,3.3c0.6-0.5,1.3-0.8,2.1-1.1l0.3-0.1c0.8-0.3,1.5-0.5,2.3-0.6v-4.1l0,0V242c-0.2-1.5-1.5-9.5-11-19.9c-0.4-0.4-0.4-0.9-0.1-1.3
		l4.3-6.5c0.2-0.3,0.5-0.5,0.8-0.5c0.3,0,0.6,0.1,0.9,0.4c2.7,3,4.4,5.6,5.5,7.8V0h-189v69.3c1.1,0.2,2.2,0.7,3.1,1.5l8.1,7.5
		c2.4,2.3,2.6,6,0.3,8.5l-18.7,20.2c-2.2,2.4-6,2.6-8.5,0.3l-8.1-7.5c-2.4-2.2-2.6-6.1-0.3-8.5l18.7-20.2c1-1.1,2.4-1.7,3.8-1.9V0
		h-237.6v92.2c2.4,0.4,4.2,2.4,4.2,4.9c0,1.1-0.4,2.1-1,2.9c1.2,0.1,2.2,0.2,3.1,0.3c0.9,0.1,1.7,0.3,2.3,0.5c0.6,0.2,0.9,0.4,1,0.6
		c0,0,0,0.1,0,0.1v5.8c19.9,4.7,34.7,22.6,34.7,44c0,25-20.2,45.2-45.2,45.2c-25,0-45.2-20.2-45.2-45.2c0-21.3,14.8-39.2,34.7-44
		v-5.8c0-0.7,2.7-1.3,6.5-1.5c-0.6-0.8-1-1.8-1-2.9c0-2.5,1.8-4.6,4.2-4.9V0H942.6v69.7c9.4,0.2,7.5,11.5,4.4,19.8
		c5.9-7.4,14.8-15.1,20.2-7.2c6.3,9.3-13.2,15.3-22,16.7c-0.4,1.3-1.6,2.2-3,2.2c-1.6,0-2.9-1.2-3.1-2.8
		c-8.4-1.6-28.1-8.3-21.4-17.4c5.2-7.1,13-0.6,18.6,6.5c-3.1-7.7-4.3-17,4.8-17.9V0H752v221.9c1.1-2.2,2.7-4.9,5.5-7.8
		c0.2-0.2,0.5-0.3,0.9-0.4c0.3,0,0.6,0.2,0.8,0.5l4.3,6.5c0.3,0.4,0.2,1-0.1,1.3c-9.5,10.3-10.8,18.3-11,19.9v0.6l0,0v4.1
		c0.8,0.1,1.5,0.3,2.3,0.6l0.3,0.1c0.8,0.3,1.4,0.7,2.1,1.1l3-3.3c0,0,0.1,0,0.1-0.1c0-0.1,0.1-0.1,0.2-0.2c1.1-1.6,5.2-8.4,5.2-22
		c0-0.5,0.3-0.9,0.8-1.1l7.6-1.9c0.3-0.1,0.6,0,0.9,0.2c0.3,0.2,0.4,0.5,0.4,0.8c0,5.1-0.9,8.8-1.8,11.2c2.3-1.1,5.9-2,10.8-1.4
		c0.3,0.1,0.6,0.2,0.8,0.4c0.1,0.2,0.2,0.5,0.2,0.8l-1.3,8.8c-0.1,0.6-0.6,1-1.2,0.9c-13.3-1.6-20,4.1-20.9,4.8
		c-0.1,0.1-0.1,0.1-0.1,0.1s0,0-0.1,0l-2.9,3.2c0.7,0.7,1.3,1.6,1.7,2.5c0.4,1,0.6,2,0.7,3l4.4,0l0.1,0c0,0,0,0,0.1,0
		c1.1-0.1,9.9-1.4,17.7-12.2c0.4-0.5,1-0.6,1.5-0.3l7.4,4.9c0.2,0.2,0.4,0.4,0.5,0.7c0,0.2,0,0.5-0.2,0.8c-2.9,4-6,6-8.3,7.1
		c2.2,0.8,5.5,2.6,9.5,6.2c0.3,0.2,0.4,0.5,0.4,0.9c0,0.3-0.2,0.6-0.5,0.8l-6.5,4.3c-0.3,0.2-0.6,0.3-1,0.1c-0.1,0-0.2-0.1-0.3-0.2
		c-6.2-5.6-11.4-8.3-14.7-9.6c-2.9-1.1-4.8-1.4-5.3-1.4c-0.1,0-0.1,0-0.1,0H761c-0.1,0.8-0.3,1.5-0.6,2.3l-0.1,0.3
		c-0.3,0.8-0.7,1.4-1.1,2.1l3.3,3c0,0,0,0,0.1,0.1c0.4,0.3,1.9,1.4,4.8,2.5c3.3,1.3,9,2.8,17.4,2.8c0.5,0,0.9,0.3,1,0.8l1.9,7.6
		c0.1,0.3,0,0.7-0.2,0.9c-0.2,0.3-0.5,0.4-0.8,0.4c-5.3,0-9-1-11.2-1.8c1,2.4,1.9,6,1.3,10.8c-0.1,0.3-0.2,0.6-0.4,0.7
		c-0.3,0.2-0.6,0.2-0.8,0.2l-8.8-1.3l-0.2-0.1c-0.5-0.2-0.8-0.6-0.7-1.1c1.6-13.2-4.1-20.1-4.9-20.9c-0.1-0.1-0.1-0.1-0.1-0.1l0-0.1
		l-3.2-2.9c-0.7,0.7-1.6,1.3-2.5,1.7c-1,0.4-2,0.6-3,0.7l0,4.4l0,0.1c0,0,0,0,0,0.1c0.1,1.2,1.4,9.9,12.2,17.7
		c0.5,0.4,0.6,1,0.3,1.5l-4.9,7.4c-0.2,0.2-0.4,0.4-0.7,0.5c-0.3,0-0.6,0-0.8-0.2c-4-2.9-6-6-7-8.3c-1,2.4-2.8,5.7-6.2,9.5
		c-0.2,0.2-0.5,0.4-0.9,0.4c-0.1,0-0.2,0-0.3-0.1c-0.2-0.1-0.4-0.2-0.5-0.4l-4.3-6.5c-0.3-0.4-0.2-1,0.1-1.3
		c9.2-10,10.7-17.8,11-19.7c0-0.1,0-0.2,0-0.3c0-0.1,0-0.2,0-0.2l0-4.5c-0.8-0.1-1.5-0.3-2.3-0.6l-0.2-0.1c-0.8-0.3-1.5-0.7-2.2-1.2
		l-3,3.3c0,0-0.1,0-0.1,0.1c0,0.1-0.1,0.1-0.2,0.2c-1.1,1.6-5.1,8.4-5.2,22c0,0.5-0.3,0.9-0.8,1.1l-7.6,1.9c-0.2,0-0.5,0-0.7,0
		c-0.1,0-0.2-0.1-0.3-0.1c-0.2-0.2-0.4-0.5-0.4-0.8c0-5.1,0.9-8.8,1.8-11.2c-2.4,1-6,1.9-10.8,1.4c-0.3,0-0.5-0.2-0.7-0.4
		c-0.2-0.3-0.2-0.6-0.2-0.8l1.4-8.8c0.1-0.6,0.6-1,1.2-0.9c12.7,1.5,19.5-3.7,20.8-4.8c0.1-0.1,0.2-0.2,0.2-0.2l3-3.3
		c-0.7-0.7-1.3-1.6-1.7-2.5c-0.4-1-0.7-2-0.7-3l-4.3,0c-0.1,0-0.1,0.1-0.1,0c0,0,0,0-0.1,0c-1.1,0.1-9.9,1.4-17.7,12.2
		c-0.3,0.4-0.8,0.6-1.2,0.4l-0.2-0.1l-7.4-4.9c-0.2-0.2-0.4-0.4-0.4-0.7c0-0.2,0-0.5,0.2-0.8c2.8-4,5.9-6,8.3-7.1
		c-2.2-0.8-5.6-2.6-9.5-6.2c-0.2-0.2-0.4-0.5-0.3-0.9c0-0.3,0.2-0.6,0.5-0.8l6.5-4.3c0.4-0.3,1-0.2,1.3,0.1
		c6.1,5.6,11.4,8.3,14.7,9.6c2.8,1.1,4.7,1.3,5.2,1.4c0.1,0,0.2,0,0.2,0h4.5c0.1-0.8,0.3-1.5,0.6-2.3l0.1-0.3
		c0.3-0.8,0.7-1.4,1.1-2.1l-3.3-3c0,0,0,0-0.1-0.1c-0.4-0.3-2-1.4-4.8-2.5c-3.3-1.3-9.1-2.8-17.4-2.8c-0.1,0-0.3,0-0.4-0.1
		c-0.3-0.1-0.6-0.4-0.7-0.8l-1.9-7.6c-0.1-0.3,0-0.7,0.2-0.9c0.2-0.3,0.5-0.4,0.8-0.4c5.3,0,9,1,11.2,1.8c-1-2.4-1.9-6-1.3-10.8
		c0-0.3,0.2-0.6,0.4-0.7c0.3-0.2,0.6-0.2,0.8-0.2l8.8,1.3c0.5,0.1,0.9,0.6,0.9,1.2c-1.5,13.2,4.1,20,4.9,20.9
		c0.1,0.1,0.2,0.2,0.3,0.3l3.1,2.8c0.7-0.7,1.6-1.3,2.5-1.7c1-0.4,2-0.6,3-0.7l0-4.4c0,0,0-0.1,0-0.3c-0.2-1.6-1.8-10.1-12.2-17.5
		c-0.5-0.4-0.6-1-0.3-1.5l4.9-7.4c0.2-0.2,0.4-0.4,0.7-0.5c0.3,0,0.5,0,0.8,0.2c3.5,2.5,5.5,5.2,6.6,7.4V0H585.7v9.3
		c2.4,0.4,4.2,2.4,4.2,4.9c0,1.1-0.4,2.1-1,2.9c1.2,0.1,2.2,0.2,3.1,0.3c0.9,0.1,1.7,0.3,2.3,0.5c0.6,0.2,0.9,0.4,1,0.6
		c0,0,0,0.1,0,0.1v5.8c19.9,4.7,34.7,22.6,34.7,44c0,25-20.2,45.2-45.2,45.2c-25,0-45.2-20.2-45.2-45.2c0-21.3,14.8-39.2,34.7-44
		v-5.8c0-0.7,2.7-1.3,6.5-1.5c-0.6-0.8-1-1.8-1-2.9c0-2.5,1.8-4.6,4.2-4.9V0H405v51.6c0.9,0.4,2.5,1.6,5.9,6
		c4.7,5.9,15.2,21.4,14.4,24.5c-0.2,0.5-1.1,2.4-5.2,2.2c6.4,9.4,13,20.3,12.3,23c-0.2,0.5-1.4,3.3-7.8,2.6
		c8.8,12.8,17.9,28,17.1,31.5c-0.2,0.7-2.5,5.8-15.9,2c-6.1-1.7-8-0.8-10.6,0.5c-1.2,0.6-2.7,1.3-4.7,1.8v13.7c0,0.1,0,0.2,0,0.3
		h-12.9c0-0.1,0-0.2,0-0.3v-13.6c-2.3-0.5-4-1.2-5.4-1.8c-2.8-1.1-4.7-2-9.8-0.6c-13.4,3.5-15.6-1.3-15.8-1.9
		c-0.9-3.5,8.3-18.8,17.1-31.6c-6.4,0.7-7.6-2-7.8-2.4c-0.7-2.8,5.9-13.8,12.3-23.2c-4,0.2-5-1.6-5.1-2c-0.8-3.2,9.7-18.7,14.4-24.6
		c3.4-4.3,5-5.6,5.9-6V0H0v380h4080V0H3708.8z M2124.3,258.5l-7.4-5l-8.1,3.8l2.5-8.6l-6.1-6.5l8.9-0.3l4.3-7.8l3,8.4l8.8,1.6
		l-7,5.5L2124.3,258.5z M347,130.7c-0.2-0.1-0.3-0.3-0.4-0.4c-3.8-5.4,2.1-11.3,7.5-7.5c0.2,0.1,0.3,0.3,0.4,0.4
		C358.3,128.5,352.4,134.5,347,130.7z M350.3,32.9l-0.6,10l-7-7.1l-9.7,2.5l4.6-8.9l-5.3-8.4l9.9,1.6l6.4-7.7l1.5,9.9l9.3,3.7
		L350.3,32.9z M601.3,177.3l-5.5,7l-1.6-8.8l-8.4-3l7.8-4.3l0.3-8.9l6.5,6.1l8.6-2.5l-3.8,8.1l5,7.4L601.3,177.3z M805.5,205.8
		l-0.1,10.2l-7.6-6.9l-9.7,3.1l4.2-9.3l-5.9-8.3l10.2,1.1l6.1-8.2l2.1,10l9.7,3.3L805.5,205.8z M899.8,116.9v-11c0-3.3,2.7-6,6-6
		h27.6c3.3,0,6,2.7,6,6l0,11c0,3.3-2.7,6-6,6h-27.5C902.5,122.9,899.8,120.3,899.8,116.9z M939.2,181.6c0,3.3-2.7,6-6,6h-24.5
		c-3.3,0-6-2.7-6-6v-47.3c0-3.3,2.7-6,6-6h24.7c3.3,0,6,2.7,6,6L939.2,181.6z M956.1,252.1c-0.2-0.1-0.3-0.3-0.4-0.4
		c-3.8-5.4,2.1-11.3,7.5-7.5c0.2,0.1,0.3,0.3,0.4,0.4C967.5,250,961.5,255.9,956.1,252.1z M981.6,181.6c0,3.3-2.7,6-6,6h-25
		c-3.3,0-6-2.7-6-6l0.1-47.3c0-3.3,2.7-6,6-6h24.9c3.3,0,6,2.7,6,6V181.6z M984.5,116.9c0,3.3-2.7,6-6,6h-27.7c-3.3,0-6-2.7-6-6
		l0-11c0-3.3,2.7-6,6-6h27.6c3.3,0,6,2.7,6,6V116.9z M1173.9,81.5l-8.2,5l1.7-9.4l-7.3-6.3l9.5-1.3l3.7-8.9l4.2,8.6l9.6,0.8
		l-6.9,6.6l2.2,9.3L1173.9,81.5z M1183,201.5c-2.9,0-5.2-2.3-5.2-5.2c0-2.9,2.3-5.2,5.2-5.2c2.9,0,5.2,2.3,5.2,5.2
		C1188.1,199.1,1185.8,201.5,1183,201.5z M1315.5,104.3c-2.2-9.3,9.5-10.6,19-9.9c-8.4-3.4-18.2-9.9-11.1-17.1
		c7.1-7.3,13.3,0.2,17,8c-1.4-8.8-0.9-19,7.8-18c11.2,1.3,2.7,20.2-1.8,27.5c1,1.2,1,3-0.1,4.2c-1,1-2.5,1.3-3.7,0.7
		C1335.7,104.9,1318.1,115.2,1315.5,104.3z M1329.2,140.5l-8.1-7.5c-2.4-2.3-2.6-6-0.3-8.5l18.8-20.3c2.2-2.4,6-2.6,8.5-0.3l8.1,7.5
		c2.4,2.2,2.6,6.1,0.3,8.5l-18.8,20.3C1335.4,142.6,1331.6,142.8,1329.2,140.5z M1360.8,251.6c-0.1,0.2-0.3,0.3-0.4,0.4
		c-5.4,3.8-11.3-2.1-7.5-7.5c0.1-0.2,0.3-0.3,0.4-0.4C1358.6,240.3,1364.5,246.2,1360.8,251.6z M1404.1,163.6l-17,18.4
		c-2.3,2.4-6,2.6-8.5,0.3l-34.7-32.1c-2.4-2.3-2.6-6-0.3-8.5l16.9-18.3c2.2-2.4,6-2.6,8.5-0.3l34.8,32
		C1406.2,157.4,1406.3,161.2,1404.1,163.6z M1432.5,132.9l-16.7,18c-2.2,2.4-6,2.6-8.5,0.3l-34.8-32c-2.4-2.2-2.6-6.1-0.3-8.5
		l16.8-18.1c2.3-2.4,6-2.6,8.5-0.3l34.7,32.1C1434.6,126.6,1434.8,130.4,1432.5,132.9z M1511.1,216l-0.1-10.2l-8.9-5.1l9.7-3.3
		l2.1-10l6.1,8.2l10.2-1.1l-5.9,8.3l4.2,9.3l-9.7-3.1L1511.1,216z M1722.3,175.6l-1.6,8.8l-5.5-7l-8.9,1.1l5-7.4l-3.8-8.1l8.6,2.5
		l6.5-6.1l0.3,8.9l7.8,4.3L1722.3,175.6z M1894.5,253.5c-2.1,0-3.9-1.7-3.9-3.9s1.7-3.9,3.9-3.9c2.1,0,3.9,1.7,3.9,3.9
		S1896.6,253.5,1894.5,253.5z M2038.1,257.7c-3.1-4.5,1.8-9.4,6.3-6.3c0.1,0.1,0.3,0.2,0.4,0.4c3.1,4.5-1.8,9.4-6.3,6.3
		C2038.3,258,2038.2,257.9,2038.1,257.7z M2289.4,177.3l-5.5,7l-1.6-8.8l-8.4-3l7.8-4.3l0.3-8.9l6.5,6.1l8.6-2.5l-3.8,8.1l5,7.4
		L2289.4,177.3z M2493.6,205.8l-0.1,10.2l-7.6-6.9l-9.7,3.1l4.2-9.3l-5.9-8.3l10.2,1.1l6.1-8.2l2.1,10l9.7,3.3L2493.6,205.8z
		 M2587.9,116.9v-11c0-3.3,2.7-6,6-6h27.6c3.3,0,6,2.7,6,6l0,11c0,3.3-2.7,6-6,6h-27.5C2590.6,122.9,2587.9,120.3,2587.9,116.9z
		 M2627.4,181.6c0,3.3-2.7,6-6,6h-24.5c-3.3,0-6-2.7-6-6v-47.3c0-3.3,2.7-6,6-6h24.7c3.3,0,6,2.7,6,6L2627.4,181.6z M2644.3,252.1
		c-0.2-0.1-0.3-0.3-0.4-0.4c-3.8-5.4,2.1-11.3,7.5-7.5c0.2,0.1,0.3,0.3,0.4,0.4C2655.6,250,2649.7,255.9,2644.3,252.1z
		 M2669.7,181.6c0,3.3-2.7,6-6,6h-25c-3.3,0-6-2.7-6-6l0.1-47.3c0-3.3,2.7-6,6-6h24.9c3.3,0,6,2.7,6,6V181.6z M2672.6,116.9
		c0,3.3-2.7,6-6,6h-27.7c-3.3,0-6-2.7-6-6l0-11c0-3.3,2.7-6,6-6h27.6c3.3,0,6,2.7,6,6V116.9z M2738.6,54.2l-14.2-5.8l-12.2,9.3
		l1.1-15.3l-12.6-8.7l14.9-3.6l4.4-14.7l8,13l15.3-0.3l-9.9,11.7L2738.6,54.2z M3075.8,53.6c8.5-4.4,12.7,6.6,14.3,15.9
		c1.2-8.9,5.1-20.1,13.9-15c8.8,5.1,3.1,13-3.5,18.5c8.2-3.6,18.2-5.6,19.4,3.1c1.6,11.2-18.9,7.6-27.1,5.1c-0.9,1.3-2.6,1.7-4,1
		c-1.2-0.7-1.8-2.1-1.6-3.4C3080.1,73.3,3065.8,58.8,3075.8,53.6z M2862.1,81.5l-8.2,5l1.7-9.4l-7.3-6.3l9.5-1.3l3.7-8.9l4.2,8.6
		l9.6,0.8l-6.9,6.6l2.2,9.3L2862.1,81.5z M2871.1,201.5c-2.9,0-5.2-2.3-5.2-5.2c0-2.9,2.3-5.2,5.2-5.2c2.9,0,5.2,2.3,5.2,5.2
		C2876.3,199.1,2874,201.5,2871.1,201.5z M3015.8,134.1l22.5-41.6c1.6-2.9,5.2-4,8.1-2.4l21.9,11.8c2.9,1.6,4,5.2,2.4,8.1
		l-22.4,41.7c-1.6,2.9-5.2,4-8.1,2.4l-22-11.9C3015.3,140.6,3014.2,137,3015.8,134.1z M3048.9,251.6c-0.1,0.2-0.3,0.3-0.4,0.4
		c-5.4,3.8-11.3-2.1-7.5-7.5c0.1-0.2,0.3-0.3,0.4-0.4C3046.8,240.3,3052.7,246.2,3048.9,251.6z M3107.7,130l-22.5,41.6
		c-1.6,2.9-5.2,4-8.1,2.4l-21.6-11.7c-2.9-1.6-4-5.2-2.4-8.1l22.4-41.7c1.6-2.9,5.2-4,8.1-2.4l21.7,11.8
		C3108.2,123.5,3109.3,127.1,3107.7,130z M3123.8,106.5l-5.2,9.7c-1.6,2.9-5.2,4-8.1,2.4l-24.2-13.1c-2.9-1.6-4-5.2-2.4-8.1l5.2-9.7
		c1.6-2.9,5.2-4,8.1-2.4l24.2,13.1C3124.2,99.9,3125.3,103.5,3123.8,106.5z M3262.2,173.9c-2.1,0-3.9-1.7-3.9-3.9s1.7-3.9,3.9-3.9
		c2.1,0,3.9,1.7,3.9,3.9S3264.4,173.9,3262.2,173.9z M3339.2,216l-0.1-10.2l-8.9-5.1l9.7-3.3l2.1-10l6.1,8.2l10.2-1.1l-5.9,8.3
		l4.2,9.3l-9.7-3.1L3339.2,216z M3550.4,175.6l-1.6,8.8l-5.5-7l-8.9,1.1l5-7.4l-3.8-8.1l8.6,2.5l6.5-6.1l0.3,8.9l7.8,4.3
		L3550.4,175.6z M3733.2,205.1c-1.4,0-2.6-1.2-2.6-2.6s1.2-2.6,2.6-2.6c1.4,0,2.6,1.2,2.6,2.6S3734.6,205.1,3733.2,205.1z
		 M3765.7,344.2c-0.1,0.2-0.3,0.3-0.4,0.4c-5.4,3.8-11.3-2.1-7.5-7.5c0.1-0.2,0.3-0.3,0.4-0.4
		C3763.5,332.9,3769.5,338.8,3765.7,344.2z M3779.3,252.3l-9.7-2.5l-7,7.1l-0.6-10l-8.9-4.5l9.3-3.7l1.5-9.9l6.4,7.7l9.9-1.6
		l-5.3,8.4L3779.3,252.3z"/>
	<path class="elementor-shape-fill ha-shape-divider" d="M560.7,76.9c-0.6-0.8-1.6-1.3-2.7-1.3c-1.9,0-3.4,1.5-3.4,3.4c0,1.9,1.5,3.4,3.4,3.4c1.9,0,3.4-1.5,3.4-3.4
		c0-0.1,0-0.3,0-0.4C561.3,77.9,561.1,77.4,560.7,76.9z"/>
	<path class="elementor-shape-fill ha-shape-divider" d="M558.1,61.3c1.1,0,2-0.5,2.7-1.3c0.4-0.5,0.6-1,0.7-1.6c0-0.1,0-0.3,0-0.4c0-1.9-1.5-3.4-3.4-3.4c-1.9,0-3.4,1.5-3.4,3.4
		C554.7,59.8,556.2,61.3,558.1,61.3z"/>
	<path class="elementor-shape-fill ha-shape-divider" d="M765.2,239.6l4.7-5.1l0,0c0.3-0.4,2.9-4.1,3.2-12l-5.5,1.4C767.6,230.7,766.4,235.9,765.2,239.6z"/>
	<path class="elementor-shape-fill ha-shape-divider" d="M758.1,216.6c-5.1,6-5.7,10.5-5.7,11l0,0l0,6.9c1.6-3.6,4.3-8.2,8.9-13.3L758.1,216.6z"/>
	<path class="elementor-shape-fill ha-shape-divider" d="M773.3,275.1c0.2,0.2,1.2,0.8,2.9,1.5c1.8,0.7,4.8,1.5,9.1,1.7l-1.4-5.5c-7.1,0-12.3-1.3-15.8-2.4L773.3,275.1L773.3,275.1
		z"/>
	<path class="elementor-shape-fill ha-shape-divider" d="M780.1,257.6h-7c3.4,1.5,8.1,4.1,13.3,8.9l4.7-3.1c-5.9-5-9.8-5.6-10.8-5.8l0,0C780.2,257.6,780.1,257.6,780.1,257.6z"/>
	<path class="elementor-shape-fill ha-shape-divider" d="M790,249.1l-5.6-3.7c-4.1,5.5-8.4,8.5-11.9,10.1l7.5,0c0,0,0,0,0.1,0c0,0,0.1,0,0.2,0C781.5,255.3,785.9,254.4,790,249.1z"
		/>
	<path class="elementor-shape-fill ha-shape-divider" d="M771.4,235.9l-5,5.6c3.6-1.4,8.7-2.5,15.5-1.9l1-6.7c-7.1-0.5-10.7,2.4-11.4,2.9L771.4,235.9
		C771.5,235.8,771.4,235.9,771.4,235.9z"/>
	<path class="elementor-shape-fill ha-shape-divider" d="M941.8,70.3c-8.8,0.4-2.9,18.2-0.4,24.7c0.2-0.1,0.5-0.1,0.8-0.1c0.3,0,0.6,0.1,0.8,0.1c0.1-0.2,0.2-0.3,0.3-0.5
		C946,86.1,950,70,941.8,70.3z"/>
	<path class="elementor-shape-fill ha-shape-divider" d="M1119,156.8c-0.2-0.1-0.5-0.2-0.7-0.2c-0.7,0-1.3,0.5-1.5,1v0c-0.1,0.2-0.1,0.3-0.1,0.5c0,0.5,0.2,0.9,0.5,1.2
		c0.3,0.3,0.6,0.5,1.1,0.5c0.9,0,1.5-0.7,1.6-1.5c0,0,0-0.1,0-0.1C1119.9,157.5,1119.6,157,1119,156.8z"/>
	<path class="elementor-shape-fill ha-shape-divider" d="M1111.3,159.7c-0.6-0.8-1.6-1.3-2.7-1.3c-1.9,0-3.4,1.5-3.4,3.4c0,1.9,1.5,3.4,3.4,3.4c1.9,0,3.4-1.5,3.4-3.4
		c0-0.1,0-0.3,0-0.4C1111.9,160.7,1111.7,160.2,1111.3,159.7z"/>
	<path class="elementor-shape-fill ha-shape-divider" d="M966.4,82.6c-4.3-6.1-16.8,7-22.2,13.2c0.6,0.5,1,1.2,1.1,2C954.6,94.7,970.6,88.4,966.4,82.6z"/>
	<path class="elementor-shape-fill ha-shape-divider" d="M940.1,95.7c-4.8-6.1-17.1-20.3-21.8-14.3c-4.4,5.7,11.8,12.7,20.8,15.9C939.3,96.6,939.7,96.1,940.1,95.7z"/>
	<path class="elementor-shape-fill ha-shape-divider" d="M712.4,263.9l5.6,3.7c4.1-5.5,8.4-8.5,11.9-10.2l-7.5,0c0,0,0,0-0.1,0c0,0-0.1,0-0.2,0
		C720.9,257.7,716.6,258.6,712.4,263.9z"/>
	<path class="elementor-shape-fill ha-shape-divider" d="M750.2,227.4c-0.2-1.2-1.1-5.5-6.4-9.7l-3.7,5.6c5.4,4.1,8.4,8.4,10.1,11.8l0-7.5c0,0,0,0,0-0.1
		C750.2,227.5,750.2,227.4,750.2,227.4z"/>
	<path class="elementor-shape-fill ha-shape-divider" d="M729,237.7C729,237.7,729,237.7,729,237.7c-0.8-0.6-4.2-2.8-11.9-3.1l1.4,5.5c7.1,0.1,12.4,1.3,15.9,2.4l-5.2-4.7
		C729.2,237.9,729.1,237.8,729,237.7z"/>
	<path class="elementor-shape-fill ha-shape-divider" d="M734.2,225.8l-6.7-1c-0.5,6.7,2.1,10.3,2.8,11.3c0.1,0.1,0.1,0.1,0.1,0.1c0,0.1,0.1,0.1,0.1,0.1l5.6,5
		C734.7,237.8,733.6,232.7,734.2,225.8z"/>
	<path class="elementor-shape-fill ha-shape-divider" d="M768.3,287.2l6.6,1c0.5-6.7-2.1-10.3-2.8-11.3c0-0.1-0.1-0.1-0.1-0.1c0-0.1-0.1-0.1-0.1-0.1l-5.6-5
		C767.7,275.2,768.9,280.3,768.3,287.2z"/>
	<path class="elementor-shape-fill ha-shape-divider" d="M752.3,285.5c0.1,0.9,0.8,5.4,6.4,9.8l3.7-5.6c-5.4-4.1-8.5-8.4-10.2-11.9l0,7.5C752.2,285.3,752.2,285.4,752.3,285.5
		L752.3,285.5z"/>
	<path class="elementor-shape-fill ha-shape-divider" d="M754.4,263.6c0.7-0.3,1.2-0.7,1.7-1.2c0.6-0.5,1-1,1.4-1.6c0.3-0.4,0.5-0.9,0.7-1.4l0.1-0.3c0.2-0.5,0.3-1,0.4-1.5
		c0.1-0.7,0.2-1.4,0-2.1c-0.1-0.7-0.2-1.4-0.5-2.1c-0.3-0.6-0.7-1.2-1.2-1.7c-0.5-0.6-1-1-1.6-1.4c-0.4-0.3-0.9-0.5-1.4-0.7
		l-0.3-0.1c-0.5-0.2-1-0.3-1.5-0.4c-0.7-0.1-1.4-0.1-2.1,0c-0.7,0-1.4,0.2-2.1,0.5c-0.6,0.3-1.2,0.7-1.7,1.2c-0.6,0.5-1,1-1.4,1.6
		c-0.3,0.4-0.5,0.9-0.7,1.4l-0.1,0.3c-0.2,0.5-0.3,1-0.4,1.5c-0.1,0.7-0.1,1.4-0.1,2.1c0,0.7,0.2,1.4,0.5,2.1
		c0.3,0.6,0.7,1.2,1.2,1.7c0.5,0.6,1,1,1.6,1.4c0.4,0.3,0.9,0.5,1.4,0.7l0.3,0.1c0.5,0.2,1,0.3,1.5,0.4c0.7,0.1,1.4,0.1,2.1,0
		C753,264.1,753.7,263.9,754.4,263.6z"/>
	<path class="elementor-shape-fill ha-shape-divider" d="M584.9,10.8c-1.9,0-3.5,1.5-3.5,3.5c0,1.2,0.6,2.2,1.5,2.9c0.6,0,1.3,0,2,0c0.7,0,1.3,0,1.9,0c0.9-0.6,1.5-1.7,1.5-2.8
		C588.3,12.4,586.8,10.8,584.9,10.8z"/>
	<path class="elementor-shape-fill ha-shape-divider" d="M2068.2,321.8c0.2,0.6,0.8,1.1,1.5,1.1c0.3,0,0.5-0.1,0.7-0.2c0.5-0.2,0.9-0.8,0.9-1.4c0,0,0-0.1,0-0.1
		c0-0.8-0.7-1.5-1.6-1.5c-0.4,0-0.8,0.2-1.1,0.5c-0.3,0.2-0.5,0.7-0.5,1.2C2068.1,321.4,2068.2,321.6,2068.2,321.8L2068.2,321.8z"/>
	<path class="elementor-shape-fill ha-shape-divider" d="M731,277.2C731,277.2,731,277.1,731,277.2l5.1-5.6c-3.6,1.4-8.7,2.6-15.5,1.9l-1.1,6.6c6.7,0.5,10.3-2.1,11.3-2.8
		C730.9,277.3,731,277.2,731,277.2z"/>
	<path class="elementor-shape-fill ha-shape-divider" d="M737.3,273.4l-4.7,5.1l0,0c-0.3,0.4-2.9,4.1-3.2,12l5.5-1.4C734.9,282.3,736,277.1,737.3,273.4z"/>
	<path class="elementor-shape-fill ha-shape-divider" d="M722.4,255.4l7,0c-3.4-1.5-8.1-4.1-13.4-8.9l-4.7,3.1c5.9,5,9.8,5.6,10.8,5.7l0,0C722.3,255.4,722.4,255.4,722.4,255.4z"/>
	<path class="elementor-shape-fill ha-shape-divider" d="M1566.2,227.7l0,7.5c1.7-3.5,4.7-7.8,10.1-11.8l-3.7-5.6c-5.3,4.2-6.2,8.5-6.4,9.7C1566.2,227.4,1566.2,227.5,1566.2,227.7
		C1566.2,227.6,1566.2,227.7,1566.2,227.7z"/>
	<path class="elementor-shape-fill ha-shape-divider" d="M3383.4,221.3c4.6,5.1,7.3,9.7,8.9,13.3l0-6.9l0,0c-0.1-0.5-0.6-5-5.7-11L3383.4,221.3z"/>
	<path class="elementor-shape-fill ha-shape-divider" d="M3377,223.8l-5.5-1.4c0.3,7.9,2.9,11.6,3.2,12l0,0l4.7,5.1C3378.2,235.9,3377,230.7,3377,223.8z"/>
	<path class="elementor-shape-fill ha-shape-divider" d="M3373.1,235.8L3373.1,235.8c-0.7-0.6-4.3-3.5-11.4-3l1,6.7c6.8-0.6,11.9,0.5,15.5,1.9L3373.1,235.8
		C3373.2,235.9,3373.1,235.8,3373.1,235.8z"/>
	<path class="elementor-shape-fill ha-shape-divider" d="M3392.3,277.8c-1.7,3.5-4.7,7.7-10.2,11.9l3.7,5.6c5.6-4.4,6.3-8.9,6.4-9.8l0-0.1c0,0,0-0.1,0-0.1L3392.3,277.8z"/>
	<path class="elementor-shape-fill ha-shape-divider" d="M3392.3,248.9c-0.5,0.1-1.1,0.2-1.5,0.4l-0.3,0.1c-0.5,0.2-1,0.4-1.4,0.7c-0.6,0.4-1.1,0.9-1.6,1.4
		c-0.5,0.5-0.9,1.1-1.2,1.7c-0.3,0.7-0.5,1.4-0.5,2.1c-0.1,0.7-0.1,1.5,0,2.1c0.1,0.5,0.2,1.1,0.4,1.5l0.1,0.3
		c0.2,0.5,0.4,1,0.7,1.4c0.4,0.6,0.8,1.2,1.4,1.6c0.5,0.5,1.1,0.9,1.7,1.2c0.7,0.3,1.4,0.5,2.1,0.5c0.7,0.1,1.4,0.1,2.1,0
		c0.5-0.1,1.1-0.2,1.5-0.4l0.3-0.1c0.5-0.2,1-0.4,1.4-0.7c0.6-0.4,1.1-0.9,1.6-1.4c0.5-0.5,0.9-1.1,1.2-1.7c0.3-0.7,0.5-1.4,0.5-2.1
		c0.1-0.7,0.1-1.5-0.1-2.1c-0.1-0.5-0.2-1.1-0.4-1.5l-0.1-0.3c-0.2-0.5-0.4-1-0.7-1.4c-0.4-0.6-0.9-1.1-1.4-1.6
		c-0.5-0.5-1.1-0.9-1.7-1.2c-0.7-0.3-1.4-0.5-2.1-0.5C3393.7,248.8,3393,248.8,3392.3,248.9z"/>
	<path class="elementor-shape-fill ha-shape-divider" d="M3394.4,227.7l0,7.5c1.7-3.5,4.7-7.8,10.1-11.8l-3.7-5.6c-5.3,4.2-6.2,8.5-6.4,9.7C3394.4,227.4,3394.4,227.5,3394.4,227.7
		C3394.3,227.6,3394.4,227.7,3394.4,227.7z"/>
	<path class="elementor-shape-fill ha-shape-divider" d="M3372.7,276.7C3372.7,276.7,3372.7,276.7,3372.7,276.7c-0.1,0.1-0.2,0.2-0.2,0.2c-0.7,0.9-3.3,4.5-2.8,11.3l6.6-1
		c-0.6-6.8,0.5-11.9,2-15.5L3372.7,276.7z"/>
	<path class="elementor-shape-fill ha-shape-divider" d="M3376.5,270.4c-3.5,1.2-8.7,2.4-15.8,2.4l-1.4,5.5c4.3-0.2,7.3-1,9.1-1.7c1.8-0.7,2.7-1.3,2.9-1.5l0,0L3376.5,270.4z"/>
	<path class="elementor-shape-fill ha-shape-divider" d="M3403.4,291.7c-4.7-5.2-7.3-9.8-8.9-13.3l0,7l0,0c0.1,0.5,0.6,5,5.7,11L3403.4,291.7z"/>
	<path class="elementor-shape-fill ha-shape-divider" d="M3364.3,257.6L3364.3,257.6c-1,0.1-5,0.8-10.9,5.8l4.7,3.1c5.3-4.7,10-7.4,13.3-8.9h-7
		C3364.5,257.6,3364.4,257.6,3364.3,257.6z"/>
	<path class="elementor-shape-fill ha-shape-divider" d="M2823.6,93.7c-1.9,0-3.5,1.5-3.5,3.5c0,1.2,0.6,2.2,1.5,2.9c0.6,0,1.3,0,2,0c0.7,0,1.3,0,1.9,0c0.9-0.6,1.5-1.7,1.5-2.8
		C2827.1,95.2,2825.6,93.7,2823.6,93.7z"/>
	<path class="elementor-shape-fill ha-shape-divider" d="M3360.1,245.3l-5.6,3.7c4.2,5.3,8.5,6.2,9.7,6.4c0.1,0,0.2,0,0.2,0c0.1,0,0.1,0,0.1,0l7.5,0
		C3368.5,253.8,3364.3,250.8,3360.1,245.3z"/>
	<path class="elementor-shape-fill ha-shape-divider" d="M2629.9,70.3c-8.8,0.4-2.9,18.2-0.4,24.7c0.2-0.1,0.5-0.1,0.8-0.1c0.3,0,0.6,0.1,0.8,0.1c0.1-0.2,0.2-0.3,0.3-0.5
		C2634.2,86.1,2638.1,70,2629.9,70.3z"/>
	<path class="elementor-shape-fill ha-shape-divider" d="M2478.2,249.1l-5.6-3.7c-4.1,5.5-8.4,8.5-11.9,10.1l7.5,0c0,0,0,0,0.1,0c0,0,0.1,0,0.2,0
		C2469.7,255.3,2474,254.4,2478.2,249.1z"/>
	<path class="elementor-shape-fill ha-shape-divider" d="M2468.2,257.6h-7c3.4,1.5,8.1,4.1,13.3,8.9l4.7-3.1c-5.9-5-9.8-5.6-10.8-5.8l0,0C2468.3,257.6,2468.2,257.6,2468.2,257.6z"
		/>
	<path class="elementor-shape-fill ha-shape-divider" d="M2453.3,239.6l4.7-5.1l0,0c0.3-0.4,2.9-4.1,3.2-12l-5.5,1.4C2455.7,230.7,2454.5,235.9,2453.3,239.6z"/>
	<path class="elementor-shape-fill ha-shape-divider" d="M2834.2,129.6c2.8,0,5.1-2.3,5.1-5.1c0-2.8-2.3-5.1-5.1-5.1c-2.8,0-5.1,2.3-5.1,5.1c0,1.8,1,3.4,2.4,4.3l-0.8,2
		c-0.1,0-0.1,0-0.2,0c-1.9,0-3.4,1.5-3.4,3.4c0,1.1,0.5,2,1.2,2.6l-4.7,12.2l-4.7-12.2c0.7-0.6,1.2-1.5,1.2-2.6
		c0-1.9-1.5-3.4-3.4-3.4c-0.1,0-0.1,0-0.2,0l-0.8-2c1.4-0.9,2.4-2.5,2.4-4.3c0-2.8-2.3-5.1-5.1-5.1c-2.8,0-5.1,2.3-5.1,5.1
		c0,2.8,2.3,5.1,5.1,5.1c0.4,0,0.7,0,1.1-0.1l0.7,1.8c-0.9,0.6-1.5,1.6-1.5,2.8c0,1.9,1.5,3.4,3.4,3.4c0.2,0,0.3,0,0.5-0.1l4.8,12.4
		l-12.4-4.8c0.1-0.2,0.1-0.3,0.1-0.5c0-1.9-1.5-3.4-3.4-3.4c-1.2,0-2.2,0.6-2.8,1.5l-1.9-0.7c0.1-0.4,0.1-0.7,0.1-1.1
		c0-2.8-2.3-5.1-5.1-5.1c-2.8,0-5.1,2.3-5.1,5.1c0,2.8,2.3,5.1,5.1,5.1c1.8,0,3.4-1,4.3-2.4l2,0.8c0,0.1,0,0.1,0,0.2
		c0,1.9,1.5,3.4,3.3,3.4c1,0,2-0.5,2.6-1.2l12.2,4.7L2809,156c-0.6-0.7-1.5-1.2-2.6-1.2c-1.9,0-3.3,1.5-3.3,3.4c0,0.1,0,0.1,0,0.2
		l-2,0.8c-0.9-1.4-2.5-2.4-4.3-2.4c-2.8,0-5.1,2.3-5.1,5.1c0,2.8,2.3,5.1,5.1,5.1c2.8,0,5.1-2.3,5.1-5.1c0-0.4,0-0.7-0.1-1.1
		l1.9-0.7c0.6,0.9,1.6,1.5,2.8,1.5c1.9,0,3.4-1.5,3.4-3.4c0-0.2,0-0.3-0.1-0.5l12.4-4.8l-4.8,12.4c-0.2-0.1-0.3-0.1-0.5-0.1
		c-1.9,0-3.4,1.5-3.4,3.4c0,1.2,0.6,2.2,1.5,2.8l-0.7,1.8c-0.3-0.1-0.7-0.1-1.1-0.1c-2.8,0-5.1,2.3-5.1,5.1c0,2.8,2.3,5.1,5.1,5.1
		c2.8,0,5.1-2.3,5.1-5.1c0-1.8-1-3.4-2.4-4.3l0.8-2c0.1,0,0.1,0,0.2,0c1.8,0,3.4-1.5,3.4-3.4c0-1-0.5-2-1.2-2.6l4.7-12.2l4.7,12.2
		c-0.7,0.6-1.2,1.5-1.2,2.6c0,1.9,1.5,3.4,3.4,3.4c0.1,0,0.1,0,0.2,0l0.8,2c-1.4,0.9-2.4,2.5-2.4,4.3c0,2.8,2.3,5.1,5.1,5.1
		c2.8,0,5.1-2.3,5.1-5.1c0-2.8-2.3-5.1-5.1-5.1c-0.4,0-0.7,0-1.1,0.1l-0.7-1.8c0.9-0.6,1.5-1.6,1.5-2.8c0-1.9-1.5-3.4-3.4-3.4
		c-0.2,0-0.4,0-0.5,0.1l-4.8-12.4l12.4,4.8c-0.1,0.2-0.1,0.4-0.1,0.5c0,1.9,1.5,3.4,3.4,3.4c1.2,0,2.2-0.6,2.8-1.5l1.9,0.7
		c-0.1,0.4-0.1,0.7-0.1,1.1c0,2.8,2.3,5.1,5.1,5.1c2.8,0,5.1-2.3,5.1-5.1c0-2.8-2.3-5.1-5.1-5.1c-1.8,0-3.4,1-4.3,2.4l-2-0.8
		c0-0.1,0-0.1,0-0.2c0-1.9-1.5-3.4-3.3-3.4c-1,0-2,0.5-2.6,1.2l-12.2-4.7l12.2-4.7c0.6,0.7,1.5,1.2,2.6,1.2c1.9,0,3.3-1.5,3.3-3.4
		c0-0.1,0-0.1,0-0.2l2-0.8c0.9,1.4,2.5,2.4,4.3,2.4c2.8,0,5.1-2.3,5.1-5.1c0-2.8-2.3-5.1-5.1-5.1c-2.8,0-5.1,2.3-5.1,5.1
		c0,0.4,0,0.7,0.1,1.1l-1.9,0.7c-0.6-0.9-1.6-1.5-2.8-1.5c-1.9,0-3.4,1.5-3.4,3.4c0,0.2,0,0.3,0.1,0.5l-12.4,4.8l4.8-12.4
		c0.2,0.1,0.4,0.1,0.5,0.1c1.9,0,3.4-1.5,3.4-3.4c0-1.2-0.6-2.2-1.5-2.8l0.7-1.8C2833.4,129.5,2833.8,129.6,2834.2,129.6z
		 M2813.6,127.8c-0.1,0-0.3,0-0.4,0c-1.9,0-3.4-1.5-3.4-3.4c0-1.9,1.5-3.3,3.4-3.3c1.9,0,3.4,1.5,3.4,3.3c0,1.1-0.5,2-1.3,2.7
		C2814.8,127.5,2814.2,127.7,2813.6,127.8z M2818.2,134.8c-0.2,0.5-0.8,0.9-1.4,0.9c0,0-0.1,0-0.1,0c-0.8,0-1.5-0.7-1.5-1.6
		c0-0.4,0.1-0.8,0.5-1c0.2-0.3,0.7-0.6,1.2-0.6c0.2,0,0.3,0,0.5,0.1c0.6,0.2,1.1,0.8,1.1,1.5
		C2818.4,134.4,2818.3,134.6,2818.2,134.8z M2800.1,141.2c-0.1,0.6-0.3,1.2-0.7,1.6c-0.6,0.8-1.6,1.3-2.7,1.3
		c-1.9,0-3.4-1.5-3.4-3.4c0-1.9,1.5-3.4,3.4-3.4c1.9,0,3.4,1.5,3.4,3.4C2800.2,140.9,2800.2,141.1,2800.1,141.2z M2807.2,145.8
		c-0.2,0.1-0.5,0.2-0.7,0.2c-0.7,0-1.3-0.5-1.5-1.1v0c-0.1-0.2-0.1-0.3-0.1-0.5c0-0.5,0.2-0.9,0.5-1.2c0.3-0.3,0.6-0.5,1.1-0.5
		c0.9,0,1.5,0.7,1.6,1.5c0,0,0,0.1,0,0.1C2808.1,145.1,2807.7,145.6,2807.2,145.8z M2796.8,165.2c-1.9,0-3.4-1.5-3.4-3.4
		c0-1.9,1.5-3.4,3.4-3.4c1.1,0,2,0.5,2.7,1.3c0.4,0.5,0.6,1,0.7,1.6c0,0.1,0,0.3,0,0.4C2800.2,163.6,2798.7,165.2,2796.8,165.2z
		 M2808,158.3c0,0.8-0.7,1.5-1.6,1.5c-0.4,0-0.8-0.2-1.1-0.5c-0.3-0.2-0.5-0.7-0.5-1.2c0-0.2,0-0.3,0.1-0.5v0c0.2-0.6,0.8-1,1.5-1
		c0.3,0,0.5,0.1,0.7,0.2c0.5,0.2,0.9,0.8,0.9,1.4C2808.1,158.2,2808.1,158.3,2808,158.3z M2816.5,178.1c0,1.9-1.5,3.3-3.4,3.3
		c-1.9,0-3.4-1.5-3.4-3.3c0-1.9,1.5-3.4,3.4-3.4c0.1,0,0.3,0,0.4,0c0.6,0.1,1.2,0.3,1.6,0.7C2816,176.1,2816.5,177.1,2816.5,178.1z
		 M2817.3,170c-0.2,0.1-0.3,0.1-0.5,0.1c-0.5,0-0.9-0.2-1.2-0.6c-0.3-0.3-0.5-0.7-0.5-1c0-0.9,0.7-1.5,1.5-1.6c0,0,0.1,0,0.1,0
		c0.6,0,1.2,0.3,1.4,0.9c0.1,0.2,0.2,0.5,0.2,0.7C2818.4,169.2,2818,169.8,2817.3,170z M2833.7,174.8c0.1,0,0.3,0,0.4,0
		c1.9,0,3.4,1.5,3.4,3.4c0,1.9-1.5,3.3-3.4,3.3c-1.9,0-3.4-1.5-3.4-3.3c0-1.1,0.5-2,1.3-2.7C2832.6,175.1,2833.1,174.9,2833.7,174.8
		z M2829.1,167.8c0.2-0.5,0.8-0.9,1.4-0.9c0,0,0.1,0,0.1,0c0.8,0,1.5,0.7,1.5,1.6c0,0.4-0.1,0.8-0.5,1c-0.2,0.3-0.7,0.6-1.2,0.6
		c-0.2,0-0.4,0-0.5-0.1c-0.6-0.2-1.1-0.8-1.1-1.5C2828.9,168.2,2829,168,2829.1,167.8z M2847.2,161.4c0.1-0.6,0.3-1.2,0.7-1.6
		c0.6-0.8,1.6-1.3,2.7-1.3c1.9,0,3.4,1.5,3.4,3.4c0,1.9-1.5,3.4-3.4,3.4c-1.9,0-3.4-1.5-3.4-3.4
		C2847.1,161.7,2847.1,161.5,2847.2,161.4z M2840.1,156.8c0.2-0.1,0.5-0.2,0.7-0.2c0.7,0,1.3,0.5,1.5,1v0c0.1,0.2,0.1,0.3,0.1,0.5
		c0,0.5-0.2,0.9-0.5,1.2c-0.3,0.3-0.6,0.5-1,0.5c-0.9,0-1.5-0.7-1.6-1.5c0,0,0-0.1,0-0.1C2839.3,157.5,2839.6,157,2840.1,156.8z
		 M2850.5,137.4c1.9,0,3.4,1.5,3.4,3.4c0,1.9-1.5,3.4-3.4,3.4c-1.1,0-2-0.5-2.7-1.3c-0.4-0.5-0.6-1-0.7-1.6c0-0.1,0-0.3,0-0.4
		C2847.1,138.9,2848.7,137.4,2850.5,137.4z M2839.3,144.3c0-0.8,0.7-1.5,1.6-1.5c0.4,0,0.8,0.2,1,0.5c0.3,0.2,0.5,0.7,0.5,1.2
		c0,0.2,0,0.3-0.1,0.5v0c-0.2,0.6-0.8,1.1-1.5,1.1c-0.3,0-0.5-0.1-0.7-0.2c-0.5-0.2-0.9-0.8-0.9-1.4
		C2839.3,144.4,2839.3,144.3,2839.3,144.3z M2830.7,135.7c0,0-0.1,0-0.1,0c-0.6,0-1.2-0.4-1.4-0.9c-0.1-0.2-0.2-0.5-0.2-0.7
		c0-0.7,0.5-1.3,1.1-1.5c0.2-0.1,0.4-0.1,0.5-0.1c0.5,0,0.9,0.2,1.2,0.6c0.3,0.3,0.5,0.7,0.5,1
		C2832.1,135,2831.5,135.6,2830.7,135.7z M2832.1,127.1c-0.8-0.6-1.3-1.6-1.3-2.7c0-1.9,1.5-3.3,3.4-3.3c1.9,0,3.4,1.5,3.4,3.3
		c0,1.9-1.5,3.4-3.4,3.4c-0.1,0-0.3,0-0.4,0C2833.1,127.7,2832.6,127.5,2832.1,127.1z"/>
	<path class="elementor-shape-fill ha-shape-divider" d="M2456.4,287.2l6.6,1c0.5-6.7-2.1-10.3-2.8-11.3c0-0.1-0.1-0.1-0.1-0.1c0-0.1-0.1-0.1-0.1-0.1l-5.6-5
		C2455.9,275.2,2457,280.3,2456.4,287.2z"/>
	<path class="elementor-shape-fill ha-shape-divider" d="M2461.5,275.1c0.2,0.2,1.2,0.8,2.9,1.5c1.8,0.7,4.8,1.5,9.1,1.7l-1.4-5.5c-7.1,0-12.3-1.3-15.8-2.4L2461.5,275.1
		L2461.5,275.1z"/>
	<path class="elementor-shape-fill ha-shape-divider" d="M2459.6,235.9l-5,5.6c3.6-1.4,8.7-2.5,15.5-1.9l1-6.7c-7.1-0.5-10.7,2.4-11.4,2.9L2459.6,235.9
		C2459.6,235.8,2459.6,235.9,2459.6,235.9z"/>
	<path class="elementor-shape-fill ha-shape-divider" d="M2654.5,82.6c-4.3-6.1-16.8,7-22.2,13.2c0.6,0.5,1,1.2,1.1,2C2642.7,94.7,2658.7,88.4,2654.5,82.6z"/>
	<path class="elementor-shape-fill ha-shape-divider" d="M2628.3,95.7c-4.8-6.1-17.1-20.3-21.8-14.3c-4.4,5.7,11.8,12.7,20.8,15.9C2627.4,96.6,2627.8,96.1,2628.3,95.7z"/>
	<path class="elementor-shape-fill ha-shape-divider" d="M3409.7,289.2l5.5,1.4c-0.3-7.9-2.9-11.6-3.2-12l0,0l-4.7-5.1C3408.6,277.1,3409.7,282.3,3409.7,289.2z"/>
	<path class="elementor-shape-fill ha-shape-divider" d="M2446.2,216.6c-5.1,6-5.7,10.5-5.7,11l0,0l0,6.9c1.6-3.6,4.3-8.2,8.9-13.3L2446.2,216.6z"/>
	<path class="elementor-shape-fill ha-shape-divider" d="M3414,236.3C3414,236.3,3414,236.3,3414,236.3c0.1-0.1,0.1-0.1,0.2-0.2c0.7-0.9,3.3-4.5,2.8-11.3l-6.7,1
		c0.7,6.8-0.5,11.9-1.9,15.5L3414,236.3z"/>
	<path class="elementor-shape-fill ha-shape-divider" d="M3566.5,52.9c0,0,0.1,0,0.1,0c0.8,0,1.5-0.7,1.5-1.6c0-0.4-0.1-0.8-0.5-1c-0.2-0.3-0.7-0.6-1.2-0.6c-0.2,0-0.3,0-0.5,0.1
		c-0.6,0.2-1.1,0.8-1.1,1.5c0,0.3,0.1,0.5,0.2,0.7C3565.4,52.5,3566,52.9,3566.5,52.9z"/>
	<path class="elementor-shape-fill ha-shape-divider" d="M3576.9,76.9c0.4,0,0.8-0.2,1.1-0.5c0.3-0.2,0.5-0.7,0.5-1.2c0-0.2,0-0.3-0.1-0.5v0c-0.2-0.6-0.8-1-1.5-1
		c-0.3,0-0.5,0.1-0.7,0.2c-0.5,0.2-0.9,0.8-0.9,1.4c0,0,0,0.1,0,0.1C3575.4,76.3,3576,76.9,3576.9,76.9z"/>
	<path class="elementor-shape-fill ha-shape-divider" d="M3576.2,63c0.2,0.1,0.5,0.2,0.7,0.2c0.7,0,1.3-0.5,1.5-1.1v0c0.1-0.2,0.1-0.3,0.1-0.5c0-0.5-0.2-0.9-0.5-1.2
		c-0.3-0.3-0.6-0.5-1.1-0.5c-0.9,0-1.5,0.7-1.6,1.5c0,0,0,0.1,0,0.1C3575.3,62.2,3575.7,62.8,3576.2,63z"/>
	<path class="elementor-shape-fill ha-shape-divider" d="M3552.6,41.6c0-1.9-1.5-3.3-3.4-3.3c-1.9,0-3.4,1.5-3.4,3.3c0,1.9,1.5,3.4,3.4,3.4c0.1,0,0.3,0,0.4,0
		c0.6-0.1,1.2-0.3,1.6-0.7C3552.1,43.7,3552.6,42.7,3552.6,41.6z"/>
	<path class="elementor-shape-fill ha-shape-divider" d="M3583.9,60c0.6,0.8,1.6,1.3,2.7,1.3c1.9,0,3.4-1.5,3.4-3.4c0-1.9-1.5-3.4-3.4-3.4c-1.9,0-3.4,1.5-3.4,3.4
		c0,0.1,0,0.3,0,0.4C3583.3,59,3583.5,59.6,3583.9,60z"/>
	<path class="elementor-shape-fill ha-shape-divider" d="M3568.1,44.3c0.5,0.4,1,0.6,1.6,0.7c0.1,0,0.3,0,0.4,0c1.9,0,3.4-1.5,3.4-3.4c0-1.9-1.5-3.3-3.4-3.3
		c-1.9,0-3.4,1.5-3.4,3.3C3566.8,42.7,3567.3,43.7,3568.1,44.3z"/>
	<path class="elementor-shape-fill ha-shape-divider" d="M3521.5,68.5c0,21.1,17.1,38.2,38.2,38.2c21.1,0,38.2-17.1,38.2-38.2c0-21.1-17.1-38.2-38.2-38.2
		C3538.6,30.3,3521.5,47.4,3521.5,68.5z M3538,58c0,0.4,0,0.7-0.1,1.1l1.9,0.7c0.6-0.9,1.6-1.5,2.8-1.5c1.9,0,3.4,1.5,3.4,3.4
		c0,0.2,0,0.3-0.1,0.5l12.4,4.8l-4.8-12.4c-0.2,0.1-0.4,0.1-0.5,0.1c-1.9,0-3.4-1.5-3.4-3.4c0-1.2,0.6-2.2,1.5-2.8l-0.7-1.8
		c-0.3,0.1-0.7,0.1-1.1,0.1c-2.8,0-5.1-2.3-5.1-5.1c0-2.8,2.3-5.1,5.1-5.1c2.8,0,5.1,2.3,5.1,5.1c0,1.8-1,3.4-2.4,4.3l0.8,2
		c0.1,0,0.1,0,0.2,0c1.9,0,3.4,1.5,3.4,3.4c0,1.1-0.5,2-1.2,2.6l4.7,12.2l4.7-12.2c-0.7-0.6-1.2-1.5-1.2-2.6c0-1.9,1.5-3.4,3.4-3.4
		c0.1,0,0.1,0,0.2,0l0.8-2c-1.4-0.9-2.4-2.5-2.4-4.3c0-2.8,2.3-5.1,5.1-5.1c2.8,0,5.1,2.3,5.1,5.1c0,2.8-2.3,5.1-5.1,5.1
		c-0.4,0-0.7,0-1.1-0.1l-0.7,1.8c0.9,0.6,1.5,1.6,1.5,2.8c0,1.9-1.5,3.4-3.4,3.4c-0.2,0-0.3,0-0.5-0.1l-4.8,12.4l12.4-4.8
		c-0.1-0.2-0.1-0.3-0.1-0.5c0-1.9,1.5-3.4,3.4-3.4c1.2,0,2.2,0.6,2.8,1.5l1.9-0.7c-0.1-0.4-0.1-0.7-0.1-1.1c0-2.8,2.3-5.1,5.1-5.1
		c2.8,0,5.1,2.3,5.1,5.1c0,2.8-2.3,5.1-5.1,5.1c-1.8,0-3.4-1-4.3-2.4l-2,0.8c0,0.1,0,0.1,0,0.2c0,1.9-1.5,3.4-3.3,3.4
		c-1,0-2-0.5-2.6-1.2l-12.2,4.7l12.2,4.7c0.6-0.7,1.5-1.2,2.6-1.2c1.9,0,3.3,1.5,3.3,3.4c0,0.1,0,0.1,0,0.2l2,0.8
		c0.9-1.4,2.5-2.4,4.3-2.4c2.8,0,5.1,2.3,5.1,5.1c0,2.8-2.3,5.1-5.1,5.1c-2.8,0-5.1-2.3-5.1-5.1c0-0.4,0-0.7,0.1-1.1l-1.9-0.7
		c-0.6,0.9-1.6,1.5-2.8,1.5c-1.9,0-3.4-1.5-3.4-3.4c0-0.2,0-0.3,0.1-0.5l-12.4-4.8l4.8,12.4c0.2-0.1,0.3-0.1,0.5-0.1
		c1.9,0,3.4,1.5,3.4,3.4c0,1.2-0.6,2.2-1.5,2.8l0.7,1.8c0.3-0.1,0.7-0.1,1.1-0.1c2.8,0,5.1,2.3,5.1,5.1c0,2.8-2.3,5.1-5.1,5.1
		c-2.8,0-5.1-2.3-5.1-5.1c0-1.8,1-3.4,2.4-4.3l-0.8-2c-0.1,0-0.1,0-0.2,0c-1.8,0-3.4-1.5-3.4-3.4c0-1,0.5-2,1.2-2.6l-4.7-12.2
		l-4.7,12.2c0.7,0.6,1.2,1.5,1.2,2.6c0,1.9-1.5,3.4-3.4,3.4c-0.1,0-0.1,0-0.2,0l-0.8,2c1.4,0.9,2.4,2.5,2.4,4.3
		c0,2.8-2.3,5.1-5.1,5.1c-2.8,0-5.1-2.3-5.1-5.1c0-2.8,2.3-5.1,5.1-5.1c0.4,0,0.7,0,1.1,0.1l0.7-1.8c-0.9-0.6-1.5-1.6-1.5-2.8
		c0-1.9,1.5-3.4,3.4-3.4c0.2,0,0.4,0,0.5,0.1l4.8-12.4l-12.4,4.8c0.1,0.2,0.1,0.4,0.1,0.5c0,1.9-1.5,3.4-3.4,3.4
		c-1.2,0-2.2-0.6-2.8-1.5l-1.9,0.7c0.1,0.4,0.1,0.7,0.1,1.1c0,2.8-2.3,5.1-5.1,5.1c-2.8,0-5.1-2.3-5.1-5.1c0-2.8,2.3-5.1,5.1-5.1
		c1.8,0,3.4,1,4.3,2.4l2-0.8c0-0.1,0-0.1,0-0.2c0-1.9,1.5-3.4,3.3-3.4c1,0,2,0.5,2.6,1.2l12.2-4.7l-12.2-4.7
		c-0.6,0.7-1.5,1.2-2.6,1.2c-1.9,0-3.3-1.5-3.3-3.4c0-0.1,0-0.1,0-0.2l-2-0.8c-0.9,1.4-2.5,2.4-4.3,2.4c-2.8,0-5.1-2.3-5.1-5.1
		c0-2.8,2.3-5.1,5.1-5.1C3535.7,52.9,3538,55.2,3538,58z"/>
	<path class="elementor-shape-fill ha-shape-divider" d="M3413.6,277.2c0,0,0.1,0.1,0.1,0.1c0.9,0.7,4.5,3.3,11.3,2.8l-1.1-6.6c-6.8,0.7-11.9-0.5-15.5-1.9L3413.6,277.2
		C3413.6,277.1,3413.6,277.2,3413.6,277.2z"/>
	<path class="elementor-shape-fill ha-shape-divider" d="M3553.4,49.7c-0.2-0.1-0.4-0.1-0.5-0.1c-0.5,0-0.9,0.2-1.2,0.6c-0.3,0.3-0.5,0.7-0.5,1c0,0.9,0.7,1.5,1.5,1.6
		c0,0,0.1,0,0.1,0c0.6,0,1.2-0.4,1.4-0.9c0.1-0.2,0.2-0.5,0.2-0.7C3554.4,50.5,3554,50,3553.4,49.7z"/>
	<path class="elementor-shape-fill ha-shape-divider" d="M3532.9,61.3c1.1,0,2-0.5,2.7-1.3c0.4-0.5,0.6-1,0.7-1.6c0-0.1,0-0.3,0-0.4c0-1.9-1.5-3.4-3.4-3.4c-1.9,0-3.4,1.5-3.4,3.4
		C3529.5,59.8,3531,61.3,3532.9,61.3z"/>
	<path class="elementor-shape-fill ha-shape-divider" d="M3559.7,10.8c-1.9,0-3.5,1.5-3.5,3.5c0,1.2,0.6,2.2,1.5,2.8c0.6,0,1.3,0,1.9,0c0.7,0,1.3,0,2,0c0.9-0.6,1.5-1.7,1.5-2.9
		C3563.2,12.4,3561.6,10.8,3559.7,10.8z"/>
	<path class="elementor-shape-fill ha-shape-divider" d="M2060.1,320.9c1.1,0,2-0.5,2.7-1.3c0.4-0.5,0.6-1,0.7-1.6c0-0.1,0-0.3,0-0.4c0-1.9-1.5-3.4-3.4-3.4c-1.9,0-3.4,1.5-3.4,3.4
		C2056.7,319.4,2058.2,320.9,2060.1,320.9z"/>
	<path class="elementor-shape-fill ha-shape-divider" d="M2429.4,291.7l3.1,4.7c5.1-6,5.7-10.5,5.7-11l0,0l0-7C2436.7,281.9,2434,286.5,2429.4,291.7z"/>
	<path class="elementor-shape-fill ha-shape-divider" d="M3535.5,76.9c-0.6-0.8-1.6-1.3-2.7-1.3c-1.9,0-3.4,1.5-3.4,3.4c0,1.9,1.5,3.4,3.4,3.4c1.9,0,3.4-1.5,3.4-3.4
		c0-0.1,0-0.3,0-0.4C3536.1,77.9,3535.9,77.4,3535.5,76.9z"/>
	<path class="elementor-shape-fill ha-shape-divider" d="M3415.4,237.9l-5.2,4.7c3.5-1.2,8.7-2.4,15.9-2.4l1.4-5.5c-7.7,0.3-11.1,2.5-11.8,3c0,0,0,0,0,0
		C3415.5,237.8,3415.4,237.9,3415.4,237.9z"/>
	<path class="elementor-shape-fill ha-shape-divider" d="M3426.6,267.7l5.6-3.7c-4.2-5.3-8.5-6.2-9.7-6.4c-0.1,0-0.1,0-0.2,0c-0.1,0-0.1,0-0.1,0l-7.5,0
		C3418.2,259.2,3422.5,262.2,3426.6,267.7z"/>
	<path class="elementor-shape-fill ha-shape-divider" d="M3422.4,255.4L3422.4,255.4c1.1-0.1,5-0.8,10.8-5.8l-4.7-3.1c-5.3,4.8-10,7.4-13.4,8.9l7,0
		C3422.2,255.4,3422.3,255.4,3422.4,255.4z"/>
	<path class="elementor-shape-fill ha-shape-divider" d="M3551.3,92.6c-0.5-0.4-1-0.6-1.6-0.7c-0.1,0-0.3,0-0.4,0c-1.9,0-3.4,1.5-3.4,3.4c0,1.9,1.5,3.3,3.4,3.3
		c1.9,0,3.4-1.5,3.4-3.3C3552.6,94.2,3552.1,93.3,3551.3,92.6z"/>
	<path class="elementor-shape-fill ha-shape-divider" d="M3566.8,95.3c0,1.9,1.5,3.3,3.4,3.3c1.9,0,3.4-1.5,3.4-3.3c0-1.9-1.5-3.4-3.4-3.4c-0.1,0-0.3,0-0.4,0
		c-0.6,0.1-1.2,0.3-1.6,0.7C3567.3,93.3,3566.8,94.2,3566.8,95.3z"/>
	<path class="elementor-shape-fill ha-shape-divider" d="M3566,87.2c0.2,0.1,0.3,0.1,0.5,0.1c0.5,0,0.9-0.2,1.2-0.6c0.3-0.3,0.5-0.7,0.5-1c0-0.9-0.7-1.5-1.5-1.6c0,0-0.1,0-0.1,0
		c-0.6,0-1.2,0.3-1.4,0.9c-0.1,0.2-0.2,0.5-0.2,0.7C3564.9,86.4,3565.4,87,3566,87.2z"/>
	<path class="elementor-shape-fill ha-shape-divider" d="M3543.2,73.9c-0.2-0.1-0.5-0.2-0.7-0.2c-0.7,0-1.3,0.5-1.5,1v0c-0.1,0.2-0.1,0.3-0.1,0.5c0,0.5,0.2,0.9,0.5,1.2
		c0.3,0.3,0.6,0.5,1,0.5c0.9,0,1.5-0.7,1.6-1.5c0,0,0-0.1,0-0.1C3544.1,74.7,3543.7,74.2,3543.2,73.9z"/>
	<path class="elementor-shape-fill ha-shape-divider" d="M3552.8,84.1c0,0-0.1,0-0.1,0c-0.8,0-1.5,0.7-1.5,1.6c0,0.4,0.1,0.8,0.5,1c0.2,0.3,0.7,0.6,1.2,0.6c0.2,0,0.4,0,0.5-0.1
		c0.6-0.2,1.1-0.8,1.1-1.5c0-0.3-0.1-0.5-0.2-0.7C3554,84.4,3553.4,84.1,3552.8,84.1z"/>
	<path class="elementor-shape-fill ha-shape-divider" d="M3586.5,82.3c1.9,0,3.4-1.5,3.4-3.4c0-1.9-1.5-3.4-3.4-3.4c-1.1,0-2,0.5-2.7,1.3c-0.4,0.5-0.6,1-0.7,1.6c0,0.1,0,0.3,0,0.4
		C3583.2,80.8,3584.7,82.3,3586.5,82.3z"/>
	<path class="elementor-shape-fill ha-shape-divider" d="M3541,62.2c0.2,0.6,0.8,1.1,1.5,1.1c0.3,0,0.5-0.1,0.7-0.2c0.5-0.2,0.9-0.8,0.9-1.4c0,0,0-0.1,0-0.1c0-0.8-0.7-1.5-1.6-1.5
		c-0.4,0-0.8,0.2-1,0.5c-0.3,0.2-0.5,0.7-0.5,1.2C3540.9,61.8,3540.9,62,3541,62.2L3541,62.2z"/>
	<path class="elementor-shape-fill ha-shape-divider" d="M2281.5,44.3c0.5,0.4,1,0.6,1.6,0.7c0.1,0,0.3,0,0.4,0c1.9,0,3.4-1.5,3.4-3.4c0-1.9-1.5-3.3-3.4-3.3
		c-1.9,0-3.4,1.5-3.4,3.3C2280.2,42.7,2280.7,43.7,2281.5,44.3z"/>
	<path class="elementor-shape-fill ha-shape-divider" d="M2048.7,328.1c0,21.1,17.1,38.2,38.2,38.2c21.1,0,38.2-17.1,38.2-38.2c0-21.1-17.1-38.2-38.2-38.2
		C2065.8,289.9,2048.7,307,2048.7,328.1z M2065.2,317.6c0,0.4,0,0.7-0.1,1.1l1.9,0.7c0.6-0.9,1.6-1.5,2.8-1.5c1.9,0,3.4,1.5,3.4,3.4
		c0,0.2,0,0.3-0.1,0.5l12.4,4.8l-4.8-12.4c-0.2,0.1-0.3,0.1-0.5,0.1c-1.9,0-3.4-1.5-3.4-3.4c0-1.2,0.6-2.2,1.5-2.8l-0.7-1.8
		c-0.3,0.1-0.7,0.1-1.1,0.1c-2.8,0-5.1-2.3-5.1-5.1c0-2.8,2.3-5.1,5.1-5.1c2.8,0,5.1,2.3,5.1,5.1c0,1.8-1,3.4-2.4,4.3l0.8,2
		c0.1,0,0.1,0,0.2,0c1.8,0,3.4,1.5,3.4,3.4c0,1.1-0.5,2-1.2,2.6l4.7,12.2l4.7-12.2c-0.7-0.6-1.2-1.5-1.2-2.6c0-1.9,1.5-3.4,3.4-3.4
		c0.1,0,0.1,0,0.2,0l0.8-2c-1.4-0.9-2.4-2.5-2.4-4.3c0-2.8,2.3-5.1,5.1-5.1c2.8,0,5.1,2.3,5.1,5.1c0,2.8-2.3,5.1-5.1,5.1
		c-0.4,0-0.7,0-1.1-0.1l-0.7,1.8c0.9,0.6,1.5,1.6,1.5,2.8c0,1.9-1.5,3.4-3.4,3.4c-0.2,0-0.4,0-0.5-0.1l-4.8,12.4l12.4-4.8
		c-0.1-0.2-0.1-0.3-0.1-0.5c0-1.9,1.5-3.4,3.4-3.4c1.2,0,2.2,0.6,2.8,1.5l1.9-0.7c-0.1-0.4-0.1-0.7-0.1-1.1c0-2.8,2.3-5.1,5.1-5.1
		c2.8,0,5.1,2.3,5.1,5.1c0,2.8-2.3,5.1-5.1,5.1c-1.8,0-3.4-1-4.3-2.4l-2,0.8c0,0.1,0,0.1,0,0.2c0,1.9-1.5,3.4-3.3,3.4
		c-1,0-2-0.5-2.6-1.2l-12.2,4.7l12.2,4.7c0.6-0.7,1.5-1.2,2.6-1.2c1.9,0,3.3,1.5,3.3,3.4c0,0.1,0,0.1,0,0.2l2,0.8
		c0.9-1.4,2.5-2.4,4.3-2.4c2.8,0,5.1,2.3,5.1,5.1c0,2.8-2.3,5.1-5.1,5.1c-2.8,0-5.1-2.3-5.1-5.1c0-0.4,0-0.7,0.1-1.1l-1.9-0.7
		c-0.6,0.9-1.6,1.5-2.8,1.5c-1.9,0-3.4-1.5-3.4-3.4c0-0.2,0-0.3,0.1-0.5l-12.4-4.8l4.8,12.4c0.2-0.1,0.4-0.1,0.5-0.1
		c1.9,0,3.4,1.5,3.4,3.4c0,1.2-0.6,2.2-1.5,2.8l0.7,1.8c0.3-0.1,0.7-0.1,1.1-0.1c2.8,0,5.1,2.3,5.1,5.1c0,2.8-2.3,5.1-5.1,5.1
		c-2.8,0-5.1-2.3-5.1-5.1c0-1.8,1-3.4,2.4-4.3l-0.8-2c-0.1,0-0.1,0-0.2,0c-1.9,0-3.4-1.5-3.4-3.4c0-1,0.5-2,1.2-2.6l-4.7-12.2
		l-4.7,12.2c0.7,0.6,1.2,1.5,1.2,2.6c0,1.9-1.5,3.4-3.4,3.4c-0.1,0-0.1,0-0.2,0l-0.8,2c1.4,0.9,2.4,2.5,2.4,4.3
		c0,2.8-2.3,5.1-5.1,5.1c-2.8,0-5.1-2.3-5.1-5.1c0-2.8,2.3-5.1,5.1-5.1c0.4,0,0.7,0,1.1,0.1l0.7-1.8c-0.9-0.6-1.5-1.6-1.5-2.8
		c0-1.9,1.5-3.4,3.4-3.4c0.2,0,0.3,0,0.5,0.1l4.8-12.4l-12.4,4.8c0.1,0.2,0.1,0.4,0.1,0.5c0,1.9-1.5,3.4-3.4,3.4
		c-1.2,0-2.2-0.6-2.8-1.5l-1.9,0.7c0.1,0.4,0.1,0.7,0.1,1.1c0,2.8-2.3,5.1-5.1,5.1c-2.8,0-5.1-2.3-5.1-5.1c0-2.8,2.3-5.1,5.1-5.1
		c1.8,0,3.4,1,4.3,2.4l2-0.8c0-0.1,0-0.1,0-0.2c0-1.9,1.5-3.4,3.3-3.4c1,0,2,0.5,2.6,1.2l12.2-4.7l-12.2-4.7
		c-0.6,0.7-1.5,1.2-2.6,1.2c-1.9,0-3.3-1.5-3.3-3.4c0-0.1,0-0.1,0-0.2l-2-0.8c-0.9,1.4-2.5,2.4-4.3,2.4c-2.8,0-5.1-2.3-5.1-5.1
		c0-2.8,2.3-5.1,5.1-5.1C2062.9,312.5,2065.2,314.8,2065.2,317.6z"/>
	<path class="elementor-shape-fill ha-shape-divider" d="M2086.9,270.4c-1.9,0-3.5,1.5-3.5,3.5c0,1.2,0.6,2.2,1.5,2.9c0.6,0,1.3,0,2,0c0.7,0,1.3,0,1.9,0c0.9-0.6,1.5-1.7,1.5-2.8
		C2090.4,272,2088.8,270.4,2086.9,270.4z"/>
	<path class="elementor-shape-fill ha-shape-divider" d="M2419.1,277.2C2419.2,277.2,2419.2,277.1,2419.1,277.2l5.1-5.6c-3.6,1.4-8.7,2.6-15.5,1.9l-1.1,6.6
		c6.7,0.5,10.3-2.1,11.3-2.8C2419,277.3,2419.1,277.2,2419.1,277.2z"/>
	<path class="elementor-shape-fill ha-shape-divider" d="M2290.3,76.9c0.4,0,0.8-0.2,1-0.5c0.3-0.2,0.5-0.7,0.5-1.2c0-0.2,0-0.3-0.1-0.5v0c-0.2-0.6-0.8-1-1.5-1
		c-0.3,0-0.5,0.1-0.7,0.2c-0.5,0.2-0.9,0.8-0.9,1.4c0,0,0,0.1,0,0.1C2288.7,76.3,2289.4,76.9,2290.3,76.9z"/>
	<path class="elementor-shape-fill ha-shape-divider" d="M2297.2,60c0.6,0.8,1.6,1.3,2.7,1.3c1.9,0,3.4-1.5,3.4-3.4c0-1.9-1.5-3.4-3.4-3.4c-1.9,0-3.4,1.5-3.4,3.4
		c0,0.1,0,0.3,0,0.4C2296.6,59,2296.9,59.6,2297.2,60z"/>
	<path class="elementor-shape-fill ha-shape-divider" d="M2289.5,63c0.2,0.1,0.5,0.2,0.7,0.2c0.7,0,1.3-0.5,1.5-1.1v0c0.1-0.2,0.1-0.3,0.1-0.5c0-0.5-0.2-0.9-0.5-1.2
		c-0.3-0.3-0.6-0.5-1-0.5c-0.9,0-1.5,0.7-1.6,1.5c0,0,0,0.1,0,0.1C2288.6,62.2,2289,62.8,2289.5,63z"/>
	<path class="elementor-shape-fill ha-shape-divider" d="M2279.9,52.9c0,0,0.1,0,0.1,0c0.8,0,1.5-0.7,1.5-1.6c0-0.4-0.1-0.8-0.5-1c-0.2-0.3-0.7-0.6-1.2-0.6c-0.2,0-0.4,0-0.5,0.1
		c-0.6,0.2-1.1,0.8-1.1,1.5c0,0.3,0.1,0.5,0.2,0.7C2278.7,52.5,2279.3,52.9,2279.9,52.9z"/>
	<path class="elementor-shape-fill ha-shape-divider" d="M2266.7,49.7c-0.2-0.1-0.3-0.1-0.5-0.1c-0.5,0-0.9,0.2-1.2,0.6c-0.3,0.3-0.5,0.7-0.5,1c0,0.9,0.7,1.5,1.5,1.6
		c0,0,0.1,0,0.1,0c0.6,0,1.2-0.4,1.4-0.9c0.1-0.2,0.2-0.5,0.2-0.7C2267.8,50.5,2267.3,50,2266.7,49.7z"/>
	<path class="elementor-shape-fill ha-shape-divider" d="M2234.8,68.5c0,21.1,17.1,38.2,38.2,38.2c21.1,0,38.2-17.1,38.2-38.2c0-21.1-17.1-38.2-38.2-38.2
		C2251.9,30.3,2234.8,47.4,2234.8,68.5z M2251.3,58c0,0.4,0,0.7-0.1,1.1l1.9,0.7c0.6-0.9,1.6-1.5,2.8-1.5c1.9,0,3.4,1.5,3.4,3.4
		c0,0.2,0,0.3-0.1,0.5l12.4,4.8l-4.8-12.4c-0.2,0.1-0.3,0.1-0.5,0.1c-1.9,0-3.4-1.5-3.4-3.4c0-1.2,0.6-2.2,1.5-2.8l-0.7-1.8
		c-0.3,0.1-0.7,0.1-1.1,0.1c-2.8,0-5.1-2.3-5.1-5.1c0-2.8,2.3-5.1,5.1-5.1c2.8,0,5.1,2.3,5.1,5.1c0,1.8-1,3.4-2.4,4.3l0.8,2
		c0.1,0,0.1,0,0.2,0c1.8,0,3.4,1.5,3.4,3.4c0,1.1-0.5,2-1.2,2.6L2273,66l4.7-12.2c-0.7-0.6-1.2-1.5-1.2-2.6c0-1.9,1.5-3.4,3.4-3.4
		c0.1,0,0.1,0,0.2,0l0.8-2c-1.4-0.9-2.4-2.5-2.4-4.3c0-2.8,2.3-5.1,5.1-5.1c2.8,0,5.1,2.3,5.1,5.1c0,2.8-2.3,5.1-5.1,5.1
		c-0.4,0-0.7,0-1.1-0.1l-0.7,1.8c0.9,0.6,1.5,1.6,1.5,2.8c0,1.9-1.5,3.4-3.4,3.4c-0.2,0-0.4,0-0.5-0.1l-4.8,12.4l12.4-4.8
		c-0.1-0.2-0.1-0.3-0.1-0.5c0-1.9,1.5-3.4,3.4-3.4c1.2,0,2.2,0.6,2.8,1.5l1.9-0.7c-0.1-0.4-0.1-0.7-0.1-1.1c0-2.8,2.3-5.1,5.1-5.1
		c2.8,0,5.1,2.3,5.1,5.1c0,2.8-2.3,5.1-5.1,5.1c-1.8,0-3.4-1-4.3-2.4l-2,0.8c0,0.1,0,0.1,0,0.2c0,1.9-1.5,3.4-3.3,3.4
		c-1,0-2-0.5-2.6-1.2l-12.2,4.7l12.2,4.7c0.6-0.7,1.5-1.2,2.6-1.2c1.9,0,3.3,1.5,3.3,3.4c0,0.1,0,0.1,0,0.2l2,0.8
		c0.9-1.4,2.5-2.4,4.3-2.4c2.8,0,5.1,2.3,5.1,5.1c0,2.8-2.3,5.1-5.1,5.1c-2.8,0-5.1-2.3-5.1-5.1c0-0.4,0-0.7,0.1-1.1l-1.9-0.7
		c-0.6,0.9-1.6,1.5-2.8,1.5c-1.9,0-3.4-1.5-3.4-3.4c0-0.2,0-0.3,0.1-0.5l-12.4-4.8l4.8,12.4c0.2-0.1,0.4-0.1,0.5-0.1
		c1.9,0,3.4,1.5,3.4,3.4c0,1.2-0.6,2.2-1.5,2.8l0.7,1.8c0.3-0.1,0.7-0.1,1.1-0.1c2.8,0,5.1,2.3,5.1,5.1c0,2.8-2.3,5.1-5.1,5.1
		c-2.8,0-5.1-2.3-5.1-5.1c0-1.8,1-3.4,2.4-4.3l-0.8-2c-0.1,0-0.1,0-0.2,0c-1.9,0-3.4-1.5-3.4-3.4c0-1,0.5-2,1.2-2.6l-4.7-12.2
		l-4.7,12.2c0.7,0.6,1.2,1.5,1.2,2.6c0,1.9-1.5,3.4-3.4,3.4c-0.1,0-0.1,0-0.2,0l-0.8,2c1.4,0.9,2.4,2.5,2.4,4.3
		c0,2.8-2.3,5.1-5.1,5.1c-2.8,0-5.1-2.3-5.1-5.1c0-2.8,2.3-5.1,5.1-5.1c0.4,0,0.7,0,1.1,0.1l0.7-1.8c-0.9-0.6-1.5-1.6-1.5-2.8
		c0-1.9,1.5-3.4,3.4-3.4c0.2,0,0.3,0,0.5,0.1l4.8-12.4l-12.4,4.8c0.1,0.2,0.1,0.4,0.1,0.5c0,1.9-1.5,3.4-3.4,3.4
		c-1.2,0-2.2-0.6-2.8-1.5l-1.9,0.7c0.1,0.4,0.1,0.7,0.1,1.1c0,2.8-2.3,5.1-5.1,5.1c-2.8,0-5.1-2.3-5.1-5.1c0-2.8,2.3-5.1,5.1-5.1
		c1.8,0,3.4,1,4.3,2.4l2-0.8c0-0.1,0-0.1,0-0.2c0-1.9,1.5-3.4,3.3-3.4c1,0,2,0.5,2.6,1.2l12.2-4.7l-12.2-4.7
		c-0.6,0.7-1.5,1.2-2.6,1.2c-1.9,0-3.3-1.5-3.3-3.4c0-0.1,0-0.1,0-0.2l-2-0.8c-0.9,1.4-2.5,2.4-4.3,2.4c-2.8,0-5.1-2.3-5.1-5.1
		c0-2.8,2.3-5.1,5.1-5.1C2249,52.9,2251.3,55.2,2251.3,58z"/>
	<path class="elementor-shape-fill ha-shape-divider" d="M2254.3,62.2c0.2,0.6,0.8,1.1,1.5,1.1c0.3,0,0.5-0.1,0.7-0.2c0.5-0.2,0.9-0.8,0.9-1.4c0,0,0-0.1,0-0.1
		c0-0.8-0.7-1.5-1.6-1.5c-0.4,0-0.8,0.2-1.1,0.5c-0.3,0.2-0.5,0.7-0.5,1.2C2254.2,61.8,2254.3,62,2254.3,62.2L2254.3,62.2z"/>
	<path class="elementor-shape-fill ha-shape-divider" d="M2256.6,73.9c-0.2-0.1-0.5-0.2-0.7-0.2c-0.7,0-1.3,0.5-1.5,1v0c-0.1,0.2-0.1,0.3-0.1,0.5c0,0.5,0.2,0.9,0.5,1.2
		c0.3,0.3,0.6,0.5,1.1,0.5c0.9,0,1.5-0.7,1.6-1.5c0,0,0-0.1,0-0.1C2257.4,74.7,2257.1,74.2,2256.6,73.9z"/>
	<path class="elementor-shape-fill ha-shape-divider" d="M2265.9,41.6c0-1.9-1.5-3.3-3.4-3.3c-1.9,0-3.4,1.5-3.4,3.3c0,1.9,1.5,3.4,3.4,3.4c0.1,0,0.3,0,0.4,0
		c0.6-0.1,1.2-0.3,1.6-0.7C2265.4,43.7,2265.9,42.7,2265.9,41.6z"/>
	<path class="elementor-shape-fill ha-shape-divider" d="M2248.9,76.9c-0.6-0.8-1.6-1.3-2.7-1.3c-1.9,0-3.4,1.5-3.4,3.4c0,1.9,1.5,3.4,3.4,3.4c1.9,0,3.4-1.5,3.4-3.4
		c0-0.1,0-0.3,0-0.4C2249.4,77.9,2249.2,77.4,2248.9,76.9z"/>
	<path class="elementor-shape-fill ha-shape-divider" d="M2422.4,225.8l-6.7-1c-0.5,6.7,2.1,10.3,2.8,11.3c0.1,0.1,0.1,0.1,0.1,0.1c0,0.1,0.1,0.1,0.1,0.1l5.6,5
		C2422.8,237.8,2421.7,232.7,2422.4,225.8z"/>
	<path class="elementor-shape-fill ha-shape-divider" d="M2417.1,237.7C2417.1,237.7,2417.1,237.7,2417.1,237.7c-0.8-0.6-4.2-2.8-11.9-3.1l1.4,5.5c7.1,0.1,12.4,1.3,15.9,2.4
		l-5.2-4.7C2417.3,237.9,2417.2,237.8,2417.1,237.7z"/>
	<path class="elementor-shape-fill ha-shape-divider" d="M2438.3,227.4c-0.2-1.2-1.1-5.5-6.4-9.7l-3.7,5.6c5.4,4.1,8.4,8.4,10.1,11.8l0-7.5c0,0,0,0,0-0.1
		C2438.4,227.5,2438.4,227.4,2438.3,227.4z"/>
	<path class="elementor-shape-fill ha-shape-divider" d="M2246.2,61.3c1.1,0,2-0.5,2.7-1.3c0.4-0.5,0.6-1,0.7-1.6c0-0.1,0-0.3,0-0.4c0-1.9-1.5-3.4-3.4-3.4c-1.9,0-3.4,1.5-3.4,3.4
		C2242.8,59.8,2244.3,61.3,2246.2,61.3z"/>
	<path class="elementor-shape-fill ha-shape-divider" d="M2400.6,263.9l5.6,3.7c4.1-5.5,8.4-8.5,11.9-10.2l-7.5,0c0,0,0,0-0.1,0c0,0-0.1,0-0.2,0
		C2409.1,257.7,2404.7,258.6,2400.6,263.9z"/>
	<path class="elementor-shape-fill ha-shape-divider" d="M2425.4,273.4l-4.7,5.1l0,0c-0.3,0.4-2.9,4.1-3.2,12l5.5-1.4C2423.1,282.3,2424.2,277.1,2425.4,273.4z"/>
	<path class="elementor-shape-fill ha-shape-divider" d="M2264.6,92.6c-0.5-0.4-1-0.6-1.6-0.7c-0.1,0-0.3,0-0.4,0c-1.9,0-3.4,1.5-3.4,3.4c0,1.9,1.5,3.3,3.4,3.3
		c1.9,0,3.4-1.5,3.4-3.3C2265.9,94.2,2265.4,93.3,2264.6,92.6z"/>
	<path class="elementor-shape-fill ha-shape-divider" d="M2410.5,255.4l7,0c-3.4-1.5-8.1-4.1-13.4-8.9l-4.7,3.1c5.9,5,9.8,5.6,10.8,5.7l0,0C2410.4,255.4,2410.5,255.4,2410.5,255.4
		z"/>
	<path class="elementor-shape-fill ha-shape-divider" d="M2279.4,87.2c0.2,0.1,0.4,0.1,0.5,0.1c0.5,0,0.9-0.2,1.2-0.6c0.3-0.3,0.5-0.7,0.5-1c0-0.9-0.7-1.5-1.5-1.6c0,0-0.1,0-0.1,0
		c-0.6,0-1.2,0.3-1.4,0.9c-0.1,0.2-0.2,0.5-0.2,0.7C2278.3,86.4,2278.7,87,2279.4,87.2z"/>
	<path class="elementor-shape-fill ha-shape-divider" d="M2280.2,95.3c0,1.9,1.5,3.3,3.4,3.3c1.9,0,3.4-1.5,3.4-3.3c0-1.9-1.5-3.4-3.4-3.4c-0.1,0-0.3,0-0.4,0
		c-0.6,0.1-1.2,0.3-1.6,0.7C2280.7,93.3,2280.2,94.2,2280.2,95.3z"/>
	<path class="elementor-shape-fill ha-shape-divider" d="M2299.9,82.3c1.9,0,3.4-1.5,3.4-3.4c0-1.9-1.5-3.4-3.4-3.4c-1.1,0-2,0.5-2.7,1.3c-0.4,0.5-0.6,1-0.7,1.6c0,0.1,0,0.3,0,0.4
		C2296.5,80.8,2298,82.3,2299.9,82.3z"/>
	<path class="elementor-shape-fill ha-shape-divider" d="M2442.5,263.6c0.7-0.3,1.2-0.7,1.7-1.2c0.6-0.5,1-1,1.4-1.6c0.3-0.4,0.5-0.9,0.7-1.4l0.1-0.3c0.2-0.5,0.3-1,0.4-1.5
		c0.1-0.7,0.2-1.4,0-2.1c-0.1-0.7-0.2-1.4-0.5-2.1c-0.3-0.6-0.7-1.2-1.2-1.7c-0.5-0.6-1-1-1.6-1.4c-0.4-0.3-0.9-0.5-1.4-0.7
		l-0.3-0.1c-0.5-0.2-1-0.3-1.5-0.4c-0.7-0.1-1.4-0.1-2.1,0c-0.7,0-1.4,0.2-2.1,0.5c-0.6,0.3-1.2,0.7-1.7,1.2c-0.6,0.5-1,1-1.4,1.6
		c-0.3,0.4-0.5,0.9-0.7,1.4l-0.1,0.3c-0.2,0.5-0.3,1-0.4,1.5c-0.1,0.7-0.1,1.4-0.1,2.1c0,0.7,0.2,1.4,0.5,2.1
		c0.3,0.6,0.7,1.2,1.2,1.7c0.5,0.6,1,1,1.6,1.4c0.4,0.3,0.9,0.5,1.4,0.7l0.3,0.1c0.5,0.2,1,0.3,1.5,0.4c0.7,0.1,1.4,0.1,2.1,0
		C2441.1,264.1,2441.8,263.9,2442.5,263.6z"/>
	<path class="elementor-shape-fill ha-shape-divider" d="M2266.2,84.1c0,0-0.1,0-0.1,0c-0.8,0-1.5,0.7-1.5,1.6c0,0.4,0.1,0.8,0.5,1c0.2,0.3,0.7,0.6,1.2,0.6c0.2,0,0.3,0,0.5-0.1
		c0.6-0.2,1.1-0.8,1.1-1.5c0-0.3-0.1-0.5-0.2-0.7C2267.3,84.4,2266.8,84.1,2266.2,84.1z"/>
	<path class="elementor-shape-fill ha-shape-divider" d="M2273,10.8c-1.9,0-3.5,1.5-3.5,3.5c0,1.2,0.6,2.2,1.5,2.9c0.6,0,1.3,0,2,0c0.7,0,1.3,0,1.9,0c0.9-0.6,1.5-1.7,1.5-2.8
		C2276.5,12.4,2274.9,10.8,2273,10.8z"/>
	<path class="elementor-shape-fill ha-shape-divider" d="M2440.4,285.5c0.1,0.9,0.8,5.4,6.4,9.8l3.7-5.6c-5.4-4.1-8.5-8.4-10.2-11.9l0,7.5C2440.4,285.3,2440.4,285.4,2440.4,285.5
		L2440.4,285.5z"/>
</g>
</svg>
