<svg xmlns="http://www.w3.org/2000/svg" viewBox="0 0 4080 380" preserveAspectRatio="none">
<rect display="none" width="4080" height="380"/>
<g>
	<path class="elementor-shape-fill ha-shape-divider" d="M1159.9,188.2c-0.3,0-0.6,0.2-0.7,0.5c-0.1,0.4,0.1,0.8,0.5,0.9l4.5,1.2l-3.9,2.2c-0.3,0.2-0.5,0.6-0.3,1
		c0.2,0.3,0.6,0.5,1,0.3l3.9-2.2l-1.2,4.5c-0.1,0.4,0.1,0.8,0.5,0.9c0.4,0.1,0.8-0.1,0.9-0.5l1.6-5.8l3.1-1.7l-1.2,4.5
		c-0.1,0.4,0.1,0.8,0.5,0.9c0.4,0.1,0.8-0.1,0.9-0.5l1.6-5.8l3.1-1.7l-1.2,4.5c-0.1,0.4,0.1,0.8,0.5,0.9c0.4,0.1,0.8-0.1,0.9-0.5
		l1.6-5.8l4.8-2.7l6.7,1.6l4.6,4.9v5.7l-4.3,4.3c-0.3,0.3-0.3,0.7,0,1s0.7,0.3,1,0l3.3-3.3v3.5l-4.3,4.3c-0.3,0.3-0.3,0.7,0,1
		s0.7,0.3,1,0l3.3-3.3v3.5l-4.3,4.3c-0.3,0.3-0.3,0.7,0,1s0.7,0.3,1,0l3.3-3.3v4.4c0,0.4,0.3,0.7,0.7,0.7s0.7-0.3,0.7-0.7v-4.4
		l3.3,3.3c0.3,0.3,0.7,0.3,1,0s0.3-0.7,0-1l-4.3-4.3V203l3.3,3.3c0.3,0.3,0.7,0.3,1,0s0.3-0.7,0-1l-4.3-4.3v-3.5l3.3,3.3
		c0.3,0.3,0.7,0.3,1,0s0.3-0.7,0-1l-4.3-4.3v-5.7l4.6-4.9l6.5-1.5l4.9,2.9l1.6,5.9c0.1,0.4,0.5,0.6,0.9,0.5s0.6-0.5,0.5-0.9
		l-1.2-4.5l3,1.8l1.6,5.9c0.1,0.4,0.5,0.6,0.9,0.5s0.6-0.5,0.5-0.9l-1.2-4.5l3,1.8l1.6,5.9c0.1,0.4,0.5,0.6,0.9,0.5s0.6-0.5,0.5-0.9
		l-1.2-4.5l3.8,2.2c0.3,0.2,0.8,0.1,1-0.3c0.2-0.3,0.1-0.8-0.3-1l-3.8-2.2l4.5-1.2c0.4-0.1,0.6-0.5,0.5-0.9
		c-0.1-0.3-0.4-0.5-0.7-0.5c-0.1,0-0.1,0-0.2,0l-5.9,1.6l-3-1.8l4.5-1.2c0.4-0.1,0.6-0.5,0.5-0.9c-0.1-0.3-0.4-0.5-0.7-0.5
		c-0.1,0-0.1,0-0.2,0l-5.9,1.6l-3-1.8l4.5-1.2c0.4-0.1,0.6-0.5,0.5-0.9c-0.1-0.3-0.4-0.5-0.7-0.5c-0.1,0-0.1,0-0.2,0l-5.9,1.6
		l-4.9-2.8l-1.9-6.5l1.9-6.4l5-2.9l5.9,1.6c0.4,0.1,0.8-0.1,0.9-0.5c0.1-0.4-0.1-0.8-0.5-0.9l-4.5-1.2l3-1.7l5.9,1.6
		c0.4,0.1,0.8-0.1,0.9-0.5c0.1-0.4-0.1-0.8-0.5-0.9l-4.5-1.2l3-1.7l5.9,1.6c0.4,0.1,0.8-0.1,0.9-0.5c0.1-0.4-0.1-0.8-0.5-0.9
		l-4.5-1.2l3.8-2.2c0.3-0.2,0.5-0.6,0.3-1c-0.1-0.2-0.4-0.4-0.6-0.4c-0.1,0-0.2,0-0.4,0.1l-3.8,2.2l1.2-4.5c0.1-0.4-0.1-0.8-0.5-0.9
		c-0.1,0-0.1,0-0.2,0c-0.3,0-0.6,0.2-0.7,0.5l-1.6,5.9l-3,1.7l1.2-4.5c0.1-0.4-0.1-0.8-0.5-0.9c-0.1,0-0.1,0-0.2,0
		c-0.3,0-0.6,0.2-0.7,0.5l-1.6,5.9l-3,1.7l1.2-4.5c0.1-0.4-0.1-0.8-0.5-0.9c-0.1,0-0.1,0-0.2,0c-0.3,0-0.6,0.2-0.7,0.5l-1.6,5.9
		l-4.9,2.8l-6.6-1.6l-4.6-4.9v-5.7l4.3-4.3c0.3-0.3,0.3-0.7,0-1c-0.1-0.1-0.3-0.2-0.5-0.2s-0.4,0.1-0.5,0.2l-3.3,3.3v-3.5l4.3-4.3
		c0.3-0.3,0.3-0.7,0-1c-0.1-0.1-0.3-0.2-0.5-0.2s-0.4,0.1-0.5,0.2l-3.3,3.3v-3.5l4.3-4.3c0.3-0.3,0.3-0.7,0-1
		c-0.1-0.1-0.3-0.2-0.5-0.2s-0.4,0.1-0.5,0.2l-3.3,3.3v-4.4c0-0.4-0.3-0.7-0.7-0.7s-0.7,0.3-0.7,0.7v4.4l-3.3-3.3
		c-0.1-0.1-0.3-0.2-0.5-0.2s-0.4,0.1-0.5,0.2c-0.3,0.3-0.3,0.7,0,1l4.3,4.3v3.5l-3.3-3.3c-0.1-0.1-0.3-0.2-0.5-0.2s-0.4,0.1-0.5,0.2
		c-0.3,0.3-0.3,0.7,0,1l4.3,4.3v3.5l-3.3-3.3c-0.1-0.1-0.3-0.2-0.5-0.2s-0.4,0.1-0.5,0.2c-0.3,0.3-0.3,0.7,0,1l4.3,4.3v5.7l-4.6,4.9
		l-6.6,1.6l-4.9-2.8l-1.6-5.9c-0.1-0.3-0.4-0.5-0.7-0.5c-0.1,0-0.1,0-0.2,0c-0.4,0.1-0.6,0.5-0.5,0.9l1.2,4.5l-3-1.7l-1.6-5.9
		c-0.1-0.3-0.4-0.5-0.7-0.5c-0.1,0-0.1,0-0.2,0c-0.4,0.1-0.6,0.5-0.5,0.9l1.2,4.5l-3-1.7l-1.6-5.9c-0.1-0.3-0.4-0.5-0.7-0.5
		c-0.1,0-0.1,0-0.2,0c-0.4,0.1-0.6,0.5-0.5,0.9l1.2,4.5l-3.8-2.2c-0.1-0.1-0.2-0.1-0.4-0.1s-0.5,0.1-0.6,0.4c-0.2,0.3-0.1,0.8,0.3,1
		l3.8,2.2l-4.5,1.2c-0.4,0.1-0.6,0.5-0.5,0.9s0.5,0.6,0.9,0.5l5.8-1.6l3,1.7l-4.5,1.2c-0.4,0.1-0.6,0.5-0.5,0.9s0.5,0.6,0.9,0.5
		l5.9-1.6l3,1.7l-4.5,1.2c-0.4,0.1-0.6,0.5-0.5,0.9s0.5,0.6,0.9,0.5l5.9-1.6l5,2.9l1.9,6.4l-1.9,6.2l-5.1,2.9l-5.8-1.6
		c-0.1,0-0.1,0-0.2,0c-0.3,0-0.6,0.2-0.7,0.5c-0.1,0.4,0.1,0.8,0.5,0.9l4.5,1.2l-3.1,1.7l-5.8-1.6c-0.1,0-0.1,0-0.2,0
		c-0.3,0-0.6,0.2-0.7,0.5c-0.1,0.4,0.1,0.8,0.5,0.9l4.5,1.2l-3.1,1.7l-5.8-1.6C1160.1,188.2,1160,188.2,1159.9,188.2z M1188.8,183.4
		c-0.1-0.1-0.2-0.2-0.4-0.2l-5.4-1.3l7.1-4c0.6,0.7,1.4,1.2,2.4,1.4v8.1L1188.8,183.4z M1198,183.2c-0.1,0-0.3,0.1-0.4,0.2l-3.7,3.9
		v-8.1c0.9-0.2,1.8-0.7,2.4-1.4l7,4L1198,183.2z M1202.4,175.1c0,0.1,0,0.3,0,0.4l1.6,5.2l-7-4c0.2-0.4,0.3-0.9,0.3-1.4
		s-0.1-0.9-0.3-1.4l7-4L1202.4,175.1z M1197.6,167.2c0.1,0.1,0.2,0.2,0.4,0.2l5.3,1.3l-7,4c-0.6-0.7-1.4-1.2-2.4-1.4v-8.1
		L1197.6,167.2z M1188.4,167.4c0.1,0,0.3-0.1,0.4-0.2l3.7-3.9v8.1c-1,0.2-1.8,0.7-2.4,1.4l-7-4L1188.4,167.4z M1184,175.5
		c0-0.1,0-0.3,0-0.4l-1.5-5.1l7,4c-0.2,0.4-0.2,0.9-0.2,1.4s0.1,0.9,0.2,1.3l-6.9,3.9L1184,175.5z"/>
	<path class="elementor-shape-fill ha-shape-divider" d="M1188.2,192.9l-1.3-5.3c-0.1-0.4-0.4-0.6-0.8-0.6c-0.1,0-0.1,0-0.2,0l-5.2,1.3c-0.4,0.1-0.7,0.5-0.6,0.9
		c0.1,0.4,0.5,0.7,0.9,0.6l4.5-1.1l1.1,4.5c0.1,0.4,0.5,0.7,0.9,0.6C1188,193.7,1188.3,193.3,1188.2,192.9z"/>
	<path class="elementor-shape-fill ha-shape-divider" d="M1182,192.5c-1.4,0-2.6,1.2-2.6,2.6c0,1.4,1.2,2.6,2.6,2.6c1.4,0,2.6-1.2,2.6-2.6C1184.6,193.7,1183.4,192.5,1182,192.5z
		 M1182,196.2c-0.6,0-1.2-0.5-1.2-1.2c0-0.6,0.5-1.2,1.2-1.2c0.6,0,1.2,0.5,1.2,1.2C1183.1,195.7,1182.6,196.2,1182,196.2z"/>
	<path class="elementor-shape-fill ha-shape-divider" d="M1179.2,197.9c-1.2,0-2.1,0.9-2.1,2.1c0,1.2,0.9,2.1,2.1,2.1c1.2,0,2.1-0.9,2.1-2.1
		C1181.3,198.9,1180.4,197.9,1179.2,197.9z M1179.2,200.7c-0.4,0-0.7-0.3-0.7-0.7s0.3-0.7,0.7-0.7s0.7,0.3,0.7,0.7
		S1179.6,200.7,1179.2,200.7z"/>
	<path class="elementor-shape-fill ha-shape-divider" d="M1207,189.3c0.1-0.4-0.2-0.8-0.6-0.9l-5.2-1.3c-0.1,0-0.1,0-0.2,0c-0.4,0-0.7,0.2-0.8,0.6l-1.3,5.3
		c-0.1,0.4,0.2,0.8,0.6,0.9c0.4,0.1,0.8-0.2,0.9-0.6l1.1-4.5l4.5,1.1C1206.5,190,1206.9,189.7,1207,189.3z"/>
	<path class="elementor-shape-fill ha-shape-divider" d="M1207.7,195.1c0-1.4-1.2-2.6-2.6-2.6c-1.4,0-2.6,1.2-2.6,2.6c0,1.4,1.2,2.6,2.6,2.6
		C1206.6,197.7,1207.7,196.5,1207.7,195.1z M1205.2,196.2c-0.6,0-1.2-0.5-1.2-1.2c0-0.6,0.5-1.2,1.2-1.2s1.2,0.5,1.2,1.2
		C1206.3,195.7,1205.8,196.2,1205.2,196.2z"/>
	<path class="elementor-shape-fill ha-shape-divider" d="M1208,197.9c-1.2,0-2.1,0.9-2.1,2.1c0,1.2,0.9,2.1,2.1,2.1s2.1-0.9,2.1-2.1C1210.1,198.9,1209.1,197.9,1208,197.9z
		 M1208,200.7c-0.4,0-0.7-0.3-0.7-0.7s0.3-0.7,0.7-0.7s0.7,0.3,0.7,0.7S1208.3,200.7,1208,200.7z"/>
	<path class="elementor-shape-fill ha-shape-divider" d="M1200.2,163.3c0.1,0.4,0.4,0.6,0.8,0.6c0.1,0,0.1,0,0.2,0l5.2-1.3c0.4-0.1,0.7-0.5,0.6-0.9c-0.1-0.4-0.5-0.7-0.9-0.6
		l-4.5,1.1l-1.1-4.5c-0.1-0.4-0.5-0.7-0.9-0.6c-0.4,0.1-0.7,0.5-0.6,0.9L1200.2,163.3z"/>
	<path class="elementor-shape-fill ha-shape-divider" d="M1205.2,158.4c1.4,0,2.6-1.2,2.6-2.6c0-1.4-1.2-2.6-2.6-2.6c-1.4,0-2.6,1.2-2.6,2.6
		C1202.6,157.2,1203.7,158.4,1205.2,158.4z M1205.2,154.7c0.6,0,1.2,0.5,1.2,1.2c0,0.6-0.5,1.2-1.2,1.2s-1.2-0.5-1.2-1.2
		S1204.5,154.7,1205.2,154.7z"/>
	<path class="elementor-shape-fill ha-shape-divider" d="M1208,153c1.2,0,2.1-0.9,2.1-2.1c0-1.2-0.9-2.1-2.1-2.1s-2.1,0.9-2.1,2.1C1205.8,152.1,1206.8,153,1208,153z M1208,150.2
		c0.4,0,0.7,0.3,0.7,0.7s-0.3,0.7-0.7,0.7s-0.7-0.3-0.7-0.7C1207.3,150.5,1207.6,150.2,1208,150.2z"/>
	<path class="elementor-shape-fill ha-shape-divider" d="M1180.2,161.6c-0.1,0.4,0.2,0.8,0.6,0.9l5.2,1.3c0.1,0,0.1,0,0.2,0c0.4,0,0.7-0.2,0.8-0.6l1.3-5.2c0.1-0.4-0.2-0.8-0.6-0.9
		c-0.4-0.1-0.8,0.2-0.9,0.6l-1.1,4.5l-4.5-1.1C1180.7,161,1180.3,161.2,1180.2,161.6z"/>
	<path class="elementor-shape-fill ha-shape-divider" d="M1179.4,155.8c0,1.4,1.2,2.6,2.6,2.6c1.4,0,2.6-1.2,2.6-2.6c0-1.4-1.2-2.6-2.6-2.6C1180.6,153.2,1179.4,154.4,1179.4,155.8
		z M1182,154.7c0.6,0,1.2,0.5,1.2,1.2c0,0.6-0.5,1.2-1.2,1.2c-0.6,0-1.2-0.5-1.2-1.2S1181.4,154.7,1182,154.7z"/>
	<path class="elementor-shape-fill ha-shape-divider" d="M1179.2,153c1.2,0,2.1-0.9,2.1-2.1c0-1.2-0.9-2.1-2.1-2.1c-1.2,0-2.1,0.9-2.1,2.1C1177.1,152.1,1178,153,1179.2,153z
		 M1179.2,150.2c0.4,0,0.7,0.3,0.7,0.7s-0.3,0.7-0.7,0.7s-0.7-0.3-0.7-0.7C1178.5,150.5,1178.8,150.2,1179.2,150.2z"/>
	<path class="elementor-shape-fill ha-shape-divider" d="M1174.6,180.2c0.3,0.3,0.8,0.3,1.1-0.1l3.6-4l0.1-0.1c0.2-0.3,0.1-0.7-0.2-0.9l-4-3.6c-0.3-0.3-0.8-0.3-1.1,0.1
		c-0.3,0.3-0.3,0.8,0.1,1.1l3.5,3.1l-3.1,3.5C1174.2,179.4,1174.3,179.9,1174.6,180.2z"/>
	<path class="elementor-shape-fill ha-shape-divider" d="M1171.1,178.3c0.7-0.2,1.2-0.6,1.5-1.3c0.3-0.6,0.4-1.3,0.2-2s-0.6-1.2-1.3-1.5c-0.4-0.2-0.8-0.3-1.2-0.3
		c-0.3,0-0.5,0-0.8,0.1c-0.7,0.2-1.2,0.6-1.5,1.3c-0.7,1.3-0.2,2.8,1.1,3.5C1169.7,178.4,1170.4,178.5,1171.1,178.3z M1169.3,175.3
		c0.1-0.3,0.4-0.5,0.7-0.6s0.6-0.1,0.9,0.1c0.3,0.1,0.5,0.4,0.6,0.7s0.1,0.6-0.1,0.9c-0.1,0.3-0.4,0.5-0.7,0.6
		c-0.1,0-0.2,0.1-0.3,0.1c-0.2,0-0.4,0-0.5-0.1C1169.2,176.6,1169,175.9,1169.3,175.3z"/>
	<path class="elementor-shape-fill ha-shape-divider" d="M1165.3,178c0.5-0.2,1-0.5,1.2-1c0.5-1,0.2-2.3-0.9-2.9c-0.3-0.2-0.7-0.2-1-0.2c-0.8,0-1.5,0.4-1.9,1.1
		c-0.5,1-0.2,2.3,0.9,2.9C1164.2,178.1,1164.7,178.2,1165.3,178z M1164.1,175.7c0.2-0.3,0.6-0.5,0.9-0.3c0.3,0.2,0.5,0.6,0.3,0.9
		c-0.1,0.2-0.2,0.3-0.4,0.3c-0.1,0-0.1,0-0.2,0c-0.1,0-0.2,0-0.3-0.1l0,0C1164,176.4,1163.9,176,1164.1,175.7z"/>
	<path class="elementor-shape-fill ha-shape-divider" d="M1212.3,171.5c-0.3-0.3-0.8-0.3-1.1-0.1l-4,3.6c-0.3,0.2-0.3,0.6-0.2,0.9l0.1,0.1l3.6,4c0.3,0.3,0.8,0.3,1.1,0.1
		s0.4-0.8,0.1-1.1l-3.1-3.5l3.5-3.1C1212.5,172.3,1212.5,171.8,1212.3,171.5z"/>
	<path class="elementor-shape-fill ha-shape-divider" d="M1216.8,173.4c-0.2-0.1-0.5-0.1-0.8-0.1c-0.4,0-0.8,0.1-1.2,0.3c-0.6,0.3-1.1,0.9-1.3,1.5c-0.2,0.7-0.1,1.4,0.2,2
		s0.9,1.1,1.5,1.3c0.7,0.2,1.4,0.1,2-0.2c1.3-0.7,1.7-2.2,1.1-3.5C1218,174,1217.4,173.6,1216.8,173.4z M1216.6,176.8
		c-0.3,0.1-0.6,0.2-0.9,0.1c-0.3-0.1-0.5-0.3-0.7-0.6c-0.1-0.3-0.2-0.6-0.1-0.9c0.1-0.3,0.3-0.5,0.6-0.7c0.6-0.3,1.3-0.1,1.6,0.5
		C1217.3,175.9,1217.1,176.6,1216.6,176.8z"/>
	<path class="elementor-shape-fill ha-shape-divider" d="M1222.3,174c-0.2-0.1-0.4-0.1-0.6-0.1c-0.3,0-0.7,0.1-1,0.2c-1,0.5-1.4,1.8-0.9,2.9c0.5,1,1.8,1.4,2.9,0.9
		c1-0.5,1.4-1.8,0.9-2.9C1223.3,174.5,1222.8,174.1,1222.3,174z M1222,176.6c-0.1,0.1-0.2,0.1-0.3,0.1c-0.2,0-0.5-0.1-0.6-0.4
		c-0.2-0.3-0.1-0.7,0.3-0.9c0.2-0.1,0.3-0.1,0.5-0.1c0.2,0.1,0.3,0.2,0.4,0.3C1222.5,176,1222.3,176.4,1222,176.6z"/>
</g>
<g>
	<path class="elementor-shape-fill ha-shape-divider" d="M3919.3,240.2c-0.3,0-0.6,0.2-0.7,0.5c-0.1,0.4,0.1,0.8,0.5,0.9l4.5,1.2l-3.9,2.2c-0.3,0.2-0.5,0.6-0.3,1
		c0.2,0.3,0.6,0.5,1,0.3l3.9-2.2l-1.2,4.5c-0.1,0.4,0.1,0.8,0.5,0.9c0.4,0.1,0.8-0.1,0.9-0.5l1.6-5.8l3.1-1.7l-1.2,4.5
		c-0.1,0.4,0.1,0.8,0.5,0.9c0.4,0.1,0.8-0.1,0.9-0.5l1.6-5.8l3.1-1.7l-1.2,4.5c-0.1,0.4,0.1,0.8,0.5,0.9c0.4,0.1,0.8-0.1,0.9-0.5
		l1.6-5.8l4.8-2.7l6.7,1.6l4.6,4.9v5.3l-4.3,4.3c-0.3,0.3-0.3,0.7,0,1s0.7,0.3,1,0l3.3-3.3v3.5l-4.3,4.3c-0.3,0.3-0.3,0.7,0,1
		c0.3,0.3,0.7,0.3,1,0l3.3-3.3v3.5l-4.3,4.3c-0.3,0.3-0.3,0.7,0,1c0.3,0.3,0.7,0.3,1,0l3.3-3.3v4.4c0,0.4,0.3,0.7,0.7,0.7
		c0.4,0,0.7-0.3,0.7-0.7v-4.4l3.3,3.3c0.3,0.3,0.7,0.3,1,0c0.3-0.3,0.3-0.7,0-1l-4.3-4.3v-3.5l3.3,3.3c0.3,0.3,0.7,0.3,1,0
		c0.3-0.3,0.3-0.7,0-1l-4.3-4.3v-3.5l3.3,3.3c0.3,0.3,0.7,0.3,1,0c0.3-0.3,0.3-0.7,0-1l-4.3-4.3v-5.7l4.6-4.9l6.5-1.5l4.9,2.9
		l1.6,5.9c0.1,0.4,0.5,0.6,0.9,0.5c0.4-0.1,0.6-0.5,0.5-0.9l-1.2-4.5l3,1.8l1.6,5.9c0.1,0.4,0.5,0.6,0.9,0.5
		c0.4-0.1,0.6-0.5,0.5-0.9l-1.2-4.5l3,1.8l1.6,5.9c0.1,0.4,0.5,0.6,0.9,0.5c0.4-0.1,0.6-0.5,0.5-0.9l-1.2-4.5l3.8,2.2
		c0.3,0.2,0.8,0.1,1-0.3c0.2-0.3,0.1-0.8-0.3-1l-3.8-2.2l4.5-1.2c0.4-0.1,0.6-0.5,0.5-0.9c-0.1-0.3-0.4-0.5-0.7-0.5
		c-0.1,0-0.1,0-0.2,0l-5.9,1.6l-3-1.8l4.5-1.2c0.4-0.1,0.6-0.5,0.5-0.9c-0.1-0.3-0.4-0.5-0.7-0.5c-0.1,0-0.1,0-0.2,0l-5.9,1.6
		l-3-1.8l4.5-1.2c0.4-0.1,0.6-0.5,0.5-0.9c-0.1-0.3-0.4-0.5-0.7-0.5c-0.1,0-0.1,0-0.2,0l-5.9,1.6l-4.9-2.8l-1.9-6.5l1.9-6.4l5-2.9
		l5.9,1.6c0.4,0.1,0.8-0.1,0.9-0.5c0.1-0.4-0.1-0.8-0.5-0.9l-4.5-1.2l3-1.7l5.9,1.6c0.4,0.1,0.8-0.1,0.9-0.5
		c0.1-0.4-0.1-0.8-0.5-0.9l-4.5-1.2l3-1.7l5.9,1.6c0.4,0.1,0.8-0.1,0.9-0.5c0.1-0.4-0.1-0.8-0.5-0.9l-4.5-1.2l3.8-2.2
		c0.3-0.2,0.5-0.6,0.3-1c-0.1-0.2-0.4-0.4-0.6-0.4c-0.1,0-0.2,0-0.4,0.1l-3.8,2.2l1.2-4.5c0.1-0.4-0.1-0.8-0.5-0.9
		c-0.1,0-0.1,0-0.2,0c-0.3,0-0.6,0.2-0.7,0.5l-1.6,5.9l-3,1.7l1.2-4.5c0.1-0.4-0.1-0.8-0.5-0.9c-0.1,0-0.1,0-0.2,0
		c-0.3,0-0.6,0.2-0.7,0.5l-1.6,5.9l-3,1.7l1.2-4.5c0.1-0.4-0.1-0.8-0.5-0.9c-0.1,0-0.1,0-0.2,0c-0.3,0-0.6,0.2-0.7,0.5l-1.6,5.9
		l-4.9,2.8l-6.6-1.6l-4.6-4.9v-5.7l4.3-4.3c0.3-0.3,0.3-0.7,0-1c-0.1-0.1-0.3-0.2-0.5-0.2s-0.4,0.1-0.5,0.2l-3.3,3.3v-3.5l4.3-4.3
		c0.3-0.3,0.3-0.7,0-1c-0.1-0.1-0.3-0.2-0.5-0.2s-0.4,0.1-0.5,0.2l-3.3,3.3v-3.5l4.3-4.3c0.3-0.3,0.3-0.7,0-1
		c-0.1-0.1-0.3-0.2-0.5-0.2s-0.4,0.1-0.5,0.2l-3.3,3.3v-4.4c0-0.4-0.3-0.7-0.7-0.7c-0.4,0-0.7,0.3-0.7,0.7v4.4l-3.3-3.3
		c-0.1-0.1-0.3-0.2-0.5-0.2s-0.4,0.1-0.5,0.2c-0.3,0.3-0.3,0.7,0,1l4.3,4.3v3.5l-3.3-3.3c-0.1-0.1-0.3-0.2-0.5-0.2s-0.4,0.1-0.5,0.2
		c-0.3,0.3-0.3,0.7,0,1l4.3,4.3v3.5l-3.3-3.3c-0.1-0.1-0.3-0.2-0.5-0.2s-0.4,0.1-0.5,0.2c-0.3,0.3-0.3,0.7,0,1l4.3,4.3v5.8l-4.6,4.9
		l-6.6,1.6l-4.9-2.8l-1.6-5.9c-0.1-0.3-0.4-0.5-0.7-0.5c-0.1,0-0.1,0-0.2,0c-0.4,0.1-0.6,0.5-0.5,0.9l1.2,4.5l-3-1.7l-1.6-5.9
		c-0.1-0.3-0.4-0.5-0.7-0.5c-0.1,0-0.1,0-0.2,0c-0.4,0.1-0.6,0.5-0.5,0.9l1.2,4.5l-3-1.7l-1.6-5.9c-0.1-0.3-0.4-0.5-0.7-0.5
		c-0.1,0-0.1,0-0.2,0c-0.4,0.1-0.6,0.5-0.5,0.9l1.2,4.5l-3.8-2.2c-0.1-0.1-0.2-0.1-0.4-0.1c-0.2,0-0.5,0.1-0.6,0.4
		c-0.2,0.3-0.1,0.8,0.3,1l3.8,2.2l-4.5,1.2c-0.4,0.1-0.6,0.5-0.5,0.9c0.1,0.4,0.5,0.6,0.9,0.5l5.8-1.6l3,1.7l-4.5,1.2
		c-0.4,0.1-0.6,0.5-0.5,0.9c0.1,0.4,0.5,0.6,0.9,0.5l5.9-1.6l3,1.7l-4.5,1.2c-0.4,0.1-0.6,0.5-0.5,0.9c0.1,0.4,0.5,0.6,0.9,0.5
		l5.9-1.6l5,2.9l1.9,6.4l-1.9,6.2l-5.1,2.9l-5.8-1.6c-0.1,0-0.1,0-0.2,0c-0.3,0-0.6,0.2-0.7,0.5c-0.1,0.4,0.1,0.8,0.5,0.9l4.5,1.2
		l-3.1,1.7l-5.8-1.6c-0.1,0-0.1,0-0.2,0c-0.3,0-0.6,0.2-0.7,0.5c-0.1,0.4,0.1,0.8,0.5,0.9l4.5,1.2l-3.1,1.7l-5.8-1.6
		C3919.4,240.2,3919.3,240.2,3919.3,240.2z M3948.1,235.4c-0.1-0.1-0.2-0.2-0.4-0.2l-5.4-1.3l7.1-4c0.6,0.7,1.4,1.2,2.4,1.4v8.1
		L3948.1,235.4z M3957.3,235.1c-0.1,0-0.3,0.1-0.4,0.2l-3.7,3.9v-8.1c0.9-0.2,1.8-0.7,2.4-1.4l7,4L3957.3,235.1z M3961.8,227.1
		c0,0.1,0,0.3,0,0.4l1.6,5.2l-7-4c0.2-0.4,0.3-0.9,0.3-1.4s-0.1-0.9-0.3-1.4l7-4L3961.8,227.1z M3957,219.2c0.1,0.1,0.2,0.2,0.4,0.2
		l5.3,1.3l-7,4c-0.6-0.7-1.4-1.2-2.4-1.4v-8.1L3957,219.2z M3947.8,219.4c0.1,0,0.3-0.1,0.4-0.2l3.7-3.9v8.1c-1,0.2-1.8,0.7-2.4,1.4
		l-7-4L3947.8,219.4z M3943.3,227.5c0-0.1,0-0.3,0-0.4l-1.5-5.1l7,4c-0.2,0.4-0.2,0.9-0.2,1.4s0.1,0.9,0.2,1.3l-6.9,3.9
		L3943.3,227.5z"/>
	<path class="elementor-shape-fill ha-shape-divider" d="M3947.6,244.8l-1.3-5.3c-0.1-0.4-0.4-0.6-0.8-0.6c-0.1,0-0.1,0-0.2,0l-5.3,1.3c-0.4,0.1-0.7,0.5-0.6,0.9
		c0.1,0.4,0.5,0.7,0.9,0.6l4.5-1.1l1.1,4.5c0.1,0.4,0.5,0.7,0.9,0.6C3947.4,245.7,3947.7,245.2,3947.6,244.8z"/>
	<path class="elementor-shape-fill ha-shape-divider" d="M3941.4,244.4c-1.4,0-2.6,1.2-2.6,2.6c0,1.4,1.2,2.6,2.6,2.6c1.4,0,2.6-1.2,2.6-2.6
		C3943.9,245.6,3942.8,244.4,3941.4,244.4z M3941.4,248.2c-0.6,0-1.2-0.5-1.2-1.2c0-0.6,0.5-1.2,1.2-1.2c0.6,0,1.2,0.5,1.2,1.2
		C3942.5,247.7,3942,248.2,3941.4,248.2z"/>
	<path class="elementor-shape-fill ha-shape-divider" d="M3938.6,249.8c-1.2,0-2.1,0.9-2.1,2.1c0,1.2,0.9,2.1,2.1,2.1s2.1-0.9,2.1-2.1C3940.7,250.8,3939.7,249.8,3938.6,249.8z
		 M3938.6,252.6c-0.4,0-0.7-0.3-0.7-0.7s0.3-0.7,0.7-0.7s0.7,0.3,0.7,0.7C3939.2,252.3,3938.9,252.6,3938.6,252.6z"/>
	<path class="elementor-shape-fill ha-shape-divider" d="M3966.3,241.2c0.1-0.4-0.2-0.8-0.6-0.9l-5.2-1.3c-0.1,0-0.1,0-0.2,0c-0.4,0-0.7,0.2-0.8,0.6l-1.3,5.3
		c-0.1,0.4,0.2,0.8,0.6,0.9c0.4,0.1,0.8-0.2,0.9-0.6l1.1-4.5l4.5,1.1C3965.8,241.9,3966.2,241.6,3966.3,241.2z"/>
	<path class="elementor-shape-fill ha-shape-divider" d="M3967.1,247c0-1.4-1.2-2.6-2.6-2.6c-1.4,0-2.6,1.2-2.6,2.6c0,1.4,1.2,2.6,2.6,2.6C3965.9,249.6,3967.1,248.4,3967.1,247z
		 M3964.5,248.2c-0.6,0-1.2-0.5-1.2-1.2c0-0.6,0.5-1.2,1.2-1.2c0.7,0,1.2,0.5,1.2,1.2S3965.2,248.2,3964.5,248.2z"/>
	<path class="elementor-shape-fill ha-shape-divider" d="M3967.3,249.8c-1.2,0-2.1,0.9-2.1,2.1c0,1.2,0.9,2.1,2.1,2.1s2.1-0.9,2.1-2.1C3969.4,250.8,3968.5,249.8,3967.3,249.8z
		 M3967.3,252.6c-0.4,0-0.7-0.3-0.7-0.7s0.3-0.7,0.7-0.7c0.4,0,0.7,0.3,0.7,0.7S3967.7,252.6,3967.3,252.6z"/>
	<path class="elementor-shape-fill ha-shape-divider" d="M3959.6,215.2c0.1,0.4,0.4,0.6,0.8,0.6c0.1,0,0.1,0,0.2,0l5.2-1.3c0.4-0.1,0.7-0.5,0.6-0.9c-0.1-0.4-0.5-0.7-0.9-0.6
		l-4.5,1.1l-1.1-4.5c-0.1-0.4-0.5-0.7-0.9-0.6c-0.4,0.1-0.7,0.5-0.6,0.9L3959.6,215.2z"/>
	<path class="elementor-shape-fill ha-shape-divider" d="M3964.5,210.3c1.4,0,2.6-1.2,2.6-2.6c0-1.4-1.2-2.6-2.6-2.6c-1.4,0-2.6,1.2-2.6,2.6
		C3961.9,209.2,3963.1,210.3,3964.5,210.3z M3964.5,206.6c0.6,0,1.2,0.5,1.2,1.2c0,0.6-0.5,1.2-1.2,1.2c-0.7,0-1.2-0.5-1.2-1.2
		C3963.4,207.1,3963.9,206.6,3964.5,206.6z"/>
	<path class="elementor-shape-fill ha-shape-divider" d="M3967.3,204.9c1.2,0,2.1-0.9,2.1-2.1c0-1.2-0.9-2.1-2.1-2.1s-2.1,0.9-2.1,2.1C3965.2,204,3966.1,204.9,3967.3,204.9z
		 M3967.3,202.1c0.4,0,0.7,0.3,0.7,0.7s-0.3,0.7-0.7,0.7c-0.4,0-0.7-0.3-0.7-0.7S3966.9,202.1,3967.3,202.1z"/>
	<path class="elementor-shape-fill ha-shape-divider" d="M3939.5,213.6c-0.1,0.4,0.2,0.8,0.6,0.9l5.3,1.3c0.1,0,0.1,0,0.2,0c0.4,0,0.7-0.2,0.8-0.6l1.3-5.2c0.1-0.4-0.2-0.8-0.6-0.9
		c-0.4-0.1-0.8,0.2-0.9,0.6l-1.1,4.5l-4.5-1.1C3940.1,212.9,3939.6,213.1,3939.5,213.6z"/>
	<path class="elementor-shape-fill ha-shape-divider" d="M3938.8,207.7c0,1.4,1.2,2.6,2.6,2.6c1.4,0,2.6-1.2,2.6-2.6c0-1.4-1.2-2.6-2.6-2.6C3939.9,205.2,3938.8,206.3,3938.8,207.7
		z M3941.4,206.6c0.6,0,1.2,0.5,1.2,1.2c0,0.6-0.5,1.2-1.2,1.2c-0.6,0-1.2-0.5-1.2-1.2S3940.7,206.6,3941.4,206.6z"/>
	<path class="elementor-shape-fill ha-shape-divider" d="M3938.6,204.9c1.2,0,2.1-0.9,2.1-2.1c0-1.2-0.9-2.1-2.1-2.1s-2.1,0.9-2.1,2.1C3936.5,204,3937.4,204.9,3938.6,204.9z
		 M3938.6,202.1c0.4,0,0.7,0.3,0.7,0.7s-0.3,0.7-0.7,0.7s-0.7-0.3-0.7-0.7S3938.2,202.1,3938.6,202.1z"/>
	<path class="elementor-shape-fill ha-shape-divider" d="M3934,232.1c0.3,0.3,0.8,0.3,1.1-0.1l3.6-4l0.1-0.1c0.2-0.3,0.1-0.7-0.2-0.9l-4-3.6c-0.3-0.3-0.8-0.3-1.1,0.1
		c-0.3,0.3-0.3,0.8,0.1,1.1l3.5,3.1l-3.1,3.5C3933.6,231.3,3933.6,231.8,3934,232.1z"/>
	<path class="elementor-shape-fill ha-shape-divider" d="M3930.4,230.2c0.7-0.2,1.2-0.6,1.5-1.3c0.3-0.6,0.4-1.3,0.2-2s-0.6-1.2-1.3-1.5c-0.4-0.2-0.8-0.3-1.2-0.3
		c-0.3,0-0.5,0-0.8,0.1c-0.7,0.2-1.2,0.6-1.5,1.3c-0.7,1.3-0.2,2.8,1.1,3.5C3929.1,230.4,3929.8,230.4,3930.4,230.2z M3928.7,227.2
		c0.1-0.3,0.4-0.5,0.7-0.6s0.6-0.1,0.9,0.1c0.3,0.1,0.5,0.4,0.6,0.7c0.1,0.3,0.1,0.6-0.1,0.9c-0.1,0.3-0.4,0.5-0.7,0.6
		c-0.1,0-0.2,0.1-0.3,0.1c-0.2,0-0.4,0-0.5-0.1C3928.6,228.5,3928.4,227.8,3928.7,227.2z"/>
	<path class="elementor-shape-fill ha-shape-divider" d="M3924.6,229.9c0.5-0.2,1-0.5,1.2-1c0.5-1,0.2-2.3-0.9-2.9c-0.3-0.2-0.7-0.2-1-0.2c-0.8,0-1.5,0.4-1.9,1.1
		c-0.5,1-0.2,2.3,0.9,2.9C3923.5,230,3924.1,230.1,3924.6,229.9z M3923.4,227.6c0.2-0.3,0.6-0.5,0.9-0.3s0.5,0.6,0.3,0.9
		c-0.1,0.2-0.2,0.3-0.4,0.3c-0.1,0-0.1,0-0.2,0c-0.1,0-0.2,0-0.3-0.1l0,0C3923.4,228.3,3923.3,227.9,3923.4,227.6z"/>
	<path class="elementor-shape-fill ha-shape-divider" d="M3971.6,223.4c-0.3-0.3-0.8-0.3-1.1-0.1l-4,3.6c-0.3,0.2-0.3,0.6-0.2,0.9l0.1,0.1l3.6,4c0.3,0.3,0.8,0.3,1.1,0.1
		s0.4-0.8,0.1-1.1l-3.1-3.5l3.5-3.1C3971.9,224.2,3971.9,223.7,3971.6,223.4z"/>
	<path class="elementor-shape-fill ha-shape-divider" d="M3976.1,225.3c-0.2-0.1-0.5-0.1-0.8-0.1c-0.4,0-0.8,0.1-1.2,0.3c-0.6,0.3-1.1,0.9-1.3,1.5c-0.2,0.7-0.1,1.4,0.2,2
		c0.3,0.6,0.9,1.1,1.5,1.3c0.7,0.2,1.4,0.1,2-0.2c1.3-0.7,1.7-2.2,1.1-3.5C3977.3,225.9,3976.8,225.5,3976.1,225.3z M3975.9,228.8
		c-0.3,0.1-0.6,0.2-0.9,0.1c-0.3-0.1-0.5-0.3-0.7-0.6c-0.1-0.3-0.2-0.6-0.1-0.9c0.1-0.3,0.3-0.5,0.6-0.7c0.6-0.3,1.3-0.1,1.6,0.5
		C3976.7,227.8,3976.5,228.5,3975.9,228.8z"/>
	<path class="elementor-shape-fill ha-shape-divider" d="M3981.6,225.9c-0.2-0.1-0.4-0.1-0.6-0.1c-0.3,0-0.7,0.1-1,0.2c-1,0.5-1.4,1.8-0.9,2.9c0.5,1,1.8,1.4,2.9,0.9
		c1-0.5,1.4-1.8,0.9-2.9C3982.6,226.4,3982.2,226,3981.6,225.9z M3981.4,228.5c-0.1,0.1-0.2,0.1-0.3,0.1c-0.2,0-0.5-0.1-0.6-0.4
		c-0.2-0.3-0.1-0.7,0.3-0.9c0.2-0.1,0.3-0.1,0.5-0.1c0.2,0.1,0.3,0.2,0.4,0.3C3981.8,227.9,3981.7,228.3,3981.4,228.5z"/>
</g>
<path class="elementor-shape-fill ha-shape-divider" d="M103.7,115c0.7,0.4,1.5,0.3,2.1-0.1l3.2,1.8l-2.6,0.7c-0.4,0.1-0.6,0.5-0.5,0.9s0.5,0.6,0.9,0.5l3.9-1l2.9,1.7L108,121
	c-0.4,0.1-0.6,0.5-0.5,0.9s0.5,0.6,0.9,0.5l7-1.9l2.8,1.6l-2.6,0.7c-0.4,0.1-0.6,0.5-0.5,0.9s0.5,0.6,0.9,0.5l3.9-1.1l3,1.7
	c-0.9,1.8-1.5,3.8-1.5,5.9h-2c-0.2-0.8-0.5-1.5-1.1-2c-0.7-0.7-1.7-1.1-2.7-1.1c0,0,0,0-0.1,0c-1,0-2,0.4-2.7,1.2
	c-0.5,0.6-0.9,1.3-1,2h-2.2c-0.3-0.7-1-1.2-1.8-1.1c-1,0-1.9,0.9-1.9,1.9s0.9,1.9,1.9,1.9c0.8,0,1.5-0.5,1.7-1.2h2.2
	c0.4,1.8,1.9,3.1,3.9,3.1c1,0,2-0.4,2.7-1.2c0.5-0.6,0.9-1.3,1-2h2c0.1,1.9,0.6,3.7,1.4,5.3l-3,1.7l-3.9-1.1c-0.1,0-0.1,0-0.2,0
	c-0.3,0-0.6,0.2-0.7,0.5c-0.1,0.4,0.1,0.8,0.5,0.9l2.5,0.7l-2.8,1.6l-7-1.9c-0.1,0-0.1,0-0.2,0c-0.3,0-0.6,0.2-0.7,0.5
	c-0.1,0.4,0.1,0.8,0.5,0.9l5.6,1.6l-2.9,1.6l-3.9-1.1c-0.1,0-0.1,0-0.2,0c-0.3,0-0.6,0.2-0.7,0.5c-0.1,0.4,0.1,0.8,0.5,0.9l2.5,0.7
	l-3.2,1.8c-0.6-0.5-1.4-0.6-2.1-0.2c-0.9,0.5-1.2,1.7-0.7,2.6c0.5,0.9,1.7,1.2,2.6,0.7c0.7-0.4,1-1.1,0.9-1.9l3.2-1.8l-0.7,2.5
	c-0.1,0.4,0.1,0.8,0.5,0.9c0.4,0.1,0.8-0.1,0.9-0.5l1.1-3.9l2.9-1.6l-1.6,5.6c-0.1,0.4,0.1,0.8,0.5,0.9c0.4,0.1,0.8-0.1,0.9-0.5
	l1.9-7l2.8-1.6l-0.7,2.5c-0.1,0.4,0.1,0.8,0.5,0.9c0.4,0.1,0.8-0.1,0.9-0.5l1.1-3.9l3-1.7c1.1,1.7,2.6,3.2,4.3,4.3l-1,1.8
	c-0.4-0.1-0.8-0.2-1.2-0.2c-1.3,0-2.7,0.7-3.4,2c-0.5,0.9-0.6,1.9-0.4,2.9c0.2,0.8,0.6,1.4,1.2,1.9l-1.1,1.9
	c-0.7-0.1-1.5,0.2-1.9,0.9c-0.5,0.9-0.2,2.1,0.7,2.6s2.1,0.2,2.6-0.7c0.4-0.7,0.3-1.5-0.2-2.1l1.1-1.9c1.7,0.6,3.7-0.1,4.6-1.7
	c0.9-1.6,0.5-3.7-0.9-4.9l1-1.8c1.7,0.8,3.6,1.4,5.5,1.4v3.5l-2.9,2.9c-0.3,0.3-0.3,0.7,0,1s0.7,0.3,1,0l1.9-1.9v3.2l-5.1,5.1
	c-0.3,0.3-0.3,0.7,0,1s0.7,0.3,1,0l4.1-4.1v3.2l-2.9,2.9c-0.3,0.3-0.3,0.7,0,1s0.7,0.3,1,0l1.9-1.9v3.7c-0.7,0.3-1.2,1-1.2,1.7
	c0,1,0.8,1.9,1.9,1.9c1,0,1.9-0.8,1.9-1.9c0-0.8-0.5-1.5-1.2-1.7v-3.7l1.9,1.9c0.3,0.3,0.7,0.3,1,0s0.3-0.7,0-1l-2.9-2.9v-3.3
	l4.1,4.1c0.3,0.3,0.7,0.3,1,0s0.3-0.7,0-1l-5.1-5.1v-3.2l1.9,1.9c0.3,0.3,0.7,0.3,1,0s0.3-0.7,0-1l-2.9-2.9v-3.5
	c2-0.1,3.9-0.6,5.7-1.5l1.1,1.8c-0.6,0.5-1,1.2-1.2,1.9c-0.3,1-0.1,2,0.4,2.9s1.4,1.5,2.4,1.8c0.8,0.2,1.6,0.2,2.3-0.1l1.1,1.9
	c-0.5,0.6-0.5,1.4-0.1,2.1c0.5,0.9,1.7,1.2,2.6,0.7c0.9-0.5,1.2-1.7,0.7-2.6c-0.4-0.7-1.2-1-1.9-0.9l-1.1-1.9c0.6-0.5,1-1.2,1.2-1.9
	c0.3-1,0.1-2-0.4-2.9c-0.7-1.2-2-1.9-3.3-1.9c-0.4,0-0.9,0.1-1.3,0.2l-1.1-1.8c1.7-1.1,3-2.5,4.1-4.2l3.1,1.8l1.1,3.9
	c0.1,0.4,0.5,0.6,0.9,0.5s0.6-0.5,0.5-0.9l-0.7-2.5l2.8,1.6l1.9,7c0.1,0.4,0.5,0.6,0.9,0.5s0.6-0.5,0.5-0.9l-1.6-5.6l2.9,1.6
	l1.1,3.9c0.1,0.4,0.5,0.6,0.9,0.5s0.6-0.5,0.5-0.9l-0.7-2.5l3.2,1.8c-0.1,0.7,0.3,1.5,0.9,1.9c0.9,0.5,2.1,0.2,2.6-0.7
	s0.2-2.1-0.7-2.6c-0.7-0.4-1.5-0.3-2.1,0.2l-3.2-1.8l2.5-0.7c0.4-0.1,0.6-0.5,0.5-0.9c-0.1-0.3-0.4-0.5-0.7-0.5c-0.1,0-0.1,0-0.2,0
	l-3.9,1.1l-2.9-1.6l5.6-1.6c0.4-0.1,0.6-0.5,0.5-0.9c-0.1-0.3-0.4-0.5-0.7-0.5c-0.1,0-0.1,0-0.2,0l-7,1.9l-2.8-1.6l2.5-0.7
	c0.4-0.1,0.6-0.5,0.5-0.9c-0.1-0.3-0.4-0.5-0.7-0.5c-0.1,0-0.1,0-0.2,0l-3.9,1.1l-3.1-1.8c0.8-1.7,1.3-3.5,1.4-5.5h2.1
	c0.3,1.8,1.9,3.2,3.8,3.2c1.9,0,3.5-1.4,3.8-3.2h2.2c0.3,0.7,1,1.2,1.7,1.2c1,0,1.9-0.8,1.9-1.9s-0.8-1.9-1.9-1.9
	c-0.8,0-1.5,0.5-1.7,1.2h-2.2c-0.3-1.8-1.9-3.2-3.8-3.2c-1.9,0-3.5,1.4-3.8,3.2h-2.1c-0.1-2.1-0.7-4-1.6-5.7l3.1-1.8l3.9,1
	c0.4,0.1,0.8-0.1,0.9-0.5c0.1-0.4-0.1-0.8-0.5-0.9l-2.6-0.7l2.8-1.6l7,1.8c0.4,0.1,0.8-0.1,0.9-0.5c0.1-0.4-0.1-0.8-0.5-0.9
	l-5.6-1.4l2.8-1.7l3.9,1c0.4,0.1,0.8-0.1,0.9-0.5c0.1-0.4-0.1-0.8-0.5-0.9l-2.6-0.7l3.2-1.9c0.6,0.4,1.4,0.5,2.1,0.1
	c0.9-0.5,1.2-1.7,0.7-2.6s-1.7-1.2-2.6-0.7c-0.7,0.4-1,1.2-0.9,1.9l-3.2,1.9l0.7-2.6c0.1-0.4-0.1-0.8-0.5-0.9c-0.1,0-0.1,0-0.2,0
	c-0.3,0-0.6,0.2-0.7,0.5l-1,3.9l-2.8,1.7l1.4-5.6c0.1-0.4-0.1-0.8-0.5-0.9c-0.1,0-0.1,0-0.2,0c-0.3,0-0.6,0.2-0.7,0.5l-1.8,7
	l-2.8,1.6l0.7-2.6c0.1-0.4-0.1-0.8-0.5-0.9c-0.1,0-0.1,0-0.2,0c-0.3,0-0.6,0.2-0.7,0.5l-1,3.9l-3.1,1.8c-1.1-1.6-2.5-3-4.1-4l1-1.8
	c1.7,0.6,3.7-0.1,4.6-1.8c0.9-1.6,0.5-3.7-0.9-4.9l1.1-1.9c0.7,0.1,1.5-0.3,1.9-0.9c0.5-0.9,0.2-2.1-0.7-2.6s-2.1-0.2-2.6,0.7
	c-0.4,0.7-0.3,1.5,0.2,2.1l-1.1,1.9c-0.4-0.1-0.8-0.2-1.2-0.2c-1.4,0-2.7,0.7-3.4,2c-0.9,1.6-0.5,3.7,0.9,4.9l-1,1.8
	c-1.7-0.8-3.5-1.3-5.5-1.4v-3.5l2.9-2.9c0.3-0.3,0.3-0.7,0-1c-0.1-0.1-0.3-0.2-0.5-0.2s-0.4,0.1-0.5,0.2l-1.9,1.9v-3.2l5.1-5.1
	c0.3-0.3,0.3-0.7,0-1c-0.1-0.1-0.3-0.2-0.5-0.2s-0.4,0.1-0.5,0.2l-4.1,4.1V103l2.9-2.9c0.3-0.3,0.3-0.7,0-1
	c-0.1-0.1-0.3-0.2-0.5-0.2s-0.4,0.1-0.5,0.2l-1.9,1.9v-3.7c0.7-0.3,1.2-1,1.2-1.7c0-1-0.8-1.9-1.9-1.9c-1,0-1.9,0.8-1.9,1.9
	c0,0.8,0.5,1.5,1.2,1.7v3.7l-1.9-1.9c-0.1-0.1-0.3-0.2-0.5-0.2s-0.4,0.1-0.5,0.2c-0.3,0.3-0.3,0.7,0,1l2.9,2.9v3.3l-4.1-4.1
	c-0.1-0.1-0.3-0.2-0.5-0.2s-0.4,0.1-0.5,0.2c-0.3,0.3-0.3,0.7,0,1l5.1,5.1v3.2l-1.9-1.9c-0.1-0.1-0.3-0.2-0.5-0.2s-0.4,0.1-0.5,0.2
	c-0.3,0.3-0.3,0.7,0,1l2.9,2.9v3.5c-2,0.1-3.9,0.6-5.6,1.5l-1-1.8c0.6-0.5,1-1.2,1.2-1.9c0.3-1,0.1-2-0.4-2.9s-1.4-1.5-2.3-1.8
	c-0.3-0.1-0.7-0.1-1-0.1c-0.4,0-0.9,0.1-1.3,0.2l-1.1-1.9c0.5-0.6,0.5-1.4,0.1-2.1c-0.5-0.9-1.7-1.2-2.6-0.7
	c-0.9,0.5-1.2,1.7-0.7,2.6c0.4,0.7,1.2,1,1.9,0.9l1.1,1.9c-1.4,1.2-1.8,3.2-0.8,4.9c0.9,1.6,2.9,2.3,4.6,1.7l1,1.8
	c-1.6,1.1-3,2.5-4.1,4.1l-3-1.7l-1.1-3.9c-0.1-0.3-0.4-0.5-0.7-0.5c-0.1,0-0.1,0-0.2,0c-0.4,0.1-0.6,0.5-0.5,0.9l0.7,2.6l-2.8-1.6
	l-1.9-7c-0.1-0.3-0.4-0.5-0.7-0.5c-0.1,0-0.1,0-0.2,0c-0.4,0.1-0.6,0.5-0.5,0.9l1.5,5.6l-2.9-1.7l-1.1-3.9c-0.1-0.3-0.4-0.5-0.7-0.5
	c-0.1,0-0.1,0-0.2,0c-0.4,0.1-0.6,0.5-0.5,0.9l0.7,2.6l-3.2-1.8c0.1-0.7-0.2-1.5-0.9-1.9c-0.9-0.5-2.1-0.2-2.6,0.7
	C102.5,113.3,102.8,114.5,103.7,115z M123.2,149c-0.2-0.6-0.1-1.3,0.2-1.9c0.5-1,1.6-1.4,2.6-1.2l-2.3,4
	C123.5,149.7,123.3,149.4,123.2,149z M127.6,149.5c-0.4,0.8-1.3,1.2-2.1,1.2c-0.2,0-0.3,0-0.5-0.1l2.3-4
	C128,147.4,128.2,148.6,127.6,149.5z M145.2,150.7c-0.2,0-0.4,0-0.6-0.1c-0.6-0.2-1.2-0.6-1.5-1.1c-0.3-0.6-0.4-1.2-0.3-1.8
	c0.1-0.4,0.3-0.7,0.6-1l2.3,4C145.6,150.6,145.4,150.7,145.2,150.7z M145.9,145.9c0.6,0.2,1.2,0.6,1.5,1.1c0.3,0.6,0.4,1.2,0.3,1.8
	c-0.1,0.4-0.3,0.7-0.6,1l-2.3-4C145.1,145.8,145.5,145.8,145.9,145.9z M147.1,115.1c-0.5,1-1.6,1.4-2.6,1.2l2.3-4
	C147.5,113,147.6,114.2,147.1,115.1z M142.9,112.7c0.5-1,1.6-1.4,2.6-1.2l-2.3,4C142.5,114.8,142.3,113.7,142.9,112.7z M126,111.7
	c0.6,0.2,1.2,0.6,1.5,1.1l0,0c0.3,0.6,0.4,1.2,0.2,1.8c-0.1,0.4-0.3,0.7-0.6,1l-2.3-4C125.2,111.6,125.6,111.6,126,111.7z
	 M125.4,116.5c-0.8,0-1.7-0.4-2.1-1.2c-0.3-0.6-0.4-1.2-0.2-1.9c0.1-0.4,0.3-0.7,0.6-1l2.3,4C125.7,116.4,125.6,116.5,125.4,116.5z
	 M113.8,129.8c0.5-0.5,1.1-0.7,1.7-0.7l0,0c0.7,0,1.3,0.2,1.7,0.7c0.3,0.3,0.5,0.6,0.6,1l-4.6,0.1
	C113.3,130.4,113.5,130.1,113.8,129.8z M117.3,133.2c-0.5,0.5-1.1,0.7-1.7,0.7l0,0c-1.1,0-2-0.7-2.3-1.7l4.6-0.1
	C117.7,132.6,117.5,132.9,117.3,133.2z M122.7,131.1c0-2,0.5-3.9,1.4-5.6l3.4,2l1.1,3.7l-1.1,3.5l-3.5,2
	C123.2,135,122.7,133.1,122.7,131.1z M124.7,137.9l3.4-1.9l3.8,0.9l2.6,2.8v4C130.5,143.4,126.9,141.2,124.7,137.9z M136,143.6v-4.1
	l2.5-2.7l3.8-0.9l3.4,1.9C143.7,141.1,140.1,143.4,136,143.6z M155.1,133.6c-1.1,0-2-0.7-2.3-1.7h4.6
	C157.1,132.9,156.2,133.6,155.1,133.6z M155.1,128.7c1.1,0,2,0.7,2.3,1.7h-4.6C153,129.4,154,128.7,155.1,128.7z M147.7,131.1
	c0,2-0.5,3.8-1.3,5.5l-3.6-2l-1-3.5l1.1-3.7l3.4-2C147.2,127.1,147.7,129.1,147.7,131.1z M145.6,124.2l-3.5,2.1l-3.6-0.8l-2.6-2.7
	v-4C140,118.9,143.5,121,145.6,124.2z M134.6,118.7v4l-2.6,2.8l-3.6,0.9l-3.5-2C126.9,121.1,130.5,118.9,134.6,118.7z"/>
<path class="elementor-shape-fill ha-shape-divider" d="M1584.2,274.7L1584.2,274.7h6.4l-4.2,4.2c-0.4,0.4-0.4,1.1,0,1.5s1.1,0.4,1.5,0l5.7-5.8h7.5l-4.2,4.2
	c-0.4,0.4-0.4,1.1,0,1.5s1.1,0.4,1.5,0l5.7-5.8h7.5l-4.2,4.2c-0.4,0.4-0.4,1.1,0,1.5s1.1,0.4,1.5,0l5.7-5.8h2.7l-4.1,13.6l-1.1,0.7
	l-3.4-0.9c-0.1,0-0.2,0-0.3,0c-0.5,0-0.9,0.3-1,0.8l-0.9,3.4l-0.7,0.4l-6-1.6c-0.1,0-0.2,0-0.3,0c-0.5,0-0.9,0.3-1,0.8l-1.6,6
	l-0.7,0.4l-3.4-0.9c-0.1,0-0.2,0-0.3,0c-0.5,0-0.9,0.3-1,0.8l-1,3.8l0,0l0,0v0.1c0,0.1,0,0.2,0,0.3c0,0.1,0.1,0.3,0.1,0.4l0,0l0,0
	c0.1,0.1,0.1,0.2,0.3,0.3c0.1,0,0.1,0.1,0.2,0.1c0.1,0,0.1,0.1,0.2,0.1l3.8,1c0.6,0.1,1.2-0.2,1.3-0.8l0.9-3.4l0.7-0.4l6,1.6
	c0.6,0.1,1.1-0.2,1.3-0.8l1.6-6l0.7-0.4l3.4,0.9c0.6,0.1,1.2-0.2,1.3-0.8l0.9-3.4l0.9-0.5l14.1,3.3l-1.2,2.1l-7.8,2.2
	c-0.6,0.2-0.9,0.8-0.8,1.3c0.2,0.6,0.8,0.9,1.3,0.8l5.8-1.6l-3.7,6.6l-7.8,2.2c-0.6,0.2-0.9,0.8-0.8,1.3c0.2,0.6,0.8,0.9,1.3,0.8
	l5.8-1.6l-3.7,6.6l-7.8,2.2c-0.6,0.2-0.9,0.8-0.8,1.3c0.2,0.6,0.8,0.9,1.3,0.8l5.8-1.6l-3.2,5.6c-0.3,0.5-0.1,1.2,0.4,1.5
	s1.2,0.1,1.5-0.4l3.2-5.6l1.6,5.8c0.2,0.6,0.8,0.9,1.3,0.8c0.6-0.2,0.9-0.8,0.8-1.3l-2.2-7.8l3.7-6.6l1.6,5.8
	c0.2,0.6,0.8,0.9,1.3,0.8c0.6-0.2,0.9-0.8,0.8-1.3l-2.2-7.8l3.7-6.6l1.6,5.8c0.2,0.6,0.8,0.9,1.3,0.8c0.6-0.2,0.9-0.8,0.8-1.3
	l-2.2-7.8l1.2-2l9.7,10.3v0.7l-2.5,2.5c-0.4,0.4-0.4,1.1,0,1.5l2.5,2.5v0.9l-4.4,4.4c-0.4,0.4-0.4,1.1,0,1.5l4.4,4.4v0.9l-2.5,2.5
	c-0.4,0.4-0.4,1.1,0,1.5l2.8,2.8l0,0l0,0l0.1,0.1c0.1,0,0.1,0.1,0.2,0.1c0.3,0.1,0.6,0.1,0.8,0c0.1,0,0.1-0.1,0.2-0.1l0.1-0.1l0,0
	l0,0l2.8-2.8c0.4-0.4,0.4-1.1,0-1.5l-2.5-2.5v-0.9l4.4-4.4c0.4-0.4,0.4-1.1,0-1.5l-4.4-4.4v-0.9l2.5-2.5c0.4-0.4,0.4-1.1,0-1.5
	l-2.5-2.5v-1.2l9.8-10.4l1.2,2.1l-2.1,7.9c-0.2,0.6,0.2,1.2,0.8,1.3c0.6,0.2,1.2-0.2,1.3-0.8l1.6-5.8l3.8,6.5l-2.1,7.9
	c-0.2,0.6,0.2,1.2,0.8,1.3c0.6,0.2,1.2-0.2,1.3-0.8l1.6-5.8l3.8,6.5l-2.1,7.9c-0.2,0.6,0.2,1.2,0.8,1.3c0.6,0.2,1.2-0.2,1.3-0.8
	l1.6-5.8l3.2,5.6c0.3,0.5,1,0.7,1.5,0.4c0.5-0.3,0.7-1,0.4-1.5l-3.2-5.6l5.8,1.6c0.6,0.2,1.2-0.2,1.3-0.8c0.2-0.6-0.2-1.2-0.8-1.3
	l-7.9-2.1l-3.8-6.5l5.8,1.6c0.6,0.2,1.2-0.2,1.3-0.8c0.2-0.6-0.2-1.2-0.8-1.3l-7.9-2.1l-3.8-6.5l5.8,1.6c0.6,0.2,1.2-0.2,1.3-0.8
	c0.2-0.6-0.2-1.2-0.8-1.3l-7.9-2.1l-1.2-2l14-3.3l0.8,0.5l0.9,3.4c0.2,0.6,0.7,0.9,1.3,0.7l3.4-0.9l0.7,0.4l1.6,6
	c0.2,0.6,0.7,0.9,1.3,0.7l6-1.6l0.7,0.4l0.9,3.4c0.2,0.6,0.7,0.9,1.3,0.7l3.8-1c0.1,0,0.1-0.1,0.2-0.1c0.1,0,0.1,0,0.2-0.1
	c0.2-0.2,0.4-0.4,0.4-0.7c0-0.1,0-0.2,0-0.3s0-0.1,0-0.2l0,0l0,0l-1-3.8c-0.1-0.5-0.6-0.8-1-0.8c-0.1,0-0.2,0-0.3,0l-3.4,0.9
	l-0.7-0.4l-1.6-6c-0.1-0.5-0.6-0.8-1-0.8c-0.1,0-0.2,0-0.3,0l-6,1.6l-0.7-0.4l-0.9-3.4c-0.1-0.5-0.6-0.8-1-0.8c-0.1,0-0.2,0-0.3,0
	l-3.4,0.9l-1.2-0.7l-4-13.3h2.6l5.7,5.8c0.4,0.4,1.1,0.4,1.5,0c0.4-0.4,0.4-1.1,0-1.5l-4.2-4.3l7.5,0.1l5.7,5.8
	c0.4,0.4,1.1,0.4,1.5,0c0.4-0.4,0.4-1.1,0-1.5l-4.2-4.3l7.5,0.1l5.7,5.8c0.4,0.4,1.1,0.4,1.5,0s0.4-1.1,0-1.5l-4.2-4.3l6.4,0.1
	c0.6,0.1,1.1-0.5,1.1-1.1c0-0.6-0.5-1.1-1.1-1.1l-6.4-0.1l4.3-4.2c0.4-0.4,0.4-1.1,0-1.5c-0.2-0.2-0.5-0.3-0.8-0.3s-0.5,0.1-0.8,0.3
	l-5.8,5.7l-7.5-0.1l4.3-4.2c0.4-0.4,0.4-1.1,0-1.5c-0.2-0.2-0.5-0.3-0.8-0.3s-0.5,0.1-0.8,0.3l-5.8,5.7l-7.5-0.1l4.3-4.2
	c0.4-0.4,0.4-1.1,0-1.5c-0.2-0.2-0.5-0.3-0.8-0.3s-0.5,0.1-0.8,0.3l-5.8,5.7h-2.6l4.1-13.6l1-0.6l3.4,0.9c0.6,0.1,1.2-0.2,1.3-0.8
	l0.9-3.4l0.7-0.4l6,1.6c0.6,0.1,1.1-0.2,1.3-0.8l1.6-6l0.7-0.4l3.4,0.9c0.6,0.1,1.2-0.2,1.3-0.8l1-3.8l0,0l0,0V245
	c0-0.1,0-0.2,0-0.3s-0.1-0.3-0.1-0.4l0,0l0,0c-0.1-0.1-0.2-0.3-0.4-0.4c0,0-0.1,0-0.1-0.1c-0.1,0-0.1-0.1-0.2-0.1l-3.8-1
	c-0.1,0-0.2,0-0.3,0c-0.5,0-0.9,0.3-1,0.8l-0.9,3.4l-0.7,0.4l-6-1.6c-0.1,0-0.2,0-0.3,0c-0.5,0-0.9,0.3-1,0.8l-1.6,6l-0.7,0.4
	l-3.4-0.9c-0.1,0-0.2,0-0.3,0c-0.5,0-0.9,0.3-1,0.8l-0.9,3.4l-1,0.6l-13.9-3.3l1.4-2.5l7.9-2.1c0.6-0.2,0.9-0.7,0.8-1.3
	c-0.1-0.5-0.6-0.8-1-0.8c-0.1,0-0.2,0-0.3,0l-5.8,1.5l3.8-6.5l7.9-2.1c0.6-0.2,0.9-0.7,0.8-1.3c-0.1-0.5-0.6-0.8-1-0.8
	c-0.1,0-0.2,0-0.3,0l-5.8,1.5l3.8-6.5l7.9-2.1c0.6-0.2,0.9-0.7,0.8-1.3c-0.1-0.5-0.6-0.8-1-0.8c-0.1,0-0.2,0-0.3,0l-5.8,1.5l3.2-5.5
	c0.3-0.5,0.1-1.2-0.4-1.5c-0.2-0.1-0.4-0.1-0.5-0.1c-0.4,0-0.7,0.2-0.9,0.5l-3.2,5.5l-1.5-5.8c-0.1-0.5-0.6-0.8-1-0.8
	c-0.1,0-0.2,0-0.3,0c-0.6,0.2-0.9,0.7-0.8,1.3l2.1,7.9l-3.8,6.5l-1.5-5.8c-0.1-0.5-0.6-0.8-1-0.8c-0.1,0-0.2,0-0.3,0
	c-0.6,0.2-0.9,0.7-0.8,1.3l2.1,7.9l-3.8,6.5l-1.5-5.8c-0.1-0.5-0.6-0.8-1-0.8c-0.1,0-0.2,0-0.3,0c-0.6,0.2-0.9,0.7-0.8,1.3l2.1,7.9
	l-1.5,2.5l-9.7-10.3v-1.2l2.5-2.5c0.4-0.4,0.4-1.1,0-1.5l-2.5-2.5v-0.9l4.4-4.4c0.4-0.4,0.4-1.1,0-1.5l-4.4-4.4V222l2.5-2.5
	c0.4-0.4,0.4-1.1,0-1.5l-2.8-2.8l0,0l0,0l-0.1-0.1c-0.1-0.1-0.1-0.1-0.2-0.1c-0.1-0.1-0.3-0.1-0.4-0.1s-0.3,0-0.4,0.1
	c-0.1,0-0.1,0.1-0.2,0.1c0,0-0.1,0.1-0.2,0.1l-2.8,2.8c-0.4,0.4-0.4,1.1,0,1.5l2.5,2.5v0.9l-4.4,4.4c-0.4,0.4-0.4,1.1,0,1.5l4.4,4.4
	v0.9l-2.5,2.5c-0.4,0.4-0.4,1.1,0,1.5l2.5,2.5v1.2l-9.7,10.3l-1.4-2.5l2.1-7.9c0.2-0.6-0.2-1.2-0.8-1.3c-0.1,0-0.2,0-0.3,0
	c-0.5,0-0.9,0.3-1,0.8l-1.5,5.8l-3.8-6.5l2.1-7.9c0.2-0.6-0.2-1.2-0.8-1.3c-0.1,0-0.2,0-0.3,0c-0.5,0-0.9,0.3-1,0.8l-1.5,5.8
	l-3.8-6.5l2.1-7.9c0.2-0.6-0.2-1.2-0.8-1.3c-0.1,0-0.2,0-0.3,0c-0.5,0-0.9,0.3-1,0.8l-1.5,5.8l-3.2-5.5c-0.2-0.3-0.6-0.5-0.9-0.5
	c-0.2,0-0.4,0-0.5,0.1c-0.5,0.3-0.7,1-0.4,1.5l3.2,5.5l-5.8-1.5c-0.1,0-0.2,0-0.3,0c-0.5,0-0.9,0.3-1,0.8c-0.2,0.6,0.2,1.2,0.8,1.3
	l7.9,2.1l3.8,6.5l-5.8-1.5c-0.1,0-0.2,0-0.3,0c-0.5,0-0.9,0.3-1,0.8c-0.2,0.6,0.2,1.2,0.8,1.3l7.9,2.1l3.8,6.5l-5.8-1.5
	c-0.1,0-0.2,0-0.3,0c-0.5,0-0.9,0.3-1,0.8c-0.2,0.6,0.2,1.2,0.8,1.3l7.9,2.1l1.4,2.5l-13.9,3.3l-1-0.6l-0.9-3.4
	c-0.1-0.5-0.6-0.8-1-0.8c-0.1,0-0.2,0-0.3,0l-3.4,0.9l-0.7-0.4l-1.6-6c-0.1-0.5-0.6-0.8-1-0.8c-0.1,0-0.2,0-0.3,0l-6,1.6l-0.7-0.4
	l-0.9-3.4c-0.1-0.5-0.6-0.8-1-0.8c-0.1,0-0.2,0-0.3,0l-3.8,1c-0.1,0-0.1,0.1-0.2,0.1c0,0-0.1,0-0.1,0.1c-0.1,0.1-0.3,0.2-0.4,0.4
	l0,0l0,0c-0.1,0.1-0.1,0.3-0.1,0.4c0,0.1,0,0.2,0,0.3v0.1l0,0l0,0l1,3.8c0.2,0.6,0.7,0.9,1.3,0.8l3.4-0.9l0.7,0.4l1.6,6
	c0.2,0.6,0.7,0.9,1.3,0.8l6-1.6l0.7,0.4l0.9,3.4c0.2,0.6,0.7,0.9,1.3,0.8l3.4-0.9l1,0.6l4,13.4h-2.6l-5.8-5.7
	c-0.2-0.2-0.5-0.3-0.8-0.3s-0.6,0.1-0.8,0.3c-0.4,0.4-0.4,1.1,0,1.5l4.2,4.2h-7.5l-5.8-5.7c-0.2-0.2-0.5-0.3-0.8-0.3
	s-0.6,0.1-0.8,0.3c-0.4,0.4-0.4,1.1,0,1.5l4.2,4.2h-7.5l-5.8-5.7c-0.2-0.2-0.5-0.3-0.8-0.3s-0.6,0.1-0.8,0.3c-0.4,0.4-0.4,1.1,0,1.5
	l4.2,4.2h-6.4c-0.6,0-1.1,0.5-1.1,1.1C1583.1,274.2,1583.6,274.7,1584.2,274.7z M1619.8,274.5h4.8l-2.6,8.8l-5.8,3.3L1619.8,274.5z
	 M1634,274.5l-0.7,2.3l-8.6,4.9l2.2-7.2H1634z M1634.3,278.7l2.1,0.5l-3.5,6.2l-7.3-1.7L1634.3,278.7z M1638.3,280.3l1.6,1.7v10
	l-5.1-5.4L1638.3,280.3z M1642.1,281.9l1.6-1.7l3.6,6.2l-5.2,5.5L1642.1,281.9L1642.1,281.9z M1645.6,279.2l2.1-0.5l8.7,5l-7.3,1.7
	L1645.6,279.2z M1648.7,276.8l-0.7-2.2l7.2,0.1l2.1,7L1648.7,276.8z M1648.1,272.4l0.6-1.9l8.6-5l-2.1,7L1648.1,272.4z
	 M1647.6,268.6l-2.3-0.5l3.6-6.2l7.3,1.7L1647.6,268.6z M1643.5,266.9l-1.4-1.5v-10l5,5.3L1643.5,266.9z M1639.9,265.4l-1.4,1.5
	l-3.6-6.2l5-5.3V265.4z M1636.6,268l-2.3,0.5l-8.6-5l7.3-1.7L1636.6,268z M1633.3,270.5l0.6,1.9h-7.1l-2.1-6.9L1633.3,270.5z
	 M1617,288.6l5.8-3.3l8.9,2.1l-2.4,4.1L1617,288.6z M1631.3,292.6l2.4-4.2l6.2,6.6v6.7L1631.3,292.6z M1642.1,301.7v-6.6l6.3-6.7
	l2.4,4.1L1642.1,301.7z M1652.7,291.5l-2.4-4.1l8.9-2.1l5.8,3.3L1652.7,291.5z M1665.8,286.5l-5.8-3.3l-2.6-8.5l4.8,0.1
	L1665.8,286.5z M1662.2,272.6l-4.8-0.1l2.6-8.6l5.8-3.3L1662.2,272.6z M1664.8,258.7l-5.8,3.3l-8.9-2.1l2.4-4.1L1664.8,258.7z
	 M1650.7,254.7l-2.4,4.1l-6.2-6.6v-6.7L1650.7,254.7z M1639.9,245.6v6.7l-6.2,6.5l-2.4-4.1L1639.9,245.6z M1629.5,255.8l2.4,4.1
	l-8.9,2.1l-5.8-3.3L1629.5,255.8z M1616.1,260.6l5.8,3.3l2.5,8.4h-4.8L1616.1,260.6z"/>
<path class="elementor-shape-fill ha-shape-divider" d="M2684.6,236L2684.6,236h5l-3.3,3.3c-0.3,0.3-0.3,0.9,0,1.2s0.9,0.3,1.2,0l4.4-4.5h5.9l-3.3,3.3c-0.3,0.3-0.3,0.9,0,1.2
	s0.9,0.3,1.2,0l4.4-4.5h5.8l-3.3,3.3c-0.3,0.3-0.3,0.9,0,1.2s0.9,0.3,1.2,0l4.4-4.5h2.1l-3.2,10.5l-0.9,0.5l-2.6-0.7
	c-0.1,0-0.1,0-0.2,0c-0.4,0-0.7,0.2-0.8,0.6l-0.7,2.6l-0.6,0.3l-4.6-1.3c-0.1,0-0.1,0-0.2,0c-0.4,0-0.7,0.2-0.8,0.6l-1.3,4.6
	l-0.6,0.3l-2.6-0.7c-0.1,0-0.1,0-0.2,0c-0.4,0-0.7,0.2-0.8,0.6l-0.8,2.9l0,0l0,0v0.1c0,0.1,0,0.1,0,0.2c0,0.1,0,0.2,0.1,0.3l0,0l0,0
	c0.1,0.1,0.1,0.2,0.2,0.2c0,0,0.1,0,0.1,0.1l0.1,0.1l3,0.8c0.4,0.1,0.9-0.1,1-0.6l0.7-2.6l0.6-0.3l4.6,1.3c0.4,0.1,0.9-0.1,1-0.6
	l1.3-4.6l0.6-0.3l2.6,0.7c0.4,0.1,0.9-0.1,1-0.6l0.7-2.6l0.7-0.4l10.9,2.6l-0.9,1.6l-6.1,1.7c-0.4,0.1-0.7,0.6-0.6,1
	c0.1,0.4,0.6,0.7,1,0.6l4.5-1.2l-2.9,5.1l-6.1,1.7c-0.4,0.1-0.7,0.6-0.6,1c0.1,0.4,0.6,0.7,1,0.6l4.5-1.2l-2.9,5.1l-6.1,1.7
	c-0.4,0.1-0.7,0.6-0.6,1c0.1,0.4,0.6,0.7,1,0.6l4.5-1.2l-2.5,4.3c-0.2,0.4-0.1,0.9,0.3,1.1c0.4,0.2,0.9,0.1,1.1-0.3l2.5-4.3l1.2,4.5
	c0.1,0.4,0.6,0.7,1,0.6c0.4-0.1,0.7-0.6,0.6-1l-1.7-6.1l2.9-5.1l1.2,4.5c0.1,0.4,0.6,0.7,1,0.6c0.4-0.1,0.7-0.6,0.6-1l-1.7-6.1
	l2.9-5.1l1.2,4.5c0.1,0.4,0.6,0.7,1,0.6c0.4-0.1,0.7-0.6,0.6-1l-1.7-6.1l0.9-1.6l7.5,8v0.9l-1.9,1.9c-0.3,0.3-0.3,0.8,0,1.2l1.9,1.9
	v0.7l-3.4,3.4c-0.3,0.3-0.3,0.8,0,1.2l3.4,3.4v0.7l-1.9,1.9c-0.3,0.3-0.3,0.8,0,1.2l2.2,2.2l0,0l0,0c0,0,0.1,0,0.1,0.1
	c0.1,0,0.1,0.1,0.2,0.1c0.2,0.1,0.4,0.1,0.6,0c0.1,0,0.1-0.1,0.1-0.1s0.1,0,0.1-0.1l0,0l0,0l2.2-2.2c0.3-0.3,0.3-0.8,0-1.2l-1.9-1.9
	v-0.7l3.4-3.4c0.3-0.3,0.3-0.8,0-1.2l-3.4-3.4v-0.7l1.9-1.9c0.3-0.3,0.3-0.8,0-1.2l-1.9-1.9v-0.9l7.6-8.1l0.9,1.6l-1.6,6.1
	c-0.1,0.4,0.1,0.9,0.6,1c0.5,0.1,0.9-0.1,1-0.6l1.2-4.5l2.9,5.1l-1.6,6.1c-0.1,0.4,0.1,0.9,0.6,1s0.9-0.1,1-0.6l1.2-4.5l2.9,5.1
	l-1.6,6.1c-0.1,0.4,0.1,0.9,0.6,1s0.9-0.1,1-0.6l1.2-4.5l2.5,4.3c0.2,0.4,0.7,0.5,1.1,0.3c0.4-0.2,0.5-0.7,0.3-1.1l-2.5-4.3l4.5,1.2
	c0.5,0.1,0.9-0.1,1-0.6c0.1-0.4-0.1-0.9-0.6-1l-6.1-1.6l-2.9-5.1l4.5,1.2c0.4,0.1,0.9-0.1,1-0.6c0.1-0.4-0.1-0.9-0.6-1l-6.1-1.6
	l-2.9-5.1l4.5,1.2c0.4,0.1,0.9-0.1,1-0.6c0.1-0.4-0.1-0.9-0.6-1l-6.1-1.6l-0.9-1.6l10.9-2.6l0.6,0.4l0.7,2.6c0.1,0.4,0.6,0.7,1,0.6
	l2.6-0.7l0.6,0.3l1.3,4.6c0.1,0.4,0.6,0.7,1,0.6l4.6-1.3l0.6,0.3l0.7,2.6c0.1,0.4,0.6,0.7,1,0.6l3-0.8c0.1,0,0.1-0.1,0.2-0.1
	c0,0,0.1,0,0.1-0.1c0.2-0.1,0.3-0.3,0.3-0.6c0-0.1,0-0.1,0-0.2v-0.1l0,0l0,0l-0.8-2.9c-0.1-0.4-0.4-0.6-0.8-0.6c-0.1,0-0.1,0-0.2,0
	l-2.6,0.7l-0.6-0.3l-1.3-4.6c-0.1-0.4-0.4-0.6-0.8-0.6c-0.1,0-0.1,0-0.2,0l-4.6,1.3l-0.6-0.3l-0.7-2.6c-0.1-0.4-0.4-0.6-0.8-0.6
	c-0.1,0-0.1,0-0.2,0l-2.6,0.7l-0.9-0.5l-3.1-10.3h2l4.4,4.5c0.3,0.3,0.9,0.3,1.2,0s0.3-0.9,0-1.2l-3.2-3.3l5.8,0.1l4.4,4.5
	c0.3,0.3,0.9,0.3,1.2,0c0.3-0.3,0.3-0.9,0-1.2l-3.2-3.3l5.8,0.1l4.4,4.5c0.3,0.3,0.9,0.3,1.2,0s0.3-0.9,0-1.2l-3.2-3.3l5,0.1
	c0.5,0.1,0.8-0.4,0.9-0.8c0-0.5-0.4-0.8-0.8-0.9l-5-0.1l3.3-3.2c0.3-0.3,0.3-0.9,0-1.2c-0.2-0.2-0.4-0.3-0.6-0.3s-0.4,0.1-0.6,0.2
	l-4.5,4.4l-5.9-0.1l3.3-3.2c0.3-0.3,0.3-0.9,0-1.2c-0.2-0.2-0.4-0.3-0.6-0.3s-0.4,0.1-0.6,0.2l-4.5,4.4l-5.9-0.1l3.3-3.2
	c0.3-0.3,0.3-0.9,0-1.2c-0.2-0.2-0.4-0.3-0.6-0.3s-0.4,0.1-0.6,0.2l-4.5,4.4h-2.1l3.2-10.6l0.8-0.5l2.6,0.7c0.4,0.1,0.9-0.1,1-0.6
	l0.7-2.6l0.6-0.3l4.6,1.2c0.4,0.1,0.9-0.1,1-0.6l1.3-4.6l0.6-0.3l2.6,0.7c0.4,0.1,0.9-0.1,1-0.6l0.8-2.9l0,0l0,0v-0.1
	c0-0.1,0-0.1,0-0.2c0-0.1,0-0.2-0.1-0.3l0,0l0,0c-0.1-0.1-0.2-0.2-0.3-0.3c0,0-0.1,0-0.1-0.1c0,0-0.1,0-0.1-0.1l-3-0.8
	c-0.1,0-0.1,0-0.2,0c-0.4,0-0.7,0.2-0.8,0.6l-0.7,2.6l-0.6,0.3l-4.6-1.2c-0.1,0-0.1,0-0.2,0c-0.4,0-0.7,0.2-0.8,0.6l-1.2,4.6
	l-0.6,0.3l-2.6-0.7c-0.1,0-0.1,0-0.2,0c-0.4,0-0.7,0.2-0.8,0.6l-0.7,2.6l-0.8,0.4l-10.8-2.6l1.1-1.9l6.1-1.6c0.4-0.1,0.7-0.6,0.6-1
	c-0.1-0.4-0.4-0.6-0.8-0.6c-0.1,0-0.1,0-0.2,0l-4.5,1.2l3-5.1l6.1-1.6c0.4-0.1,0.7-0.6,0.6-1c-0.1-0.4-0.4-0.6-0.8-0.6
	c-0.1,0-0.1,0-0.2,0l-4.5,1.2l3-5.1l6.1-1.6c0.4-0.1,0.7-0.6,0.6-1c-0.1-0.4-0.4-0.6-0.8-0.6c-0.1,0-0.1,0-0.2,0l-4.5,1.2l2.5-4.3
	c0.2-0.4,0.1-0.9-0.3-1.2c-0.1-0.1-0.3-0.1-0.4-0.1c-0.3,0-0.6,0.1-0.7,0.4l-2.5,4.3l-1.2-4.5c-0.1-0.4-0.4-0.6-0.8-0.6
	c-0.1,0-0.1,0-0.2,0c-0.4,0.1-0.7,0.6-0.6,1l1.6,6.1l-3,5l-1.2-4.5c-0.1-0.4-0.4-0.6-0.8-0.6c-0.1,0-0.1,0-0.2,0
	c-0.4,0.1-0.7,0.6-0.6,1l1.6,6.1l-3,5l-1.2-4.5c-0.1-0.4-0.4-0.6-0.8-0.6c-0.1,0-0.1,0-0.2,0c-0.4,0.1-0.7,0.6-0.6,1l1.6,6.1
	l-1.1,1.9l-7.6-8v-0.9l1.9-1.9c0.3-0.3,0.3-0.8,0-1.2l-1.9-1.9v-0.7l3.4-3.4c0.3-0.3,0.3-0.8,0-1.2l-3.4-3.4v-0.7l1.9-1.9
	c0.3-0.3,0.3-0.8,0-1.2l-2.2-2.2l0,0l0,0c0,0-0.1,0-0.1-0.1c-0.1,0-0.1-0.1-0.2-0.1c-0.1,0-0.2-0.1-0.3-0.1s-0.2,0-0.3,0.1
	c-0.1,0-0.1,0.1-0.2,0.1c0,0-0.1,0-0.1,0.1l-2.2,2.2c-0.3,0.3-0.3,0.8,0,1.2l1.9,1.9v0.7l-3.4,3.4c-0.3,0.3-0.3,0.8,0,1.2l3.4,3.4
	v0.7l-1.9,1.9c-0.3,0.3-0.3,0.8,0,1.2l1.9,1.9v0.9l-7.5,8l-1.1-1.9l1.6-6.1c0.1-0.4-0.2-0.9-0.6-1c-0.1,0-0.1,0-0.2,0
	c-0.4,0-0.7,0.2-0.8,0.6l-1.2,4.5l-2.9-5.1l1.6-6.1c0.1-0.4-0.2-0.9-0.6-1c-0.1,0-0.1,0-0.2,0c-0.4,0-0.7,0.2-0.8,0.6l-1.2,4.5
	l-2.9-5.1l1.6-6.1c0.1-0.4-0.2-0.9-0.6-1c-0.1,0-0.1,0-0.2,0c-0.4,0-0.7,0.2-0.8,0.6l-1.2,4.5l-2.5-4.3c-0.2-0.3-0.4-0.4-0.7-0.4
	c-0.1,0-0.3,0-0.4,0.1c-0.4,0.2-0.5,0.7-0.3,1.2l2.5,4.3l-4.5-1.2c-0.1,0-0.1,0-0.2,0c-0.4,0-0.7,0.2-0.8,0.6
	c-0.1,0.4,0.2,0.9,0.6,1l6.1,1.6l3,5.1l-4.5-1.2c-0.1,0-0.1,0-0.2,0c-0.4,0-0.7,0.3-0.8,0.6c-0.1,0.4,0.2,0.9,0.6,1l6.1,1.6l2.9,5.1
	l-4.5-1.2c-0.1,0-0.1,0-0.2,0c-0.4,0-0.7,0.2-0.8,0.6c-0.1,0.4,0.2,0.9,0.6,1l6.1,1.6l1.1,1.9l-10.8,2.6l-0.8-0.4l-0.7-2.6
	c-0.1-0.4-0.4-0.6-0.8-0.6c-0.1,0-0.1,0-0.2,0l-2.6,0.7l-0.6-0.3l-1.2-4.6c-0.1-0.4-0.4-0.6-0.8-0.6c-0.1,0-0.1,0-0.2,0l-4.6,1.2
	l-0.6-0.3l-0.7-2.6c-0.1-0.4-0.4-0.6-0.8-0.6c-0.1,0-0.1,0-0.2,0l-3,0.8c0,0-0.1,0-0.1,0.1c0,0-0.1,0-0.1,0.1
	c-0.1,0.1-0.2,0.2-0.3,0.3l0,0l0,0c-0.1,0.1-0.1,0.2-0.1,0.3s0,0.1,0,0.2v0.1l0,0l0,0l0.8,2.9c0.1,0.4,0.6,0.7,1,0.6l2.6-0.7
	l0.6,0.3l1.2,4.6c0.1,0.4,0.6,0.7,1,0.6l4.6-1.2l0.6,0.3l0.7,2.6c0.1,0.4,0.6,0.7,1,0.6l2.6-0.7l0.8,0.5l3.1,10.4h-2l-4.5-4.4
	c-0.2-0.2-0.4-0.2-0.6-0.2s-0.4,0.1-0.6,0.2c-0.3,0.3-0.3,0.9,0,1.2l3.3,3.3h-5.9l-4.5-4.4c-0.2-0.2-0.4-0.2-0.6-0.2
	s-0.4,0.1-0.6,0.2c-0.3,0.3-0.3,0.9,0,1.2l3.3,3.3h-5.8l-4.5-4.4c-0.2-0.2-0.4-0.2-0.6-0.2s-0.4,0.1-0.6,0.3c-0.3,0.3-0.3,0.9,0,1.2
	l3.3,3.3h-5c-0.5,0-0.8,0.4-0.8,0.8C2683.8,235.6,2684.1,236,2684.6,236z M2712.2,235.8h3.7l-2,6.8l-4.5,2.6L2712.2,235.8z
	 M2723.3,235.8l-0.5,1.8l-6.7,3.8l1.7-5.6H2723.3z M2723.5,239.1l1.6,0.4l-2.7,4.8l-5.7-1.3L2723.5,239.1z M2726.7,240.3l1.2,1.3
	v7.7l-4-4.2L2726.7,240.3z M2729.6,241.6l1.3-1.3l2.8,4.8l-4,4.3v-7.8H2729.6z M2732.3,239.5l1.6-0.4l6.8,3.9l-5.6,1.3L2732.3,239.5
	z M2734.7,237.6l-0.5-1.7l5.6,0.1l1.6,5.5L2734.7,237.6z M2734.3,234.2l0.4-1.5l6.7-3.9l-1.6,5.4H2734.3z M2733.9,231.2l-1.8-0.4
	l2.8-4.8l5.7,1.3L2733.9,231.2z M2730.7,229.9l-1.1-1.2V221l3.9,4.2L2730.7,229.9z M2727.9,228.7l-1.1,1.2l-2.8-4.8l3.9-4.1V228.7z
	 M2725.3,230.8l-1.8,0.4l-6.7-3.9l5.7-1.4L2725.3,230.8z M2722.7,232.7l0.4,1.4h-5.5l-1.6-5.3L2722.7,232.7z M2710.1,246.8l4.5-2.6
	l6.9,1.6l-1.8,3.2L2710.1,246.8z M2721.2,249.9l1.8-3.2l4.8,5.1v5.2L2721.2,249.9z M2729.6,257v-5.2l4.9-5.2l1.9,3.2L2729.6,257z
	 M2737.8,249l-1.8-3.2l6.9-1.6l4.5,2.6L2737.8,249z M2748,245.1l-4.5-2.5l-2-6.6l3.7,0.1L2748,245.1z M2745.2,234.3l-3.7-0.1l2-6.7
	l4.5-2.6L2745.2,234.3z M2747.2,223.5l-4.5,2.6l-6.9-1.6l1.9-3.2L2747.2,223.5z M2736.2,220.4l-1.9,3.2l-4.8-5.1v-5.2L2736.2,220.4z
	 M2727.9,213.3v5.2l-4.8,5.1l-1.9-3.2L2727.9,213.3z M2719.8,221.3l1.9,3.2l-6.9,1.6l-4.5-2.6L2719.8,221.3z M2709.4,225l4.5,2.6
	l2,6.6h-3.7L2709.4,225z"/>
<path class="elementor-shape-fill ha-shape-divider" d="M3423,198c0.1,0.1,0.3,0.1,0.4-0.1c1.4-2.1,2.8-4.1,4.3-5.8c1.6-1.7,3.3-3.2,5.2-4.4c1.9-1.2,3.9-2.1,6-2.9
	c0.5-0.2,1-0.4,1.5-0.6c-0.1,0.6-0.2,1.3-0.3,1.9c-0.1,1.5,0,3,0.3,4.5c0.5,2.3,1.5,4.4,2.8,6.3l0,0c-0.9,0.9-1.6,1.8-2.4,2.9
	c-0.7,1-1.4,2.1-2,3.2c-1.2,2.3-2.1,4.8-2.5,7.4c-0.4,2.6-0.3,5.3,0.3,7.7c0.6,2.5,1.5,4.8,2.7,6.9c0.1,0.1,0.2,0.2,0.3,0.1
	c0.2,0,0.3-0.2,0.3-0.3c-0.2-2.4-0.4-4.7-0.2-7c0.1-2.3,0.5-4.4,1.2-6.4c0.7-2,1.7-3.9,2.8-5.7c0.6-0.9,1.2-1.8,1.8-2.8
	c0.4-0.7,0.9-1.4,1.4-2.1c1.1,1,2.3,1.9,3.5,2.6c2.6,1.6,5.3,2.8,8,3.7c-0.1,0.4,0,0.9,0.2,1.4v0.1c0.6,1.2,1.2,2.4,1.7,3.7
	c0.5,1.2,1,2.5,1.3,3.9s0.5,2.8,0.6,4.2c0.1,1.5,0,3-0.1,4.6c0,0.1,0,0.2,0.1,0.2c0.1,0.1,0.3,0.1,0.4-0.1c1-1.3,1.7-2.8,2.2-4.4
	c0.5-1.6,0.8-3.3,0.8-5s-0.2-3.5-0.8-5.1c-0.2-0.5-0.4-1-0.6-1.5c2.2,0.8,4.4,1.5,6.4,2.4s3.9,2,5.5,3.5c0.8,0.7,1.5,1.5,2.1,2.4
	c0.6,0.9,1.1,1.9,1.4,2.9c0.7,2.1,0.7,4.4-0.2,6.5l0.5,0.3c0.8-1,1.3-2.2,1.6-3.4c0.3-1.3,0.3-2.6,0.2-3.9c-0.2-1.3-0.5-2.6-1.1-3.8
	c-0.5-1.2-1.3-2.3-2.1-3.3c-1.7-2-3.8-3.6-5.9-4.9c-1.1-0.7-2.2-1.2-3.3-1.8c-1.1-0.5-2.2-1-3.3-1.5c-4.4-1.9-8.7-3.7-12.2-6.1
	c-3.4-2.4-6.2-5.7-6.9-9.3c-0.3-1.7-0.2-3.5,0.4-5.3c0.6-1.8,1.7-3.6,2.9-5.3c1.3-1.7,2.8-3.3,4.5-4.8c1.6-1.5,3.4-2.8,5.3-4
	c0.2-0.1,0.3-0.2,0.5-0.3c0.3,0.6,0.6,1.2,0.8,1.9c0.5,1.2,1,2.5,1.3,3.9s0.5,2.8,0.6,4.2c0.1,1.5,0,3-0.1,4.6c0,0.1,0,0.2,0.1,0.2
	c0.1,0.1,0.3,0.1,0.4-0.1c1-1.3,1.7-2.8,2.2-4.4c0.5-1.6,0.8-3.3,0.8-5s-0.2-3.5-0.8-5.1c-0.3-0.9-0.7-1.7-1.1-2.5
	c0.4-0.2,0.8-0.4,1.2-0.6c2-0.9,4.2-1.6,6.6-2.5c1.2-0.5,2.4-1,3.5-1.6c1.2-0.6,2.4-1.3,3.5-2.2c0.8-0.6,1.6-1.4,2.3-2.2
	c1.9,0.2,3.5,0.2,3.5,0.2c0.6,0.4,1.2,0.8,1.7,1.1c0.4,1.5,1,2.8,1.7,4.1c0.5,0.8,1,1.5,1.6,2.3c-0.3,1.3-0.5,2.6-0.9,3.9
	c-0.4,1.4-0.9,2.8-1.5,4.2c-0.6,1.4-1.3,2.8-2.2,4.1c-0.9,1.3-1.9,2.6-3,3.9c-0.1,0.1-0.1,0.2-0.1,0.3s0.2,0.2,0.3,0.2
	c1.6-0.6,3.2-1.4,4.6-2.5c1.4-1.1,2.7-2.4,3.8-3.8c1.1-1.5,2-3.1,2.6-4.8c0.2-0.5,0.3-0.9,0.4-1.4c1.2,0.9,2.5,1.7,3.7,2.5
	c1.3,0.8,2.5,1.5,3.8,2.1c0.1,2.5,0.2,5,0.2,7.5c0,2.6-0.2,5.2-0.7,7.7l-0.4,1.9c-0.2,0.6-0.3,1.3-0.5,1.9c-0.2,0.6-0.4,1.2-0.6,1.9
	c-0.2,0.6-0.4,1.2-0.7,1.8c-1,2.5-2.3,4.8-3.8,7.2c-0.1,0.1-0.1,0.2,0,0.3c0.1,0.1,0.3,0.1,0.4,0c2.2-1.8,4.2-3.8,5.8-6.2
	c1.7-2.4,3-5,4-7.8s1.5-5.7,1.7-8.6c0.1-1.6,0.1-3.2-0.1-4.8c3.2,1.8,6.3,3.6,9.2,5.5c0,0,0,0,0,0.1c0.3,2,0.6,3.9,0.7,5.8
	c0.1,1.9,0.1,3.8-0.1,5.7c-0.3,1.9-0.8,3.8-1.5,5.6s-1.7,3.6-2.8,5.4c0,0.1,0,0.2,0,0.2c0.1,0.1,0.2,0.1,0.3,0
	c1.7-1.3,3.1-2.9,4.4-4.7c1.2-1.8,2.3-3.8,2.9-5.9c0.7-2.1,1-4.4,0.9-6.6c0-0.8-0.1-1.6-0.2-2.3c0.1,0.1,0.3,0.2,0.4,0.3
	c2.3,1.8,4.5,3.9,6.4,6.1c0,1.8,0.2,3.5,0.1,5.2c0,1.7-0.1,3.5-0.3,5.2c-0.3,1.7-0.6,3.5-1.2,5.2c-0.5,1.7-1.2,3.5-2,5.2
	c0,0.1,0,0.2,0,0.3c0.1,0.1,0.2,0.1,0.3,0c1.4-1.3,2.7-2.8,3.7-4.5c1.1-1.7,2-3.5,2.6-5.4c0.5-1.6,0.9-3.3,1.1-4.9
	c0.7,1.3,1.3,2.6,1.8,4c1.2,3.3,1.7,6.8,1.5,10.3c-0.1,1.8-0.4,3.5-0.9,5.2s-1.2,3.4-2.2,4.9l0.4,0.3c1.3-1.4,2.3-3,3.1-4.7
	s1.4-3.6,1.7-5.5c0.7-3.8,0.6-7.8-0.4-11.6s-2.7-7.4-4.8-10.7c-2.2-3.3-4.7-6.2-7.5-8.9c-1.4-1.3-2.8-2.5-4.2-3.7
	c0.9,0,1.8-0.1,2.7,0c1.7,0,3.4,0.2,5.1,0.6c1.7,0.3,3.4,0.8,5.2,1.4c0.1,0,0.2,0,0.3-0.1c0.1-0.1,0.1-0.3,0-0.4
	c-1.3-1.4-2.8-2.6-4.5-3.5c-1.7-1-3.5-1.7-5.4-2.2c-1.9-0.5-3.9-0.8-5.9-0.7c-0.5,0-1,0.1-1.5,0.1c-0.5,0.1-1,0.1-1.5,0.2
	c-0.2,0-0.4,0.1-0.6,0.1c-2.6-1.8-5.3-3.6-7.9-5.3c-1.5-1-3.1-2-4.5-3c-1.4-1-2.7-2-3.8-3.1c-0.4-0.4-0.7-0.8-1.1-1.1
	c4.2-0.2,7.9-1,11,1.2c-1.3-9.6-11.6-10.8-11.6-10.8c0.8-2.7,5.3-5,11-4.9c5.7,0.2,6-2.9,6-2.9c1.9-8-3.2-8.2-3.2-8.2
	c-1.1-3.9-4.9-2.6-4.9-2.6c-4.2,1.2-11,2.1-12.3-3.4c-0.3-1.5-0.2-3,0-4.5c0.9-5.7,3.1-9.3,9.2-9.4c5.5,0,11,1.5,16.5,1.2
	c11.3-0.6,24.4-1.9,34.5-0.5c6.8,0.9,13.6,2,20.4,3.3c15.3,2.9,24.5-1.6,29.7-6.6c3.1-0.5,7-4.9,8.5-7c2.7-3.5,4.3-7.9,4.4-12.3
	c0.1-5.3-1.8-10.3-3.7-15.2c-0.2-0.4-0.7-0.4-0.9-0.1c-0.6,0.9-1.5,2.2-2.8,4.8c-0.5,1-1,1.9-1.5,2.9c-6.6-11.1-19.4-13.4-6.2-32.1
	c1.5-2.1,1.9-4.8,0.9-7.2c-3.9-10-5.9-23.7-6.8-31.1c-0.4-3.5-1.6-6.8-3.6-9.8l-0.9-1.4c-4.2-3.3-12.5-1-12.5-1l8.2,7.8
	c1.3,1.2,2.3,2.7,2.8,4.4c4.6,13.5,3.6,31,3.6,31s-14.4-24.1-18.2-32C3572,9.3,3563,11,3563,11l4.8,4.1c1.2,1,2.2,2.2,2.9,3.6
	l10.5,20.4c1.7,3.3,1.9,7.2,0.6,10.6l-8.7,22.4c-12-13.7-44.7-7.4-44.7-7.4c1.3-7.4-4.2-25.8-4.2-25.8l2-29.1c0.1-1.4-0.1-2.7-0.6-4
	l-0.5-1.3c-1-2.6-3.5-4.3-6.3-4.4l-5.1-0.1l3.6,4.9c1.2,1.7,1.9,3.8,1.9,5.9l-0.1,19.7l-2.8,6c-0.6,1.2-0.9,2.5-1,3.9
	c-1.3,14.2-4.5,19-4.5,19c-3.3,2.6-6.6,5.4-9.8,8.2c-4-1.8-8.9-3.6-14.7-5.3l-16.5-11.6c0,0-11.4-23.7-8.7-32l1.4-1.8
	c1.2-1.5,1-3.7-0.3-5l-5.4-5.3c0,0-1.2,3.9,0,10.7c0,0-2.7,18.4,6.5,34.6c6.1,10.8,16.1,21.7,23.8,28.5c-3.1,2.9-6.2,5.8-8.7,9.3
	c-2.1,3-3.7,6.3-4.8,9.8c-1.2,4-1.6,8.3-2.3,12.5c-1.2,6.8-2,13.8-1.2,20.7c0.4,3.7,1,7.5,2.3,11c0.7,7.8-3.4,1.7-13.2,6
	c-9.8,4.2-6.6,11-6.6,11c7.4-3.1,16.6,1.4,21.8-6.3c0.2,0.7,0.6,1.2,1.1,1.7c-0.8,0.6-1.6,1-2.6,1.4s-2,0.8-3.1,1.2
	c-2.1,0.7-4.5,1.4-6.9,2.3c-2.4,1-4.7,2.1-6.8,3.4c-2.2,1.3-4.2,2.8-6.2,4.5c-1,0.8-1.9,1.7-2.8,2.6c-0.9,0.9-1.8,1.9-2.6,2.9
	c-0.7,0.9-1.3,1.8-1.9,2.8c-0.9,0.2-1.8,0.4-2.7,0.7c-1.2,0.4-2.5,0.8-3.7,1.4c-2.4,1.1-4.7,2.6-6.7,4.4c-2,1.9-3.6,4.1-4.8,6.4
	c-1.2,2.3-1.9,4.8-2.3,7.3C3422.8,197.8,3422.9,197.9,3423,198z"/>
<path class="elementor-shape-fill ha-shape-divider" d="M446.7,225.8c0.4,1.8,2.2,2.8,4,2.3l8.4-2.4c-11.5,5.9,0.2,22.6,0.2,22.6c-6.6,0.6-10.5,3.4-12.5,5.6
	c-0.9,1-0.3,2.6,1.1,2.6c3.5,0.1,8.7,1.1,11.4,3.6c1.1,1,2.3,1.4,3.4,1.5c-1.2,1.2-2.1,2.7-1.8,4.5l1.6-0.3c-0.4-2,2.1-3.8,3.7-4.7
	c0.6,1.1,1.7,3.4,2.7,6.3c-1,1.9-3.2,5-4.8,5.2l0.2,1.6c2.1-0.3,4.1-2.9,5.2-4.6c0.5,2.2,0.8,4.7,0.6,7.2c-0.6-0.2-1.6-0.5-2.8-0.3
	c-1.2,0.1-2.7,0.7-4.3,1.9l1,1.3c3.3-2.6,5.6-1.4,5.8-1.2c-0.6,3.3-2.2,6.4-5.5,9l1,1.3c5.1-4,6.6-9.3,6.5-14.3l0,0
	c0.3-0.1,1.8-0.6,2.6,1.1l1.5-0.7c-0.9-2-2.5-2.3-3.8-2.2c-0.2,0-0.3,0.1-0.4,0.1c-0.5-5.3-2.6-9.9-3.7-12.1
	c6.4,0.1,11.3,3.3,14.6,9.4c-0.9,0.7-4.7,3.9-3.2,8l1.6-0.6c-1-2.7,1.5-5.1,2.5-5.9c2.6,5.6,3.1,11.4,3.1,11.4l1.7-0.1
	c0-0.2-0.9-11.5-7.6-18.5c0.3-0.3,2.2-2.4,5-0.6l0.9-1.4c-1.4-0.9-2.7-1.1-3.8-1c-1.5,0.2-2.7,1-3.4,1.8c-1.6-1.4-3.5-2.5-5.7-3.3
	l2.1,0.1c0.4,0,0.6-0.5,0.3-0.7c-1.4-1.3-4.3-4-6.7-6.4c-3.4-3.3-3.1-15.9-3.1-15.9c16.3-0.1,52.6-12.8,52.6-12.8
	c0-1.1-0.1-2.1-0.3-3c8-2.9,14.6-9.8,21.1-14.9c0.5-0.4,1-0.7,1.4-1.1c1.5-0.2,3.1-0.3,4.6-0.4c4.8-0.2,9.6,0,14.4,0.5
	c1.2,5.6,4.8,10.7,4.8,10.7c-6.6,0.6-10.5,3.4-12.5,5.6c-0.9,1-0.3,2.6,1.1,2.6c3.5,0.1,8.7,1.1,11.4,3.6c1.1,1,2.3,1.4,3.4,1.5
	c-1.2,1.2-2.1,2.7-1.8,4.5l1.6-0.3c-0.3-2,2.1-3.8,3.7-4.7c0.6,1.1,1.7,3.4,2.7,6.3c-1,1.9-3.2,5-4.8,5.2l0.2,1.6
	c2.1-0.3,4.1-2.9,5.2-4.6c0.5,2.2,0.8,4.7,0.6,7.2c-0.6-0.2-1.6-0.5-2.8-0.3c-1.2,0.1-2.7,0.7-4.3,1.9l1,1.3
	c3.3-2.6,5.6-1.4,5.8-1.2c-0.6,3.3-2.2,6.4-5.5,9l1,1.3c5.1-4,6.6-9.3,6.5-14.3l0,0c0.3-0.1,1.8-0.6,2.6,1.1l1.5-0.7
	c-0.9-2-2.5-2.3-3.8-2.2c-0.2,0-0.3,0.1-0.4,0.1c-0.5-5.3-2.6-9.9-3.7-12.1c6.4,0.1,11.3,3.3,14.6,9.4c-0.9,0.7-4.7,3.9-3.2,8
	l1.6-0.6c-1-2.7,1.5-5.1,2.5-5.9c2.6,5.6,3.1,11.4,3.1,11.4l1.7-0.1c0-0.2-0.9-11.5-7.6-18.5c0.3-0.3,2.2-2.4,5-0.6l0.9-1.4
	c-1.4-0.9-2.7-1.1-3.8-1c-1.5,0.2-2.7,1-3.4,1.8c-1.6-1.4-3.5-2.5-5.7-3.3l2.1,0.1c0.4,0,0.6-0.5,0.3-0.7c-1.4-1.3-4.3-4-6.7-6.4
	c-2.5-2.5-3-10.3-3.1-14c3.3,0.5,6.7,0.9,10,1.3c11.8,1.3,23.4,0.1,35.1-1.9c1.7-0.3,3.4-0.6,5.1-0.9c13.3,0.6,26.5,0.4,39.8-0.5
	c-2.1,7.2,4.9,17.2,4.9,17.2c-6.6,0.6-10.5,3.4-12.5,5.6c-0.9,1-0.3,2.6,1.1,2.6c3.5,0.1,8.7,1.1,11.4,3.6c1.1,1,2.3,1.4,3.4,1.5
	c-1.2,1.2-2.1,2.7-1.8,4.5l1.6-0.3c-0.4-2,2.1-3.8,3.7-4.7c0.6,1.1,1.7,3.4,2.7,6.3c-1,1.9-3.2,5-4.8,5.2l0.2,1.6
	c2.1-0.3,4.1-2.9,5.2-4.6c0.5,2.2,0.8,4.7,0.6,7.1c-0.6-0.2-1.6-0.5-2.8-0.3c-1.2,0.1-2.7,0.7-4.3,1.9l1,1.3
	c3.2-2.6,5.5-1.4,5.8-1.2c-0.6,3.3-2.2,6.4-5.5,9l1,1.3c5.1-4,6.6-9.3,6.5-14.3l0,0c0.3-0.1,1.8-0.6,2.6,1.1l1.5-0.7
	c-0.9-2-2.5-2.3-3.8-2.2c-0.2,0-0.3,0.1-0.4,0.1c-0.5-5.3-2.6-9.9-3.7-12.1c6.4,0.1,11.3,3.3,14.6,9.4c-0.9,0.7-4.7,3.9-3.2,8
	l1.6-0.6c-1-2.7,1.5-5.1,2.5-5.9c2.6,5.6,3.1,11.4,3.1,11.4l1.7-0.1c0-0.2-0.9-11.5-7.6-18.5c0.3-0.3,2.2-2.4,5-0.6l0.9-1.4
	c-1.4-0.9-2.7-1.1-3.8-1c-1.5,0.2-2.7,1-3.4,1.8c-1.6-1.4-3.5-2.5-5.7-3.3l2.1,0.1c0.4,0,0.6-0.5,0.3-0.7c-1.4-1.3-4.3-4-6.7-6.4
	c-3.4-3.3-3.1-15.9-3.1-15.9c5.4,0,12.9-1.5,20.6-3.3c10.1,2.5,20.1,5.4,30.6,6.1c11,0.8,22.1-0.2,32.9-2.3c4.5-0.9,9-1.9,13.5-3.1
	c5.5-0.5,11.1-1.3,16.6-2.4c1.8-0.4,3.5-0.7,5.2-1.1c14.7,1.9,29.5,1.9,43.4-4.1c1,1.8,3.7,3.1,7-1.3c2.4-3.3,7.6-3.5,11.7-3.1
	c1.3,2.7,3.9,7,8,7.7c0,0,0.7,5.2,2,6.2s10.5,9.5,15.4,7.2s9.8-8.2,8.8-10.2s-7.2,2.6-7.2,2.6s2.6-6.6-0.7-9.8c0,0,1.1-4.9-1.7-8.5
	c0.3-2.5,0-5,0-5c0.6-0.3,0.9-1.1,1.1-2.3c7.1,7.4,16.4,13.9,26.2,12.5c16.8-2.5,15-15.5,6.9-19.5c-5-2.5-8.9-6.7-10.7-12
	c-3.1-9-9-20.2-18.6-19.7c-1.8,0.1-4,0.3-6.6,0.5l7.9-9.8l17.9-2.2l-0.3-2.7l-19.4,2.4l-0.2-0.2l-0.2,0.2l-35.4,4.3l-0.3-0.1
	l-0.2,0.2l-48.8,6c-9.6,1.2-16.5,10-15.3,19.6c0.7,5.5,3.9,10.4,8.7,13.1l0.2,0.1l1.4-2.4l-0.2-0.1c-4-2.3-6.8-6.4-7.3-11
	c-1-8.1,4.8-15.5,12.9-16.5l11.7-1.4l10.1,7.1c-4.3,0.5-6.9,0.9-6.9,0.9c-8.7,1.1-14.7,9.2-13.1,17.9c1.4,7.4,8.1,12.7,15.6,12.4
	c5.7-0.3,10.4-3.6,12.8-8.2l0.5,0.7c0,0,0.5-1.6,1.8-3.8c2,2.6,4.9,5.6,8.1,8.5c-3.2,1.2-6.3,3.6-8.5,5.7c-0.1-0.1-0.3-0.1-0.4-0.1
	c-14.8,5.5-29.7,11.4-44.7,16.3c-6.3-1-12.6-2.3-18.7-3.6c-11.4-2.3-22.9-4.4-34.5-4.3c-2.4,0-4.8,0.2-7.2,0.3
	c-0.6-3.1-2-5.5-3.8-7.3h0.7c-0.9-4,4-6.6,8.7-12.2c3.3-3.9-0.2-15.1-2.6-21.7c-0.4-1.1-2-0.8-2,0.3l-0.1,13.5
	c0,0.8-0.5,1.6-1.3,1.9c-2.2,0.9-4,1.9-5.7,2.9c0.1-3.3-1.4-8-2.5-11c-0.2-0.7-1.2-0.5-1.3,0.2l-0.1,8.6c0,0.5-0.3,1-0.8,1.2
	c-8.2,3.5-10.2,7.7-10.7,9.9c-15.4-1.7-27.1,2.2-34.8,6.4c-0.2-2.7,0.2-6.2,2.2-9.3c0.2-0.3,0.2-0.8-0.1-1.1l-0.9-0.8
	c-0.4-0.3-1-0.3-1.3,0.1c-1.4,2.1-5.1,7.9-3.8,13.4c-1.1,0.7-2,1.4-2.8,2c-0.4,0-0.7-0.1-1.1-0.1c-1.3-0.1-2.6-0.2-3.9-0.3
	c-0.6-6,1.1-13.3,2.5-18.2c0.4-1.4-1.4-2.3-2.3-1.1c-4.5,6.2-5.5,13.3-5.2,19.1c-9.5-0.5-19.1-0.6-28.6-0.4c-0.3-4.1-1.9-7-4.1-9.1
	h0.7c-0.9-4,4-6.6,8.7-12.2c3.3-3.9-0.2-15.1-2.6-21.7c-0.4-1.1-2-0.8-2,0.3l-0.1,13.5c0,0.8-0.5,1.6-1.3,1.9
	c-2.2,0.9-4,1.9-5.7,2.9c0.1-3.3-1.4-8-2.5-11c-0.2-0.7-1.2-0.5-1.3,0.2l-0.1,8.6c0,0.5-0.3,1-0.8,1.2c-8.2,3.5-10.2,7.7-10.7,9.9
	c-15.4-1.7-27.1,2.2-34.8,6.4c-0.2-2.7,0.2-6.2,2.2-9.3c0.2-0.3,0.2-0.8-0.1-1.1l-0.9-0.8c-0.4-0.3-1-0.3-1.3,0.1
	c-1.4,2.1-5.1,7.9-3.8,13.4c-4.6,3-7,5.6-7,5.6c-2.2-6.4-0.1-16.1,1.7-22.2c0.4-1.4-1.4-2.3-2.3-1.1c-7,9.7-5.4,21.4-4,26.9
	c0.4,1.8,2.2,2.8,4,2.3l8.4-2.4c-0.9,0.5-1.7,1-2.3,1.6c-0.1,0-0.2,0-0.3,0.1c-4.2,0.8-8.4,1.9-12.5,3.1c-0.4,0-0.7,0-1.1,0
	c-7.7-0.1-15.6,0.4-23.3,1.6c1.2-4.9-1.6-13.9-3.6-19.5c-0.4-1.1-2-0.8-2,0.4l-0.1,13.5c0,0.8-0.5,1.6-1.3,1.9
	c-2.2,0.9-4,1.9-5.7,2.9c0.1-3.3-1.4-8-2.5-11c-0.3-0.7-1.2-0.5-1.3,0.2l-0.1,8.6c0,0.5-0.3,1-0.8,1.2c-8.2,3.5-10.2,7.7-10.7,9.9
	c-15.4-1.7-27.1,2.2-34.8,6.4c-0.2-2.7,0.2-6.2,2.2-9.3c0.2-0.3,0.2-0.8-0.1-1.1l-0.9-0.8c-0.4-0.3-1-0.3-1.3,0.1
	c-1.4,2.1-5.1,7.9-3.8,13.4c-4.6,3-7,5.6-7,5.6c-2.2-6.4-0.1-16.1,1.7-22.2c0.4-1.4-1.4-2.3-2.3-1.1
	C443.7,208.6,445.3,220.3,446.7,225.8z M621.5,204.5c-0.5,0-1,0-1.5-0.1c-9.6-0.5-19.2-1.5-28.8-2.6c5.9-1.4,11.9-3.1,17.2-4.7
	c5.3,1,10.6,2.1,15.9,3.1c3.8,0.7,7.6,1.3,11.5,1.7c-3.5,0.6-6.9,1.2-10.4,1.9C624,204.1,622.8,204.3,621.5,204.5z M559.8,198.8
	c-2.1-0.1-4.2-0.2-6.4-0.3c1.7-0.4,3.4-0.4,5.2-0.5c0.5,0,1-0.1,1.5-0.1C560.1,198.1,559.9,198.4,559.8,198.8z M560.8,196.8
	c-0.7,0-1.5,0.1-2.2,0.1c0.8-0.2,1.7-0.4,2.5-0.5C561,196.5,560.9,196.7,560.8,196.8z M547.3,199.9c-1,0.6-2,1.2-3,1.8
	c-1.3,0.9-2.6,1.8-3.8,2.7c-2.6,0.3-5.2,0.7-7.7,1.3c-1.9,0.5-3.7,1-5.4,1.7C533.8,204.6,540.5,202,547.3,199.9z M519.7,219.8
	c-0.5,0.3-1.1,0.5-1.6,0.7c-0.6-2.4-1.8-4.2-3.2-5.8c4-2.4,8-4.6,12.4-6.2c3.8-1.4,7.8-2.3,11.8-2.9
	C532.8,210.6,526.9,216.3,519.7,219.8z M552.1,204c-3.3-0.1-6.6,0-9.8,0.3c2.7-2,5.5-3.8,8.6-5c2.9,0.1,5.8,0.2,8.8,0.4
	c-0.3,1.6-0.3,3.2,0,4.9C557.1,204.3,554.6,204.1,552.1,204z M587.7,207.8c-5.5-0.3-10.9-1.1-16.3-1.8c0-0.6,0-1,0-1
	c4.5,0,10.6-1.1,17.1-2.5c9.5,1.1,18.8,2.2,27.7,2.7c0.5,0,0.9,0,1.4,0.1C607.6,207,597.7,208.4,587.7,207.8z M625.9,204.7
	c4.4-0.8,8.8-1.6,13.2-2.3c5.9,0.6,11.9,0.8,18,0.9c1.7,0,3.3,0.1,5,0.1c-0.1,0.2-0.2,0.4-0.3,0.6
	C649.8,204.8,637.9,205.1,625.9,204.7z M719,200.3c2.1,0.6,4.2,1.1,6.3,1.6c11.5,2.7,23.2,4.6,35.1,5c4,0.2,8,0.1,12-0.1
	c-0.8,0.2-1.6,0.4-2.4,0.6c-7.9,0.7-15.9,0.6-23.8-0.5c-9.7-1.4-19.3-3.8-28.8-6.1C717.9,200.6,718.5,200.4,719,200.3z M653.7,199.7
	c0.5,1.7,2.2,2.7,3.9,2.2l8.4-2.4c-1.6,0.8-2.7,1.8-3.5,2.9c-0.4,0-0.9,0-1.3,0c-6.3-0.1-12.5-0.2-18.7-0.7c3.5-0.6,7-1.3,10.5-1.9
	C653.3,199.8,653.5,199.7,653.7,199.7z M763.1,209.1c-11.3,2.6-23,4.2-34.6,3.8c-11.3-0.4-22-3.1-32.9-5.9c7.2-1.8,14.5-4,20-5.7
	c8.3,1.9,16.5,3.9,24.8,5.5c8.4,1.6,16.7,2.1,25.1,1.7C764.7,208.8,763.9,209,763.1,209.1z M777,206.5c1-0.1,2-0.2,3-0.3
	c-1.4,0.2-2.7,0.4-4.1,0.6C776.3,206.7,776.6,206.6,777,206.5z M781.6,205.1c1.4-0.4,2.9-0.9,4.3-1.4c0.7,0.1,1.5,0.2,2.2,0.4
	C785.9,204.4,783.8,204.8,781.6,205.1z M795,204.1c5-1.2,9.9-2.5,14.9-3.8c0.8-0.2,1.6-0.4,2.5-0.7c7.8-1.7,15.7-2.8,23.7-1.8
	c-0.3,0.4-0.5,0.8-0.6,1c-0.1,0.3-0.1,0.6,0,0.9C822.6,205.3,808.8,205.6,795,204.1z M836.4,150.4l11.7-8.9l16.5,5.6
	C855.6,148.1,845.4,149.3,836.4,150.4z M880.7,136.7l-7.8,9.7c-0.1,0-0.3,0-0.4,0l-18.7-6.4L880.7,136.7z M815.4,144.7l27.6-3.4
	l-13,9.9c-1.6,0.2-3.1,0.4-4.5,0.5L815.4,144.7z M834.8,191.2c2.7-3.6,8.7-3.5,13-2.9c0.2,0.1,0.3,0.3,0.5,0.4
	c-4.7,1.5-9.3,5.7-11.5,8.3c-5.2-0.7-10.5-0.5-15.6,0.2c2.9-0.9,5.8-1.9,8.7-3.1C831.1,194.4,832.8,193.8,834.8,191.2z M829.7,187.7
	c-1.3,1.4-2.1,2.5-2.3,3c-0.2,0.8,0.3,2.1,1.3,2.8c-5.3,2.1-10.9,3.7-16.5,5.2c-2.4,0.5-4.9,1.1-7.3,1.7c-4.7,1.2-9.4,2.2-14.1,3.2
	c-1-0.1-2.1-0.3-3.1-0.5C801.9,198.4,815.8,192.9,829.7,187.7z M726.2,196.1c12.4-0.9,24.6,0.9,36.7,3.2c6.8,1.3,13.9,2.8,21,4
	c-2.5,0.8-4.9,1.6-7.4,2.3c-2.2,0.2-4.5,0.4-6.8,0.4c-12.3,0.3-24.6-1.1-36.6-3.5c-4.1-0.8-8.1-1.8-12.2-2.9c3-1,4.8-1.6,4.8-1.6
	c0-0.7-0.1-1.3-0.1-1.9C725.7,196.1,725.9,196.1,726.2,196.1z M661.4,193.2c-2.1,1.7-3.1,2.8-3.1,2.8c-0.3-1-0.6-2-0.7-3.1
	C658.8,193,660.1,193.1,661.4,193.2z M652.6,192.6c0.2,2.4,0.5,4.5,0.9,6.2c-4.8,0.9-9.7,1.7-14.5,2.6c-3.9-0.3-7.7-0.8-11.6-1.5
	c-5.7-1-11.4-2.2-17.1-3.3c7.9-2.4,13.7-4.4,13.7-4.4l0,0C633.5,192,643,192.1,652.6,192.6z M546.4,199.2
	c-10.8,3.3-21.3,7.8-31.2,13.3c0.7-3.1,4.7-5.7,8.7-10.4c0.3-0.4,0.6-0.9,0.8-1.4C531.8,199.6,539.1,199.2,546.4,199.2z"/>
<path class="elementor-shape-fill ha-shape-divider" d="M1055.5,0L1013,0c1.9,2,3.7,3.8,5.4,5.7c-2.2,0.2-4.6,0.5-7.1,0.8c3.5,3.2,6.5,6.2,9.2,9.3c-1.2,0.1-2.4,0.2-3.7,0.4
	c3.6,2.9,6.5,5.7,9.2,8.6c-2.1,0.2-4.4,0.4-6.8,0.7c6.8,6.2,10.9,11.5,15.4,20.1c4.6-8.9,8.7-14.9,15.4-20.1
	c-2.5-0.3-4.9-0.5-7.1-0.7c2.7-3.2,5.7-6,9.4-8.6c-1.4-0.2-2.8-0.3-4.2-0.4c2.8-3.3,6-6.3,9.6-9.2c-2.6-0.3-5.1-0.6-7.5-0.8
	C1051.8,3.7,1053.6,1.9,1055.5,0z"/>
<path class="elementor-shape-fill ha-shape-divider" d="M1139.9,9.6c-2.4-0.3-4.7-0.5-6.9-0.7c2.6-3.1,5.4-6,8.4-8.9l-62.3,0c3,3,5.8,6,8.4,8.9c-2,0.2-4,0.4-6.2,0.6
	c5.9,4.8,10.8,9.4,15.2,14.3c-3.5,0.3-7.3,0.7-11.3,1.1c11.3,10.2,18.1,19,25.5,33.4c7.6-14.8,14.4-24.6,25.5-33.4
	c-4.2-0.5-8.1-0.9-11.7-1.2C1128.8,18.5,1133.8,13.9,1139.9,9.6z"/>
<path class="elementor-shape-fill ha-shape-divider" d="M1263.7,5.2c-5.8-0.7-11.3-1.3-16.6-1.8c1-1.1,1.9-2.2,2.9-3.4l-75.8,0c1,1.2,2.1,2.4,3.1,3.5c-4.9,0.5-10.1,1-15.5,1.7
	c7.6,6.9,14.3,13.5,20.3,20.4c-2.6,0.2-5.4,0.5-8.2,0.8c7.9,6.4,14.4,12.5,20.1,19c-4.7,0.4-9.6,0.9-15,1.5
	c14.9,13.6,24.1,25.3,33.8,44.3c10.2-19.6,19.1-32.7,33.8-44.3c-5.6-0.7-10.7-1.2-15.6-1.6c6-7.1,12.6-13.2,20.7-18.9
	c-3.2-0.3-6.2-0.6-9.1-0.9C1248.8,18.1,1255.7,11.5,1263.7,5.2z"/>
<path class="elementor-shape-fill ha-shape-divider" d="M1352.7,11.1c-3.4-0.4-6.6-0.8-9.8-1.1c3.3-3.4,6.8-6.7,10.6-10l-93.8,0c3.6,3.5,7,6.8,10.2,10.1c-2.9,0.3-5.8,0.6-8.8,1
	c6.6,6,12.4,11.7,17.6,17.5c-3.9,0.4-8,0.8-12.4,1.3c6.1,5.5,11.4,10.8,16.1,16.2c-2.1,0.2-4.3,0.4-6.5,0.7
	c6.3,5.1,11.4,9.9,16,15.1c-3.7,0.3-7.7,0.7-12,1.2c11.9,10.8,19.2,20.1,26.9,35.3c8.1-15.6,15.2-26.1,26.9-35.3
	c-4.5-0.5-8.5-1-12.4-1.3c4.7-5.6,10-10.5,16.5-15.1c-2.5-0.3-4.9-0.5-7.3-0.7c5-5.8,10.5-11.1,16.9-16.1c-4.6-0.6-9-1-13.2-1.4
	C1339.7,22.3,1345.7,16.6,1352.7,11.1z"/>
<path class="elementor-shape-fill ha-shape-divider" d="M1465.7,16.3c-4.1-0.5-8.1-0.9-12-1.3c5-5.2,10.4-10.1,16.3-15l-120.8,0c5.5,5.2,10.7,10.2,15.4,15.1
	c-3.5,0.4-7.1,0.8-10.8,1.2c8.1,7.3,15.1,14.2,21.5,21.4c-4.8,0.5-9.8,1-15.1,1.6c7.4,6.7,13.9,13.2,19.7,19.8
	c-2.6,0.2-5.2,0.5-8,0.8c7.7,6.3,14,12.1,19.6,18.5c-4.6,0.4-9.4,0.8-14.6,1.5c14.5,13.2,23.4,24.6,32.9,43.1
	c9.9-19,18.6-31.8,32.9-43.1c-5.4-0.7-10.4-1.2-15.2-1.5c5.8-6.9,12.2-12.8,20.1-18.4c-3.1-0.3-6-0.6-8.9-0.9
	c6.1-7.1,12.8-13.6,20.6-19.7c-5.7-0.7-11-1.3-16.1-1.7C1449.9,30,1457.2,23,1465.7,16.3z"/>
<path class="elementor-shape-fill ha-shape-divider" d="M1637.3,15.6c-6.3-0.8-12.3-1.4-18.2-2c4.5-4.6,9.1-9.1,14-13.6L1470,0c4.8,4.7,9.3,9.2,13.7,13.8
	c-5.3,0.5-10.7,1.1-16.4,1.8c12.3,11,22.9,21.6,32.7,32.5c-7.3,0.7-14.9,1.5-23,2.5c11.3,10.2,21.1,20,29.9,30.1
	c-3.9,0.4-7.9,0.8-12.1,1.2c11.7,9.5,21.2,18.4,29.8,28.1c-6.9,0.6-14.3,1.3-22.2,2.2c22.1,20,35.6,37.3,50,65.5
	c15-28.9,28.2-48.4,50-65.5c-8.3-1-15.8-1.8-23-2.3c8.8-10.4,18.6-19.5,30.6-28c-4.7-0.5-9.2-1-13.5-1.4
	c9.2-10.8,19.4-20.6,31.3-29.9c-8.6-1-16.7-1.9-24.5-2.6C1613.2,36.3,1624.4,25.7,1637.3,15.6z"/>
<path class="elementor-shape-fill ha-shape-divider" d="M1871.5,22.1c-8.8-1.1-17.2-2-25.4-2.8c6.4-6.6,13-13,20-19.3l-228.4,0c6.8,6.6,13.3,13.1,19.5,19.6
	c-7.4,0.8-15,1.6-22.9,2.5c17.1,15.4,32,30.1,45.6,45.3c-10.2,1-20.8,2.1-32,3.4c15.7,14.3,29.4,27.9,41.7,42
	c-5.4,0.5-11.1,1.1-16.9,1.7c16.2,13.3,29.6,25.7,41.5,39.2c-9.7,0.8-19.9,1.8-31,3.1c30.8,27.9,49.6,52.1,69.7,91.3
	c20.9-40.4,39.4-67.4,69.7-91.3c-11.5-1.4-22.1-2.5-32.1-3.2c12.3-14.5,25.9-27.2,42.6-39c-6.5-0.7-12.8-1.3-18.8-1.9
	c12.9-15,27.1-28.7,43.7-41.8c-12-1.5-23.3-2.7-34.2-3.7C1837.9,51,1853.4,36.2,1871.5,22.1z"/>
<path class="elementor-shape-fill ha-shape-divider" d="M2208.1,52c-11.9-1.4-23.4-2.7-34.5-3.9c16.3-16.8,33.9-32.7,53.3-48.1l-360.5,0c18.1,16.5,34.7,32.5,50,48.5
	c-10.1,1-20.4,2.2-31.1,3.4c23.3,21,43.6,41,62,61.6c-13.9,1.3-28.3,2.9-43.6,4.7c21.4,19.4,40,38,56.8,57.1
	c-7.4,0.7-15.1,1.4-23,2.3c22.1,18,40.3,35,56.5,53.3c-13.2,1-27.1,2.4-42.2,4.2c41.9,38,67.5,70.9,94.9,124.3
	c28.5-54.9,53.6-91.8,94.9-124.3c-15.7-1.9-30-3.4-43.7-4.4c16.7-19.8,35.2-37,58-53.1c-8.9-1-17.4-1.8-25.6-2.6
	c17.6-20.5,36.9-39.1,59.4-56.8c-16.3-2-31.7-3.6-46.5-5C2162.4,91.3,2183.5,71.2,2208.1,52z"/>
<path class="elementor-shape-fill ha-shape-divider" d="M2487.5,32.1c-9.1-1.1-17.9-2.1-26.4-3c9.8-10.1,20.1-19.7,31.3-29.1l-257.7,0c10.6,9.9,20.6,19.6,29.9,29.4
	c-7.7,0.8-15.6,1.7-23.8,2.6c17.8,16,33.3,31.3,47.4,47.1c-10.6,1-21.6,2.2-33.3,3.6c16.4,14.8,30.5,29,43.4,43.6
	c-5.7,0.5-11.5,1.1-17.6,1.8c16.9,13.8,30.8,26.7,43.2,40.7c-10.1,0.8-20.7,1.9-32.2,3.2c32,29.1,51.6,54.1,72.5,94.9
	c21.8-42,41-70.1,72.5-94.9c-12-1.4-22.9-2.6-33.4-3.4c12.8-15.1,26.9-28.3,44.3-40.6c-6.8-0.7-13.3-1.4-19.6-2
	c13.4-15.6,28.2-29.9,45.4-43.4c-12.5-1.5-24.2-2.8-35.5-3.8C2452.6,62.2,2468.8,46.8,2487.5,32.1z"/>
<path class="elementor-shape-fill ha-shape-divider" d="M2694.9,15.6c-6.3-0.8-12.3-1.4-18.2-2c4.5-4.6,9.1-9.1,14-13.6l-163.1,0c4.8,4.7,9.3,9.2,13.7,13.8
	c-5.3,0.5-10.7,1.1-16.4,1.8c12.3,11,23,21.6,32.7,32.5c-7.3,0.7-14.9,1.5-23,2.5c11.3,10.2,21.1,20,29.9,30.1
	c-3.9,0.4-7.9,0.8-12.1,1.2c11.6,9.5,21.2,18.4,29.8,28.1c-6.9,0.6-14.3,1.3-22.2,2.2c22.1,20,35.6,37.3,50,65.5
	c15-28.9,28.2-48.4,50-65.5c-8.3-1-15.8-1.8-23-2.3c8.8-10.4,18.6-19.5,30.6-28c-4.7-0.5-9.2-1-13.5-1.4
	c9.2-10.8,19.4-20.6,31.3-29.9c-8.6-1-16.7-1.9-24.5-2.6C2670.9,36.3,2682,25.7,2694.9,15.6z"/>
<path class="elementor-shape-fill ha-shape-divider" d="M2842.6,18.2c-4.1-0.5-8.1-0.9-12-1.3c5.7-5.9,11.8-11.4,18.6-16.9L2724,0c6.3,5.8,12.1,11.4,17.4,17
	c-3.5,0.4-7.1,0.8-10.8,1.2c8.1,7.3,15.1,14.2,21.5,21.4c-4.8,0.5-9.8,1-15.1,1.6c7.4,6.7,13.9,13.2,19.7,19.8
	c-2.6,0.2-5.2,0.5-8,0.8c7.7,6.3,14,12.1,19.6,18.5c-4.6,0.4-9.4,0.8-14.6,1.5c14.5,13.2,23.4,24.6,32.9,43.1
	c9.9-19,18.6-31.8,32.9-43.1c-5.4-0.7-10.4-1.2-15.2-1.5c5.8-6.9,12.2-12.8,20.1-18.4c-3.1-0.3-6-0.6-8.9-0.9
	c6.1-7.1,12.8-13.6,20.6-19.7c-5.7-0.7-11-1.3-16.1-1.7C2826.7,31.8,2834.1,24.8,2842.6,18.2z"/>
<path class="elementor-shape-fill ha-shape-divider" d="M2973.9,14.1c-3.4-0.4-6.6-0.8-9.8-1.1c4.4-4.5,9.1-8.8,14.3-13l-100.7,0c4.8,4.5,9.3,8.8,13.4,13.2c-2.9,0.3-5.8,0.6-8.8,1
	c6.6,6,12.4,11.7,17.6,17.5c-3.9,0.4-8,0.8-12.4,1.3c6.1,5.5,11.4,10.8,16.1,16.2c-2.1,0.2-4.3,0.4-6.5,0.7
	c6.3,5.1,11.4,9.9,16,15.1c-3.7,0.3-7.7,0.7-12,1.2c11.9,10.8,19.2,20.1,26.9,35.3c8.1-15.6,15.2-26.1,26.9-35.3
	c-4.5-0.5-8.5-1-12.4-1.3c4.7-5.6,10-10.5,16.5-15.1c-2.5-0.3-4.9-0.5-7.3-0.7c5-5.8,10.5-11.1,16.9-16.1c-4.6-0.6-9-1-13.2-1.4
	C2961,25.3,2967,19.6,2973.9,14.1z"/>
<path class="elementor-shape-fill ha-shape-divider" d="M3078.1,9.6c-2.4-0.3-4.7-0.5-6.9-0.7c2.6-3.1,5.4-6,8.4-8.9l-62.3,0c3,3,5.8,6,8.4,8.9c-2,0.2-4,0.4-6.2,0.6
	c5.9,4.8,10.8,9.4,15.2,14.3c-3.5,0.3-7.3,0.7-11.3,1.1c11.3,10.2,18.1,19,25.5,33.4c7.6-14.8,14.4-24.6,25.5-33.4
	c-4.2-0.5-8.1-0.9-11.7-1.2C3067,18.5,3072,13.9,3078.1,9.6z"/>
<path class="elementor-shape-fill ha-shape-divider" d="M3145.4,0l-46.2,0c2.3,2.3,4.4,4.5,6.4,6.7c-2.4,0.2-4.8,0.5-7.4,0.8c3.6,3.3,6.8,6.5,9.7,9.7c-1.3,0.1-2.6,0.2-3.9,0.4
	c3.8,3.1,6.9,6,9.6,9.1c-2.2,0.2-4.6,0.4-7.2,0.7c7.1,6.5,11.5,12.1,16.1,21.1c4.8-9.3,9.1-15.6,16.1-21.1c-2.7-0.3-5.1-0.6-7.4-0.8
	c2.8-3.4,6-6.3,9.9-9c-1.5-0.2-3-0.3-4.4-0.4c3-3.5,6.3-6.7,10.1-9.7c-2.8-0.3-5.4-0.6-7.9-0.9C3140.9,4.4,3143,2.2,3145.4,0z"/>
</svg>
