<svg version="1.1" id="Layer_1" xmlns="http://www.w3.org/2000/svg" xmlns:xlink="http://www.w3.org/1999/xlink" x="0px" y="0px"
	 width="844.8px" height="272.4px" viewBox="0 0 844.8 272.4" enable-background="new 0 0 844.8 272.4" xml:space="preserve" preserveAspectRatio="none">
<path class="elementor-shape-fill ha-shape-divider" opacity="0.15" fill="#FFFFFF" enable-background="new    " d="M6.6,152.6c3.6,0,6.6,3,6.6,6.6V228c0,3.6,3,6.6,6.6,6.6
	s6.6-3,6.6-6.6v-13.1c0-3.6,3-6.6,6.6-6.6s6.6,3,6.6,6.6v50.9c0,3.6,3,6.6,6.6,6.6c3.6,0,6.6-3,6.6-6.6v-69.5c0-3.6,3-6.6,6.6-6.6
	s6.6,3,6.6,6.6v29.8c0,3.6,3,6.6,6.6,6.6s6.6-3,6.6-6.6v-29.8c0-3.6,3-6.6,6.6-6.6s6.6,3,6.6,6.6v67.9c0,3.6,3,6.6,6.6,6.6
	s6.6-3,6.6-6.6V252c0-3.6,3-6.6,6.6-6.6s6.6,3,6.6,6.6v7.5c0,3.6,3,6.6,6.6,6.6s6.6-3,6.6-6.6v-14.3c0-3.6,3-6.6,6.6-6.6
	s6.6,3,6.6,6.6v14.3c0,3.6,3,6.6,6.6,6.6s6.6-3,6.6-6.6v-47c0-3.6,3-6.6,6.6-6.6s6.6,3,6.6,6.6v47c0,3.6,3,6.6,6.6,6.6
	s6.6-3,6.6-6.6V142.6c0-3.6,3-6.6,6.6-6.6s6.6,3,6.6,6.6v47.1c0,3.6,3,6.6,6.6,6.6s6.6-3,6.6-6.6v-14c0-3.6,3-6.6,6.6-6.6
	s6.6,3,6.6,6.6v76.7c0,3.6,3,6.6,6.6,6.6s6.6-3,6.6-6.6v-69.6c0-3.6,3-6.6,6.6-6.6s6.6,3,6.6,6.6v11.4c0,3.6,3,6.6,6.6,6.6
	s6.6-3,6.6-6.6v-68.3c0-3.6,3-6.6,6.6-6.6s6.6,3,6.6,6.6v30.8c0,3.6,3,6.6,6.6,6.6s6.6-3,6.6-6.6v-27.2c0-3.6,3-6.6,6.6-6.6
	s6.6,3,6.6,6.6v66c0,3.6,3,6.6,6.6,6.6s6.6-3,6.6-6.6v-49.4c0-3.6,3-6.6,6.6-6.6s6.6,3,6.6,6.6v12.4c0,3.6,3,6.6,6.6,6.6
	s6.6-3,6.6-6.6V89.4c0-3.6,3-6.6,6.6-6.6s6.6,3,6.6,6.6v12.4c0,3.6,3,6.6,6.6,6.6s6.6-3,6.6-6.6v-5c0-3.6,3-6.6,6.6-6.6
	s6.6,3,6.6,6.6v65.8c0,3.6,3,6.6,6.6,6.6s6.6-3,6.6-6.6v-32.9c0-3.6,3-6.6,6.6-6.6s6.6,3,6.6,6.6v74.2c0,3.6,3,6.6,6.6,6.6
	s6.6-3,6.6-6.6v-15c0-3.6,3-6.6,6.6-6.6s6.6,3,6.6,6.6v75.5c0,3.6,3,6.6,6.6,6.6s6.6-3,6.6-6.6v-69.1c0-3.6,3-6.6,6.6-6.6
	s6.6,3,6.6,6.6v12.3c0,3.6,3,6.6,6.6,6.6s6.6-3,6.6-6.6v-68.2c0-3.6,3-6.6,6.6-6.6s6.6,3,6.6,6.6v31.8c0,3.6,3,6.6,6.6,6.6
	s6.6-3,6.6-6.6v-28.3c0-3.6,3-6.6,6.6-6.6s6.6,3,6.6,6.6v66c0,3.6,3,6.6,6.6,6.6c3.6,0,6.6-3,6.6-6.6v-50.3c0-3.6,3-6.6,6.6-6.6
	c3.6,0,6.6,3,6.6,6.6v12.5c0,3.6,3,6.6,6.6,6.6c3.6,0,6.6-3,6.6-6.6v-68.7c0-3.6,3-6.6,6.6-6.6c3.6,0,6.6,3,6.6,6.6v12
	c0,3.6,3,6.6,6.6,6.6c3.6,0,6.6-3,6.6-6.6v-6l0,0c0.3-3.3,3.2-6,6.6-6c3.6,0,6.6,3,6.6,6.6v67.6c0,3.6,3,6.6,6.6,6.6
	c3.6,0,6.6-3,6.6-6.6v-33.8c0-3.6,3-6.6,6.6-6.6c3.6,0,6.6,3,6.6,6.6v88.9c0,3.6,3,6.6,6.6,6.6c3.6,0,6.6-3,6.6-6.6v-65.8
	c0-3.6,3-6.6,6.6-6.6c3.6,0,6.6,3,6.6,6.6v5.3c0,3.6,3,6.6,6.6,6.6c3.6,0,6.6-3,6.6-6.6v-12c0-3.6,3-6.6,6.6-6.6
	c3.6,0,6.6,3,6.6,6.6V228c0,3.6,3,6.6,6.6,6.6c3.6,0,6.6-3,6.6-6.6v-13.1c0-3.6,3-6.6,6.6-6.6c3.6,0,6.6,3,6.6,6.6v50.9
	c0,3.6,3,6.6,6.6,6.6c3.6,0,6.6-3,6.6-6.6v-69.5c0-3.6,3-6.6,6.6-6.6c3.6,0,6.6,3,6.6,6.6v29.8c0,3.6,3,6.6,6.6,6.6
	c3.6,0,6.6-3,6.6-6.6v-29.8c0-3.6,3-6.6,6.6-6.6s6.6,3,6.6,6.6v67.9c0,3.6,3,6.6,6.6,6.6c3.6,0,6.6-3,6.6-6.6V252
	c0-3.6,3-6.6,6.6-6.6c3.6,0,6.6,3,6.6,6.6v7.5c0,3.6,3,6.6,6.6,6.6c3.6,0,6.6-3,6.6-6.6v-14.3c0-3.6,3-6.6,6.6-6.6
	c3.6,0,6.6,3,6.6,6.6v14.3c0,3.6,3,6.6,6.6,6.6s6.6-3,6.6-6.6v-47c0-3.6,3-6.6,6.6-6.6c3.6,0,6.6,3,6.6,6.6v47c0,3.6,3,6.6,6.6,6.6
	c3.6,0,6.6-3,6.6-6.6V2H0l0,157.2C0,155.5,2.9,152.6,6.6,152.6z"/>
<g>
	<circle fill="#FFFFFF" cx="231" cy="210.7" r="6.6"/>
	<circle fill="#FFFFFF" cx="442.2" cy="223.9" r="6.6"/>
	<circle fill="#FFFFFF" cx="706.2" cy="223.9" r="6.6"/>
	<circle fill="#FFFFFF" cx="811.8" cy="217.3" r="6.6"/>
	<circle fill="#FFFFFF" cx="600.6" cy="135.4" r="6.6"/>
	<circle fill="#FFFFFF" cx="46.2" cy="223.9" r="6.6"/>
	<circle fill="#FFFFFF" cx="151.8" cy="217.3" r="6.6"/>
	<path class="elementor-shape-fill ha-shape-divider" fill="#FFFFFF" d="M6.6,91.6c3.6,0,6.6,3,6.6,6.6V167c0,3.6,3,6.6,6.6,6.6s6.6-3,6.6-6.6v-13.1c0-3.6,3-6.6,6.6-6.6
		s6.6,3,6.6,6.6v51c0,3.6,3,6.6,6.6,6.6s6.6-3,6.6-6.6v-69.5c0-3.6,3-6.6,6.6-6.6s6.6,3,6.6,6.6v29.8c0,3.6,3,6.6,6.6,6.6
		s6.6-3,6.6-6.6v-29.8c0-3.6,3-6.6,6.6-6.6s6.6,3,6.6,6.6v67.9c0,3.6,3,6.6,6.6,6.6s6.6-3,6.6-6.6v-12.2c0-3.6,3-6.6,6.6-6.6
		s6.6,3,6.6,6.6v7.5c0,3.6,3,6.6,6.6,6.6s6.6-3,6.6-6.6v-14.3c0-3.6,3-6.6,6.6-6.6s6.6,3,6.6,6.6v14.3c0,3.6,3,6.6,6.6,6.6
		s6.6-3,6.6-6.6v-47c0-3.6,3-6.6,6.6-6.6s6.6,3,6.6,6.6v47c0,3.6,3,6.6,6.6,6.6s6.6-3,6.6-6.6V81.7c0-3.6,3-6.6,6.6-6.6
		s6.6,3,6.6,6.6v47.2c0,3.6,3,6.6,6.6,6.6s6.6-3,6.6-6.6v-14c0-3.6,3-6.6,6.6-6.6s6.6,3,6.6,6.6v76.5c0,3.6,3,6.6,6.6,6.6
		s6.6-3,6.6-6.6v-69.6c0-3.6,3-6.6,6.6-6.6s6.6,3,6.6,6.6v11.5c0,3.6,3,6.6,6.6,6.6s6.6-3,6.6-6.6V65c0-3.6,3-6.6,6.6-6.6
		s6.6,3,6.6,6.6v30.8c0,3.6,3,6.6,6.6,6.6s6.6-3,6.6-6.6V68.6c0-3.6,3-6.6,6.6-6.6s6.6,3,6.6,6.6v66c0,3.6,3,6.6,6.6,6.6
		s6.6-3,6.6-6.6V85.2c0-3.6,3-6.6,6.6-6.6s6.6,3,6.6,6.6v12.4c0,3.6,3,6.6,6.6,6.6s6.6-3,6.6-6.6V28.4c0-3.6,3-6.6,6.6-6.6
		s6.6,3,6.6,6.6v12.4c0,3.6,3,6.6,6.6,6.6s6.6-3,6.6-6.6v-5c0-3.6,3-6.6,6.6-6.6s6.6,3,6.6,6.6v65.8c0,3.6,3,6.6,6.6,6.6
		s6.6-3,6.6-6.6V68.7c0-3.6,3-6.6,6.6-6.6s6.6,3,6.6,6.6v74.2c0,3.6,3,6.6,6.6,6.6s6.6-3,6.6-6.6v-15c0-3.6,3-6.6,6.6-6.6
		s6.6,3,6.6,6.6v75.6c0,3.6,3,6.6,6.6,6.6s6.6-3,6.6-6.6v-69.1c0-3.6,3-6.6,6.6-6.6s6.6,3,6.6,6.6v12.3c0,3.6,3,6.6,6.6,6.6
		s6.6-3,6.6-6.6V78.5c0-3.6,3-6.6,6.6-6.6s6.6,3,6.6,6.6v31.8c0,3.6,3,6.6,6.6,6.6s6.6-3,6.6-6.6V82c0-3.6,3-6.6,6.6-6.6
		s6.6,3,6.6,6.6v66.1c0,3.6,3,6.6,6.6,6.6c3.6,0,6.6-3,6.6-6.6V97.8c0-3.6,3-6.6,6.6-6.6c3.6,0,6.6,3,6.6,6.6v12.5
		c0,3.6,3,6.6,6.6,6.6c3.6,0,6.6-3,6.6-6.6V41.5c0-3.6,3-6.6,6.6-6.6c3.6,0,6.6,3,6.6,6.6v12c0,3.6,3,6.6,6.6,6.6
		c3.6,0,6.6-3,6.6-6.6v-6l0,0c0.3-3.3,3.2-6,6.6-6c3.6,0,6.6,3,6.6,6.6v67.5c0,3.6,3,6.6,6.6,6.6c3.6,0,6.6-3,6.6-6.6V81.8
		c0-3.6,3-6.6,6.6-6.6c3.6,0,6.6,3,6.6,6.6v88.9c0,3.6,3,6.6,6.6,6.6c3.6,0,6.6-3,6.6-6.6v-65.8c0-3.6,3-6.6,6.6-6.6
		c3.6,0,6.6,3,6.6,6.6v5.3c0,3.6,3,6.6,6.6,6.6c3.6,0,6.6-3,6.6-6.6v-12c0-3.6,3-6.6,6.6-6.6c3.6,0,6.6,3,6.6,6.6V167
		c0,3.6,3,6.6,6.6,6.6c3.6,0,6.6-3,6.6-6.6v-13.1c0-3.6,3-6.6,6.6-6.6c3.6,0,6.6,3,6.6,6.6v51c0,3.6,3,6.6,6.6,6.6
		c3.6,0,6.6-3,6.6-6.6v-69.5c0-3.6,3-6.6,6.6-6.6c3.6,0,6.6,3,6.6,6.6v29.8c0,3.6,3,6.6,6.6,6.6c3.6,0,6.6-3,6.6-6.6l0-29.8
		c0-3.6,3-6.6,6.6-6.6c3.6,0,6.6,3,6.6,6.6v67.9c0,3.6,3,6.6,6.6,6.6c3.6,0,6.6-3,6.6-6.6v-12.2c0-3.6,3-6.6,6.6-6.6
		c3.6,0,6.6,3,6.6,6.6v7.5c0,3.6,3,6.6,6.6,6.6c3.6,0,6.6-3,6.6-6.6v-14.3c0-3.6,3-6.6,6.6-6.6s6.6,3,6.6,6.6v14.3
		c0,3.6,3,6.6,6.6,6.6c3.6,0,6.6-3,6.6-6.6v-47c0-3.6,3-6.6,6.6-6.6c3.6,0,6.6,3,6.6,6.6v47c0,3.6,3,6.6,6.6,6.6
		c3.6,0,6.6-3,6.6-6.6V0L0,0l0,98.3C0,94.6,2.9,91.6,6.6,91.6z M798.6,158.6c3.6,0,6.6,3,6.6,6.6c0,3.6-3,6.6-6.6,6.6
		c-3.6,0-6.6-3-6.6-6.6C792,161.5,795,158.6,798.6,158.6z M745.8,105.8c3.6,0,6.6,3,6.6,6.6s-3,6.6-6.6,6.6s-6.6-3-6.6-6.6
		S742.2,105.8,745.8,105.8z M561,11.6c3.6,0,6.6,3,6.6,6.6s-3,6.6-6.6,6.6c-3.6,0-6.6-3-6.6-6.6S557.3,11.6,561,11.6z M429,103.6
		c3.6,0,6.6,3,6.6,6.6s-3,6.6-6.6,6.6s-6.6-3-6.6-6.6S425.3,103.6,429,103.6z M323.4,56.3c3.6,0,6.6,3,6.6,6.6s-3,6.6-6.6,6.6
		s-6.6-3-6.6-6.6S319.7,56.3,323.4,56.3z M217.8,89.9c3.6,0,6.6,3,6.6,6.6s-3,6.6-6.6,6.6s-6.6-3-6.6-6.6S214.1,89.9,217.8,89.9z
		 M138.6,158.6c3.6,0,6.6,3,6.6,6.6c0,3.6-3,6.6-6.6,6.6s-6.6-3-6.6-6.6C132,161.5,134.9,158.6,138.6,158.6z M85.8,105.8
		c3.6,0,6.6,3,6.6,6.6s-3,6.6-6.6,6.6s-6.6-3-6.6-6.6S82.1,105.8,85.8,105.8z"/>
</g>
</svg>
