<svg xmlns="http://www.w3.org/2000/svg" viewBox="0 0 844.6 104.4" preserveAspectRatio="none">
<path class="elementor-shape-fill ha-shape-divider" fill="#FFFFFF" d="M0,10.9c0,15.3,12,27.9,27.3,28.8c16.2,0.9,35,1.7,42.4,1.3c14.2-0.8,30-4.2,32.6,0.1s1.1,11.1,3.1,11.7
	c2.7,0.8,3-2.1,3-5.7s1.6-4.9,3.1-4.5c1.6,0.4,5.1,2.3,4.9,11.4s-1.2,36.4-0.9,37.9c0.3,1.6,1.2,2.3,2.5,2.2c1.3-0.1,2.2-1,1.9-3.8
	c-0.3-2.7-0.4-28,0-33.1s0.6-13,6.7-17.4c6.1-4.4,10.8-2.7,10.4,3.4c-0.4,6.1-1.1,9-0.1,10.1s3.6,0.8,3.4-2.9s-1.2-11.3,1.8-13.1
	c3-1.8,9-1.8,13.2-1.4c4.3,0.4,24.4,0.4,28.4,0.5s12.6,1.4,21.2,6c8.6,4.5,23.1,9.6,34.8,9s18.8-2.9,23.4-5.6
	c4.5-2.7,14.7-3.5,15.8,3c1.2,6.5,0.6,12.7,0.6,12.7s0.3,2.3,1.7,2.3s2.7-0.4,2.6-3c-0.1-2.6-0.6-15.7,3.2-14.9
	c3.9,0.8,8.6,3.2,9.3,12.1s0,33.2,0,33.2s-0.4,5.5,3.1,5.5s2.9-5.8,2.9-5.8l-1-32.1c0,0,0.1-12.8,10.5-12.8s11.8,13.9,11.5,20.5
	s0,26.1,0,26.1s-0.5,3.8,2.3,3.4c2.9-0.4,3-1.9,2.7-6.4s-2-26,0.1-28.2s9.5-1.6,11.3-4.6s8.4-6.2,13.1-2.6c4.7,3.6,4.5,4.8,4.5,5.8
	s0,4.7,0,4.7s0.3,1.4,1.9,1.4s1.9-0.6,1.9-2.9s1-10.1,5.5-10.1s5.2,5.6,5,9.2c-0.1,3.2-1.6,27.2-1.9,32.5c-0.1,1.6,1,3,2.5,3.2
	c0.1,0,0.3,0,0.4,0c2.3,0,3-2.1,2.5-7.1c-0.5-5.1,0.2-35.6,0.2-35.6s1-1.4,4.6-1.2c3.6,0.3,9,3.9,8.8,10.5c-0.1,5.2-1.2,22.6-1.2,30
	c0,1.8,1.6,3.1,3.3,2.9l0,0c1.5-0.2,2.5-1.4,2.5-2.9V63.4c0,0,0-5.3,4.3-9.7s11.4-7.4,12.2-2.7c0.4,2.2,0.5,4.2,0.5,5.7
	c0,1.4,1.2,2.5,2.6,2.4l0,0c1.4-0.1,2.4-1.3,2.4-2.6c-0.1-1.8-0.2-4.1,0.2-5c0.6-1.6,2.9-4.9,7.1-5.5c4.3-0.5,4.3,3.9,4.3,8.6V92
	c0,1.6,1.4,2.8,2.9,2.6l0,0c1.4-0.1,2.4-1.3,2.4-2.6L431,52.2c0,0-0.2-15.2,9.6-16s16.5,2.3,29.1,3c12.6,0.6,27.3,1.9,37.7,0.5
	c10.4-1.4,17.1-3.6,24.9-0.6s13.2,6.4,20.5,5.6c7.3-0.8,11.3-4,16.4-1.9c5.1,2.1,5.5,5.6,11.3,4.7c5.8-0.9,10.1-1.7,11.9,2.3
	c1.1,2.3,1.2,5,1.2,6.9c0,1.2,1,2.2,2.2,2.2l0,0c1.1,0,2.1-1,2.1-2.1v-3.9c0-1.9,1.6-3.5,3.5-3.4l0,0c1.6,0,2.9,1.1,3.2,2.6l0.1,0.6
	c0.9,3.9,1.3,7.8,1.1,11.8l-1,34.4c0,1.2,1,2.2,2.2,2.2l0,0c1.2,0,2.2-1,2.2-2.2V58c0,0-0.3-6.9,6.4-11.3c6.7-4.4,10.4-2.2,10.4,1.7
	v9.1c0,0.7,0.6,1.3,1.3,1.3l0,0c0.7,0,1.3-0.6,1.3-1.3v-9.1c0,0-0.1-6,7.8-6c7.9,0,13.2,2.1,23.1,0.9c9.9-1.2,20.9-1,29.6,3.2
	c8.7,4.3,23.2,12.7,41,12.7s37.8-15.3,37.8-3.3v11.3c0,1.4,1.1,2.5,2.5,2.5l0,0c1.4,0,2.5-1.1,2.5-2.5v-9.3c0,0-0.4-4.8,4.2-4.8
	c4.5,0,10,3.4,10,14.4l-1,34.1c0.3,1.6,1.5,2.8,3,2.8l0,0c1.5,0,2.8-1.2,2.8-2.8l-0.5-42.8c0-2.2,2.1-4.7,4.2-5.2
	c11.9-2.3,49-12.3,49-46.6V0L0,0L0,10.9z"/>
</svg>
