<svg xmlns="http://www.w3.org/2000/svg" viewBox="0 0 844.8 183.7" preserveAspectRatio="none">
<path class="elementor-shape-fill ha-shape-divider" opacity="0.2" fill="#FFFFFF" enable-background="new    " d="M845.4,84.4c0,0-3.7-4.1-12.9-4.1c-9.2,0-28.8,21.3-5.4,77.4
	c0,0-20.6-8.7-24.4-38.7c0,0-8.2,6.6-8,20.2c0,0-7.7-11.6-1.8-28s3.6-32.6-9-32.6s-19.3,6.9-19,21.6s-2.8,24.1-13.6,29.3
	c0,0,17.4-26.1,0.6-41.5c-9.4-8.6-30.9,7.6-13.5,28.7c0,0-14.4-5.4-11.6-23.4c2.8-18-7.2-18.5-12.3-18.5c-5.1,0-15.2,8.2-9,23.4
	c6.2,15.2,8.7,19,6.7,28.5c0,0-3.4-12.6-8.6-15.2c0,0,4,19.8-9.1,29.3c5.4-11.8,9.2-31.6-5.1-32.4c-14.4-0.8-12.1,21.3-10.8,25.7
	c1.3,4.4,11.4,28.3-1,40.3c0,0,4.6-18.2-7.8-32.1c0,0-0.5,12.3-12.1,15.4c0,0,10.5-18.5,5.7-33.1c-4.9-14.6-23.1-22.6-18.8-4.4
	c0,0-9.5-7.5-7.2-21.6c2.3-14.1-2.1-18.8-9.2-18.8c-7.1,0-8.5,8.7-8.5,18.2c0,10.1-5.5,17.7-11.3,19.3c0,0,8.5-10.5,6.7-23.1
	c-1.8-12.6-14.9-10.5-18.5-5.9c-3.6,4.6-7.7,16.7-1.5,29.3c6.2,12.6,13.1,25.2,6.9,44.4c0,0-0.5-22.9-14.6-33.1
	c0,0,17.2,39.6-11.6,54.7c0,0,3.9-14.4-4.4-21.6c-8.2-7.2-15.9-12.1-15.4-29c0,0-6.4,7.2-5.9,13.9c0,0-6.2-9.5,0-24.7
	s7-22.6,4.7-28.5c-2.3-5.9-8-8.2-14.1-8.2c-6.1,0-12.3,10.5-6.7,21.6c0,0-10-8.7-7.7-24.4c0,0-6.7,4.1-4.9,16.7
	c0,0-5.7-5.7-4.4-18.2c1.3-12.6-25.2-7.7-22.6,11.8s-5.7,26.2-5.7,26.2s6.2-18-6.4-20.6s-15.9,13.9-11.3,25.2s15.7,29,2.8,46.2
	c0,0,5.9-19.8-2.3-32.6s-26.7-3.6-18.8,14.4c0,0-11.3-8.1-5.1-18.7s12.3-19.4,12.3-29.4s-4.1-15.2-9.2-15.2
	c-5.5,0-15.9,7.5-5.4,25.2c0,0-11.6-5.9-12.6-16.7s-5.5-13.9-11.3-13.9c-6.3,0-11,10.8-9,23.1s-1,23.6-7.5,28c0,0,7.2-16.2,2.1-25.9
	s-13.9-9.5-14.4,1.5s14.4,31.6,3.3,45.2c-11.1,13.6-27,21.8-27,21.8s12.3-13.1,5.1-23.4s-10.8-14.9-6.9-31.6s-1.3-27.7-9.5-27.7
	s-9.5,14.1-8.5,18.2c0,0-4.6-7.2-2.8-16.4s-2.8-16.2-12.6-16.2c-9.8,0-14.6,14.1-11,25.7s20.6,35.2,1.8,58.3c0,0,6.7-24.1-0.8-36.5
	s-17.5-4.9-13.6,7.7c0,0-6.2-7.7-3.6-18.2s2.8-42.7-18.2-42.7s-20.3,33.1-15.7,43.7c4.6,10.5,15.5,31.9-2.7,54.2
	c0,0,13-35.5-7.9-36.5c-20.8-1-4.1,27.7-4.1,27.7s-15.9-11.8-9.5-29.8s12.3-39.6,0.3-40.3c-12.1-0.8-8.7,21.1-4.4,25.9
	c0,0-10-4.6-10-18.2c0-12.4-4.4-21.6-15.7-21.6s-26.2,22.6-8.7,42.4c0,0-22.1-10.3-16.7-40.1c0,0-14.6-1-11.6,28.3
	c3.1,29.3,2.1,39.8-9,49.3c0,0,10.3-20.8-2.6-33.9c0,0,6.2,37-27.5,49.6c0,0,5.7-10.5,0-20.3s-8.2-12.3-7.2-29c0,0-5.1,6.2-4.6,14.9
	c0,0-5.7-10.5-1.8-28.3s-8.4-19.8-14.9-18c-6.6,1.9-12.6,13.9-6.9,25.2c0,0-9.5-6.2-10.3-18c0,0-16.2,8.5-7.7,32.6
	c0,0-17-9.8-13.4-24.9c3.6-15.2,13.2-16.8,11-32.1c-2.4-17-34.2-8.5-29.3,12.1s2.6,30.3-2.8,38.3c0,0,5.7-18.5-6.2-30.1
	c0,0,2.3,14.4-4.1,19.8c0,0,4.6-19.3-9.5-18.8s-10,33.9,0,48.8c0,0-16.4-13.9-20.3-33.7S4.5,86.7,0,84.2L0,0.7l845.4,0V84.4z"/>
<path class="elementor-shape-fill ha-shape-divider" opacity="0.5" fill="#FFFFFF" enable-background="new    " d="M0.6,55.4c0,0,12.2,6.5,14,18.5S9.9,95.5,20.1,106
	c0,0-3.9-20.1,11.5-25.3s19.6,9.9,19.6,9.9s-5-22.7,7.6-33.1c12.5-10.4,34.4-13,34.7,10.7c8.1-11.7,13.6-6.3,12.8,3.1
	s-7.4,9.1-7.8,22.2c0,0,13.3-9.4,26.3-8.9s20.9,16.9,21.9,29.2s2.6,18.5,5.2,23.5c2.6,5,2.1,15.4-1.3,22.4c0,0,8.6-8.1,6.8-24.2
	c-1.8-16.2,2.9-21.6,8.9-22.2c6-0.5,9.9,5.7,9.9,5.7s-0.5-9.7-2.1-14.3c-1.6-4.5-4.4-23.6,7.3-32.7s23.9-3.9,19.3,15.4
	c10.2-10.4,8-23.4,19.8-26.3c9.9-2.4,21.6,4.4,21.6,13.8s-4.5,7.4-2.6,21.9c5.2-12.5,11.6-13.5,16.7-9.4c7,5.7-1,28.4,13.8,38.3
	c0,0-12.5-31.3,0-50.3s33.1-13.8,38.8-3.4s-1.3,16.7,7,30.2c0,0-4.7-29.5,15.6-32.6c20.3-3,20.3,16.8,20,21c0,0,5-7.6,14.3-4.7
	c9.4,2.9,11.7,13,10.9,20.6s-1.9,24.4,2.9,33.4c5.9,11.1,1.6,23.7,1.6,23.7s13.8-10.4,8.9-29.2c-5-18.8-9.1-37.3,1.1-42.1
	c10.1-4.8,15.9-0.1,17.2,3.8c1.3-6.8-2.9-23.2,7.8-27.6c8.2-3.4,16.3-1.1,18.5,7.8c2,8,3.7,10.2,6.3,12.8c0,0-5-20.3,8.9-25.5
	c13.8-5.2,20.3,5.2,19.3,15.6s-4.4,21.9-4.4,21.9s8.1-7.6,9.9-17.2s16.4-9.1,17.5,1.3c0.3-13.3,7.5-26.2,22.2-24.8
	c16.2,1.6,21.6,13.8,21.6,13.8s7.3-7.8,17.7-1.8c10.4,6,9.1,19,8.1,25.3c-1,6.3-5,24.5,2.1,32.3c7,7.8,13.8,12.8,14.9,29.5
	c0,0,3.6-16.9-2.9-27.4c-6.5-10.4-11.2-24-0.8-29.2c10.4-5.2,15.1,20.6,15.1,20.6s0.9-10-2.2-18c-5.8-15.2,7.9-52.9,27.5-34.1
	c0,0,7.6-14.1,21.1-9.6c13.6,4.4,14.9,14.6,13.8,22.7c-1,8.1-5.7,10.4-3.9,20.3c0,0,4.7-6.8,12.8-4.7c8.1,2.1,5.2,13,5,16.4
	c-0.3,3.4,1.8,7.8,7,12.5s3.1,12.8,3.1,12.8s4.5-9.3-2.3-21.1c-7.1-12.3,8.1-35.7,23.7-22.2c0,0-18-46,13.3-48.6
	c16.9-1.4,18.2,20.7,27.1,27.2c0,0-0.1-19.2,11.9-15.8c12,3.4,5.1,17,13.2,23.3c0,0-5.7-25.8,9.9-32.3c15.6-6.5,28.9,1,31.5,12.8
	c2.6,11.7-7,33.1,0,46.7c0,0-1.6-12.5,4.7-19.4c0,0,2.6,4.6,6,6.9c-3.5-17.5,5.3-54,32.1-43.8V1.1H0l0.1,54.3H0.6z"/>
<path class="elementor-shape-fill ha-shape-divider" fill="#FFFFFF" d="M845.4,24.8c0,0-10-4.7-10,7.2c0,6.3,1.9,11.2-7.8,14c0,0,5.5-15.5-9-18.1c0,0,6.4,24.5-13.3,33.6
	c0,0,6.3-9.7,4.3-18.8c-2.5-11.4-15.8-21.3-34.1-12.6c-18.3,8.7-17.9,29.8-17.9,29.8s-9.9-11.8-6.3-32.7c0,0-8.4,7.6-7.8,21.6
	c0,0-4.1-5.8-2.8-19.6c1.7-18-33.4-13.3-40.8-9.5c-8.1,4.2-11.8,14.1-12.1,25c-0.3,10.9,2.7,23.7-7.4,31.4c0,0,8.9-27.9-10-27.9
	c-15.7-0.1-0.2,42.6-0.2,42.6s-13.9-11.6-13.9-30.4c0-14.3,1.2-32.9-17.6-34.3s7,15-5.7,28.1c0,0-2.2-28.5-19-20.1
	c-4.6,2.3-4.1,19.7,0.7,25.6c0,0-12.8-6.7-9.9-24.8c0,0-18.9,6.3-22,25.4s0.6,32.5-16,40.6c0,0,12.6-24.1,3.1-46.8
	s-29.4-35.5-32.8,0.3c0,0-4.7-7.1-5.6-17.1c-1-10.8-12.2-14.7-20.5-9.5c-5.5,3.5-2.8,24.4-15.1,28.6c0,0,1.7-11.2-5.3-14.6
	c0,0-0.6,24.9-14.3,28c0,0,7.8-30.3-9-43.2c0,0,3.7,15.1,0,26.3c0,0-3.4-24.7-14-24.7s-11.8,23.9-5.9,30.9c0,0-10.7-5.1-13.5-18
	s-7.9-14.5-11-14.6c-12.2-0.4-31.5,11.6-21.3,53.8c0,0-17.1-14.3-18.8,13.2c0,0-4.2-12.1-2.5-25.2c1.7-13.2-16.5-21.1-18.7-5.9
	c-2.2,15.1-7.6,15.2-7.6,15.2s7.8-41.3-12.1-44.1c-16.4-2.3-3.9,13-13.7,21.7c0,0-0.8-10.7-3.6-12.6c0,0,0.3,24.4-11.8,28
	c0,0,3.1-8.7-2.8-15.7c-5.9-7,3.1-22.4-12.1-24.7s-12.1,23.3-12.1,23.3s-7.8-5.9-8.4-16.5c-0.6-10.7-16.8-7.6-16,7.6
	s1.4,29.7-11.2,36.2c0,0,10.7-17.1,3.6-30.8c0,0-0.8,18.5-10.4,21c0,0,8.4-33.6-7.6-37.6c-16-3.9-14.9,21.3-14.9,21.3
	s-6.4-10.1-3.4-18.2c0,0-5.9,5-7.8,13.5c-2,8.4-2.6,15.9-8.7,17.1c0,0-0.6-19.6-18.8-19.6S161.7,68,164.8,73.6s4.7,15.7-1.2,21
	c0,0,0.6-12.3-6.7-12.3s-10.1,16.2-5,35.8c0,0-9.5-17.7-5.9-42.3c3.6-24.7,2-32-7-32.8s-12.9,5.3-14.3,11.5
	c-1.4,6.2-1.1,21-8.4,21.9c0,0,9.2-27.7-16-25.8c0,0-3.6-22.4-30.3-22.4c-26.6,0-10.7,31.2-27.5,39.7c0,0,2.2-21.2-10.7-21.2
	s-14,15.7-5.9,27.7c0,0-12.1-9-9.5-27.2C18.9,29,0,24.8,0,24.8L0,0l845.4,0V24.8z"/>
</svg>
