<svg version="1.1" id="Layer_1" xmlns="http://www.w3.org/2000/svg" xmlns:xlink="http://www.w3.org/1999/xlink" x="0px" y="0px"
	 width="845.8px" height="204.4px" viewBox="0 0 845.8 204.4" enable-background="new 0 0 845.8 204.4" xml:space="preserve" preserveAspectRatio="none">
<path class="elementor-shape-fill ha-shape-divider" fill="#FFFFFF" d="M0,11.2L0,11.2L0,11.2c0,1.1,0.4,2.1,1.2,2.8l34,34c1.6,1.6,1.6,4.1,0,5.7L2.9,86c-1.6,1.6-1.6,4.1,0,5.7
	l34.8,34.8c1.6,1.6,4.1,1.6,5.7,0l32.3-32.3c1.6-1.6,4.1-1.6,5.7,0l32.3,32.3c1.6,1.6,4.1,1.6,5.7,0L152,93.9c1.6-1.6,4.1-1.6,5.7,0
	l32.6,32.6c1.6,1.6,4.1,1.6,5.7,0l32.6-32.6c1.6-1.6,4.1-1.6,5.7,0l30.4,30.4c1.6,1.6,1.6,4.1,0,5.7c-8.7,8.3-32.9,32.4-32.9,32.4
	c-1.6,1.6-1.6,4.1,0,5.7l34.8,34.8c1.6,1.6,4.1,1.6,5.7,0l109-109c1.6-1.6,4.1-1.6,5.7,0l32.5,32.5c1.6,1.6,4.1,1.6,5.7,0l32.6-32.5
	c1.6-1.6,4.1-1.6,5.7,0l30.4,30.4c1.6,1.6,1.6,4.1,0,5.7l-32.7,32.7c-1.6,1.6-1.6,4.1,0,5.7l34.8,34.7c1.6,1.6,4.1,1.6,5.7,0
	l32.6-32.6c1.6-1.6,4.1-1.6,5.7,0l32.5,32.5c1.6,1.6,4.1,1.6,5.7,0L687.3,93.9c1.6-1.6,4.1-1.6,5.7,0c8.4,8.4,32.6,32.7,32.6,32.7
	c1.6,1.6,4.1,1.6,5.7,0L763.8,94c1.6-1.6,4.1-1.6,5.7,0l32.5,32.6c1.6,1.6,4.1,1.6,5.7,0l34.8-34.8c1.6-1.6,1.6-4.1,0-5.7
	l-32.6-32.6c-1.6-1.6-1.6-4.1,0-5.7l34.7-34.7c0.8-0.8,1.2-1.7,1.2-2.7l0,0v-0.1l0,0V0L0,0L0,11.2C0,11.1,0,11.1,0,11.2z M79.9,16.2
	l31.5,31.5c1.6,1.6,1.6,4.1,0,5.7L78.5,86.3L44.2,52c-1.6-1.6-1.6-4.1,0-5.7l30.1-30.1C75.8,14.6,78.3,14.6,79.9,16.2z M157.5,17.3
	l30.4,30.4c1.6,1.6,1.6,4.1,0,5.7L161,80.3l-3.4,3.4c-1.6,1.6-4.1,1.6-5.7,0l-30.4-30.4c-1.6-1.6-1.6-4.1,0-5.7l30.4-30.3
	C153.4,15.7,156,15.7,157.5,17.3z M769.4,17.5l30.4,30.4c1.5,1.5,1.6,4,0.1,5.6L769.4,84c-1.4,1.3-3.5,1.4-5,0.4l-31.3-31.3
	c-1.1-1.6-1-3.7,0.4-5.1l30.3-30.5c1.4-1.4,3.5-1.5,5-0.5C769,17.1,769.2,17.3,769.4,17.5z M687.5,83.8L657,53.3
	c-1.5-1.6-1.5-4,0.1-5.6l30.3-30.4c1.2-1.2,2.9-1.5,4.3-0.9L724.3,49c0.6,1.4,0.3,3.1-0.9,4.3L693,83.7
	C691.5,85.2,689.1,85.3,687.5,83.8z M610.8,17.4c1.6-1.6,4.1-1.6,5.7,0l30.3,30.4c1.6,1.6,1.6,4.1,0,5.6l-30.4,30.4
	c-1.6,1.5-4.1,1.5-5.6,0l-30.4-30.4c-1.6-1.6-1.6-4.1,0-5.7L610.8,17.4z M503.1,48.6L535,16.7c1.5-0.8,3.5-0.6,4.8,0.7l30.4,30.4
	c1.6,1.6,1.6,4.1,0,5.7l-30.4,30.4c-1.5,1.5-3.8,1.5-5.4,0.3l-30.9-30.9C502.5,51.7,502.3,50,503.1,48.6z M572.6,122.2l-30.7-30.7
	c-1.4-1.6-1.4-4,0.2-5.5l30.4-30.4c1.6-1.6,4.1-1.6,5.7,0L608.6,86c1.6,1.6,1.6,4.1,0,5.7l-30.4,30.4
	C576.6,123.5,574.2,123.6,572.6,122.2z M457.8,83.8l-30.5-30.5c-1.2-1.3-1.4-3.3-0.5-4.8l31.8-31.8c1.5-0.9,3.4-0.7,4.7,0.5
	L494,47.9c1.4,1.6,1.4,4-0.1,5.5l-30.4,30.4C461.8,85.2,459.3,85.3,457.8,83.8z M382.1,84.4L350,52.3c-0.6-1.2-0.6-2.5,0-3.7
	l32.1-32.1c1.5-0.8,3.4-0.6,4.7,0.7l30.4,30.4c1.6,1.6,1.6,4.1,0,5.7l-30.4,30.4C385.5,85,383.6,85.2,382.1,84.4z M304.9,17.3
	c1.6-1.6,4.1-1.6,5.7,0L341,47.7c1.6,1.6,1.6,4.1,0,5.7l-15.2,15.2l-15.2,15.2c-1.6,1.6-4.1,1.6-5.7,0l-30.4-30.4
	c-1.6-1.6-1.6-4.1,0-5.7L304.9,17.3z M228.4,17.3c1.6-1.6,4.1-1.6,5.7,0l30.4,30.4c1.6,1.6,1.6,4.1,0,5.7l-30.4,30.4
	c-1.6,1.6-4.1,1.6-5.7,0L198,53.4c-1.6-1.6-1.6-4.1,0-5.7L228.4,17.3z M343.5,122.3l-30.7-30.7c-0.8-0.8-1.2-1.8-1.2-2.8
	s0.4-2,1.2-2.8l30.4-30.4c1.3-1.3,3.3-1.5,4.8-0.6l31.8,31.8c0.3,0.6,0.5,1.3,0.5,1.9c0,1-0.4,2-1.2,2.8l-30.7,30.8
	C347,123.5,345,123.5,343.5,122.3z M73.7,91.6L43.3,122c-1.6,1.6-4.1,1.6-5.7,0L7.2,91.6c-1.6-1.6-1.6-4.1,0-5.7l30.4-30.4
	c1.6-1.6,4.1-1.6,5.7,0l30.4,30.4C75.3,87.5,75.3,90,73.7,91.6z M149.6,91.6L119.2,122c-1.6,1.6-4.1,1.6-5.7,0L83.1,91.6
	c-1.6-1.6-1.6-4.1,0-5.7l30.4-30.4c1.6-1.6,4.1-1.6,5.7,0l30.4,30.4C151.2,87.5,151.2,90,149.6,91.6z M226.1,91.6L195.8,122
	c-1.6,1.6-4.1,1.6-5.7,0l-30.4-30.4c-1.6-1.6-1.6-4.1,0-5.7l30.4-30.4c1.6-1.6,4.1-1.6,5.7,0l30.4,30.4
	C227.7,87.5,227.7,90,226.1,91.6z M302.6,168.1l-30.4,30.4c-1.6,1.6-4.1,1.6-5.7,0l-30.4-30.4c-1.6-1.6-1.6-4.1,0-5.7l30.4-30.4
	c1.6-1.6,4.1-1.6,5.7,0l30.4,30.4C304.2,164,304.2,166.5,302.6,168.1z M340.9,129.9l-30.4,30.4c-1.6,1.6-4.1,1.6-5.7,0l-30.4-30.4
	c-1.6-1.6-1.6-4.1,0-5.7l30.4-30.4c1.4-1.4,3.7-1.5,5.3-0.3l31.1,31.1C342.4,126.1,342.3,128.4,340.9,129.9z M455.5,91.7l-30.4,30.4
	c-1.6,1.6-4.1,1.6-5.7,0L389,91.7c-1.6-1.6-1.6-4.1,0-5.7l30.4-30.4c1.5-1.5,4-1.6,5.6-0.1L455.5,86
	C457.1,87.7,457.1,90.1,455.5,91.7z M465.7,91.7c-1.6-1.6-1.6-4.1,0-5.7l30.4-30.4c1.5-1.5,3.8-1.5,5.4-0.3l30.8,31
	c1.3,1.6,1.2,3.9-0.3,5.4l-30.4,30.4c-1.6,1.6-4.1,1.6-5.7,0L465.7,91.7z M532,168.3l-30.4,30.4c-1.6,1.6-4.1,1.6-5.7,0l-30.2-30.4
	c-1.6-1.6-1.6-4.1,0-5.7l30.3-30.3c1.6-1.6,4.1-1.6,5.7,0l30.4,30.4C533.6,164.2,533.6,166.8,532,168.3z M608.6,168.2l-30.4,30.4
	c-1.6,1.6-4.1,1.6-5.7,0l-30.4-30.4c-1.6-1.6-1.6-4.1,0-5.7l30.4-30.4c1.6-1.6,4.1-1.6,5.7,0l30.4,30.4
	C610.1,164.1,610.1,166.7,608.6,168.2z M646.8,130l-30.4,30.3c-1.6,1.6-4.1,1.6-5.7,0l-30.4-30.4c-1.6-1.6-1.6-4.1,0-5.7l30.5-30.3
	c1.6-1.6,4.1-1.6,5.7,0l30.3,30.4C648.4,125.9,648.4,128.4,646.8,130z M685.2,91.6l-30.4,30.3c-1.6,1.6-4.1,1.6-5.7,0l-30.4-30.4
	c-1.6-1.6-1.6-4.1,0-5.6l30.4-30.4c1.5-1.5,4-1.5,5.6,0L685.2,86C686.7,87.6,686.7,90,685.2,91.6z M838.7,86.8
	c1.2,1.2,1.2,3.1,0,4.2l-31.8,31.8c-1.2,1.2-3.1,1.2-4.2,0l-31.1-31.1c-1.5-1.5-1.5-3.7-0.3-5.3l31-31c1.6-1.2,3.9-1.2,5.3,0.3
	L838.7,86.8z"/>
</svg>
