<svg xmlns="http://www.w3.org/2000/svg" viewBox="0 0 4080 400" preserveAspectRatio="none">
<path class="elementor-shape-fill ha-shape-divider" d="M16432.1,374.1c-179.4,0-326.8-145-326.8-326.8c0,179.4-147.4,326.8-326.8,326.8s-326.8-145-326.8-326.8
	c0,179.4-145,326.8-326.8,326.8c-179.4,0-326.8-145-326.8-326.8c0,179.4-145,326.8-326.8,326.8c-179.4,0-326.8-145-326.8-326.8
	c0,179.4-147.4,326.8-326.8,326.8s-326.8-145-326.8-326.8c0,179.4-145,326.8-326.8,326.8c-179.4,0-326.8-145-326.8-326.8
	c0,179.4-145,326.8-326.8,326.8c-179.4,0-326.8-145-326.8-326.8c0,179.4-147.4,326.8-326.8,326.8s-326.8-145-326.8-326.8
	c0,179.4-145,326.8-326.8,326.8c-179.4,0-326.8-145-326.8-326.8c0,179.4-145,326.8-326.8,326.8c-179.4,0-326.8-145-326.8-326.8
	c0,179.4-147.4,326.8-326.8,326.8s-326.8-145-326.8-326.8c0,179.4-145,326.8-326.8,326.8c-179.4,0-326.8-145-326.8-326.8
	c0,179.4-145,326.8-326.8,326.8c-179.4,0-326.8-145-326.8-326.8c0,179.4-145,326.8-326.8,326.8c-179.4,0-326.8-145-326.8-326.8
	c0,179.4-145,326.8-326.8,326.8c-174,0-317.8-136.3-326.4-310.4l-0.6,17.1c-16.9,165.8-158.4,293.3-349.7,293.3
	c-179.4,0-326.8-145-326.8-326.8c0,179.4-147.4,326.8-326.8,326.8s-326.8-145-326.8-326.8c0,179.4-145,326.8-326.8,326.8
	c-179.4,0-326.8-145-326.8-326.8c0,179.4-145,326.8-326.8,326.8c-179.4,0-326.8-145-326.8-326.8c0,179.4-147.4,326.8-326.8,326.8
	c-179.4,0-326.8-145-326.8-326.8c0,179.4-145,326.8-326.8,326.8c-179.4,0-326.8-145-326.8-326.8c0,179.4-145,326.8-326.8,326.8
	c-179.4,0-326.8-145-326.8-326.8c0,179.4-147.4,326.8-326.8,326.8s-326.8-145-326.8-326.8c0,179.4-145,326.8-326.8,326.8
	c-179.4,0-326.8-145-326.8-326.8c0,179.4-145,326.8-326.8,326.8c-179.4,0-326.8-145-326.8-326.8c0,179.4-147.4,326.8-326.8,326.8
	s-326.8-145-326.8-326.8c0,179.4-145,326.8-326.8,326.8c-179.4,0-326.8-145-326.8-326.8c0,179.4-145,326.8-326.8,326.8
	c-179.4,0-326.8-145-326.8-326.8c0,179.4-145,326.8-326.8,326.8c-179.4,0-326.8-145-326.8-326.8c0,179.4-145,326.8-326.8,326.8
	c-174,0-317.8-136.3-326.4-310.4v10l0,0c-13.6,169.3-156.4,300.4-350.4,300.4c-179.4,0-326.8-145-326.8-326.8
	c0,179.4-147.4,326.8-326.8,326.8c-179.4,0-326.8-145-326.8-326.8c0,179.4-145,326.8-326.8,326.8c-179.4,0-326.8-145-326.8-326.8
	c0,179.4-145,326.8-326.8,326.8c-179.4,0-326.8-145-326.8-326.8c0,179.4-147.4,326.8-326.8,326.8c-179.4,0-326.8-145-326.8-326.8
	c0,179.4-145,326.8-326.8,326.8c-179.4,0-326.8-145-326.8-326.8c0,179.4-145,326.8-326.8,326.8c-179.4,0-326.8-145-326.8-326.8
	c0,179.4-147.4,326.8-326.8,326.8s-326.8-145-326.8-326.8c0,179.4-145,326.8-326.8,326.8c-179.4,0-326.8-145-326.8-326.8
	c0,179.4-145,326.8-326.8,326.8c-179.4,0-326.8-145-326.8-326.8c0,179.4-147.4,326.8-326.8,326.8s-326.8-145-326.8-326.8
	c0,179.4-145,326.8-326.8,326.8c-179.4,0-326.8-145-326.8-326.8c0,179.4-145,326.8-326.8,326.8c-179.4,0-326.8-145-326.8-326.8
	c0,179.4-145,326.8-326.8,326.8c-179.4,0-326.8-145-326.8-326.8c0,179.4-145,326.8-326.8,326.8c-174,0-317.8-136.3-326.4-310.4
	l-12.9,336.3h29497.2V73.7C16768.9,243,16625.9,374.1,16432.1,374.1z"/>
</svg>
