<svg xmlns="http://www.w3.org/2000/svg" viewBox="0 0 844.8 42.2" preserveAspectRatio="none">
<path class="elementor-shape-fill ha-shape-divider" fill="#FFFFFF" d="M28.1,42.3c15.6,0,28.1-12.7,28.1-28.1c0,15.6,12.6,28.1,28.1,28.1c15.6,0,28.1-12.7,28.1-28.1
	c0,15.6,12.7,28.1,28.1,28.1c15.6,0,28.1-12.7,28.1-28.1c0,15.6,12.7,28.1,28.1,28.1c15.6,0,28.1-12.7,28.1-28.1
	c-0.1,15.6,12.6,28.1,28,28.1s28.1-12.7,28.1-28.1c0,15.6,12.7,28.1,28.1,28.1c15.6,0,28.1-12.7,28.1-28.1
	c0,15.6,12.7,28.1,28.1,28.1c15.6,0,28.1-12.7,28.1-28.1c0,15.6,12.7,28.1,28.1,28.1s28.1-12.7,28.1-28.1
	c0,15.6,12.7,28.1,28.1,28.1c15.6,0,28.1-12.7,28.1-28.1c0,15.6,12.7,28.1,28.1,28.1c15.5,0,28-12.7,28-28.1
	c0,15.6,12.7,28.1,28.1,28.1c15.4,0,28.1-12.7,28.1-28.1c0,15.6,12.7,28.1,28.1,28.1c15.6,0,28.1-12.7,28.1-28.1
	c-0.1,15.6,12.6,28.1,28,28.1c15.6,0,28.1-12.7,28.1-28.1c0,15.6,12.7,28.1,28.1,28.1c15.4,0,28.1-12.7,28.1-28.1
	c0,15.6,12.7,28.1,28.1,28.1c17.5,0,30.2-12.5,30.2-28.1V0L0,0l0,14.2C0,29.8,12.7,42.3,28.1,42.3z"/>
</svg>
