<svg version="1.1" id="Layer_1" xmlns="http://www.w3.org/2000/svg" xmlns:xlink="http://www.w3.org/1999/xlink" x="0px" y="0px"
	 width="845.8px" height="195.7px" viewBox="0 0 845.8 195.7" enable-background="new 0 0 845.8 195.7" xml:space="preserve" preserveAspectRatio="none">
<path class="elementor-shape-fill ha-shape-divider" opacity="0.3" fill="#FFFFFF" enable-background="new    " d="M845.8,0.2v67.2c-1.6,0.5-3.6,0.9-5.6,1.2
	c3.3,6.8,4.9,14.3,4.3,22c-2,25.9-27.6,45.3-58.1,45c-1.5,13.3-15.4,23-31.4,21.7c-10.6-0.8-19.5-6.3-24.2-13.7
	c-7.2,11.3-22,18.4-38.5,17.1c-15.3-1.2-28-9.4-34.1-20.4c-8.7,4.2-19,6.3-29.9,5.5c-14.4-1.1-27-7.2-35.7-15.9
	c-9.2,14.3-27.9,23.3-48.7,21.7c-23.2-1.8-41.8-16.3-46.6-34.6c-10.5,6.5-23.8,10-38.1,8.9c-22.1-1.7-40.4-14-48.4-30.3
	c-3.1,1-6.4,1.8-9.8,2.2c-9.3,7.7-22,12.4-36,12.4c-14.6,0-27.7-5.1-37.1-13.3c-9.2,11.5-24.9,19.1-42.7,19.1
	c-16.1,0-30.4-6.2-39.9-16c0.2,1.7,0.3,3.5,0.3,5.2c0,27.4-26.5,49.6-59.2,49.6c-15.6,0-29.7-5.1-40.3-13.3
	c-10.8,9.2-25.8,15-42.4,15c-28.8,0-52.8-17.2-58.1-40.1c-9.1,6.8-21,10.9-34.1,10.9c-3.9,0-7.8-0.4-11.5-1.1L0,0l845.8,0V0.2z"/>
<path class="elementor-shape-fill ha-shape-divider" opacity="0.25" fill="#FFFFFF" enable-background="new    " d="M0,0l0,147.5c6.6,3.2,14.1,4.8,22,4.3c0.3,0,0.6-0.1,1-0.1
	c2.4,16.3,19.6,28.2,39.3,26.9c12.6-0.8,23.2-6.9,29-15.5c8.8,15.9,28.8,26.3,51,24.8c17.7-1.2,32.7-9.8,40.9-21.8
	c3.1,17.2,21.5,29.6,42.5,28.2c13.4-0.9,24.8-7.4,31.1-16.4c5,1.5,10.5,2.1,16.1,1.7c10.2-0.7,19.2-4.5,25.7-10.3
	c4,16.3,21.9,27.8,42.2,26.5c12.5-0.8,23.3-6.5,29.8-14.6c8.7,4,18.9,5.9,29.5,5.2c20.4-1.4,37.2-12.3,44.7-27.1c0.3,0,0.6,0,0.9,0
	c9.4-0.7,17.8-4,24.2-9c6,13.6,22.3,22.8,40.5,21.6c5.4-0.4,10.5-1.7,15.1-3.6c8,17.4,29,29.1,52.4,27.6c13.8-0.9,26-6.4,34.5-14.4
	c8.7,9,22.4,14.4,37.2,13.5c19.8-1.3,35.4-13.7,38.9-29.2c4.9,2.3,10.7,3.5,16.7,3.1c7-0.5,13.2-3,17.9-6.8
	c6.9,9.7,20,15.8,34.3,14.8c14.9-1,27.1-9.4,31.7-20.6c5.6,4.2,13.1,6.5,21.1,6c10.9-0.7,19.8-6.5,23.9-14.4
	c3.5,1.9,7.6,3.4,11.7,4.4V0.2L0.3,0L0,0z"/>
<path class="elementor-shape-fill ha-shape-divider" fill="#FFFFFF" d="M0.3,45.5c6.3,3.2,13.8,4.8,21.7,4.3c0.3,0,0.6-0.1,1-0.1C25.4,66,42.6,77.9,62.3,76.6
	c12.6-0.8,23.2-6.9,29-15.5c8.9,15.9,28.9,26.3,51,24.8c17.7-1.2,32.7-9.8,40.9-21.8c3.1,17.2,21.5,29.6,42.5,28.2
	c13.5-0.9,24.8-7.4,31.2-16.5c5,1.5,10.5,2.1,16.1,1.7c10.2-0.7,19.1-4.5,25.6-10.2c4,16.3,21.9,27.8,42.2,26.5
	c12.5-0.8,23.3-6.5,29.8-14.6c8.7,4,18.9,5.9,29.5,5.2c20.4-1.4,37.2-12.3,44.7-27.1c0.3,0,0.6,0,0.9,0c9.4-0.7,17.8-4,24.2-9
	c6,13.6,22.3,22.8,40.5,21.6c5.4-0.4,10.5-1.7,15.1-3.6c8,17.4,29,29.1,52.4,27.6c13.8-0.9,26-6.4,34.5-14.4
	c8.7,9,22.4,14.4,37.2,13.5c19.8-1.3,35.4-13.7,38.9-29.2c4.9,2.3,10.7,3.5,16.7,3.1c7-0.5,13.2-3,17.9-6.8
	c6.9,9.7,20,15.8,34.3,14.8c14.9-1,27.1-9.4,31.7-20.6c5.6,4.2,13.1,6.5,21.1,6c10.9-0.7,19.8-6.5,23.9-14.4
	c3.6,2.1,7.7,3.7,11.7,4.6V0L0,0l0,45.5H0.3z"/>
</svg>
