<svg xmlns="http://www.w3.org/2000/svg" viewBox="0 0 4080 400" preserveAspectRatio="none">
<path class="elementor-shape-fill ha-shape-divider" d="M23498.4,317.7c-30.2,40-63.1,81.9-128.9,81.9c-65.8,0-98.7-42-128.9-81.9c-30.2-40-57.6-75.9-115.2-75.9
	c-57.6,0-85,36-115.2,75.9c-30.2,40-63.1,81.9-128.9,81.9c-65.8,0-98.8-42-128.9-81.9c-30.2-40-57.6-75.9-115.2-75.9
	s-85,36-115.2,75.9c-30.2,40-63.1,81.9-128.9,81.9c-65.8,0-98.8-42-128.9-81.9c-30.2-40-57.6-75.9-115.2-75.9s-85,36-115.2,75.9
	c-30.2,40-63.1,81.9-128.9,81.9c-65.8,0-98.8-42-128.9-81.9c-30.2-40-57.6-75.9-115.2-75.9c-57.6,0-85,36-115.2,75.9
	c-30.2,40-63.1,81.9-128.9,81.9c-65.8,0-98.8-42-128.9-81.9c-30.2-40-57.6-75.9-115.2-75.9s-85,36-115.2,75.9
	c-30.2,40-63.1,81.9-128.9,81.9c-65.8,0-98.8-42-128.9-81.9c-30.2-40-57.6-75.9-115.2-75.9c-57.6,0-85,36-115.2,75.9
	c-30.2,40-63.1,81.9-128.9,81.9c-65.8,0-98.7-42-128.9-81.9c-30.2-40-57.6-75.9-115.2-75.9s-85,36-115.2,75.9
	c-30.2,40-63.1,81.9-128.9,81.9c-65.8,0-98.8-42-128.9-81.9c-30.2-40-57.6-75.9-115.2-75.9c-57.6,0-85,36-115.2,75.9
	c-30.2,40-63.1,81.9-128.9,81.9c-65.8,0-98.7-42-128.9-81.9c-30.2-40-57.6-75.9-115.2-75.9c-57.6,0-85,36-115.2,75.9
	c-30.2,40-63.1,81.9-128.9,81.9c-65.8,0-98.8-42-128.9-81.9c-30.2-40-57.6-75.9-115.2-75.9s-85,36-115.2,75.9
	c-30.2,40-63.1,81.9-128.9,81.9s-98.8-42-128.9-81.9c-30.2-40-57.6-75.9-115.2-75.9s-85,36-115.2,75.9
	c-30.2,40-63.1,81.9-128.9,81.9c-65.8,0-98.7-42-128.9-81.9c-30.2-40-57.6-75.9-115.2-75.9s-85,36-115.2,75.9
	c-30.2,40-63.1,81.9-128.9,81.9c-65.8,0-98.8-42-128.9-81.9c-30.2-40-57.6-75.9-115.2-75.9c-57.6,0-178.3,157.8-244.1,157.8
	s-98.7-42-128.9-81.9c-30.2-40-57.6-75.9-115.2-75.9s-85,36-115.2,75.9c-30.2,40-63.1,81.9-128.9,81.9c-65.8,0-98.7-42-128.9-81.9
	c-30.2-40-57.6-75.9-115.2-75.9s-85,36-115.2,75.9c-30.2,40-63.1,81.9-128.9,81.9s-98.7-42-128.9-81.9
	c-30.2-40-57.6-75.9-115.2-75.9c-57.6,0-178.3,157.8-244.1,157.8c-65.8,0-98.8-42-128.9-81.9c-30.2-40-57.6-75.9-115.2-75.9
	c-57.6,0-85,36-115.2,75.9c-30.2,40-63.1,81.9-128.9,81.9s-98.7-42-128.9-81.9c-30.2-40-57.6-75.9-115.2-75.9s-85,36-115.2,75.9
	c-30.2,40-63.1,81.9-128.9,81.9s-98.7-42-128.9-81.9c-30.2-40-57.6-75.9-115.2-75.9s-85,36-115.2,75.9
	c-30.2,40-63.1,81.9-128.9,81.9s-98.7-42-128.9-81.9c-30.2-40-57.6-75.9-115.2-75.9c-57.6,0-85,36-115.2,75.9
	c-19.2,40-49.4,81.9-115.2,81.9s-98.7-42-128.9-81.9s-57.6-75.9-115.2-75.9s-85,38-115.2,75.9c-30.2,40-63.1,81.9-128.9,81.9
	c-65.8,0-98.7-42-128.9-81.9c-29.7-37.4-56.7-74.7-112.5-75.9c-56.6,0.6-83.9,36.3-113.8,75.9c-30.2,40-63.1,81.9-128.9,81.9
	c-0.7,0-1.4,0-2,0c-0.7,0-1.4,0-2,0v-0.1c-63.1-1.7-95.3-42.7-124.8-81.9c-30.2-40-57.6-75.9-115.2-75.9c-57.6,0-85,36-115.2,75.9
	c-30.2,40-63.1,81.9-128.9,81.9c-65.8,0-98.7-42-128.9-81.9c-30.2-40-57.6-75.9-115.2-75.9c-57.6,0-85,36-115.2,75.9
	c-30.2,40-63.1,81.9-128.9,81.9c-65.8,0-98.7-42-128.9-81.9c-30.2-40-57.6-75.9-115.2-75.9s-85,36-115.2,75.9
	c-30.2,40-63.1,81.9-128.9,81.9c-65.8,0-98.7-42-128.9-81.9c-30.2-40-57.6-75.9-115.2-75.9c-57.6,0-85,36-115.2,75.9
	c-30.2,40-63.1,81.9-128.9,81.9c-65.8,0-98.7-42-128.9-81.9c-30.2-40-57.6-75.9-115.2-75.9s-85,36-115.2,75.9
	c-30.2,40-63.1,81.9-128.9,81.9s-98.7-42-128.9-81.9c-30.2-40-57.6-75.9-115.2-75.9c-57.6,0-85,36-115.2,75.9
	c-30.2,40-63.1,81.9-128.9,81.9s-98.7-42-128.9-81.9c-30.2-40-57.6-75.9-115.2-75.9c-57.6,0-85,36-115.2,75.9
	c-30.2,40-63.1,81.9-128.9,81.9s-98.8-42-128.9-81.9c-30.2-40-57.6-75.9-115.2-75.9c-57.6,0-85,36-115.2,75.9
	c-30.2,40-63.1,81.9-128.9,81.9c-65.8,0-98.8-42-128.9-81.9c-30.2-40-57.6-75.9-115.2-75.9c-57.6,0-85,36-115.2,75.9
	c-30.2,40-63.1,81.9-128.9,81.9c-65.8,0-98.7-42-128.9-81.9c-30.2-40-57.6-75.9-115.2-75.9s-85,36-115.2,75.9
	c-30.2,40-63.1,81.9-128.9,81.9c-65.8,0-98.7-42-128.9-81.9c-30.2-40-57.6-75.9-115.2-75.9c-57.6,0-85,36-115.2,75.9
	c-30.2,40-63.1,81.9-128.9,81.9s-98.7-42-128.9-81.9c-30.2-40-57.6-75.9-115.2-75.9c-57.6,0-85,36-115.2,75.9
	c-30.2,40-63.1,81.9-128.9,81.9c-65.8,0-98.7-42-128.9-81.9c-30.2-40-57.6-75.9-115.2-75.9S6364,399.6,6298.2,399.6
	c-65.8,0-98.7-42-128.9-81.9c-30.2-40-57.6-75.9-115.2-75.9c-57.6,0-85,36-115.2,75.9c-30.2,40-63.1,81.9-128.9,81.9
	s-98.7-42-128.9-81.9c-30.2-40-57.6-75.9-115.2-75.9c-57.6,0-85,36-115.2,75.9c-30.2,40-63.1,81.9-128.9,81.9s-98.7-42-128.9-81.9
	c-30.2-40-57.6-75.9-115.2-75.9c-57.6,0-178.3,157.8-244.1,157.8s-98.7-42-128.9-81.9c-30.2-40-57.6-75.9-115.2-75.9
	s-85,36-115.2,75.9c-30.2,40-63.1,81.9-128.9,81.9c-65.8,0-98.7-42-128.9-81.9c-30.2-40-57.6-75.9-115.2-75.9
	c-57.6,0-85,36-115.2,75.9c-30.2,40-63.1,81.9-128.9,81.9s-98.7-42-128.9-81.9c-30.2-40-57.6-75.9-115.2-75.9s-85,36-115.2,75.9
	c-30.2,40-63.1,81.9-128.9,81.9c-65.8,0-98.7-42-128.9-81.9c-30.2-40-57.6-75.9-115.2-75.9s-85,36-115.2,75.9
	c-19.2,40-49.4,81.9-115.2,81.9c-65.8,0-98.7-42-128.9-81.9c-30.2-40-57.6-75.9-115.2-75.9s-85,38-115.2,75.9
	c-30.2,40-63.1,81.9-128.9,81.9c-65.8,0-98.7-42-128.9-81.9c-29.8-37.5-56.9-75-113.1-75.9c-56.8,0.5-84.1,36.2-114.1,75.9
	c-30.2,40-63.1,81.9-128.9,81.9c-0.5,0-1.1,0-1.6,0c-0.5,0-1.1,0-1.6,0v0c-63.7-1.3-96.1-42.6-125.7-81.9
	c-30.2-40-57.6-75.9-115.2-75.9c-57.6,0-85,36-115.2,75.9c-30.2,40-63.1,81.9-128.9,81.9c-65.8,0-98.7-42-128.9-81.9
	c-30.2-40-57.6-75.9-115.2-75.9s-85,36-115.2,75.9c-30.2,40-63.1,81.9-128.9,81.9c-65.8,0-98.7-42-128.9-81.9
	c-30.2-40-57.6-75.9-115.2-75.9c-57.6,0-85,36-115.2,75.9c-30.2,40-63.1,81.9-128.9,81.9c-65.8,0-98.7-42-128.9-81.9
	c-30.2-40-57.6-75.9-115.2-75.9s-85,36-115.2,75.9c-30.2,40-63.1,81.9-128.9,81.9c-65.8,0-98.7-42-128.9-81.9
	c-30.2-40-57.6-75.9-115.2-75.9c-57.6,0-85,36-115.2,75.9c-30.2,40-63.1,81.9-128.9,81.9c-65.8,0-98.7-42-128.9-81.9
	c-30.2-40-57.6-75.9-115.2-75.9c-57.6,0-85,36-115.2,75.9c-30.2,40-63.1,81.9-128.9,81.9c-65.8,0-98.7-42-128.9-81.9
	c-30.2-40-57.6-75.9-115.2-75.9c-57.6,0-85,36-115.2,75.9c-30.2,40-63.1,81.9-128.9,81.9c-65.8,0-98.7-42-128.9-81.9
	c-30.2-40-57.6-75.9-115.2-75.9s-85,36-115.2,75.9c-30.2,40-63.1,81.9-128.9,81.9c-65.8,0-98.7-42-128.9-81.9
	c-30.2-40-57.6-75.9-115.2-75.9c-57.6,0-85,36-115.2,75.9c-30.2,40-63.1,81.9-128.9,81.9c-65.8,0-98.7-42-128.9-81.9
	c-30.2-40-57.6-75.9-115.2-75.9s-85,36-115.2,75.9c-30.2,40-63.1,81.9-128.9,81.9c-65.8,0-98.7-42-128.9-81.9
	c-30.2-40-57.6-75.9-115.2-75.9c-57.6,0-85,36-115.2,75.9c-30.2,40-63.1,81.9-128.9,81.9c-65.8,0-98.7-42-128.9-81.9
	c-30.2-40-57.6-75.9-115.2-75.9c-57.6,0-85,36-115.2,75.9c-30.2,40-63.1,81.9-128.9,81.9s-98.7-42-128.9-81.9
	c-30.2-40-57.6-75.9-115.2-75.9c-57.6,0-178.3,157.8-244.1,157.8s-98.7-42-128.9-81.9c-30.2-40-57.6-75.9-115.2-75.9
	c-57.6,0-85,36-115.2,75.9c-30.2,40-63.1,81.9-128.9,81.9c-65.8,0-98.7-42-128.9-81.9c-30.2-40-57.6-75.9-115.2-75.9
	s-85,36-115.2,75.9c-30.2,40-63.1,81.9-128.9,81.9c-65.8,0-98.7-42-128.9-81.9c-30.2-40-57.6-75.9-115.2-75.9
	c-57.6,0-178.3,157.8-244.1,157.8s-98.7-42-128.9-81.9c-30.2-40-57.6-75.9-115.2-75.9c-57.6,0-85,36-115.2,75.9
	c-30.2,40-63.1,81.9-128.9,81.9c-65.8,0-98.7-42-128.9-81.9c-30.2-40-57.6-75.9-115.2-75.9c-57.6,0-85,36-115.2,75.9
	c-30.2,40-63.1,81.9-128.9,81.9c-65.8,0-98.7-42-128.9-81.9c-30.2-40-57.6-75.9-115.2-75.9c-57.6,0-85,36-115.2,75.9
	c-30.2,40-63.1,81.9-128.9,81.9c-65.8,0-98.7-42-128.9-81.9c-30.2-40-57.6-75.9-115.2-75.9c-57.6,0-85,36-115.2,75.9
	c-19.2,40-49.4,81.9-115.2,81.9s-98.7-42-128.9-81.9c-30.2-40-57.6-75.9-115.2-75.9c-57.6,0-85,38-115.2,75.9
	c-30.2,40-63.1,81.9-128.9,81.9s-98.7-42-128.9-81.9c-30-37.8-57.3-75.5-114.3-75.9v0.4c-57.6,0-85,36-115.2,75.9
	s-63.1,81.9-128.9,81.9s-98.8-42-128.9-81.9c-30.2-40-57.6-75.9-115.2-75.9s-85,36-115.2,75.9s-63.1,81.9-128.9,81.9
	c-65.8,0-98.8-42-128.9-81.9c-30.2-40-57.6-75.9-115.2-75.9s-85,36-115.2,75.9s-63.1,81.9-128.9,81.9s-98.8-42-128.9-81.9
	c-30.2-40-57.6-75.9-115.2-75.9c-57.6,0-85,36-115.2,75.9c-30.2,40-63.1,81.9-128.9,81.9c-65.8,0-98.7-42-128.9-81.9
	s-57.6-75.9-115.2-75.9c-57.6,0-85,36-115.2,75.9c-30.2,40-63.1,81.9-128.9,81.9c-65.8,0-98.7-42-128.9-81.9s-57.6-75.9-115.2-75.9
	c-57.6,0-85,36-115.2,75.9c-30.2,40-63.1,81.9-128.9,81.9c-65.8,0-98.7-42-128.9-81.9c-30.2-40-57.6-75.9-115.2-75.9
	c-57.6,0-85,36-115.2,75.9c-30.2,40-63.1,81.9-128.9,81.9c-65.8,0-98.7-42-128.9-81.9s-57.6-75.9-115.2-75.9s-85,36-115.2,75.9
	s-63.1,81.9-128.9,81.9c-65.8,0-98.7-42-128.9-81.9s-57.6-75.9-115.2-75.9c-57.6,0-85,36-115.2,75.9c-30.2,40-63.1,81.9-128.9,81.9
	s-98.8-42-128.9-81.9c-30.2-40-57.6-75.9-115.2-75.9s-85,36-115.2,75.9s-63.1,81.9-128.9,81.9c-65.8,0-98.7-42-128.9-81.9
	c-30.2-40-57.6-75.9-115.2-75.9s-85,36-115.2,75.9c-30.2,40-63.1,81.9-128.9,81.9s-98.7-42-128.9-81.9
	c-30.2-40-57.6-75.9-115.2-75.9c-57.6,0-85,36-115.2,75.9c-30.2,40-63.1,81.9-128.9,81.9c-65.8,0-98.8-42-128.9-81.9
	c-30.2-40-57.6-75.9-115.2-75.9c-57.6,0-85,36-115.2,75.9s-63.1,81.9-128.9,81.9c-65.8,0-98.7-42-128.9-81.9
	c-30.2-40-57.6-75.9-115.2-75.9c-57.6,0-178.3,157.8-244.1,157.8s-98.7-42-128.9-81.9c-30.2-40-57.6-75.9-115.2-75.9
	c-57.6,0-85,36-115.2,75.9s-63.1,81.9-128.9,81.9c-65.8,0-98.8-42-128.9-81.9c-30.2-40-57.6-75.9-115.2-75.9
	c-57.6,0-85,36-115.2,75.9c-30.2,40-63.1,81.9-128.9,81.9c-65.8,0-98.7-42-128.9-81.9c-30.2-40-57.6-75.9-115.2-75.9
	c-57.6,0-178.3,157.8-244.1,157.8c-65.8,0-98.7-42-128.9-81.9c-30.2-40-57.6-75.9-115.2-75.9c-57.6,0-85,36-115.2,75.9
	c-30.2,40-63.1,81.9-128.9,81.9c-65.8,0-98.8-42-128.9-81.9s-57.6-75.9-115.2-75.9c-57.6,0-85,36-115.2,75.9s-63.1,81.9-128.9,81.9
	s-98.7-42-128.9-81.9s-57.6-75.9-115.2-75.9c-57.6,0-85,36-115.2,75.9s-63.1,81.9-128.9,81.9c-65.8,0-98.8-42-128.9-81.9
	s-57.6-75.9-115.2-75.9c-57.6,0-85,36-115.2,75.9c-19.2,40-49.4,81.9-115.2,81.9c-65.8,0-98.7-42-128.9-81.9s-57.6-75.9-115.2-75.9
	s-85,38-115.2,75.9c-30.2,40-63.1,81.9-128.9,81.9c-65.8,0-98.8-42-128.9-81.9c-30.2-38-57.6-75.9-115.2-75.9s-85,38-115.2,75.9
	c-30.2,40-63.1,81.9-128.9,81.9V0.4l43148-0.4v241.8C23556,241.8,23528.6,277.7,23498.4,317.7z"/>
</svg>
