<svg xmlns="http://www.w3.org/2000/svg" viewBox="0 0 844.8 31.2" preserveAspectRatio="none">
<path class="elementor-shape-fill ha-shape-divider" fill="#FFFFFF" d="M0,0.1l0,18l0,0L0,19c4.4,0,6.5,2.8,8.9,5.9s4.8,6.4,9.9,6.4s7.6-3.3,9.9-6.4c2.3-3.1,4.4-5.9,8.9-5.9
	c4.4,0,6.5,2.8,8.9,5.9c2.3,3.1,4.8,6.4,9.9,6.4s7.6-3.3,9.9-6.4s4.4-5.9,8.9-5.9c4.4,0,6.5,2.8,8.9,5.9s4.8,6.4,9.9,6.4
	s7.6-3.3,9.9-6.4s4.4-5.9,8.9-5.9c4.4,0,6.5,2.8,8.9,5.9s4.8,6.4,9.8,6.4c5.1,0,7.6-3.3,9.9-6.4s4.4-5.9,8.9-5.9
	c4.4,0,6.5,2.8,8.9,5.9s4.9,6.4,9.9,6.4s7.6-3.3,9.9-6.4s4.4-5.9,8.9-5.9c4.4,0,6.5,2.8,8.9,5.9s4.9,6.4,9.9,6.4
	c5.1,0,7.6-3.3,9.9-6.4s4.4-5.9,8.9-5.9c4.4,0,6.5,2.8,8.9,5.9s4.9,6.4,9.9,6.4c5.1,0,7.6-3.3,9.9-6.4s4.4-5.9,8.9-5.9
	c4.4,0,6.5,2.8,8.9,5.9s4.9,6.4,9.9,6.4c5.1,0,7.6-3.3,9.9-6.4s4.4-5.9,8.9-5.9c4.4,0,6.5,2.8,8.9,5.9s4.9,6.4,9.9,6.4
	c5.1,0,7.6-3.3,9.9-6.4c2.3-3.1,4.4-5.9,8.9-5.9c4.4,0,6.5,2.8,8.9,5.9s4.9,6.4,9.9,6.4s7.6-3.3,9.9-6.4s4.4-5.9,8.9-5.9
	s6.5,2.8,8.9,5.9c2.3,3.1,4.9,6.4,9.9,6.4s7.6-3.3,9.9-6.4s4.4-5.9,8.9-5.9c4.4,0,6.5,2.8,8.9,5.9c2.3,3.1,4.9,6.4,9.9,6.4
	s7.6-3.3,9.9-6.4s4.4-5.9,8.9-5.9c4.4,0,6.5,2.8,8.9,5.9c2.3,3.1,4.8,6.4,9.9,6.4s7.6-3.3,9.9-6.4s4.4-5.9,8.9-5.9
	c4.4,0,13.7,12.3,18.8,12.3c5.1,0,7.6-3.3,9.9-6.4s4.4-5.9,8.9-5.9c4.4,0,6.5,2.8,8.9,5.9c2.3,3.1,4.9,6.4,9.9,6.4s7.6-3.3,9.9-6.4
	s4.4-5.9,8.9-5.9c4.4,0,6.5,2.8,8.9,5.9c2.4,3.1,4.8,6.4,9.9,6.4c5.1,0,7.6-3.3,9.9-6.4s4.4-5.9,8.9-5.9s13.7,12.3,18.8,12.3
	c5.1,0,7.6-3.3,9.9-6.4s4.4-5.9,8.9-5.9s6.5,2.8,8.9,5.9c2.4,3.1,4.8,6.4,9.9,6.4c5.1,0,7.6-3.3,9.9-6.4s4.4-5.9,8.9-5.9
	s6.5,2.8,8.9,5.9c2.3,3.1,4.9,6.4,9.9,6.4s7.6-3.3,9.9-6.4s4.4-5.9,8.9-5.9c4.4,0,6.5,2.8,8.9,5.9c2.3,3.1,4.9,6.4,9.9,6.4
	c5.1,0,7.6-3.3,9.9-6.4c2.3-3.1,4.4-5.9,8.9-5.9c4.4,0,6.5,2.8,8.9,5.9c1.4,3.1,3.7,6.4,8.8,6.4c5.1,0,7.6-3.3,9.9-6.4
	s4.4-5.9,8.9-5.9s6.5,3,8.9,5.9c2.3,3.1,4.8,6.4,9.9,6.4c5.1,0,7.6-3.3,9.9-6.4c2.3-3,4.4-5.9,8.9-5.9s6.5,3,8.9,5.9
	c2.3,3.1,4.8,6.4,9.9,6.4V18V0L0,0.1L0,0.1z"/>
</svg>
