<svg xmlns="http://www.w3.org/2000/svg" viewBox="0 0 845 149.5" preserveAspectRatio="none">
<g>
	<path class="elementor-shape-fill ha-shape-divider" fill="#FFFFFF" d="M844.9,5.4c0,0-4.1,21.3-26.2,19.8c-22.1-1.5-28.1-20.8-45.7,0.1c-17.6,20.9-27.3,38.9-47.9,24.3
		C704.5,35,700,28.3,683.6,36.1c-16.5,7.9-23.6,3.4-30.7-10.5c-5-9.7-12-12.4-20.1-11.8c-5.8,0.4-11.1,3.2-15.4,7.1
		c-6.3,5.8-15.5,10.9-28.6,10.9c-17.3,0-34-15.3-55,0s23,24.5,12.5,39.4c-16.9,24.1-48.1-12.5-61.4-8.8
		c-42.8,12.1,49.5,63.7,12.1,84c-28.8,15.7-38.1-33.8-40.3-42.8s-12.1-10.3-23.7-1.5s-19.7,2.8-22.4-2.6c-2.6-5.5-0.4-15.1,9.9-24.3
		s12.9-30.2-3.9-38.8s-35.3,0.4-47.3,8.8c-12.1,8.3-32.4,32.9-44.7,11.6s-33.7,9-33.7,9s-13.4,20.8-43.8-4.2
		c-30.5-25-39.9-33.7-66.6-33.7c-26.7,0-43.2,35.9-96.9,35.9S6,24.2,0,5.3L0,0l844.9,0V5.4z"/>
	<circle fill="#FFFFFF" cx="544.3" cy="101.3" r="12"/>
	<circle fill="#FFFFFF" cx="191.2" cy="62.3" r="12.7"/>
	<circle fill="#FFFFFF" cx="668.4" cy="55.7" r="6.6"/>
	<circle fill="#FFFFFF" cx="432.9" cy="139.8" r="9.8"/>
</g>
</svg>
