<svg version="1.1" id="Layer_1" xmlns="http://www.w3.org/2000/svg" xmlns:xlink="http://www.w3.org/1999/xlink" x="0px" y="0px"
	 width="844.9px" height="102.2px" viewBox="0 0 844.9 102.2" enable-background="new 0 0 844.9 102.2" xml:space="preserve" preserveAspectRatio="none">
<g>
	<path class="elementor-shape-fill ha-shape-divider" fill="#FFFFFF" d="M511.6,64.3c-5.5-0.6-2.5,8.9,1.1,4.2C514.1,66.8,513.5,64.5,511.6,64.3z"/>
	<path class="elementor-shape-fill ha-shape-divider" fill="#FFFFFF" d="M513.9,86.7c1.7,1.5,3.8-2.3,3.6-3C516,81.4,512.2,85.2,513.9,86.7z"/>
	<path class="elementor-shape-fill ha-shape-divider" fill="#FFFFFF" d="M483.1,65.1c-4.6,1.3-2.3,6.8,1.3,2.7C485.4,66.2,485,64.5,483.1,65.1z"/>
	<path class="elementor-shape-fill ha-shape-divider" fill="#FFFFFF" d="M520.7,56.7c-1.9,0.2-2.5,2.5-1.1,4.2C523.2,65.6,526.1,56.1,520.7,56.7z"/>
	<path class="elementor-shape-fill ha-shape-divider" fill="#FFFFFF" d="M549.2,57.5c-1.7-0.4-2.3,1.3-1.3,2.7C551.5,64.1,553.8,58.8,549.2,57.5z"/>
	<path class="elementor-shape-fill ha-shape-divider" fill="#FFFFFF" d="M549.2,48.7c3.8-4-8.2-4.2-3.4-0.6C546.6,48.7,548.3,49.5,549.2,48.7z"/>
	<path class="elementor-shape-fill ha-shape-divider" fill="#FFFFFF" d="M104.4,26.8c1.3-0.2,1.8,0.3,2,0.5c2.1,2.7,0.6,6.3,7.6,7.4c3.1,0.7,8.2-0.1,12.2-0.9
		c2.6-0.5,5.2-1.3,7.6-2.5c3.6-1.8,6.5-3.7,11.7-4.4c6.8-1.1,14.8-1.5,21.8-1.9c5.9-0.2,11.4-0.2,15.6,2.5c4,2.3,4.5,5.7,8.4,7
		c19.1,6.4,32.9-5.5,49.2-10c1.1-0.3,2.4,0.1,2.9,1.2c0.7,1.3-0.1,2.6-0.7,4c-0.6,1.4-0.8,2.9-0.3,4.3c2.6,6.7,15.6-1.8,22-4.3
		c3.6-1.5,6.3-2.1,8.4-2.1c1.7,0,2.3,0.2,3,0.4c3.3,1.2,4.8,4.3,7,7.1c0.3,0.4,0.1,0.9-0.3,1c-1.9,0.7-3.8,1.3-5.3,2.6
		c-2.1,1.9-1.7,4.6,1.5,4.6c2.3,0,5.5-3,7-4.2c0.2-0.2,0.4-0.4,0.6-0.8c4.2,2.5,10.8,3,17.3,1.3c-1.1,2.3-2.1,4.6-0.8,5.9
		c2.3,2.3,6.8-1.3,9.3,0.4c3.6,2.3-9.9,9.3,1.3,9.9c2.3,0,5.9-0.6,5.5,2.5c-0.2,2.3-4.2,2.1-4.6,4.9c-0.2,3,4.6,2.3,2.3,6.3
		c-1.5,2.1-5.7,3-6.3,5.5c-0.6,3.6,3,2.1,4.6,1.1c2.5-1.7,4-5.7,7-7.2c2.3-1.5,4.9-0.4,6.3-3.8c0.6-1.7-0.2-6.3,2.1-7.2
		c5.1-1.7-1.7,12.9,5.3,9.9c3.8-1.9,2.1-9.9,3.6-12.9c1.1-1.9,3-5.5,5.7-4.2c0.4,0.3,0.7,0.6,0.9,0.9c0.1,0.3,0.2,0.7,0.2,1
		c-0.1,1.5-1.2,3.4,0.4,4.3c1.5,1.1,3.8-0.8,5.3-2.5c0.2-0.2,0.4-0.2,0.4-0.4c0.2-0.4,0.4-0.6,0.6-0.8c3-3.6,2.3-10.4,6.5-14.4
		c0.9-0.9,3.1-2.7,5.1-3.2c1.8-0.4,3.2-1.8,3.8-3.5c1.1-3,2-6,2.9-9.2c0.2-0.6,0.6-1.2,1.1-1.6l0,0c1.3-0.8,3-0.5,3.8,0.8
		c0.9,1.3,1.5,2.8,1.6,4.3c1,11.7-23.9,26.7-23.5,34.1c0,0,0.4,1.7,0.4,3c0.6,9.9-13.9,17.3-14.6,20.5c-0.2,1.1,1.3,2.5,4.4,2.3
		c15-1.1,21.3-27.5,26.6-27.9c1.5-0.2,3.6,1.7,3.8,4.6c0.2,3-1.5,5.9-1.3,9.1c0.2,2.3,1.5,2.3,2.7,2.3c6.8-0.4,8.4-28.7,23.4-29.8
		c18.4-1.3,10.6,29.6,20.1,28.9c4.9-0.4,11.4-8.4,12.9-8.7c4-0.2,1.3,9.1,11.6,8.4c1.7-0.2,3.8-0.6,3.8-0.6c3.8-0.2,1.7,6.1,5.3,5.9
		c1.1,0,1.9-0.8,3-1.1c2.7-0.2,7.6,6.3,12.3,5.9c1.9-0.2,4.9-1.7,4.6-4.6c-0.4-6.5-11.2-1.9-15.2-11.6c-1.5-3.8-0.6-9.3-4.4-12.3
		c-4.6-3.6-22.8-20.1-23.4-27.7c-0.2-3.4,0.2-6.5,1.3-8.9c0.4,0,0.6,0,1.1,0c0.4,0.2,1.1,0.4,1.5,0.6c2.5,5.9,5.3,11.6,8.4,17.1
		c1.9-1.7,6.3,0.8,7.8,1.9c4.6,3.4,5.1,10.1,8.4,13.3c1.1,1.3,5.3,4.6,7,3c1.9-1.7-1.9-4.6,0.6-6.3c2.7-1.7,5.1,1.7,6.3,3.4
		c1.9,3,1.3,11,5.3,12.3c7.4,2.1-1.3-11.4,3.8-10.6c0.6,0.2,1.1,0.6,1.5,1.3c-1.3,0.4-1.9,1.5-0.6,3c0.4,0.4,1.1,0.4,1.5,0.2
		c0.2,1.1,0.4,1.9,0.6,2.5c1.9,3.2,4.2,1.9,6.8,3c3,1.1,5.1,4.9,7.8,6.1c1.9,1.1,5.5,1.9,4.4-1.7c-0.8-2.5-5.3-2.7-7-4.6
		c-2.7-3.6,2.1-3.6,1.5-6.5c-0.6-2.5-4.6-1.7-5.3-4c-0.8-3.2,2.7-3,5.1-3.4c10.8-2.1-3.4-7-0.2-9.9c1.3-1.1,3-0.8,4.6-0.6
		c0.6,0.4,1.7,0.8,2.7,1.3c7.8,2.5,16.1,1.9,20.3-1.5c2.1-1.7,3.4-4.2,4.9-6.1h0.2c1.9-0.2,2.7-1.5,2.3-2.5c0.4-0.2,1.1-0.6,1.5-0.8
		c1.1-0.2,1.9-0.2,3-0.4c2.1,0,4.9,0.6,8.4,2.1c6.4,2.5,19.3,11.1,22,4.3c0.5-1.3,0.4-2.8-0.2-4.1c-0.7-1.4-1.5-2.9-0.8-4.2
		c0.6-1,1.9-1.5,3-1.1c16.3,4.5,30.2,16.4,49.1,10c5.1-1.9,4.4-4.9,8.4-7c4.2-2.7,9.7-2.7,15.6-2.5c7,0.4,15,0.8,21.8,1.9
		c7.2,1.1,9.9,4.2,16.3,6.3c4,1.1,11.2,2.3,15.2,1.5c7-1.1,5.5-4.6,7.6-7.4l0,0c1.1-1.2,2.7-1.8,4.3-1.7
		c90.8,5.3,137.1,11.7,137.1,11.7V-0.1L0-0.1l0,37.4C1,37.3,30.1,31.9,104.4,26.8z"/>
	<path class="elementor-shape-fill ha-shape-divider" fill="#FFFFFF" d="M343.4,73.8c0.6,0,0.8-0.6,0.8-1.3c0-1.1-1.5-1.9-2.5-1.7c-0.8,0-1.3,0.6-1.3,1.5
		C340.3,73.4,342.2,73.8,343.4,73.8z"/>
	<path class="elementor-shape-fill ha-shape-divider" fill="#FFFFFF" d="M355.5,86.3c-1.5,1.3-2.1,2.3-3.8,3c-5.1,2.1-6.1,5.3-5.9,6.3c0,1.3,1.1,1.5,3,1.3c4.9-0.4,8.4-4.6,9.1-8.2
		C358.2,86.3,357.2,84.8,355.5,86.3z"/>
	<path class="elementor-shape-fill ha-shape-divider" fill="#FFFFFF" d="M363.3,93.9c-0.8,0-3.2,2.3-3,5.3c0.2,1.5,0.8,3,2.3,3c1.3,0,3.4-1.5,3.2-3.6
		C365.6,96.2,364.5,93.7,363.3,93.9z"/>
	<path class="elementor-shape-fill ha-shape-divider" fill="#FFFFFF" d="M375.5,80.6c-1.7,0.2-3.4,3-3.4,4.6c0.2,1.7,1.3,2.5,2.1,2.5c1.1,0,2.7-1.3,2.5-4.2
		C377,82.9,376.6,80.6,375.5,80.6z"/>
	<path class="elementor-shape-fill ha-shape-divider" fill="#FFFFFF" d="M430.2,78c-0.4,0.4-0.6,1.1-0.4,1.7c0,0.6,3.8,11.8,5.3,11.6c1.9-0.2,2.7-1.9,2.5-3.8
		C437.4,85.6,431.1,77,430.2,78z"/>
	<path class="elementor-shape-fill ha-shape-divider" fill="#FFFFFF" d="M457.3,81.8c-0.6,0-2.3,2.1-2.1,4.2s1.7,3.4,3,3.2c1.1,0,1.7-2.7,1.5-4.2C459.4,82.9,458.1,81.8,457.3,81.8
		z"/>
	<path class="elementor-shape-fill ha-shape-divider" fill="#FFFFFF" d="M468.9,87.1c-1.1,0-1.9,0.2-1.9,1.5c0.2,1.9,1.7,4,3.4,3.8c1.3,0,1.5-0.6,1.5-1.7
		C471.9,88.8,470.8,86.9,468.9,87.1z"/>
	<path class="elementor-shape-fill ha-shape-divider" fill="#FFFFFF" d="M477.6,75.3c-0.6,0.2-0.4,0.8-0.4,1.5c0,1.3,1.3,2.1,2.3,2.1C482,78.4,479.7,74.6,477.6,75.3z"/>
	<path class="elementor-shape-fill ha-shape-divider" fill="#FFFFFF" d="M419,82.9c-1.5-0.4-1.5,2.3-1.3,3.4c0.2,2.7,3.6,5.9,3.4,2.5C420.9,87.3,420.7,83.1,419,82.9z"/>
	<path class="elementor-shape-fill ha-shape-divider" fill="#FFFFFF" d="M416.9,96.8c0,0-1.7,0-1.5,1.5c0,0.8,1.5,2.3,2.5,2.3c0.6,0,1.1-0.6,1.1-1.5C419,98.1,418.2,97,416.9,96.8z
		"/>
	<path class="elementor-shape-fill ha-shape-divider" fill="#FFFFFF" d="M366,72.5c-1.5-0.2-3.4,2.3-3.2,4.9c0,1.1,0.4,1.1,1.1,1.1c1.7-0.2,3-1.7,3-3.2
		C366.9,74.6,366.4,72.5,366,72.5z"/>
</g>
</svg>
