<svg xmlns="http://www.w3.org/2000/svg" viewBox="0 0 4080 400" preserveAspectRatio="none">>
<path  class="elementor-shape-fill ha-shape-divider" d="M0,0v364.8c0,0,32.6-90,185.6-54s195,76,336-8.5s140.1,108,219,48.8c86.3-64.6,132.1-55.5,195-11.5
	c106.9,74.8,134-43.8,254.4-14.3c26.3,6.4,54-1.2,73-20.6c28.2-28.8,70.7-61,104.6-37c55,39,67,57,111.1,36c44-21,63-9,82,28
	c13.3,25.8,32,33.1,53.6,31.5c15.5-1.2,29.7-8.5,41.2-19.1c16.8-15.4,41.5-29.2,76.4-29.2c46.3,0,90.8,41,147,0
	c56.2-41-61.6-65.4-33.4-105.4c45.3-64.4,127.4,26.4,164,23.4c40.3-3.2,54.6-43.2,30.4-65.5c-50.8-46.8-101.7-111-53.5-140.9
	c57.5-35.6,92.8,72.2,98.6,96.3c5.9,24,32.2,27.5,63.3,4.1c31-23.4,52.7-7.6,59.8,7c7,14.6,1.2,40.4-26.4,65
	c-27.5,24.6-34.6,80.8,10.5,103.7s94.3-1.2,126.5-23.4c32.2-22.3,86.7-87.9,119.5-31c32.8,56.8,90.2-24,90.2-24
	s35.7-55.7,117.2,11.1c81.4,66.8,106.6,90.2,178.1,90.2c71.5,0,115.4-96.1,258.9-96.1c51.5,0,92.8,13.6,125.3,33.5
	c23.4,12.5,58.1,39.5,111.7,88.1c74.2,67.4,80.1-133.3,224.8-48.8C3689.3,386.8,3837,329,3905,269c120.9-106.6,175,95.8,175,95.8V0
	H0z M1519.2,269c-9.8,0-17.7-7.9-17.7-17.7s7.9-17.7,17.7-17.7c9.8,0,17.7,7.9,17.7,17.7S1528.9,269,1519.2,269z M1851,161.5
	c-17.7,0-32-14.3-32-32s14.3-32,32-32s32,14.3,32,32S1868.7,161.5,1851,161.5z M2138.1,72.2c-14.5,0-26.3-11.8-26.3-26.3
	c0-14.5,11.8-26.3,26.3-26.3s26.3,11.8,26.3,26.3C2164.4,60.4,2152.7,72.2,2138.1,72.2z M2795.1,267.5c-18.7,0-33.8-15.2-33.8-33.8
	c0-18.7,15.2-33.8,33.8-33.8s33.8,15.2,33.8,33.8C2828.9,252.4,2813.8,267.5,2795.1,267.5z"/>
</svg>
