<svg xmlns="http://www.w3.org/2000/svg" viewBox="0 0 4080 400" preserveAspectRatio="none">
<g>
	<circle class="elementor-shape-fill ha-shape-divider" cx="1851" cy="129.5" r="32"/>
	<circle class="elementor-shape-fill ha-shape-divider" cx="2795.1" cy="233.7" r="33.8"/>
	<circle class="elementor-shape-fill ha-shape-divider" cx="1519.2" cy="251.4" r="17.7"/>
	<circle class="elementor-shape-fill ha-shape-divider" cx="2138.1" cy="45.9" r="26.3"/>
	<path  class="elementor-shape-fill ha-shape-divider" d="M3905,269c-68,60-215.7,117.8-360.4,33.3c-144.7-84.5-150.6,116.2-224.8,48.8c-53.5-48.6-88.3-75.5-111.7-88.1
		c-32.5-19.8-73.7-33.5-125.3-33.5c-143.5,0-187.5,96.1-258.9,96.1c-71.5,0-96.7-23.4-178.1-90.2c-81.4-66.8-117.2-11.1-117.2-11.1
		s-57.4,80.8-90.2,24c-32.8-56.8-87.3,8.8-119.5,31c-32.2,22.3-81.4,46.3-126.5,23.4s-38.1-79.1-10.5-103.7
		c27.5-24.6,33.4-50.4,26.4-65c-7-14.6-28.7-30.5-59.8-7c-31,23.4-57.4,19.9-63.3-4.1c-5.9-24-41.2-131.8-98.6-96.3
		c-48.2,29.9,2.7,94.1,53.5,140.9c24.2,22.3,9.9,62.3-30.4,65.5c-36.7,2.9-118.7-87.8-164-23.4c-28.2,40,89.6,64.4,33.4,105.4
		c-56.2,41-100.8,0-147,0c-34.9,0-59.6,13.8-76.4,29.2c-11.4,10.5-25.7,17.9-41.2,19.1c-21.6,1.7-40.4-5.7-53.6-31.5
		c-19-37-38-49-82-28c-44,21-56,3-111.1-36c-33.9-24-76.3,8.1-104.6,37c-18.9,19.4-46.7,27-73,20.6
		c-120.4-29.5-147.5,89.1-254.4,14.3c-62.9-44-108.8-53.2-195,11.5c-78.9,59.1-78-133.3-219-48.8s-183,44.5-336,8.5S0,364.8,0,364.8
		V400h4080v-35.2C4080,364.8,4025.9,162.5,3905,269z"/>
</g>
</svg>
