<svg xmlns="http://www.w3.org/2000/svg" viewBox="0 0 4080 400" preserveAspectRatio="none">
<g>
	<path class="elementor-shape-fill ha-shape-divider" d="M3407.7,217.6l-0.4,0.9l59.3,29.4c-2.3-0.1-6-0.4-8.4-1.5c-3.7-1.7-16.6-4.2-24.7,0.7c-7.1-4.2-14.3-7.9-16.8-5.8
		c-3.7,3.2,21.7,22.8,29.7,27.6c8.8,5.3,22.4,9.8,19.4,1c-0.1-0.3-4.6-4.2-10-8.5c0.1,0,0.2-0.1,0.2-0.1c0,0,5.6-5.4,9.3-3.5
		c3.7,1.9,5.1,6.7,10.1,3.5c5.1-3.2,11.3-15.8,8.8-24.3c-1.2-1.3-1.7-1.8-1.9-2c0.4-0.9,2.4-5.7,0.6-8.4c-2-3-9.3-1-7.9,6.6
		l-1.5,7.4l-2,1.4v-43.3h-0.9c1.1-0.1,2.2-0.2,3-0.2c1.9-0.1,3.3-1.7,3.1-3.6c-1-12-4.5-34.5-35.3-33c-34.1,1.7-52.2,26.6-56.2,31.7
		c-4,5.1,7.9,21.4,10.1,24.4C3396.8,220.2,3399,221.3,3407.7,217.6z M3451.3,258.1c-2.7-2-5.5-3.8-7.9-5.2c-2.4-1.4-5.2-3.1-8-4.8
		c4.4,1,12-1.7,21.7,0.5C3467.4,251.2,3456.8,256.5,3451.3,258.1z M3468.8,247.9L3468.8,247.9L3468.8,247.9L3468.8,247.9z
		 M3422,210.7c15-8,36.4-10.9,47.5-11.8v43.9l-0.7,1.2v3l-59.9-29.7C3412.3,215.7,3416.5,213.6,3422,210.7z"/>
	<path class="elementor-shape-fill ha-shape-divider" d="M3944.3,300.7c0.5-0.2,0.8-0.6,0.9-1.1c0.1-0.6,0.3-1.2,0.5-1.9c0-0.6,0-1.1,0-1.7c0-0.1-0.1-0.1-0.1-0.2
		c-0.1-0.8-0.2-1.6-0.2-2.4c-0.1-0.9-0.3-1.9-0.3-2.8c0-1.2,0-2.4-0.2-3.5c-0.2-0.9-0.5-1.8-1-2.5c-0.3-0.4-0.4-0.4-0.8-0.1
		c-0.3,0.2-0.6,0.4-1,0.5c-0.6,0.1-1.1,0.3-1.6,0.5c-0.6,0.2-1.2,0.5-1.8,0.7c-0.1,0-0.2,0-0.3,0c-1.2,0-2.4-0.4-3.4-1
		c-0.5-0.3-1-0.6-1.5-0.8c-1.7-0.8-3.4-1.6-5-2.7c-0.4-0.3-0.8-0.6-1.2-0.7c-1.3-0.5-2.6-0.6-4-0.5c-1.2,0.1-2.4,0.2-3.5,0.4
		c-0.4,0-0.7-0.1-0.9-0.5c-0.2-0.5-0.4-1-0.6-1.5c-0.2-0.5-0.3-1-0.5-1.6c-0.1-0.4-0.2-0.8-0.2-1.2c0-1.1,0.1-2.2,0.1-3.2
		c0-1.9-0.2-3.8-0.7-5.7c0-0.1,0-0.3,0.1-0.5c0.3-0.5,0.7-1.1,1-1.6c0.6-1,0.9-2.1,1-3.3c0.2-2-0.2-3.9-0.7-5.8
		c-0.3-1.1-0.8-2.2-1.2-3.3c0-0.1,0-0.4,0-0.4c0.4-0.4,0.9-0.7,1.4-1.1c1.8-1.2,3.5-2.5,4.8-4.2c0.9-1.1,1.7-2.2,2.6-3.3
		c0.4-0.5,0.3-1,0-1.5c-0.8-1.5-1.6-3-2.4-4.5c-0.9-1.7-2.2-3.2-3.5-4.7c-0.9-1-1.6-2.1-2.7-2.9c-0.3-0.2-0.6-0.4-1-0.5
		c-0.3-0.2-0.7-0.3-1-0.5c-1-0.6-1.9-1.2-2.9-1.8c-0.1-0.1-0.2-0.1-0.3-0.2c-0.9-0.3-1.5-1.2-1.3-2.1c0.1-0.5,0.3-1.1,0.5-1.5
		c0.5-0.7,0.8-1.5,0.8-2.3c0,0,0-0.1,0-0.2c0.2,0.1,0.3,0.2,0.5,0.3c0.2-0.3,0.3-0.6,0.4-0.8c-0.1-0.1-0.2-0.1-0.3-0.2
		c0.1-0.1,0.2-0.3,0.2-0.3c0.3,0,0.3-0.3,0.3-0.5c0.2-1,0.1-1.9-0.2-2.8c-0.8-2.3-2.2-3.9-4.7-4.4c-0.4-0.1-0.8-0.1-1.2-0.2
		c-0.3,0-0.7,0-1,0c-0.3,0.1-0.6,0.3-0.9,0.4c-0.8,0.2-1.4,0.6-2,1.1c-0.2,0.2-0.6,0.4-0.9,0.5c-0.1,0-0.2,0-0.2,0.1
		c-0.4,0.5-1,0.5-1.6,0.4c-1,0-2,0-3.1-0.1c-0.3,0-0.4,0.1-0.4,0.4c0.2,0.7,0.4,1.5,0.7,2.2c0.5,1,1.4,1.2,2.4,1.4
		c0.2,0,0.3,0.1,0.4,0.1c-0.1,0.2-0.1,0.3-0.3,0.5c-0.2,0.3-0.5,0.5-0.7,0.8c-0.2,0.3-0.1,0.5,0.2,0.6c0.5,0.3,0.6,0.5,0.4,1.1
		c0,0.1,0,0.4,0.1,0.5c0.2,0.2,0.3,0.4,0,0.6c-0.2,0.2-0.2,0.4-0.1,0.6c0.1,0.3,0.1,0.6,0,0.9c-0.3,0.8,0,1.4,0.9,1.6
		c0.4,0.1,0.9,0.1,1.4,0.2c1,0.2,1.6,0.8,1.7,1.9c0,0.3,0,0.5,0,0.8c-0.5,0.4-1.1,0.7-1.5,1.1c-0.5,0.4-0.8,0.8-1,1.4
		c-0.7,1.6-1.3,3.1-1.7,4.8c-0.4,1.8-0.3,3.5,0.7,5.1c0.3,0.4,0.5,0.9,0.8,1.4c0.5,1,0.8,2,0.9,3.1c0,0.4-0.1,0.5-0.4,0.5
		c-0.5,0.1-0.9,0.2-1.5,0.4c-0.2-0.2-0.4-0.1-0.7,0.1c-0.4,0.5-0.9,0.4-1.5,0.3c-0.4-0.1-0.8-0.2-1.2-0.2c-0.8-0.1-1.1,0.3-1,1
		c0,0.4,0,0.6-0.3,0.9c-0.1,0.1-0.1,0.4-0.1,0.6c0,0.3,0,0.6,0.1,0.9c0.1,0.5,0.2,1.1,0.4,1.6c0.2,0.5,1.1,0.8,1.8,0.5
		c0.7-0.3,1.3-0.6,1.9-1c0.4-0.3,0.8-0.5,1.3-0.5c0.6,0,1.2-0.1,1.8-0.1c0.3,0,0.5,0.1,0.5,0.3c0.1,0.5,0.1,1,0.1,1.5
		c0,0.8-0.1,1.5-0.2,2.3c-0.1,1.2,0.3,2.3,0.7,3.3c0.1,0.4,0.3,0.7,0.4,1.2c-0.3,0-0.4-0.1-0.7-0.1c-0.3,1.1-0.6,2.2-0.8,3.2
		c-0.3,1.5-0.5,2.9-0.8,4.4c0,0.1-0.1,0.3-0.2,0.4c-1.2,1.4-1.9,3.1-2.5,4.8c-0.3,0.8-0.5,1.5-1.1,2.2c-0.3,0.3-0.5,0.7-0.6,1
		c-0.5,1.3-1,2.6-1.5,3.8c-0.5,1.4-0.5,2.8-0.1,4.2c0.8,2.3,0.6,4.7,0.2,7c-0.4,2.4-0.6,4.8-0.7,7.2c0,1.1-0.2,2.1-0.6,3.2
		c-0.3,0.9-0.6,1.8-0.9,2.6c-0.1,0.2-0.2,0.3-0.4,0.3c-0.3,0-0.7,0.2-1-0.1c-0.1,0-0.3,0.1-0.4,0.1c-0.1,0.2-0.3,0.4-0.3,0.7
		c-0.3,0.8-0.9,1.2-1.6,1.6c-0.1,0.1-0.2,0.1-0.3,0.2c-0.4,0.4-0.9,0.6-1.4,0.2c-0.1,0-0.2,0-0.3,0c-0.8,0.4-1.6,0.1-2.3-0.1
		c-0.6-0.1-1.2-0.3-1.8-0.4c-0.2,0-0.5-0.1-0.7,0c-0.6,0-0.7,0.1-0.8,0.7c0,0.3-0.2,0.5-0.4,0.6c0,0.1,0,0.3,0,0.4
		c0.9,1.6,2.4,2.6,3.9,3.5c2.2,1.3,4.5,1.9,7,2.4c0.3,0,0.6,0.1,0.9,0.2c-208.3,50.7-300.2,47.3-438.8,42.3
		c-174.1-6.3-257.1-30.2-334.8-16.1c-70.1,12.7-111.5,11.7-208.8,11.4c5-2.2,9.2-6,11.8-11c5.2-10.3,2.3-22.1-7.3-29.3
		c-1.5-1.1-1.8-2-0.6-3.6c5.8,6,11.4,12.1,17.2,18c2.3,2.4,5.2,4.4,3.2,8.3c0,0.1,0,0.2,0,0.3c0.2,2.8-1.3,4.2-3.9,4.9
		c-1.3,0.3-2.3,1.5-4.1,2.7c3,1.1,5.4,1.5,7.1,2.8c2,1.6,2.7,1.3,3.3-1c0.5-1.7,1.5-2.6,3.7-2.3c1.6,0.2,3.5-0.3,4.9-1.2
		c2-1.2,3-1.2,4.3,1c6.5,11.3,20.6,13.1,30,6.1c4-2.9,6.9-6.6,8.8-11.2c3.4-8.5,2.4-16.4-4-23c-6.3-6.7-14.2-8.1-22.8-5
		c-2.1,0.7-3.4,0.3-4.5-1.3c-2.3-3.2-3.8-6.6-1.9-10.7c0.9-1.9,1.3-4,1.9-6.1c0.7-2.5,2.2-4.1,4.8-4.9c2.3-0.7,4.4-2,6.5-3
		c-0.7-1.3-1.3-2-1.6-2.8c-1.4-4.4-2.5-9-4.3-13.3c-1.7-4-5.7-5.9-9-8.6c-6.9-5.8-14.8-8.1-23.4-10c0.4-0.5,0.7-1,1-1.4
		c2.1-2.5,2.1-3.7-0.2-5.9c-3.7-3.7-8.2-4.6-12-2.2c-1.6,1-2.9,2.8-4.1,4.3c-1.4,1.8,0.7,3.5,0.7,4.8c-0.1,3.4,1.4,5.8,3.1,8.3
		c0.7,1,1.8,1.7,2.8,2.5c0.4-0.2,0.7-0.3,1.1-0.5c-0.4,1.8-0.5,3.7-1.1,5.5c-1.6,4.8-3.9,9-8.2,12.2c-3.3,2.5-5.8,5.9-8.8,8.7
		c-2.3,2.1-5.1,3.2-8.4,2.4c-0.7-0.2-2.4,1.2-2.4,1.3c1.5,3.3-0.7,6.1-1.1,9.2c1.6-0.9,3.5-1.5,1.9-4.3c2.8,2.1,4,5,3.7,8
		c4.6-1.3,6.9,2.4,10.2,4.2c-0.7,1.3-1.3,2.3-1.9,3.4c-1.2-0.1-2.3-0.1-3.5-0.2c-9.2-0.2-16.2,3.7-21,11.5
		c-7.3,11.6-2.8,27,8.6,32.5c-4.5,0-9,0-13.7,0c-122.3,0-184.3-16.3-234.5-31.2c-50.2-14.9-60.4-1.6-183.5-21.2
		c-3.7-0.6-7.4-1.2-11.1-1.9c-64.6-11.4-122.3-46.6-163.7-97.5c0,0,0,0,0,0c-0.1-1-0.1-1.7-0.2-2.4c0-0.3-0.1-0.5-0.2-0.8
		c-0.4-1.1-0.2-2.1,0.7-2.7c1.1-0.8,1.7-1.8,2.2-3c0.8-2.2,1.7-4.3,2.6-6.5c0.1-0.2,0.4-0.4,0.7-0.5c1.1-0.4,1.5-0.8,1.6-2
		c0-0.1,0-0.3,0-0.4c-0.3-2.7,0.8-5,2.4-7c0.5-0.6,0.9-1.2,1.4-1.8c1,1.3,1.9,2.5,2.6,4c2.8,6.5,5.7,13,8.6,19.5
		c0.2,0.4,0.3,0.9,1,0.4c-2.9-6.5-5.8-13-8.7-19.5c0.1-0.1,0.1-0.1,0.2-0.2c0.1,0.1,0.2,0.3,0.4,0.4c0.9,0.6,1.3,0.3,1.4-0.7
		c0.1-0.8,0.2-1.7,0.4-2.5c0-0.3,0.2-0.5,0.4-0.9c0.2,0.4,0.4,0.6,0.4,0.8c0.2,1.8,0.4,3.6,0.6,5.4c0,0.3,0.4,0.6,0.6,0.9
		c0.2-0.3,0.6-0.6,0.6-1c0-1.3,0-2.7-0.1-4c-0.1-1.5-0.4-3-0.6-4.5c-0.1-1.4,0.4-2.8,1.3-3.8c1.4-1.5,1.6-3.5,0.1-5.3
		c-0.8-1-1.9-1.9-2.9-2.8c-0.3-0.2-0.5-0.6-0.6-0.9c-0.6-2.4-1.2-4.8-1.8-7.2c-0.1-0.5,0-1.2,0.1-1.6c0.4-0.9,0.7-0.9,1.4-0.2
		c0.2,0.2,0.6,0.2,0.9,0.3c0.1-0.3,0.3-0.6,0.2-0.8c-0.4-1.1-0.8-2.3-1.4-3.4c-1.6-3.2-3.7-6.1-6.2-8.7c-3.7-3.8-8.4-5.6-13.6-6.1
		c-2-0.2-4-0.1-5.8,0.7c-0.6,0.2-1.2,0.8-1.5,1.3c-0.3,0.7-0.5,1.5-0.5,2.3c-0.1,1.1-0.4,1.4-1.6,1.3c-0.9-0.1-1.9-0.3-2.8-0.4
		c-1.5-0.2-3.1-0.2-4.5,0.6c-0.6,0.4-1.3,1-1.5,1.6c-0.6,1.8-0.9,3.7-0.6,5.6c0.3,1.5,1.1,2.6,2.5,3.4c0.2,0.1,0.5,0.2,0.6,0.4
		c0.5,1.1,1.4,1.6,2.6,1.7c0.3,0,0.7,0.3,1,0.5c0.5,0.4,0.6,0.8,0.3,1.5c-1.6,2.7-3,5.6-5.8,7.3c-0.9,0.6-2,1-3,1.4
		c-1.8,0.7-3.7,1.2-5.4,2.1c-1.1,0.5-2.1,0.5-3.1-0.1c-0.6-0.4-1.1-0.4-1.7-0.1c-0.2,0.1-0.5,0.1-0.7,0c-1-0.6-2-1.1-3-1.8
		c-0.3-0.2-0.4-0.5-0.6-0.8c-0.5-0.7-0.9-1.5-1.5-2.2c-0.3-0.4-0.9-0.6-1.3-0.8c-1-0.4-13.8-3.8-30.8-28.5c-0.5-1.2-1.1-2.5-1.6-3.7
		c-91.2-213.6-261.5-25.9-316.4,43.6c-17.1,21.6-36.6,41.3-58.3,58.3c-31.7,24.8-66.1,45-110.1,58.8c-0.3-11,3.4-35.9,4.6-39.5
		c1.3-4,3.6-6.2,2.9-11.6c-0.9-6.5-10.5-15-10.5-15l17.6-11l7.5,0.4l-0.5,3.7l2,0.3l0.5-3.9l1.8,0.1v-4.3h-1.2l4.5-33.4l-2-0.3
		l-4.6,33.7h-8.7l-8,2.7c0,0-14.3,6.6-20.3,9c-1-6.3-10.3-6.7-11.6-1.7c-1.3,5,5,8.6,5,8.6l-2.6,1.7c-4.3,4-4.7,17-7.4,22.3
		c-2.7,5.3-9.3,9-3.7,10.3l-1-0.2l-6.4,38.6c-8.6,1.7-17.5,3.2-26.8,4.4c-143.8,19.6-155.7,24.3-214.3,39.2
		c-27.2,6.9-57.4,14.1-96.2,19.9c-3.5-3.1-14.2-6.6-25.6-9.5c12.6-3.8,38.3-17.4,51.9-27.7c15.6-11.7,2-25.7,2-25.7
		s6.4-12.7-1.6-14.1c-8.1-1.4-9.4,9.3-9.4,9.3l-22.3-8.3c17-36.9,35.8-88,46.6-148.9c0,0-113.5,40.8-82.8,211.8
		c-6.4-1.3-11.8-2.2-14.7-2.4c-11.4-0.9-16.6,21.4-16.6,21.4c-0.3,0.7-0.4,1.3-0.4,1.9c-30.2,2.2-64.7,3.4-104.7,3.4
		c-142.9,0-97.3,1.6-202.1-12.8c-61.8-8.5-163.1,3.5-215.3-2.7c23.4-5.1,24.4-13.6,26.1-17.3c0.9-2-14.4-3.2-33.4-3.8l24.7-13.5
		L667.4,151.9l27.4,150.5c0,0-40.4-34.5-31-140.8c0,0-46.5,30.6-34.5,104.3c5,30.7,31,53.5,48,65.3c-0.3,0-0.4,0-0.4,0
		s-31.5,3.3-47.6,2.3c0,0,6.1,6,19.1,11.9c-43-1.6-104.9,13.9-164.3,16.6c-75,3.3-133.5-10.7-198.7-11.3c9.3-3.6,16.7-8,21-12.1
		c1.1-1.1,0.4-3-1.2-3.1c-11.3-0.4-23.3-0.3-34.9,0.1l-8.1-8.3c0.4-0.2,0.8-0.5,0.9-1c0.1-0.6-0.3-1.5-0.7-2
		c-0.1-0.1-0.2-0.2-0.3-0.2c-0.6-0.4-1.5,0.1-2.2,0.2c-0.2,0-0.4,0.1-0.6,0.1l-21-21.5c0.2-0.2,0.4-0.4,0.6-0.5
		c0.6-0.5,0.7-1.3,0.3-1.9c-0.4-0.7-1.4-0.9-2-0.4c-0.3,0.2-0.6,0.4-0.9,0.6l-4.6-4.7l-17.9-25.2c-1.4-2-4.6-1.4-5.2,1l-1.5,6.5
		c-0.3,1.1,0.2,2.3,1.1,3l21.1,15.2l5.2,5.3c-14.7,11.5-14.5,28.9-13.7,35.8c0.1,0.8,0.4,1.4,0.9,2c-17.9,2.4-29,5.2-25.6,6.9
		c1.1,0.7,2.2,1.3,3.3,1.9c-75.7-3.2-142.7-0.7-199.3-10.6V400h4080V262.8C4030,277.5,3985,290,3944.3,300.7z M3918.2,241
		c0.4,0.2,0.8,0.4,1.1,0.6c0.2,0.1,0.2,0.3,0.1,0.6c-0.4,0.6-0.7,1.3-1,2c-0.1,0.2-0.2,0.3-0.3,0.5
		C3917.9,243.5,3917.9,242.3,3918.2,241z M2298.3,150.7c0.5-0.4,1.2-0.7,1.9-1c0.6,2.5,1.2,4.8,1.8,7.3c-0.9,0-1.7-0.3-2-0.9
		c-0.8-1.4-1.4-2.8-2-4.3C2297.7,151.5,2298,150.9,2298.3,150.7z M228,317.3l0.6-1.5c0,0-0.1,1.8,0.7,2.6
		C229.3,318.4,227.9,318.9,228,317.3z M233.3,308.3c1.3-1.6,2.4-2.9,3.5-4l20,20.4c-1.6,0.1-3.1,0.1-4.7-0.2
		c-1.7-0.3-2.9-1.2-4.3-2.1c-0.6-0.4-1.2-0.7-1.9-1c-4.2-2-6.7-2.4-8.1-2.1c1-1.1,2-2.7,2-5.2C239.7,310.5,235.6,308.9,233.3,308.3z
		 M247.2,337c-3.8-2-7.5-1-7.5-1s-1-6-1-9.2c0-3.3,3.8,0.4,13.6,1c2,0.1,4.1,0.2,6.1,0.1c0.4,0,0.9,0,1.3-0.1l7.8,8
		C260.6,336,253.8,336.5,247.2,337z M1340.2,287l24.9,7.2v3.3c0,0-21.7-1.9-30,0C1336.8,294.1,1338.5,290.6,1340.2,287z
		 M1308.3,344.7C1308.3,344.7,1308.3,344.7,1308.3,344.7C1308.3,344.7,1308.3,344.7,1308.3,344.7c3.5-5.3,13.5-20.9,25.6-44.9
		c9.7,3.1,28.8,2.9,28.8,2.9s1.9,4.5-1.9,14.1c-3.8,9.6-16.1,9.3-24.2,10.8c-8.1,1.5-9,6.7-11.9,12.1
		C1321.9,345.1,1308.3,344.7,1308.3,344.7z M1703.7,289.8c-5.4,1.3-10.9,2.5-16.6,3.7l6.3-37.9l-1-0.2c5.7,1.3,12.3-23.9,16.2-26.6
		c3.9-2.7,8,9,8,15c0,6-6.3,18.6-8.6,28.6C1706.9,277.2,1705.2,284,1703.7,289.8z M1722.9,284.6c-4.7,1.4-9.4,2.7-14.3,4
		c5.3-16.9,12.1-33.7,15.8-42.4c0.4-1,1.9-0.6,1.8,0.5l-4.6,35.7C1721.6,282.4,1722.1,283.4,1722.9,284.6z M2258.2,165.2
		c0.8-0.3,1.6-0.6,2.4-0.8c1-0.2,2.1-0.2,3.1-0.4c4.1-0.6,7.2-2.8,9.6-6.1c0.9-1.2,1.7-2.5,2.8-3.5c1.4-1.3,4.8-0.2,5.4,1.7
		c0,0.1,0.1,0.2,0.1,0.4c0.2,2.1-1.8,5.1-3.9,5.7c-3.1,0.8-6.2,1.5-9.3,2.3c0,0.1,0,0.1,0,0.2c-3.2,0.8-6.3,1.5-9.5,2.3
		c-0.8,0.2-0.9-0.5-1.2-0.9C2257.7,165.9,2258,165.3,2258.2,165.2z M2270,176c-1.3-0.9-2.6-1.7-3.8-2.5c-0.8-0.5-1.5-1.2-1.9-2.1
		c-0.2-0.7-0.7-1.2-1.1-1.8c-0.1-0.2-0.1-0.4-0.1-0.6c0-0.4,0.1-0.7,0.2-1.2c3.3-0.8,6.6-1.6,10-2.5c-0.9,0.8-1.7,1.5-2.4,2.3
		c-0.8,0.8-1.2,1.7-1.1,2.9C2269.9,172.3,2269.9,174.1,2270,176z M2265.4,177.9c-0.1,0-0.1,0.1-0.2,0.1c-1.5-2.3-3-4.6-4.6-6.9
		c1.2,0.8,2.2,1.6,3.3,2.5c0.1,0.1,0.3,0.3,0.4,0.5C2264.7,175.3,2265,176.6,2265.4,177.9z M2253.3,168.1c-0.6-0.9-1.2-1.9-2-2.7
		c-1-1-1.7-2.1-2.3-3.2c0.1-0.1,0.1-0.2,0.2-0.3c0.5,0.4,1,0.7,1.5,1.1c0.7,0.5,1.4,0.9,1.9,1.6c0.6,0.8,1.3,1.3,2.2,1.6
		c0.4,0.1,0.9,0.2,1.3,0.3c0.3,1.4,0.3,1.4-0.9,1.7c-0.3,0.1-0.7,0.2-1,0.3C2253.8,168.6,2253.6,168.5,2253.3,168.1z M2266.6,187
		c-4.7-4.9-8.5-10.5-12-16.5c0.6-0.2,1.1-0.3,1.6-0.4c0.2,0,0.5,0.1,0.5,0.2c0.7,1.1,1.6,1.5,2.9,1c1.9,3.2,3.8,6.3,5.7,9.3
		c0.6,0.9,1,1.9,1.1,2.9c0.1,1.1,0.3,2.2,0.5,3.3C2266.8,186.9,2266.7,186.9,2266.6,187z M2274.7,188.6c-0.6,0.2-1.2,0.4-1.8,0.6
		c-1.8-2.6-3.5-5.2-5.3-7.7c0-0.1-0.1-0.1-0.1-0.2c-0.5-2-1-4-1.5-6c0.2,0.1,0.4,0.3,0.6,0.4c1.1,0.7,2.2,1.4,3.3,2.1
		c0.3,0.2,0.6,0.6,0.7,1c0.3,1.3,0.4,2.7,0.7,4c0.4,1.8,0.4,2.2,2.4,1.7c0.2-0.1,0.5-0.1,0.8-0.1c0.3,0,0.6,0.1,0.8,0.3
		C2276.3,186,2275.9,188.2,2274.7,188.6z M2277.6,193.2c-0.4-0.3-0.8-0.5-1.1-0.7c0.4,0,0.8,0,1.3-0.1
		C2277.7,192.7,2277.6,193,2277.6,193.2z M2279.7,186.4c-0.5-1.1-0.6-2.3-0.5-3.5c0.1-0.5-0.1-1.1-0.3-1.6c-0.1-0.3-0.4-0.6-0.4-0.9
		c-0.5-1.8-0.9-3.7-1.3-5.6c-0.2-0.8,0.4-1.5,1.1-1.9c0.5-0.2,1-0.4,1.4-0.5c1.7-0.3,3.4-0.6,5-1
		C2283.2,176.4,2281.5,181.4,2279.7,186.4z M2936.4,315.4c-0.8-0.7-1.4-1.7-2.2-2.2c-1.2-0.7-2.5-1.5-3.8-1.6c-0.5,0-1,1.9-1.6,3.1
		c-5-4-11.1-12-10.8-14.5c5.8,0,11.7-0.3,17.5,0.2c1.4,0.1,3.4,2.7,3.7,4.4c0.8,4.3,0.8,8.7,1.1,13.1c-0.2,0.1-0.5,0.3-0.7,0.4
		C2938.5,317.3,2937.4,316.4,2936.4,315.4z M2937.1,323.6c0.8-0.9,1.5-1.8,2.2-2.6c0.2,0.1,0.4,0.1,0.7,0.2c0.1,1.7,0.2,3.3,0.3,6
		C2938.9,325.6,2938.1,324.7,2937.1,323.6z M2942,294.6c-1.4-1.1-2.5-2.1-4.1-3.5c2.4-0.5,4.1-0.9,6.1-1.4
		C2943.2,291.5,2942.6,293,2942,294.6z M2955.2,327.6c3,0,6.1-0.3,9.3,0.2c-3.8,1.2-7.6,2.5-11.6,3.8
		C2952.2,329,2952.6,327.6,2955.2,327.6z M2980.8,313c6.1,4.3,8.8,12.7,6.5,20.1c-2.7,8.4-9.8,14-17.8,14c-6.8,0-12.6-3.6-14.2-9
		c2.9-0.6,5.8-1.1,8.7-1.7c0-0.1,0-0.2-0.1-0.4c-2.2,0.3-4.4,0.4-6.5,0.9c-2.5,0.6-3.9,0-3.9-3.2c5.6,0.1,11.3-4.4,17,0.8
		c-0.5,0.3-0.9,0.5-1.4,0.8c4-0.1,5-1.2,5.6-6.2c0.3-2.5-1-3.7-4.7-4.4c-0.5-0.1-1.1-0.5-1.3-0.9c-2.3-3.5-4.6-7.1-6.8-10.6
		C2967.2,308.9,2975,308.9,2980.8,313z M2956.6,317.7c0.5-1.1,1.5-1.9,2.6-3.1c2.7,3.7,5.3,7.1,8.2,11.1c-5.1,0.5-9.6,0.9-14.3,1.4
		C2954.3,323.7,2955.3,320.6,2956.6,317.7z M2953,301.3c-0.5,1.6-1.1,3.3-1.8,5.6c-1.1-1.3-1.8-2.1-2.9-3.4c1.4-1.1,2.6-2,3.8-3
		C2952.4,300.9,2952.7,301.1,2953,301.3z M2933.6,265.6c3.6,4,7.9,4.4,11.9,5.7c1.9,0.6,3.6,1.8,5.4,2.8c-1.6,1.2-3.2,2.5-4.9,3.4
		c-4.5,2.2-9.2,3.9-13.6,6.3c-5.3,2.9-5.7,6.2-1.8,11c0.5,0.7,1.1,1.3,1.8,2.1c-4.7,0-9.2,0-14.2,0c0.3-1.6,0.4-2.8,0.7-3.9
		c0.9-2.6,0.6-3-2.1-2.7c-0.7,0.1-1.4,0-2.4-0.4C2923.3,283.8,2930.3,276.4,2933.6,265.6z M2914.3,282.2c-1.1,3.4-3.1,5.3-7.5,5.1
		C2909.7,285.3,2912,283.7,2914.3,282.2z M2907.4,298.4c-1.2-2.3,0-4.4,2.6-4.8c1-0.1,2-0.5,3-0.7c0.9-0.1,1.8,0,2.9,0
		c-1,3.2-1.8,5.9-2.6,8.7C2910.9,301.5,2908.7,300.8,2907.4,298.4z M2893.7,346.8c-8.8-4.3-12.3-15.1-8-24.3
		c4.2-9,15.4-14.1,23.8-10.5c-2.3,5.3-3.4,11.2-7.8,15.6c-0.7,0.7-0.7,3-0.1,3.8c0.7,0.8,2.6,1.2,3.8,0.9c1.3-0.3,2.4-1.4,3.9-2.4
		c-1-0.3-1.7-0.5-2.8-0.8c2.3-5.1,4.6-10.3,6.9-15.4c8.1,4.4,11.3,15.5,7,24.1C2915.8,347,2902.8,351.3,2893.7,346.8z M3898.5,311.6
		c0.2-0.8,0.5-1.5,0.4-2.4c0-0.1,0-0.1,0-0.2c0-0.4,0.2-0.9,0.1-1.3c-0.2-0.8,0-1.5,0.1-2.2c0.1-0.4,0.1-0.8,0.1-1.2
		c0-0.1,0.1-0.2,0.1-0.3c0.2-0.5,0.4-0.9,0.6-1.4c0.2-0.6,0.3-1.3,0.5-1.9c0.5-1.5,1.1-2.9,1.7-4.4c1.1-2.4,1.4-5,1.1-7.6
		c-0.1-1.5-0.3-2.9-0.5-4.4c-0.1-0.9,0-1.6,0.6-2.3c1.2-1.7,2.8-3,4.4-4.3c1.4,2.3,2.7,4.6,4.1,6.8c0.4,0.7,0.7,1.4,1.3,2
		c0.4,0.4,0.8,0.6,1.4,0.6c0.8,0.1,1.7,0.1,2.5,0.1c2.1,0,4.1,0.3,6.1,0.9c1.7,0.5,3.6,0.6,5.4,0.8c1.5,0.1,3.1,0.1,4.5,0.7
		c1.3,0.5,2.8,0.8,4,1.7c0.1,0.1,0.2,0.1,0.3,0.2c-0.3,0.5-0.4,1-0.4,1.6c0.1,0.9,0.5,1.3,1.6,0.8c0.2-0.1,0.5-0.3,0.7-0.4
		c0.1,0,0.2,0,0.3,0c0.6,0.6,1.1,1.2,1.6,1.9c0.8,1.1,1.3,2.3,1.5,3.7c0,0.3,0.1,0.7,0.2,1c0.2,0.5,0.6,0.7,1.1,0.7
		c-15.7,4.1-30.8,7.9-45.4,11.5C3898.4,312.1,3898.4,311.8,3898.5,311.6z"/>
</g>
</svg>
