<svg xmlns="http://www.w3.org/2000/svg" viewBox="0 0 3990.2 400" preserveAspectRatio="none">
<path class="elementor-shape-fill ha-shape-divider" opacity="0.7" d="M0.1,317.8c12.7,1.8,24,3.7,35.4,5.5c6.4-7,18-10.7,28.7-9.2c2.3,1.1,4.6,2.2,6.9,3.3
	c11.3-11,38.3,1.1,49.7-9.8c12.5,8.7,31,11.7,46.8,7.5c2.5,6.7,13.5,7.8,22.3,7.5c8.7-0.3,19.7,0.2,23,6.7c2.8-1.9,5.5-3.7,8.3-5.6
	c4.5,6.7,12.8,11.6,22.1,13.1c2.4,0.4,4.9,0.6,6.7,1.9c2.7,1.9,2.6,5.3,4.2,7.9c3,4.7,12.7,5.1,16.3,0.7c1.9,1.4,3.9,2.8,5.9,4.2
	c2.3-2.6,4.5-5.1,6.8-7.7c3.8,2.6,7.7,5.1,11.5,7.7c0.8-7.6,10.5-13.8,19.9-12.7c11.9,1.4,22.9,12.3,33.4,7.6
	c-2.1,3.6-4.2,7.3-6.4,10.9c9.4-1.7,19.9,1.8,24.9,8.4c2.2,2.9,4.9,7,9.1,6.3c2.4-0.4,3.9-2.2,5.7-3.5c6.4-4.3,18.1,0.7,17.2,7.3
	c6.5-1.8,13-3.7,19.6-5.5c7.3,7.3,18.6,12,30.4,12.5c1,3.7,1.9,7.5,2.9,11.3c10-5.5,20.9-9.8,32.3-12.9c-6.4-1-5.7-9.1-1.1-12.8
	c4.6-3.8,11.3-6.1,14-10.9c2,0,4-0.1,5.9-0.1c1-2.1,1.9-4.1,2.9-6.2c11.6-6.1,24.6-10.5,38.1-13.1c14.5-12.2,35.4-19.5,56.5-19.7
	c2.7-0.1,5.4,0.1,8-0.4c2.7-0.5,5.2-1.5,7.8-2.3c2.7-0.8,4.7-3.1,6.8-4.6c0.6-0.4,1.2-0.8,2-0.7c1.7,0.2,1.8,2.5,3.4,2.8
	c1.8,0.2,3-2.4,4.7-1.8c0.6,0.2,1,0.9,1.6,1.1c1.6,0.6,3-1.8,4.8-1.5c0.6,0.1,1.1,0.6,1.6,0.9c0.7,0.4,1.6,0.5,2.5,0.6
	c2.9,0.4,5.9,0.8,8.8,1.2c2.9,0.4,6,0.8,8.6,2c2.6,1.2,4.7,3.3,4.7,5.7c4.9-0.9,10-0.6,14.6,0.9c-0.3,0.1-0.5,0.3-0.3,0.6
	c0.4,0.4,1.3,0.3,1.9,0.1c0.6-0.1,1.6,0,1.7,0.5c-0.8,0.3-1.6,0.8-2.1,1.4c3.5,0.4,7.1,0.5,10.6,0.4c-1.6,2.2-1.9,5-0.9,7.4
	c1.3-0.9,2.5-2,3.6-3.2c2.3,2.9,4.6,6,6.5,9.1c0.5-1.7,1.4-3.5,2.5-5.1c1.9,2.2,3.9,4.3,5.9,6.5c1-4.1,8.4-4.6,11.7-7.9
	c2-2,2.5-5.1,5.4-6.1c0.3-0.1,0.7-0.2,1.1-0.1c0.4,0.1,0.7,0.4,0.9,0.8c1.3,1.9,2.5,3.7,3.8,5.6c0.5,0.7,1,1.5,1.9,1.7
	c1.5,0.3,2.8-0.8,3.7-1.8c1.6-1.9,3.1-3.7,4.7-5.6c0.5-0.6,1-1.2,1.9-1.5c2.8-0.8,4.3,3,7.2,3.4c1.3-1,1.4-2.6,1.9-4.1
	c0.4-1.4,1.6-3.1,3.4-3c0.7,0,1.3,0.3,2,0.2c0.6-0.1,1.2-0.8,0.6-1.2c3-3.7,6.1-6.2,9.1-9.9c1.9-2.4,5.2-5,8.3-3.8
	c1.9,0.8,2.7,2.9,4.7,3.6c3.3,1.2,6.2-2.1,8.9-4c3.7-2.6,11.2-2.1,12,1.8c4.2-3.2,10.2-4.2,15.9-4.8c4.6-0.5,9.3-0.9,13.8,0.1
	c4.4,1,8.5,3.8,9.2,7.5c5.7-1.9,11.3-3.9,17-5.8c1.4-0.5,3-1,4.6-0.9c4.5,0.5,6.3,5.9,10.9,6c-0.4-3.3,4.7-5.2,8.8-5.1
	c4.1,0.1,8.4,1.3,12.2,0.1c6.2-1.9,7.3-8.4,7.4-13.7c4.9,0.7,9.4,2.9,12.3,6.1c1-3.1,0.8-6.4-0.4-9.3c2.7,1.1,6-1,7-3.3
	c1-2.3,0.7-4.9,1.4-7.2c1.4-4.4,6.8-7.8,12.4-7.8c2.2,6.2,3.2,12.7,2.9,19.2c8.2,0.5,16.5,0.6,24.7,0.3c1.8,4,5,8.8,10.2,8.4
	c2.1-0.2,3.9-1.2,6-1.6c6.2-1.1,11.2,3.8,14,8.3c0.8,1.3,1.9,2.8,3.6,3c1.1,0.2,2.3-0.2,3.4-0.6c3.8-1.3,7.5-2.7,11.3-4
	c4.9-1.7,8.6-3.9,13-6.3c2.5,2,6.3,2.7,9.8,3.1c15.2,2.1,30.5,3.6,45.8,4.5c2.1,0.1,4.4,0.1,6.1-0.9c2.8-1.8,1.7-5.3,0.4-8
	c8.3-0.2,16.7-0.3,25-0.2c2.1,0,4.4,0.1,6.2,1c1.8,0.9,2.9,2.5,4.3,3.9c4.3,4.2,12.1,5.8,18.3,3.8c9.5,8.8,17.7,18.5,24.3,28.9
	c0.9-2.9,2-6.1,4.9-8c2.9-2,8.2-1.9,9.7,0.9c0.8,1.5,0.4,3.2,1.3,4.6c2.4,3.4,8.8,1.2,13.8,1.4c9.6,0.4,15.8,11.6,25,9.7
	c-1.1-4.2-3.3-8.2-6.3-11.8c5.4,0.8,11.4-1.1,14.7-4.7c3.2-3.6,3.5-8.8,0.7-12.6c5.1-2.4,10.2,2.6,14.4,5.8
	c4.9,3.7,11.9,5.4,18.5,4.6c4.7-0.6,9-2.3,13.6-3.2c12-2.2,24.4,1.9,36.6,1.2c13-0.7,27.8-6.3,37.9,0.2c-1.5-0.8-0.4-3,1.5-3.3
	c1.8-0.3,3.6,0.5,5.2,1.4c-1.2-4.4,3.9-9.1,9.5-8.8c0.4,2.8,2,5.5,4.3,7.6c2.8-1.8,6.5-2.6,10.1-2.3c-0.6,3.2,0,6.6,1.9,9.4
	c3.6-3.7,8.7-6.9,14.6-7.1c5.9-0.2,12,3.9,11.2,8.6c3.2-3.2,8.6-4.8,13.6-3.9c0.4-2.9,0.9-5.8,1.3-8.7c4.8,3.2,11.8,0.1,16.8-2.9
	c5-2.9,12.6-5.6,16.7-1.8c2.9,2.6,7.4,6.2,11.6,5.2c4.2-1.1,7.5-3.5,11.5-4.9c5.4-1.8,11.4-1.6,17.2-1.4c9.6,0.4,19.7,0.9,27.7,5.1
	c3.6,1.9,7.4,4.6,11.6,3.9c2.7-0.5,4.8-2.3,7.4-2.8c3.3-0.7,6.6,0.8,9.7,1.9c3.1,1.1,7.4,1.5,9.4-0.7c0.9-0.9,1.3-2.2,2.4-2.8
	c2.6-1.6,6.3,0.8,9.5,0.2c2.8-0.6,3.9-3.2,5.8-5c5.1-4.6,14.4-1.9,21.1,1.1c0.1-1.6,0.2-3.2,0.3-4.8c4.5,4.5,13.8,3.1,19.9-0.2
	c6-3.3,10.9-8.1,17.9-9.9c3.3,3.6,7.5,6.7,12.4,8.9c-0.1-4.6,0.4-9.3,1.2-14c7.9,0.5,15.8,1,23.6,1.4c5.1,0.3,11.5,0.1,13.7-3.6
	c3.7,0.7,2.5,6.3,6.2,7c1.3,0.3,2.7-0.3,3.9-0.9c3.2-1.5,6.5-3,9.8-4.5c2.4,4.3,6.2,8.2,10.8,11.1c2,1.3,4.7,2.5,7.1,1.8
	c3.1-0.8,4.1-3.8,6.2-5.8c2.8-2.5,7.6-3.1,11.7-2.2c4,0.9,7.6,2.9,11,4.8c7.2,4.2,14.4,8.3,21.6,12.4c3.8,2.2,8.7,4.5,13,3
	c9.7-3.4,22.7,1.5,24.9,9.8c3.3-1.6,6.6-3.2,9.9-4.7c2,2.1,3.4,4.5,4.2,7c3.2-2.2,6.9-4.6,11.1-4.1c2.2,0.3,4.1,1.3,6.1,2.1
	c5,1.9,11.1,1.7,16-0.4c3.4-1.4,6-5.8,2.5-7.3c5.6-2.2,12.9-1.4,17.4,1.9c2.2,1.6,3.8,3.6,6.1,5.1c2.3,1.4,5.8,2.2,8.1,0.7
	c2.5-1.5,2.6-4.8,5.2-6.2c3.8-2,8.2,1.5,12.6,2.4c4,0.8,8.2-0.8,11.1-3.2c2.8-2.4,4.4-5.5,6-8.5c4.2,1.8,8.4,3.6,12.6,5.5
	c0-1.6,0.1-3.2,0.2-4.8c3.8-0.1,7.6-0.2,11.5-0.4c0.4-1.3,0.8-2.6,1.3-3.9c2.8,0.7,5.9,1.3,8.4,0.3c2.6-1,3.3-4.6,0.6-5.4
	c1.8-2.6,5.2-3.6,8.8-3.1c3.6,0.5,6.6,2.9,7.2,5.7c2.5-2,5.6-3.5,9-4.3c1.2-0.3,2.7-0.5,3.7,0.2c2.4,1.7-1.8,4.3-2.6,6.8
	c-0.8,2.3,2,4.7,5,5.1c3,0.4,6-0.5,8.8-1.5c-0.6,2.5,0.1,5.4,2.5,7.2c2.3,1.8,6.5,2.1,8.8,0.2c3.8-3.1,1.3-10,6.4-11.5
	c4.9-1.4,8.2,4.6,13.2,5.5c1.1-3.3,1.4-6.8,0.7-10.2c5.9,2.6,13.8,1.9,19-1.6c2.2-1.5,4.5-3.7,7.3-3.4c4.4,0.4,7,6.2,11.2,4.8
	c1-1.4,1.5-3,1.4-4.6c3.1,1.1,7.5,2,9.4-0.2c0.6-0.7,0.8-1.6,1.3-2.4c2-2.9,7.6-2.1,11.3-0.5c3.7,1.6,8.1,3.6,11.7,1.9
	c1.2-0.6,2.1-1.5,3.1-2.3c4.6-3.8,11.6-5.1,18.2-6.1c6.5-1,12.9-2.1,19.4-3.1c3.6-0.6,7.3-1.1,10.8-0.2c3.3,0.9,6.1,3.1,9.6,3.5
	c5.8,0.6,10.1-3.7,14.5-6.8c6.5-4.5,15-6.5,23.2-8.5c1.8-0.4,3.7-0.9,5.6-0.6c2.2,0.3,4,1.5,6,2.4c3.3,1.5,7.3,2.1,11,1.6
	c2-2.6-2-6-0.7-8.9c0.8-1.9,3.5-2.7,5.6-3.8c4.6-2.6,6.4-7.9,4.1-12c3.8-0.6,7.5-1.2,11.3-1.7c4.6-0.7,10.8,6.6,15,5
	c1.9-0.6,2.6-2.4,3.3-4c1.5-3.4,3.7-6.7,7.2-8.9c3.6-2.2,8.5-3.1,12.6-1.7c2.8,1,4.9,3,7.8,3.8c2.9,0.8,7.1-0.7,6.4-3.1
	c3.1,2.4,9.5-0.2,8.7-3.7c2.3,1.1,4.6,2.1,7,3.2c1.1,0.5,2.3,1.1,3.6,0.9c1.2-0.1,2.4-1.3,1.7-2.2c2.8,2.8,8.1,0.3,12.5-0.5
	c3.1-0.6,6.4-0.1,9.6,0.4c4.4,0.7,8.8,1.4,13.2,2.1c1.3,0.2,2.7,0.4,3.7,1.2c1.9,1.5,1.6,4.2,3.8,5.3c1.8,1,4.3,0.2,6.4-0.5
	c8.6-2.7,18.8-2.2,26.9,1.5c-2.1,3.7-3.4,7.7-3.9,11.8c5-1.7,10.8-2,16-0.8c1.9,0.5,4,1.1,5.7,0.4c2.8-1.2,2.3-4.6,4.2-6.6
	c2.9-3.2,9-1.2,13.8-0.2c8.1,1.6,16.5-0.8,23.9-3.8c1.8,2.3,3.6,4.6,6.3,6.2c2.7,1.6,6.5,2.2,9.4,0.9c2.6-1.2,3.9-3.6,6.1-5.3
	c2.2-1.6,6.7-1.9,7.5,0.5c-0.5-4.8,7.7-7.6,13.3-5.7c5.6,1.8,9,6.2,12.7,10c3.7,3.8,8.9,7.5,14.9,7c-0.8,3.3,3.6,6.7,7.6,5.8
	c2.4-0.5,4.2-2,6.2-3.1c4-2.2,9.3-3,14-2c3.5-0.8,6.5-2.7,9-4.8c2.4-2.2,6.2-4,9.5-2.9c1.6,0.6,3.1,2,4.9,1.7
	c3.5-0.5,1.8-5.4,4.5-7.2c6,2.8,11.2,6.8,14.8,11.6c0.4-4.3,0.9-8.5,1.3-12.8c0.2-1.7,0.5-3.6,2.2-4.7c2.4-1.5,6-0.3,8.7-1.4
	c4.1-1.6,3.2-6.5,5.4-9.7c2.2-3.1,8.1-4.1,11.7-2c-1.9,2-3.9,4.2-4.4,6.7c-0.5,2.5,1,5.5,4.1,6.2c1.2,0.2,2.4,0.1,3.6,0.5
	c5.5,1.5,1.8,8.8,5.2,12.7c2.1,2.5,6.7,2.7,10.4,2.1c3.7-0.6,7.5-1.7,11.2-1.1c4.1,0.7,7.2,3.5,11.2,4.3c6.9,1.4,15.4-3.1,20.9,0.7
	c-0.4,4.2-0.7,8.7,1.7,12.5c2.4,3.8,8.4,6.4,13.1,4.4c2.5-1,4.2-3.2,6.9-4c4.1-1.1,8.9,2.5,7.6,5.8c1.5-1.6,3-3.2,4.4-4.7
	c1.9,1.5,5.6,0.8,6.6-1.1c2.2,4,7.4,6.9,12.9,7c5.2,2.9,14.5-1.3,18.7,2.4c2.1,1.9,2.5,5.4,5.5,5.6c2.9,0.3,4.6-2.9,7.5-3.4
	c1.1-0.2,2.3,0,3.4,0.2c18.5,3.7,37,7.4,55.5,11.1c5.2,1,10.7,2.2,14.1,5.5c2.8,2.7,3.6,6.3,5.1,9.6c1.5,3.3,4.3,6.7,8.6,7.3
	c5.2,0.6,10.3-3,15.3-1.7c1.7,0.5,3.2,1.5,4.5,2.6c6.4,4.9,12.6,10,18.7,15.2c0.6-4.3,1.1-8.6,1.7-12.8c1.4-0.3,3-0.1,4.3,0.5
	c-0.4-1.3-0.8-2.6-1.1-3.9c2.4,1.6,5.5,2.7,8.7,3c0.3-4.6,0.5-9.3,0.8-14c16.4-3.6,32.1-9.3,46.4-16.8c5.7-3,13.4-6.3,18.9-3
	c4.1,2.5,6.4,8.4,11.4,7.4c2.4-0.4,3.8-2.4,5.7-3.7c3.7-2.4,8.9-2.1,13.6-1.8c14.2,0.7,28.6-0.9,42-4.6c-1.8-1.9,0-5,2.8-5.9
	c2.9-0.8,6.1,0,8.7,1.3c-0.6,2.8,5.7,5.4,9.4,5.2c3.6-0.1,7.4-1.2,10.6,0.1c4.1,1.7,4.7,6.1,6.3,9.5c1.7,3.4,7.6,6.5,10.4,3.5
	c1.1-1.2,1.1-3.1,2.6-4.1c3.9-2.5,8,4.4,12.9,3.9c4-0.4,4.7-5.2,8.4-6.7c3.2-1.4,7.1,0.5,9.2,2.9c2.1,2.3,3.5,5.2,6.2,7
	c2.8,1.8,8,1.8,9.1-0.9c1.4,1.5,3.4,2.7,5.8,3.3c0.9-2,1.9-4.1,2.8-6.1c1.9,6.9,12.1,9.6,20.7,11.1c-2-3.2,2.5-6.9,7-7.5
	c4.5-0.6,9.1,0.4,13.6-0.2c8.8-1.3,16.4-9,24.8-6.5c2.1,0.7,3.9,1.9,5.9,2.8c6.4,2.9,15.4,1.3,19.7-3.4c2.8,3.7,4.5,7.8,5,12.1
	c5.2-4,12.6-6.2,19.8-5.9c4.7,0.2,10.6,1.1,13.2-2.1c2.1,1.3,4.2,2.7,6.3,4c1.3-1.4,2.6-2.8,4-4.2c3.6,3,7.3,6,11,9
	c1.2-2.8,1.5-5.9,0.6-8.8c11.9,1.8,18.8,11.6,24.1,20.3c0.6,0.9,1.3,2,2.6,2.3c1.7,0.4,3.3-0.7,4.6-1.5c10.7-7.1,25.7-7.9,39.5-8.3
	c5.1-0.2,11.1,0,14.1,3.3c2-1,4.9-0.4,6.2,1.1c0.5-1.6,1.1-3.3,1.7-4.9c3.4,2,8.4,1.9,11.7-0.2c2.4,1.6,4.7,3.2,7.1,4.8
	c0.7,0.5,1.6,1.1,2.6,0.9c1.6-0.2,1.8-1.9,2.6-3c2.3-3.2,8.2-1.6,12.3,0.1c4,1.6,10.8,2,11.5-1.6c4.2-2.2,8.5-3.4,12.7-5.6
	c2.7,2.1,5.7,3.9,8.9,5.4c0.6,0.3,1.4,0.6,2.2,0.5c2-0.2,2.1-2.5,2.9-4.1c1.4-2.9,6.2-3.5,10.1-3.7c5.8-0.2,11.6-0.5,17.3-0.7
	c2.3-0.1,4.9-0.3,6.4-1.7c1.2-1.2,1.4-2.8,1.4-4.3c0-4.1-0.9-8.3-2.5-12.1c3.3,1.4,6.9,2.9,10.6,2.8c3.8-0.1,7.8-2.2,8-5.2
	c1.3,0.5,2.7,1,4,1.5c0.6-1,0.9-2.1,0.7-3.2c2.5,0.4,5,0.8,7.5,1.2c0.6-3,0.7-6,0.6-9c2.6,1.2,5.4,2.1,8.4,2.5
	c0.4-2.5,0.9-4.9,1.3-7.4c9.3,1.1,18.9,0.9,28.2-0.7c-2.7,6.4-6,12.5-9.8,18.5c5.9-2.7,11.9-5.4,17.9-8.1
	c5.8-2.6,12.6-6.6,11.8-11.9c1.8,1.9,3.8,3.8,6.5,4.8c2.7,1,6.5,0.7,8.1-1.4c4.2,1.9,9.5,3.9,13.6,1.9c1.6-0.8,2.7-2,4.1-3
	c3-2.1,7.2-2.8,11-1.9c6.4-2.5,16,1.7,20.3,6.2c1.3,1.5,3.1,3.4,5.3,2.8c2.5-0.7,2-3.9,4-5.1c3.3-2,8.1,2.6,11.6,1
	c2.8-1.2,1.9-5.1,4.4-6.6c4.1-2.5,11.1,3.6,14.5,0.5c0.8-0.8,1-1.9,2-2.5c1.9-1.3,4.6,0.4,6.8,1.3c4.5,1.9,10.8,0.3,13-3.3
	c1.9,3.5,7.7,4.5,12.4,3.7c4.7-0.8,8.9-2.9,13.6-3.6c3.2-0.5,6.5-0.3,9.6-0.9c3.1-0.6,6.3-2.2,7-4.7c1.5,1.7,3.1,3.4,4.6,5.1
	c1.2-0.4,2.2-1.2,2.6-2.2c1.3,3.1,7.8,3.4,9.5,0.4c2,1.7,3.9,3.4,5.9,5.1c1.1-0.4,2.1-1,2.7-1.9c1.4,3.3,2.8,6.6,5.4,9.3
	c2.7,2.7,6.9,4.7,11.2,4.2c5.8-0.7,9.3-5.2,12.7-9c3.4-3.8,9-7.5,14.4-5.9c2.1,0.7,3.7,2.1,5.2,3.5c4.4,4.4,8.2,9.2,11.2,14.3
	c3.5-4.5,7-8.9,10.5-13.4c1-1.4,3.9-2.6,4.6-1.1c0.5-1.3,1.1-2.6,1.6-3.9c2,2.7,5.7,4.5,9.6,4.6c-2.3-2.3,2.2-5.4,5.9-5.1
	c3.7,0.3,7.3,2.1,10.9,1.5c2.5-0.4,4.7-2.1,7.3-2.1c3.7,0,6,3,7.9,5.6c1.9,2.5,5,5.3,8.5,4.4c4.3-1.1,9.8,1.5,12.5,4.3
	c1,0.9,2.2,2.2,3.7,1.9c2-0.5,1.5-2.9,2.9-4.2c1.4-1.3,4-0.7,5.9,0.2c1.8,0.8,4.1,1.8,6,1c1.3-0.5,1.9-1.7,3.2-2.3
	c3.5-1.6,7.1,2.7,11.1,2.4c1.8-0.1,3.5-1.2,5.2-0.9c1.4,0.3,2.4,1.5,3.8,1.8c2.6,0.6,4.6-1.8,7.1-2.7c2.1-0.7,4.8-0.2,6.3,1.2
	l0.2-271L0,1L0.1,317.8z"/>
<path class="elementor-shape-fill ha-shape-divider" d="M0.1,251.7c29.8-4.8,60.4-5.8,90.6-3.2c-3.6,7.1,11.8,11.3,20,7.1c8.2-4.2,12.8-12,21.6-15.2c18.8-6.9,44.1,10.6,60.4,0.5
	c-1.3,17.1,23,29.1,45,30.3c22,1.2,44-4.2,66-3.1c15.7,0.8,31.1,5,44,12.1c3.1,1.7,6.1,3.6,9.9,4c5.3,0.7,10.3-1.6,15.2-3.5
	c15.4-5.7,33.8-6.6,50-2.3c22,5.8,44.6,20.7,65.3,12.5c11.8-4.8,18.4-16.1,31.3-18.5c6.1-1.1,12.5,0.1,18.6,1.2
	c37.4,7.3,74.9,14.5,112.3,21.7c9.1-4.8,21.7-5.2,31.3-1c13-14.8,31.9-26.5,53.4-32.9c12.1,9.2,32.3,11.1,46.9,4.4
	c4-1.8,7.6-4.3,11.9-5.6c4.7-1.5,9.8-1.6,14.7-2c25.2-2.3,48.6-14.6,60.8-31.8c5.4,6.9,15.8,11.5,26.2,11
	c10.4-0.5,20.3-6.4,22.8-14.3c19.1,6.3,40.8,7.8,60.9,4c10,3.6,22.7,2.3,31.1-3.3c4.5-3,14-1.6,19.6-3c2.8,3.5,7.3,6.1,12.4,7.1
	c6.2-2.7,13.2-4.2,20.2-4.6c24.5-1.2,50.9,11.7,72.3,2.2c7.9,10.3,26.2,11.3,41.7,11c4.7-0.1,9.3-0.1,14-0.2
	c13.2-0.1,29.4-2,33.7-11.7c11.7,18.4,52.2,17.8,60.6,37.4c3.9-1.3,7.8-2.5,11.7-3.8c3.4,2.5,6.9,5.1,10.4,7.7
	c5.5-4.9,12-10.2,20.4-10.4c3.2-0.1,6.5,0.7,9.6,0c2.4-0.6,4.4-2,6.2-3.4c8.9-6.7,17.8-13.4,26.8-20c9,9.9,23.3,16.8,38.8,18.7
	c15,1.9,30.3-0.8,44.4-5.1c4-8.3,9.6-15.4,13.6-23.7c17.8-2.5,35.6-5.1,53.4-7.6c3.8-0.6,7.6-1.1,10.9-2.6c3.2-1.4,5.7-3.6,8.9-5.1
	c12.7-6,28.4,1.5,40.1,8.6c11.7,7,27.9,14.2,40.2,7.7c4.5-2.4,8.1-6.4,13.5-6.5c2.4,0,4.7,0.9,6.9,1.7c11.7,4.9,22.5,11.1,31.7,18.5
	c2.9,2.3,5.8,4.8,9.5,6.3c4.3,1.7,9.2,1.9,13.9,2.7c8.6,1.5,16.2,5.2,24.7,6.9c8.5,1.8,18.9,1,24-4.6c8.7,7.1,23.9,4.5,35.9,1.4
	c8.8-2.3,17.6-4.6,26.3-6.9c3.3-0.8,6.9-1.7,10.1-0.7c6,1.9,8.9,9.6,15.1,8.1c3.6-0.9,4.6-4.4,6.3-7c1.7-2.6,7.5-4.3,8.7-1.5
	c15.6,2.5,33.3,7.3,45.1,15.5c3.1-2.6,6.2-5.2,9.3-7.9c20.4,10.6,48.7,11.3,69.9,1.6c7.1-3.2,17.1-7.3,22.3-2.3
	c4.5-10.2,8.9-20.4,13.5-30.6c0.9-2,1.9-4.2,4.1-5.6c8.6-5.2,21,7.8,30.6,3.8c-4.9-9.5,6.1-21.5,19.2-21.1
	c11.1,0.3,19.5,7.5,26.6,14.1c10.3-9.7,26.4-15.5,42.6-15.3c4.5,6.7,8.9,13.5,13.3,20.2c5.1-7,10.3-14,15.4-21
	c3.3,1.3,6.7,2.5,10,3.8c12.9-6.3,32.3,0.7,40.9,10.5c1.4-4.9,9.9-5.4,16.3-5.6c6.4-0.3,14.8-3.9,12.2-8.4
	c11.7,6.8,31.7-2.1,29.9-13.4c6.4,2.9,14.2,3.7,21.4,2.2c5.6,6.9,17.8,10.1,27.7,7.2c0.9-5.8,11.3-6.5,18.7-5.3
	c19.6,3.3,38.5,8.9,55.9,16.6c-1-7.8,9.2-14.7,19.3-14.5c10.1,0.2,19,5.8,23.8,12.8c2.8-5.2,6.6-10.1,11.1-14.4
	c14.3,12.8,37.1,19.6,58.7,17.4c4.7-0.4,9.6-1.2,13.9,0.2c10.2-11,20.4-22,30.5-33c2.4-2.6,5.1-5.4,9-6.6c6.7-2,14,1.6,19.2,5.5
	c5.1,3.9,10.2,8.6,17.3,9.5c7.1,0.9,15.3-5.4,11.1-10c6-0.1,12-0.3,18-0.5c15.1-0.4,31.8,8.4,33.7,20c7.1-0.2,14.1-2.5,19.1-6.5
	c5.3,4.4,9.6,9.6,12.5,15.1c4-2.1,7.9-4.2,11.8-6.3c1,3.8,2.2,7.9,6.1,10.2c3.5,2.2,9.9,1.6,11.6-1.4c-0.6,2.4,2.1,5.2,5.3,5.2
	c16.5,3.5,32.9,7,49.3,10.5c11,2.3,22.3,4.8,31.3,10.3c4.8,2.9,8.9,6.5,14.4,8.5c5.5,1.9,13.2,1.4,16.1-2.7c3,10,21.4,14.9,31.7,8.2
	c3.7,5.3,11.8,8.3,19.4,7.3c7.5-1,13.9-6,15.1-11.9c10.6,4.1,19.2,11,24.2,19.3c2.4,0.5,5.2-0.3,6.7-1.9c3.8,5.1,10.8,11.1,17.7,8.4
	c5.9-2.3,5.4-8.9,7.3-13.9c5.9-15.3,38.4-17.8,41.6-33.6c3,6,8.6,11.1,15.8,14.3c2.1-3.9,4.2-7.9,6.4-11.9c4.3,0.1,7.8-2.6,10.9-5
	c15.9-12.5,36.4-21.5,58.4-25.6c9.4,4.7,15.8,12.8,16.7,21.5c5-3.8,12.7-5.2,19.4-3.7c2.6-4.9,8.3-8.8,14.8-10.2
	c2.3-0.7,4.5,1,5.8,2.7c1.2,1.6,2.8,3.6,5.2,3.5c0.2,0,0.4,0,0.5-0.1c2.9,11.9,21.9,22.7,37.3,21.3c2.9,2.2,5.7,4.4,8.6,6.7
	c3.5-2.4,6.3-5.5,8-8.9c2,2.9,4.8,5.4,8.4,7.2c7.6-1.5,10.6-10.7,18.4-10.7c8,0,15.8,9.6,21.2,5c3.7,8.3,5.1,17.3,4,26.1
	c15.6-2.9,33.2,3.5,40.4,14.6c1.1,1.7,2,3.5,4,4.5c6.3,3,11.6-5,12-10.7c9.4,3.8,22.7-1.6,24.2-9.7c5.4,5.2,16.3-0.9,18.7-7.3
	c2.4-6.5,2.6-14.5,10-17.9c17.9,0.6,35.5,6.1,49.1,15.1c8.1-3.8,18.9-3.9,27.1-0.3c15.8-2.1,33.6-6.1,45-14.9
	c12.8-0.7,25.6,0.5,37.8,3.4c3.2-2.9,6.4-5.8,9.5-8.7c2.7,3.8,6.8,7,11.7,9.1c2.3-6.7,7.6-12.7,14.8-16.8c-2.5,4.8,6.2,9.5,12.5,7.6
	c6.2-1.8,9.4-7.2,10.9-12.3c1.5-5.1,2.1-10.5,5.8-14.8c2.9,5.3,10.5,8.8,17.9,8.1c7.3-0.6,13.8-5.3,15.2-10.9
	c17.4,14.2,34.7,28.3,52.1,42.5c2.6-2.2,5.2-4.5,7.8-6.7c4.5,5.1,11,9.2,18.3,11.6c1.3-1.9,2.6-3.8,3.9-5.7
	c8.5-0.6,17.1-1.2,25.7-1.9c2.3-0.2,4.9-0.4,6.7-1.6c2-1.2,2.8-3.3,3.5-5.2c2.7-7.8,5.4-15.6,8.1-23.3c-0.4,4.6,9.5,3.8,13.4,0.4
	c3.9-3.5,8.6-8.4,14-6.6c2.6,0.9,3.9,3.1,5.9,4.6c1.8,1.4,5.2,2,6.8,0.7c4.8,1.9,10.9,4.6,15,6.1c5.6,2.1,12.1,4.2,17.8,2.3
	c2.7-0.9,4.9-2.6,7.5-3.6c8.8-3.3,19.3,2.1,28.8,0.4c3.6-0.6,6.9-2.2,10.6-2.2c8,0.2,13.2,8,21.2,8c8.2,0,13.3-8.4,21.6-8.7
	c8-0.2,12.7,7,19.9,9.9c7.9,3.2,17.7,0.3,25-3.7c7.3-4,13.7-9.2,22.1-11.6c2-0.5,4.1-0.9,6.1-0.6c0.6,0.1,1.1,0.3,3.3,0.5l0.1-188
	L0,0L0.1,251.7z"/>
</svg>
